  0
SECTION
  2
BLOCKS
  0
ENDSEC
  0
SECTION
  2
ENTITIES
  0
LINE
  8
0
 10
68.13
 20
138.26
 11
0
 21
138.26
  0
LINE
  8
0
 10
0
 20
138.26
 11
0
 21
70.13
  0
LINE
  8
0
 10
0
 20
70.13
 11
68.13
 21
70.13
  0
LINE
  8
0
 10
68.13
 20
70.13
 11
68.13
 21
138.26
  0
LINE
  8
0
 10
60.13
 20
119.195
 11
60.13
 21
130.26
  0
LINE
  8
0
 10
60.13
 20
130.26
 11
49.065
 21
130.26
  0
LINE
  8
0
 10
49.065
 20
130.26
 11
49.065
 21
133.26
  0
LINE
  8
0
 10
49.065
 20
133.26
 11
63.13
 21
133.26
  0
LINE
  8
0
 10
63.13
 20
133.26
 11
63.13
 21
119.195
  0
LINE
  8
0
 10
63.13
 20
119.195
 11
60.13
 21
119.195
  0
LINE
  8
0
 10
4.99998
 20
119.195
 11
4.99998
 21
133.26
  0
LINE
  8
0
 10
4.99998
 20
133.26
 11
19.065
 21
133.26
  0
LINE
  8
0
 10
19.065
 20
133.26
 11
19.065
 21
130.26
  0
LINE
  8
0
 10
19.065
 20
130.26
 11
7.99998
 21
130.26
  0
LINE
  8
0
 10
7.99998
 20
130.26
 11
7.99998
 21
119.195
  0
LINE
  8
0
 10
7.99998
 20
119.195
 11
4.99998
 21
119.195
  0
LINE
  8
0
 10
25.065
 20
130.26
 11
25.065
 21
133.26
  0
LINE
  8
0
 10
25.065
 20
133.26
 11
31.065
 21
133.26
  0
LINE
  8
0
 10
31.065
 20
133.26
 11
31.065
 21
130.26
  0
LINE
  8
0
 10
31.065
 20
130.26
 11
25.065
 21
130.26
  0
LINE
  8
0
 10
37.065
 20
130.26
 11
37.065
 21
133.26
  0
LINE
  8
0
 10
37.065
 20
133.26
 11
43.065
 21
133.26
  0
LINE
  8
0
 10
43.065
 20
133.26
 11
43.065
 21
130.26
  0
LINE
  8
0
 10
43.065
 20
130.26
 11
37.065
 21
130.26
  0
LINE
  8
0
 10
38.67
 20
123.545
 11
38.67
 21
129.295
  0
LINE
  8
0
 10
38.67
 20
129.295
 11
53.77
 21
129.295
  0
LINE
  8
0
 10
53.77
 20
129.295
 11
53.77
 21
123.545
  0
LINE
  8
0
 10
53.77
 20
123.545
 11
38.67
 21
123.545
  0
LINE
  8
0
 10
56.0397
 20
124.84
 11
55.7956
 21
124.898
  0
LINE
  8
0
 10
55.7956
 20
124.898
 11
55.5636
 21
124.994
  0
LINE
  8
0
 10
55.5636
 20
124.994
 11
55.3495
 21
125.126
  0
LINE
  8
0
 10
55.3495
 20
125.126
 11
55.1586
 21
125.289
  0
LINE
  8
0
 10
55.1586
 20
125.289
 11
54.9956
 21
125.48
  0
LINE
  8
0
 10
54.9956
 20
125.48
 11
54.8644
 21
125.694
  0
LINE
  8
0
 10
54.8644
 20
125.694
 11
54.7683
 21
125.926
  0
LINE
  8
0
 10
54.7683
 20
125.926
 11
54.7097
 21
126.17
  0
LINE
  8
0
 10
54.7097
 20
126.17
 11
54.69
 21
126.42
  0
LINE
  8
0
 10
54.69
 20
126.42
 11
54.7097
 21
126.67
  0
LINE
  8
0
 10
54.7097
 20
126.67
 11
54.7683
 21
126.914
  0
LINE
  8
0
 10
54.7683
 20
126.914
 11
54.8644
 21
127.146
  0
LINE
  8
0
 10
54.8644
 20
127.146
 11
54.9956
 21
127.36
  0
LINE
  8
0
 10
54.9956
 20
127.36
 11
55.1586
 21
127.551
  0
LINE
  8
0
 10
55.1586
 20
127.551
 11
55.3495
 21
127.714
  0
LINE
  8
0
 10
55.3495
 20
127.714
 11
55.5636
 21
127.846
  0
LINE
  8
0
 10
55.5636
 20
127.846
 11
55.7956
 21
127.942
  0
LINE
  8
0
 10
55.7956
 20
127.942
 11
56.0397
 21
128
  0
LINE
  8
0
 10
56.0397
 20
128
 11
56.29
 21
128.02
  0
LINE
  8
0
 10
56.29
 20
128.02
 11
56.5403
 21
128
  0
LINE
  8
0
 10
56.5403
 20
128
 11
56.7844
 21
127.942
  0
LINE
  8
0
 10
56.7844
 20
127.942
 11
57.0164
 21
127.846
  0
LINE
  8
0
 10
57.0164
 20
127.846
 11
57.2305
 21
127.714
  0
LINE
  8
0
 10
57.2305
 20
127.714
 11
57.4214
 21
127.551
  0
LINE
  8
0
 10
57.4214
 20
127.551
 11
57.5844
 21
127.36
  0
LINE
  8
0
 10
57.5844
 20
127.36
 11
57.7156
 21
127.146
  0
LINE
  8
0
 10
57.7156
 20
127.146
 11
57.8117
 21
126.914
  0
LINE
  8
0
 10
57.8117
 20
126.914
 11
57.8703
 21
126.67
  0
LINE
  8
0
 10
57.8703
 20
126.67
 11
57.89
 21
126.42
  0
LINE
  8
0
 10
57.89
 20
126.42
 11
57.8703
 21
126.17
  0
LINE
  8
0
 10
57.8703
 20
126.17
 11
57.8117
 21
125.926
  0
LINE
  8
0
 10
57.8117
 20
125.926
 11
57.7156
 21
125.694
  0
LINE
  8
0
 10
57.7156
 20
125.694
 11
57.5844
 21
125.48
  0
LINE
  8
0
 10
57.5844
 20
125.48
 11
57.4214
 21
125.289
  0
LINE
  8
0
 10
57.4214
 20
125.289
 11
57.2305
 21
125.126
  0
LINE
  8
0
 10
57.2305
 20
125.126
 11
57.0164
 21
124.994
  0
LINE
  8
0
 10
57.0164
 20
124.994
 11
56.7844
 21
124.898
  0
LINE
  8
0
 10
56.7844
 20
124.898
 11
56.5403
 21
124.84
  0
LINE
  8
0
 10
56.5403
 20
124.84
 11
56.29
 21
124.82
  0
LINE
  8
0
 10
56.29
 20
124.82
 11
56.0397
 21
124.84
  0
LINE
  8
0
 10
11.5897
 20
124.84
 11
11.3456
 21
124.898
  0
LINE
  8
0
 10
11.3456
 20
124.898
 11
11.1136
 21
124.994
  0
LINE
  8
0
 10
11.1136
 20
124.994
 11
10.8995
 21
125.126
  0
LINE
  8
0
 10
10.8995
 20
125.126
 11
10.7086
 21
125.289
  0
LINE
  8
0
 10
10.7086
 20
125.289
 11
10.5455
 21
125.48
  0
LINE
  8
0
 10
10.5455
 20
125.48
 11
10.4144
 21
125.694
  0
LINE
  8
0
 10
10.4144
 20
125.694
 11
10.3183
 21
125.926
  0
LINE
  8
0
 10
10.3183
 20
125.926
 11
10.2597
 21
126.17
  0
LINE
  8
0
 10
10.2597
 20
126.17
 11
10.24
 21
126.42
  0
LINE
  8
0
 10
10.24
 20
126.42
 11
10.2597
 21
126.67
  0
LINE
  8
0
 10
10.2597
 20
126.67
 11
10.3183
 21
126.914
  0
LINE
  8
0
 10
10.3183
 20
126.914
 11
10.4144
 21
127.146
  0
LINE
  8
0
 10
10.4144
 20
127.146
 11
10.5455
 21
127.36
  0
LINE
  8
0
 10
10.5455
 20
127.36
 11
10.7086
 21
127.551
  0
LINE
  8
0
 10
10.7086
 20
127.551
 11
10.8995
 21
127.714
  0
LINE
  8
0
 10
10.8995
 20
127.714
 11
11.1136
 21
127.846
  0
LINE
  8
0
 10
11.1136
 20
127.846
 11
11.3456
 21
127.942
  0
LINE
  8
0
 10
11.3456
 20
127.942
 11
11.5897
 21
128
  0
LINE
  8
0
 10
11.5897
 20
128
 11
11.84
 21
128.02
  0
LINE
  8
0
 10
11.84
 20
128.02
 11
12.0903
 21
128
  0
LINE
  8
0
 10
12.0903
 20
128
 11
12.3344
 21
127.942
  0
LINE
  8
0
 10
12.3344
 20
127.942
 11
12.5664
 21
127.846
  0
LINE
  8
0
 10
12.5664
 20
127.846
 11
12.7804
 21
127.714
  0
LINE
  8
0
 10
12.7804
 20
127.714
 11
12.9713
 21
127.551
  0
LINE
  8
0
 10
12.9713
 20
127.551
 11
13.1344
 21
127.36
  0
LINE
  8
0
 10
13.1344
 20
127.36
 11
13.2656
 21
127.146
  0
LINE
  8
0
 10
13.2656
 20
127.146
 11
13.3617
 21
126.914
  0
LINE
  8
0
 10
13.3617
 20
126.914
 11
13.4203
 21
126.67
  0
LINE
  8
0
 10
13.4203
 20
126.67
 11
13.44
 21
126.42
  0
LINE
  8
0
 10
13.44
 20
126.42
 11
13.4203
 21
126.17
  0
LINE
  8
0
 10
13.4203
 20
126.17
 11
13.3617
 21
125.926
  0
LINE
  8
0
 10
13.3617
 20
125.926
 11
13.2656
 21
125.694
  0
LINE
  8
0
 10
13.2656
 20
125.694
 11
13.1344
 21
125.48
  0
LINE
  8
0
 10
13.1344
 20
125.48
 11
12.9713
 21
125.289
  0
LINE
  8
0
 10
12.9713
 20
125.289
 11
12.7804
 21
125.126
  0
LINE
  8
0
 10
12.7804
 20
125.126
 11
12.5664
 21
124.994
  0
LINE
  8
0
 10
12.5664
 20
124.994
 11
12.3344
 21
124.898
  0
LINE
  8
0
 10
12.3344
 20
124.898
 11
12.0903
 21
124.84
  0
LINE
  8
0
 10
12.0903
 20
124.84
 11
11.84
 21
124.82
  0
LINE
  8
0
 10
11.84
 20
124.82
 11
11.5897
 21
124.84
  0
LINE
  8
0
 10
4.99998
 20
107.195
 11
4.99998
 21
113.195
  0
LINE
  8
0
 10
4.99998
 20
113.195
 11
7.99998
 21
113.195
  0
LINE
  8
0
 10
7.99998
 20
113.195
 11
7.99998
 21
107.195
  0
LINE
  8
0
 10
7.99998
 20
107.195
 11
4.99998
 21
107.195
  0
LINE
  8
0
 10
60.13
 20
107.195
 11
60.13
 21
113.195
  0
LINE
  8
0
 10
60.13
 20
113.195
 11
63.13
 21
113.195
  0
LINE
  8
0
 10
63.13
 20
113.195
 11
63.13
 21
107.195
  0
LINE
  8
0
 10
63.13
 20
107.195
 11
60.13
 21
107.195
  0
LINE
  8
0
 10
60.13
 20
95.195
 11
60.13
 21
101.195
  0
LINE
  8
0
 10
60.13
 20
101.195
 11
63.13
 21
101.195
  0
LINE
  8
0
 10
63.13
 20
101.195
 11
63.13
 21
95.195
  0
LINE
  8
0
 10
63.13
 20
95.195
 11
60.13
 21
95.195
  0
LINE
  8
0
 10
4.99998
 20
95.195
 11
4.99998
 21
101.195
  0
LINE
  8
0
 10
4.99998
 20
101.195
 11
7.99998
 21
101.195
  0
LINE
  8
0
 10
7.99998
 20
101.195
 11
7.99998
 21
95.195
  0
LINE
  8
0
 10
7.99998
 20
95.195
 11
4.99998
 21
95.195
  0
LINE
  8
0
 10
49.065
 20
75.13
 11
49.065
 21
78.13
  0
LINE
  8
0
 10
49.065
 20
78.13
 11
60.13
 21
78.13
  0
LINE
  8
0
 10
60.13
 20
78.13
 11
60.13
 21
89.195
  0
LINE
  8
0
 10
60.13
 20
89.195
 11
63.13
 21
89.195
  0
LINE
  8
0
 10
63.13
 20
89.195
 11
63.13
 21
75.13
  0
LINE
  8
0
 10
63.13
 20
75.13
 11
49.065
 21
75.13
  0
LINE
  8
0
 10
4.99998
 20
75.13
 11
4.99998
 21
89.195
  0
LINE
  8
0
 10
4.99998
 20
89.195
 11
7.99998
 21
89.195
  0
LINE
  8
0
 10
7.99998
 20
89.195
 11
7.99998
 21
78.13
  0
LINE
  8
0
 10
7.99998
 20
78.13
 11
19.065
 21
78.13
  0
LINE
  8
0
 10
19.065
 20
78.13
 11
19.065
 21
75.13
  0
LINE
  8
0
 10
19.065
 20
75.13
 11
4.99998
 21
75.13
  0
LINE
  8
0
 10
17.48
 20
82.65
 11
17.48
 21
85.1
  0
LINE
  8
0
 10
17.48
 20
85.1
 11
35.34
 21
85.1
  0
LINE
  8
0
 10
35.34
 20
85.1
 11
35.34
 21
82.65
  0
LINE
  8
0
 10
35.34
 20
82.65
 11
17.48
 21
82.65
  0
LINE
  8
0
 10
11.5897
 20
80.3897
 11
11.3456
 21
80.4483
  0
LINE
  8
0
 10
11.3456
 20
80.4483
 11
11.1136
 21
80.5444
  0
LINE
  8
0
 10
11.1136
 20
80.5444
 11
10.8995
 21
80.6756
  0
LINE
  8
0
 10
10.8995
 20
80.6756
 11
10.7086
 21
80.8386
  0
LINE
  8
0
 10
10.7086
 20
80.8386
 11
10.5455
 21
81.0295
  0
LINE
  8
0
 10
10.5455
 20
81.0295
 11
10.4144
 21
81.2436
  0
LINE
  8
0
 10
10.4144
 20
81.2436
 11
10.3183
 21
81.4756
  0
LINE
  8
0
 10
10.3183
 20
81.4756
 11
10.2597
 21
81.7197
  0
LINE
  8
0
 10
10.2597
 20
81.7197
 11
10.24
 21
81.97
  0
LINE
  8
0
 10
10.24
 20
81.97
 11
10.2597
 21
82.2203
  0
LINE
  8
0
 10
10.2597
 20
82.2203
 11
10.3183
 21
82.4644
  0
LINE
  8
0
 10
10.3183
 20
82.4644
 11
10.4144
 21
82.6964
  0
LINE
  8
0
 10
10.4144
 20
82.6964
 11
10.5455
 21
82.9104
  0
LINE
  8
0
 10
10.5455
 20
82.9104
 11
10.7086
 21
83.1013
  0
LINE
  8
0
 10
10.7086
 20
83.1013
 11
10.8995
 21
83.2644
  0
LINE
  8
0
 10
10.8995
 20
83.2644
 11
11.1136
 21
83.3956
  0
LINE
  8
0
 10
11.1136
 20
83.3956
 11
11.3456
 21
83.4917
  0
LINE
  8
0
 10
11.3456
 20
83.4917
 11
11.5897
 21
83.5503
  0
LINE
  8
0
 10
11.5897
 20
83.5503
 11
11.84
 21
83.57
  0
LINE
  8
0
 10
11.84
 20
83.57
 11
12.0903
 21
83.5503
  0
LINE
  8
0
 10
12.0903
 20
83.5503
 11
12.3344
 21
83.4917
  0
LINE
  8
0
 10
12.3344
 20
83.4917
 11
12.5664
 21
83.3956
  0
LINE
  8
0
 10
12.5664
 20
83.3956
 11
12.7804
 21
83.2644
  0
LINE
  8
0
 10
12.7804
 20
83.2644
 11
12.9713
 21
83.1013
  0
LINE
  8
0
 10
12.9713
 20
83.1013
 11
13.1344
 21
82.9104
  0
LINE
  8
0
 10
13.1344
 20
82.9104
 11
13.2656
 21
82.6964
  0
LINE
  8
0
 10
13.2656
 20
82.6964
 11
13.3617
 21
82.4644
  0
LINE
  8
0
 10
13.3617
 20
82.4644
 11
13.4203
 21
82.2203
  0
LINE
  8
0
 10
13.4203
 20
82.2203
 11
13.44
 21
81.97
  0
LINE
  8
0
 10
13.44
 20
81.97
 11
13.4203
 21
81.7197
  0
LINE
  8
0
 10
13.4203
 20
81.7197
 11
13.3617
 21
81.4756
  0
LINE
  8
0
 10
13.3617
 20
81.4756
 11
13.2656
 21
81.2436
  0
LINE
  8
0
 10
13.2656
 20
81.2436
 11
13.1344
 21
81.0295
  0
LINE
  8
0
 10
13.1344
 20
81.0295
 11
12.9713
 21
80.8386
  0
LINE
  8
0
 10
12.9713
 20
80.8386
 11
12.7804
 21
80.6756
  0
LINE
  8
0
 10
12.7804
 20
80.6756
 11
12.5664
 21
80.5444
  0
LINE
  8
0
 10
12.5664
 20
80.5444
 11
12.3344
 21
80.4483
  0
LINE
  8
0
 10
12.3344
 20
80.4483
 11
12.0903
 21
80.3897
  0
LINE
  8
0
 10
12.0903
 20
80.3897
 11
11.84
 21
80.37
  0
LINE
  8
0
 10
11.84
 20
80.37
 11
11.5897
 21
80.3897
  0
LINE
  8
0
 10
56.0397
 20
80.3897
 11
55.7956
 21
80.4483
  0
LINE
  8
0
 10
55.7956
 20
80.4483
 11
55.5636
 21
80.5444
  0
LINE
  8
0
 10
55.5636
 20
80.5444
 11
55.3495
 21
80.6756
  0
LINE
  8
0
 10
55.3495
 20
80.6756
 11
55.1586
 21
80.8386
  0
LINE
  8
0
 10
55.1586
 20
80.8386
 11
54.9956
 21
81.0295
  0
LINE
  8
0
 10
54.9956
 20
81.0295
 11
54.8644
 21
81.2436
  0
LINE
  8
0
 10
54.8644
 20
81.2436
 11
54.7683
 21
81.4756
  0
LINE
  8
0
 10
54.7683
 20
81.4756
 11
54.7097
 21
81.7197
  0
LINE
  8
0
 10
54.7097
 20
81.7197
 11
54.69
 21
81.97
  0
LINE
  8
0
 10
54.69
 20
81.97
 11
54.7097
 21
82.2203
  0
LINE
  8
0
 10
54.7097
 20
82.2203
 11
54.7683
 21
82.4644
  0
LINE
  8
0
 10
54.7683
 20
82.4644
 11
54.8644
 21
82.6964
  0
LINE
  8
0
 10
54.8644
 20
82.6964
 11
54.9956
 21
82.9104
  0
LINE
  8
0
 10
54.9956
 20
82.9104
 11
55.1586
 21
83.1013
  0
LINE
  8
0
 10
55.1586
 20
83.1013
 11
55.3495
 21
83.2644
  0
LINE
  8
0
 10
55.3495
 20
83.2644
 11
55.5636
 21
83.3956
  0
LINE
  8
0
 10
55.5636
 20
83.3956
 11
55.7956
 21
83.4917
  0
LINE
  8
0
 10
55.7956
 20
83.4917
 11
56.0397
 21
83.5503
  0
LINE
  8
0
 10
56.0397
 20
83.5503
 11
56.29
 21
83.57
  0
LINE
  8
0
 10
56.29
 20
83.57
 11
56.5403
 21
83.5503
  0
LINE
  8
0
 10
56.5403
 20
83.5503
 11
56.7844
 21
83.4917
  0
LINE
  8
0
 10
56.7844
 20
83.4917
 11
57.0164
 21
83.3956
  0
LINE
  8
0
 10
57.0164
 20
83.3956
 11
57.2305
 21
83.2644
  0
LINE
  8
0
 10
57.2305
 20
83.2644
 11
57.4214
 21
83.1013
  0
LINE
  8
0
 10
57.4214
 20
83.1013
 11
57.5844
 21
82.9104
  0
LINE
  8
0
 10
57.5844
 20
82.9104
 11
57.7156
 21
82.6964
  0
LINE
  8
0
 10
57.7156
 20
82.6964
 11
57.8117
 21
82.4644
  0
LINE
  8
0
 10
57.8117
 20
82.4644
 11
57.8703
 21
82.2203
  0
LINE
  8
0
 10
57.8703
 20
82.2203
 11
57.89
 21
81.97
  0
LINE
  8
0
 10
57.89
 20
81.97
 11
57.8703
 21
81.7197
  0
LINE
  8
0
 10
57.8703
 20
81.7197
 11
57.8117
 21
81.4756
  0
LINE
  8
0
 10
57.8117
 20
81.4756
 11
57.7156
 21
81.2436
  0
LINE
  8
0
 10
57.7156
 20
81.2436
 11
57.5844
 21
81.0295
  0
LINE
  8
0
 10
57.5844
 20
81.0295
 11
57.4214
 21
80.8386
  0
LINE
  8
0
 10
57.4214
 20
80.8386
 11
57.2305
 21
80.6756
  0
LINE
  8
0
 10
57.2305
 20
80.6756
 11
57.0164
 21
80.5444
  0
LINE
  8
0
 10
57.0164
 20
80.5444
 11
56.7844
 21
80.4483
  0
LINE
  8
0
 10
56.7844
 20
80.4483
 11
56.5403
 21
80.3897
  0
LINE
  8
0
 10
56.5403
 20
80.3897
 11
56.29
 21
80.37
  0
LINE
  8
0
 10
56.29
 20
80.37
 11
56.0397
 21
80.3897
  0
LINE
  8
0
 10
25.065
 20
75.13
 11
25.065
 21
78.13
  0
LINE
  8
0
 10
25.065
 20
78.13
 11
31.065
 21
78.13
  0
LINE
  8
0
 10
31.065
 20
78.13
 11
31.065
 21
75.13
  0
LINE
  8
0
 10
31.065
 20
75.13
 11
25.065
 21
75.13
  0
LINE
  8
0
 10
37.065
 20
75.13
 11
37.065
 21
78.13
  0
LINE
  8
0
 10
37.065
 20
78.13
 11
43.065
 21
78.13
  0
LINE
  8
0
 10
43.065
 20
78.13
 11
43.065
 21
75.13
  0
LINE
  8
0
 10
43.065
 20
75.13
 11
37.065
 21
75.13
  0
LINE
  8
0
 10
142.31
 20
63.13
 11
148.31
 21
63.13
  0
LINE
  8
0
 10
148.31
 20
63.13
 11
148.31
 21
60.13
  0
LINE
  8
0
 10
148.31
 20
60.13
 11
160.36
 21
60.13
  0
LINE
  8
0
 10
160.36
 20
60.13
 11
160.36
 21
74.195
  0
LINE
  8
0
 10
160.36
 20
74.195
 11
157.36
 21
74.195
  0
LINE
  8
0
 10
157.36
 20
74.195
 11
157.36
 21
80.195
  0
LINE
  8
0
 10
157.36
 20
80.195
 11
160.36
 21
80.195
  0
LINE
  8
0
 10
160.36
 20
80.195
 11
160.36
 21
86.195
  0
LINE
  8
0
 10
160.36
 20
86.195
 11
157.36
 21
86.195
  0
LINE
  8
0
 10
157.36
 20
86.195
 11
157.36
 21
92.195
  0
LINE
  8
0
 10
157.36
 20
92.195
 11
160.36
 21
92.195
  0
LINE
  8
0
 10
160.36
 20
92.195
 11
160.36
 21
98.195
  0
LINE
  8
0
 10
160.36
 20
98.195
 11
157.36
 21
98.195
  0
LINE
  8
0
 10
157.36
 20
98.195
 11
157.36
 21
104.195
  0
LINE
  8
0
 10
157.36
 20
104.195
 11
160.36
 21
104.195
  0
LINE
  8
0
 10
160.36
 20
104.195
 11
160.36
 21
118.26
  0
LINE
  8
0
 10
160.36
 20
118.26
 11
148.31
 21
118.26
  0
LINE
  8
0
 10
148.31
 20
118.26
 11
148.31
 21
115.26
  0
LINE
  8
0
 10
148.31
 20
115.26
 11
142.31
 21
115.26
  0
LINE
  8
0
 10
142.31
 20
115.26
 11
142.31
 21
118.26
  0
LINE
  8
0
 10
142.31
 20
118.26
 11
130.26
 21
118.26
  0
LINE
  8
0
 10
130.26
 20
118.26
 11
130.26
 21
104.195
  0
LINE
  8
0
 10
130.26
 20
104.195
 11
133.26
 21
104.195
  0
LINE
  8
0
 10
133.26
 20
104.195
 11
133.26
 21
98.195
  0
LINE
  8
0
 10
133.26
 20
98.195
 11
130.26
 21
98.195
  0
LINE
  8
0
 10
130.26
 20
98.195
 11
130.26
 21
92.195
  0
LINE
  8
0
 10
130.26
 20
92.195
 11
133.26
 21
92.195
  0
LINE
  8
0
 10
133.26
 20
92.195
 11
133.26
 21
86.195
  0
LINE
  8
0
 10
133.26
 20
86.195
 11
130.26
 21
86.195
  0
LINE
  8
0
 10
130.26
 20
86.195
 11
130.26
 21
80.195
  0
LINE
  8
0
 10
130.26
 20
80.195
 11
133.26
 21
80.195
  0
LINE
  8
0
 10
133.26
 20
80.195
 11
133.26
 21
74.195
  0
LINE
  8
0
 10
133.26
 20
74.195
 11
130.26
 21
74.195
  0
LINE
  8
0
 10
130.26
 20
74.195
 11
130.26
 21
60.13
  0
LINE
  8
0
 10
130.26
 20
60.13
 11
142.31
 21
60.13
  0
LINE
  8
0
 10
142.31
 20
60.13
 11
142.31
 21
63.13
  0
LINE
  8
0
 10
68.13
 20
68.13
 11
0
 21
68.13
  0
LINE
  8
0
 10
0
 20
68.13
 11
0
 21
0
  0
LINE
  8
0
 10
0
 20
0
 11
68.13
 21
0
  0
LINE
  8
0
 10
68.13
 20
0
 11
68.13
 21
68.13
  0
LINE
  8
0
 10
60.13
 20
49.065
 11
60.13
 21
60.13
  0
LINE
  8
0
 10
60.13
 20
60.13
 11
49.065
 21
60.13
  0
LINE
  8
0
 10
49.065
 20
60.13
 11
49.065
 21
63.13
  0
LINE
  8
0
 10
49.065
 20
63.13
 11
63.13
 21
63.13
  0
LINE
  8
0
 10
63.13
 20
63.13
 11
63.13
 21
49.065
  0
LINE
  8
0
 10
63.13
 20
49.065
 11
60.13
 21
49.065
  0
LINE
  8
0
 10
4.99998
 20
49.065
 11
4.99998
 21
63.13
  0
LINE
  8
0
 10
4.99998
 20
63.13
 11
19.065
 21
63.13
  0
LINE
  8
0
 10
19.065
 20
63.13
 11
19.065
 21
60.13
  0
LINE
  8
0
 10
19.065
 20
60.13
 11
7.99998
 21
60.13
  0
LINE
  8
0
 10
7.99998
 20
60.13
 11
7.99998
 21
49.065
  0
LINE
  8
0
 10
7.99998
 20
49.065
 11
4.99998
 21
49.065
  0
LINE
  8
0
 10
25.065
 20
60.13
 11
25.065
 21
63.13
  0
LINE
  8
0
 10
25.065
 20
63.13
 11
31.065
 21
63.13
  0
LINE
  8
0
 10
31.065
 20
63.13
 11
31.065
 21
60.13
  0
LINE
  8
0
 10
31.065
 20
60.13
 11
25.065
 21
60.13
  0
LINE
  8
0
 10
37.065
 20
60.13
 11
37.065
 21
63.13
  0
LINE
  8
0
 10
37.065
 20
63.13
 11
43.065
 21
63.13
  0
LINE
  8
0
 10
43.065
 20
63.13
 11
43.065
 21
60.13
  0
LINE
  8
0
 10
43.065
 20
60.13
 11
37.065
 21
60.13
  0
LINE
  8
0
 10
11.5897
 20
54.7097
 11
11.3456
 21
54.7683
  0
LINE
  8
0
 10
11.3456
 20
54.7683
 11
11.1136
 21
54.8644
  0
LINE
  8
0
 10
11.1136
 20
54.8644
 11
10.8995
 21
54.9956
  0
LINE
  8
0
 10
10.8995
 20
54.9956
 11
10.7086
 21
55.1586
  0
LINE
  8
0
 10
10.7086
 20
55.1586
 11
10.5455
 21
55.3495
  0
LINE
  8
0
 10
10.5455
 20
55.3495
 11
10.4144
 21
55.5636
  0
LINE
  8
0
 10
10.4144
 20
55.5636
 11
10.3183
 21
55.7956
  0
LINE
  8
0
 10
10.3183
 20
55.7956
 11
10.2597
 21
56.0397
  0
LINE
  8
0
 10
10.2597
 20
56.0397
 11
10.24
 21
56.29
  0
LINE
  8
0
 10
10.24
 20
56.29
 11
10.2597
 21
56.5403
  0
LINE
  8
0
 10
10.2597
 20
56.5403
 11
10.3183
 21
56.7844
  0
LINE
  8
0
 10
10.3183
 20
56.7844
 11
10.4144
 21
57.0164
  0
LINE
  8
0
 10
10.4144
 20
57.0164
 11
10.5455
 21
57.2305
  0
LINE
  8
0
 10
10.5455
 20
57.2305
 11
10.7086
 21
57.4214
  0
LINE
  8
0
 10
10.7086
 20
57.4214
 11
10.8995
 21
57.5844
  0
LINE
  8
0
 10
10.8995
 20
57.5844
 11
11.1136
 21
57.7156
  0
LINE
  8
0
 10
11.1136
 20
57.7156
 11
11.3456
 21
57.8117
  0
LINE
  8
0
 10
11.3456
 20
57.8117
 11
11.5897
 21
57.8703
  0
LINE
  8
0
 10
11.5897
 20
57.8703
 11
11.84
 21
57.89
  0
LINE
  8
0
 10
11.84
 20
57.89
 11
12.0903
 21
57.8703
  0
LINE
  8
0
 10
12.0903
 20
57.8703
 11
12.3344
 21
57.8117
  0
LINE
  8
0
 10
12.3344
 20
57.8117
 11
12.5664
 21
57.7156
  0
LINE
  8
0
 10
12.5664
 20
57.7156
 11
12.7804
 21
57.5844
  0
LINE
  8
0
 10
12.7804
 20
57.5844
 11
12.9713
 21
57.4214
  0
LINE
  8
0
 10
12.9713
 20
57.4214
 11
13.1344
 21
57.2305
  0
LINE
  8
0
 10
13.1344
 20
57.2305
 11
13.2656
 21
57.0164
  0
LINE
  8
0
 10
13.2656
 20
57.0164
 11
13.3617
 21
56.7844
  0
LINE
  8
0
 10
13.3617
 20
56.7844
 11
13.4203
 21
56.5403
  0
LINE
  8
0
 10
13.4203
 20
56.5403
 11
13.44
 21
56.29
  0
LINE
  8
0
 10
13.44
 20
56.29
 11
13.4203
 21
56.0397
  0
LINE
  8
0
 10
13.4203
 20
56.0397
 11
13.3617
 21
55.7956
  0
LINE
  8
0
 10
13.3617
 20
55.7956
 11
13.2656
 21
55.5636
  0
LINE
  8
0
 10
13.2656
 20
55.5636
 11
13.1344
 21
55.3495
  0
LINE
  8
0
 10
13.1344
 20
55.3495
 11
12.9713
 21
55.1586
  0
LINE
  8
0
 10
12.9713
 20
55.1586
 11
12.7804
 21
54.9956
  0
LINE
  8
0
 10
12.7804
 20
54.9956
 11
12.5664
 21
54.8644
  0
LINE
  8
0
 10
12.5664
 20
54.8644
 11
12.3344
 21
54.7683
  0
LINE
  8
0
 10
12.3344
 20
54.7683
 11
12.0903
 21
54.7097
  0
LINE
  8
0
 10
12.0903
 20
54.7097
 11
11.84
 21
54.69
  0
LINE
  8
0
 10
11.84
 20
54.69
 11
11.5897
 21
54.7097
  0
LINE
  8
0
 10
56.0397
 20
54.7097
 11
55.7956
 21
54.7683
  0
LINE
  8
0
 10
55.7956
 20
54.7683
 11
55.5636
 21
54.8644
  0
LINE
  8
0
 10
55.5636
 20
54.8644
 11
55.3495
 21
54.9956
  0
LINE
  8
0
 10
55.3495
 20
54.9956
 11
55.1586
 21
55.1586
  0
LINE
  8
0
 10
55.1586
 20
55.1586
 11
54.9956
 21
55.3495
  0
LINE
  8
0
 10
54.9956
 20
55.3495
 11
54.8644
 21
55.5636
  0
LINE
  8
0
 10
54.8644
 20
55.5636
 11
54.7683
 21
55.7956
  0
LINE
  8
0
 10
54.7683
 20
55.7956
 11
54.7097
 21
56.0397
  0
LINE
  8
0
 10
54.7097
 20
56.0397
 11
54.69
 21
56.29
  0
LINE
  8
0
 10
54.69
 20
56.29
 11
54.7097
 21
56.5403
  0
LINE
  8
0
 10
54.7097
 20
56.5403
 11
54.7683
 21
56.7844
  0
LINE
  8
0
 10
54.7683
 20
56.7844
 11
54.8644
 21
57.0164
  0
LINE
  8
0
 10
54.8644
 20
57.0164
 11
54.9956
 21
57.2305
  0
LINE
  8
0
 10
54.9956
 20
57.2305
 11
55.1586
 21
57.4214
  0
LINE
  8
0
 10
55.1586
 20
57.4214
 11
55.3495
 21
57.5844
  0
LINE
  8
0
 10
55.3495
 20
57.5844
 11
55.5636
 21
57.7156
  0
LINE
  8
0
 10
55.5636
 20
57.7156
 11
55.7956
 21
57.8117
  0
LINE
  8
0
 10
55.7956
 20
57.8117
 11
56.0397
 21
57.8703
  0
LINE
  8
0
 10
56.0397
 20
57.8703
 11
56.29
 21
57.89
  0
LINE
  8
0
 10
56.29
 20
57.89
 11
56.5403
 21
57.8703
  0
LINE
  8
0
 10
56.5403
 20
57.8703
 11
56.7844
 21
57.8117
  0
LINE
  8
0
 10
56.7844
 20
57.8117
 11
57.0164
 21
57.7156
  0
LINE
  8
0
 10
57.0164
 20
57.7156
 11
57.2305
 21
57.5844
  0
LINE
  8
0
 10
57.2305
 20
57.5844
 11
57.4214
 21
57.4214
  0
LINE
  8
0
 10
57.4214
 20
57.4214
 11
57.5844
 21
57.2305
  0
LINE
  8
0
 10
57.5844
 20
57.2305
 11
57.7156
 21
57.0164
  0
LINE
  8
0
 10
57.7156
 20
57.0164
 11
57.8117
 21
56.7844
  0
LINE
  8
0
 10
57.8117
 20
56.7844
 11
57.8703
 21
56.5403
  0
LINE
  8
0
 10
57.8703
 20
56.5403
 11
57.89
 21
56.29
  0
LINE
  8
0
 10
57.89
 20
56.29
 11
57.8703
 21
56.0397
  0
LINE
  8
0
 10
57.8703
 20
56.0397
 11
57.8117
 21
55.7956
  0
LINE
  8
0
 10
57.8117
 20
55.7956
 11
57.7156
 21
55.5636
  0
LINE
  8
0
 10
57.7156
 20
55.5636
 11
57.5844
 21
55.3495
  0
LINE
  8
0
 10
57.5844
 20
55.3495
 11
57.4214
 21
55.1586
  0
LINE
  8
0
 10
57.4214
 20
55.1586
 11
57.2305
 21
54.9956
  0
LINE
  8
0
 10
57.2305
 20
54.9956
 11
57.0164
 21
54.8644
  0
LINE
  8
0
 10
57.0164
 20
54.8644
 11
56.7844
 21
54.7683
  0
LINE
  8
0
 10
56.7844
 20
54.7683
 11
56.5403
 21
54.7097
  0
LINE
  8
0
 10
56.5403
 20
54.7097
 11
56.29
 21
54.69
  0
LINE
  8
0
 10
56.29
 20
54.69
 11
56.0397
 21
54.7097
  0
LINE
  8
0
 10
4.99998
 20
37.065
 11
4.99998
 21
43.065
  0
LINE
  8
0
 10
4.99998
 20
43.065
 11
7.99998
 21
43.065
  0
LINE
  8
0
 10
7.99998
 20
43.065
 11
7.99998
 21
37.065
  0
LINE
  8
0
 10
7.99998
 20
37.065
 11
4.99998
 21
37.065
  0
LINE
  8
0
 10
60.13
 20
37.065
 11
60.13
 21
43.065
  0
LINE
  8
0
 10
60.13
 20
43.065
 11
63.13
 21
43.065
  0
LINE
  8
0
 10
63.13
 20
43.065
 11
63.13
 21
37.065
  0
LINE
  8
0
 10
63.13
 20
37.065
 11
60.13
 21
37.065
  0
LINE
  8
0
 10
4.99998
 20
25.065
 11
4.99998
 21
31.065
  0
LINE
  8
0
 10
4.99998
 20
31.065
 11
7.99998
 21
31.065
  0
LINE
  8
0
 10
7.99998
 20
31.065
 11
7.99998
 21
25.065
  0
LINE
  8
0
 10
7.99998
 20
25.065
 11
4.99998
 21
25.065
  0
LINE
  8
0
 10
60.13
 20
25.065
 11
60.13
 21
31.065
  0
LINE
  8
0
 10
60.13
 20
31.065
 11
63.13
 21
31.065
  0
LINE
  8
0
 10
63.13
 20
31.065
 11
63.13
 21
25.065
  0
LINE
  8
0
 10
63.13
 20
25.065
 11
60.13
 21
25.065
  0
LINE
  8
0
 10
49.065
 20
4.99998
 11
49.065
 21
7.99998
  0
LINE
  8
0
 10
49.065
 20
7.99998
 11
60.13
 21
7.99998
  0
LINE
  8
0
 10
60.13
 20
7.99998
 11
60.13
 21
19.065
  0
LINE
  8
0
 10
60.13
 20
19.065
 11
63.13
 21
19.065
  0
LINE
  8
0
 10
63.13
 20
19.065
 11
63.13
 21
4.99998
  0
LINE
  8
0
 10
63.13
 20
4.99998
 11
49.065
 21
4.99998
  0
LINE
  8
0
 10
4.99998
 20
4.99998
 11
4.99998
 21
19.065
  0
LINE
  8
0
 10
4.99998
 20
19.065
 11
7.99998
 21
19.065
  0
LINE
  8
0
 10
7.99998
 20
19.065
 11
7.99998
 21
7.99998
  0
LINE
  8
0
 10
7.99998
 20
7.99998
 11
19.065
 21
7.99998
  0
LINE
  8
0
 10
19.065
 20
7.99998
 11
19.065
 21
4.99998
  0
LINE
  8
0
 10
19.065
 20
4.99998
 11
4.99998
 21
4.99998
  0
LINE
  8
0
 10
11.5897
 20
10.2597
 11
11.3456
 21
10.3183
  0
LINE
  8
0
 10
11.3456
 20
10.3183
 11
11.1136
 21
10.4144
  0
LINE
  8
0
 10
11.1136
 20
10.4144
 11
10.8995
 21
10.5455
  0
LINE
  8
0
 10
10.8995
 20
10.5455
 11
10.7086
 21
10.7086
  0
LINE
  8
0
 10
10.7086
 20
10.7086
 11
10.5455
 21
10.8995
  0
LINE
  8
0
 10
10.5455
 20
10.8995
 11
10.4144
 21
11.1136
  0
LINE
  8
0
 10
10.4144
 20
11.1136
 11
10.3183
 21
11.3456
  0
LINE
  8
0
 10
10.3183
 20
11.3456
 11
10.2597
 21
11.5897
  0
LINE
  8
0
 10
10.2597
 20
11.5897
 11
10.24
 21
11.84
  0
LINE
  8
0
 10
10.24
 20
11.84
 11
10.2597
 21
12.0903
  0
LINE
  8
0
 10
10.2597
 20
12.0903
 11
10.3183
 21
12.3344
  0
LINE
  8
0
 10
10.3183
 20
12.3344
 11
10.4144
 21
12.5664
  0
LINE
  8
0
 10
10.4144
 20
12.5664
 11
10.5455
 21
12.7804
  0
LINE
  8
0
 10
10.5455
 20
12.7804
 11
10.7086
 21
12.9713
  0
LINE
  8
0
 10
10.7086
 20
12.9713
 11
10.8995
 21
13.1344
  0
LINE
  8
0
 10
10.8995
 20
13.1344
 11
11.1136
 21
13.2656
  0
LINE
  8
0
 10
11.1136
 20
13.2656
 11
11.3456
 21
13.3617
  0
LINE
  8
0
 10
11.3456
 20
13.3617
 11
11.5897
 21
13.4203
  0
LINE
  8
0
 10
11.5897
 20
13.4203
 11
11.84
 21
13.44
  0
LINE
  8
0
 10
11.84
 20
13.44
 11
12.0903
 21
13.4203
  0
LINE
  8
0
 10
12.0903
 20
13.4203
 11
12.3344
 21
13.3617
  0
LINE
  8
0
 10
12.3344
 20
13.3617
 11
12.5664
 21
13.2656
  0
LINE
  8
0
 10
12.5664
 20
13.2656
 11
12.7804
 21
13.1344
  0
LINE
  8
0
 10
12.7804
 20
13.1344
 11
12.9713
 21
12.9713
  0
LINE
  8
0
 10
12.9713
 20
12.9713
 11
13.1344
 21
12.7804
  0
LINE
  8
0
 10
13.1344
 20
12.7804
 11
13.2656
 21
12.5664
  0
LINE
  8
0
 10
13.2656
 20
12.5664
 11
13.3617
 21
12.3344
  0
LINE
  8
0
 10
13.3617
 20
12.3344
 11
13.4203
 21
12.0903
  0
LINE
  8
0
 10
13.4203
 20
12.0903
 11
13.44
 21
11.84
  0
LINE
  8
0
 10
13.44
 20
11.84
 11
13.4203
 21
11.5897
  0
LINE
  8
0
 10
13.4203
 20
11.5897
 11
13.3617
 21
11.3456
  0
LINE
  8
0
 10
13.3617
 20
11.3456
 11
13.2656
 21
11.1136
  0
LINE
  8
0
 10
13.2656
 20
11.1136
 11
13.1344
 21
10.8995
  0
LINE
  8
0
 10
13.1344
 20
10.8995
 11
12.9713
 21
10.7086
  0
LINE
  8
0
 10
12.9713
 20
10.7086
 11
12.7804
 21
10.5455
  0
LINE
  8
0
 10
12.7804
 20
10.5455
 11
12.5664
 21
10.4144
  0
LINE
  8
0
 10
12.5664
 20
10.4144
 11
12.3344
 21
10.3183
  0
LINE
  8
0
 10
12.3344
 20
10.3183
 11
12.0903
 21
10.2597
  0
LINE
  8
0
 10
12.0903
 20
10.2597
 11
11.84
 21
10.24
  0
LINE
  8
0
 10
11.84
 20
10.24
 11
11.5897
 21
10.2597
  0
LINE
  8
0
 10
56.0397
 20
10.2597
 11
55.7956
 21
10.3183
  0
LINE
  8
0
 10
55.7956
 20
10.3183
 11
55.5636
 21
10.4144
  0
LINE
  8
0
 10
55.5636
 20
10.4144
 11
55.3495
 21
10.5455
  0
LINE
  8
0
 10
55.3495
 20
10.5455
 11
55.1586
 21
10.7086
  0
LINE
  8
0
 10
55.1586
 20
10.7086
 11
54.9956
 21
10.8995
  0
LINE
  8
0
 10
54.9956
 20
10.8995
 11
54.8644
 21
11.1136
  0
LINE
  8
0
 10
54.8644
 20
11.1136
 11
54.7683
 21
11.3456
  0
LINE
  8
0
 10
54.7683
 20
11.3456
 11
54.7097
 21
11.5897
  0
LINE
  8
0
 10
54.7097
 20
11.5897
 11
54.69
 21
11.84
  0
LINE
  8
0
 10
54.69
 20
11.84
 11
54.7097
 21
12.0903
  0
LINE
  8
0
 10
54.7097
 20
12.0903
 11
54.7683
 21
12.3344
  0
LINE
  8
0
 10
54.7683
 20
12.3344
 11
54.8644
 21
12.5664
  0
LINE
  8
0
 10
54.8644
 20
12.5664
 11
54.9956
 21
12.7804
  0
LINE
  8
0
 10
54.9956
 20
12.7804
 11
55.1586
 21
12.9713
  0
LINE
  8
0
 10
55.1586
 20
12.9713
 11
55.3495
 21
13.1344
  0
LINE
  8
0
 10
55.3495
 20
13.1344
 11
55.5636
 21
13.2656
  0
LINE
  8
0
 10
55.5636
 20
13.2656
 11
55.7956
 21
13.3617
  0
LINE
  8
0
 10
55.7956
 20
13.3617
 11
56.0397
 21
13.4203
  0
LINE
  8
0
 10
56.0397
 20
13.4203
 11
56.29
 21
13.44
  0
LINE
  8
0
 10
56.29
 20
13.44
 11
56.5403
 21
13.4203
  0
LINE
  8
0
 10
56.5403
 20
13.4203
 11
56.7844
 21
13.3617
  0
LINE
  8
0
 10
56.7844
 20
13.3617
 11
57.0164
 21
13.2656
  0
LINE
  8
0
 10
57.0164
 20
13.2656
 11
57.2305
 21
13.1344
  0
LINE
  8
0
 10
57.2305
 20
13.1344
 11
57.4214
 21
12.9713
  0
LINE
  8
0
 10
57.4214
 20
12.9713
 11
57.5844
 21
12.7804
  0
LINE
  8
0
 10
57.5844
 20
12.7804
 11
57.7156
 21
12.5664
  0
LINE
  8
0
 10
57.7156
 20
12.5664
 11
57.8117
 21
12.3344
  0
LINE
  8
0
 10
57.8117
 20
12.3344
 11
57.8703
 21
12.0903
  0
LINE
  8
0
 10
57.8703
 20
12.0903
 11
57.89
 21
11.84
  0
LINE
  8
0
 10
57.89
 20
11.84
 11
57.8703
 21
11.5897
  0
LINE
  8
0
 10
57.8703
 20
11.5897
 11
57.8117
 21
11.3456
  0
LINE
  8
0
 10
57.8117
 20
11.3456
 11
57.7156
 21
11.1136
  0
LINE
  8
0
 10
57.7156
 20
11.1136
 11
57.5844
 21
10.8995
  0
LINE
  8
0
 10
57.5844
 20
10.8995
 11
57.4214
 21
10.7086
  0
LINE
  8
0
 10
57.4214
 20
10.7086
 11
57.2305
 21
10.5455
  0
LINE
  8
0
 10
57.2305
 20
10.5455
 11
57.0164
 21
10.4144
  0
LINE
  8
0
 10
57.0164
 20
10.4144
 11
56.7844
 21
10.3183
  0
LINE
  8
0
 10
56.7844
 20
10.3183
 11
56.5403
 21
10.2597
  0
LINE
  8
0
 10
56.5403
 20
10.2597
 11
56.29
 21
10.24
  0
LINE
  8
0
 10
56.29
 20
10.24
 11
56.0397
 21
10.2597
  0
LINE
  8
0
 10
37.065
 20
4.99998
 11
37.065
 21
7.99998
  0
LINE
  8
0
 10
37.065
 20
7.99998
 11
43.065
 21
7.99998
  0
LINE
  8
0
 10
43.065
 20
7.99998
 11
43.065
 21
4.99998
  0
LINE
  8
0
 10
43.065
 20
4.99998
 11
37.065
 21
4.99998
  0
LINE
  8
0
 10
25.065
 20
4.99998
 11
25.065
 21
7.99998
  0
LINE
  8
0
 10
25.065
 20
7.99998
 11
31.065
 21
7.99998
  0
LINE
  8
0
 10
31.065
 20
7.99998
 11
31.065
 21
4.99998
  0
LINE
  8
0
 10
31.065
 20
4.99998
 11
25.065
 21
4.99998
  0
LINE
  8
0
 10
84.195
 20
35.1
 11
90.195
 21
35.1
  0
LINE
  8
0
 10
90.195
 20
35.1
 11
90.195
 21
32.1
  0
LINE
  8
0
 10
90.195
 20
32.1
 11
96.195
 21
32.1
  0
LINE
  8
0
 10
96.195
 20
32.1
 11
96.195
 21
35.1
  0
LINE
  8
0
 10
96.195
 20
35.1
 11
102.195
 21
35.1
  0
LINE
  8
0
 10
102.195
 20
35.1
 11
102.195
 21
32.1
  0
LINE
  8
0
 10
102.195
 20
32.1
 11
108.195
 21
32.1
  0
LINE
  8
0
 10
108.195
 20
32.1
 11
108.195
 21
35.1
  0
LINE
  8
0
 10
108.195
 20
35.1
 11
114.195
 21
35.1
  0
LINE
  8
0
 10
114.195
 20
35.1
 11
114.195
 21
32.1
  0
LINE
  8
0
 10
114.195
 20
32.1
 11
125.26
 21
32.1
  0
LINE
  8
0
 10
125.26
 20
32.1
 11
125.26
 21
44.15
  0
LINE
  8
0
 10
125.26
 20
44.15
 11
128.26
 21
44.15
  0
LINE
  8
0
 10
128.26
 20
44.15
 11
128.26
 21
50.15
  0
LINE
  8
0
 10
128.26
 20
50.15
 11
125.26
 21
50.15
  0
LINE
  8
0
 10
125.26
 20
50.15
 11
125.26
 21
62.2
  0
LINE
  8
0
 10
125.26
 20
62.2
 11
114.195
 21
62.2
  0
LINE
  8
0
 10
114.195
 20
62.2
 11
114.195
 21
59.2
  0
LINE
  8
0
 10
114.195
 20
59.2
 11
108.195
 21
59.2
  0
LINE
  8
0
 10
108.195
 20
59.2
 11
108.195
 21
62.2
  0
LINE
  8
0
 10
108.195
 20
62.2
 11
102.195
 21
62.2
  0
LINE
  8
0
 10
102.195
 20
62.2
 11
102.195
 21
59.2
  0
LINE
  8
0
 10
102.195
 20
59.2
 11
96.195
 21
59.2
  0
LINE
  8
0
 10
96.195
 20
59.2
 11
96.195
 21
62.2
  0
LINE
  8
0
 10
96.195
 20
62.2
 11
90.195
 21
62.2
  0
LINE
  8
0
 10
90.195
 20
62.2
 11
90.195
 21
59.2
  0
LINE
  8
0
 10
90.195
 20
59.2
 11
84.195
 21
59.2
  0
LINE
  8
0
 10
84.195
 20
59.2
 11
84.195
 21
62.2
  0
LINE
  8
0
 10
84.195
 20
62.2
 11
73.13
 21
62.2
  0
LINE
  8
0
 10
73.13
 20
62.2
 11
73.13
 21
50.15
  0
LINE
  8
0
 10
73.13
 20
50.15
 11
70.13
 21
50.15
  0
LINE
  8
0
 10
70.13
 20
50.15
 11
70.13
 21
44.15
  0
LINE
  8
0
 10
70.13
 20
44.15
 11
73.13
 21
44.15
  0
LINE
  8
0
 10
73.13
 20
44.15
 11
73.13
 21
32.1
  0
LINE
  8
0
 10
73.13
 20
32.1
 11
84.195
 21
32.1
  0
LINE
  8
0
 10
84.195
 20
32.1
 11
84.195
 21
35.1
  0
LINE
  8
0
 10
142.31
 20
3
 11
148.31
 21
3
  0
LINE
  8
0
 10
148.31
 20
3
 11
148.31
 21
0
  0
LINE
  8
0
 10
148.31
 20
0
 11
160.36
 21
0
  0
LINE
  8
0
 10
160.36
 20
0
 11
160.36
 21
14.065
  0
LINE
  8
0
 10
160.36
 20
14.065
 11
157.36
 21
14.065
  0
LINE
  8
0
 10
157.36
 20
14.065
 11
157.36
 21
20.065
  0
LINE
  8
0
 10
157.36
 20
20.065
 11
160.36
 21
20.065
  0
LINE
  8
0
 10
160.36
 20
20.065
 11
160.36
 21
26.065
  0
LINE
  8
0
 10
160.36
 20
26.065
 11
157.36
 21
26.065
  0
LINE
  8
0
 10
157.36
 20
26.065
 11
157.36
 21
32.065
  0
LINE
  8
0
 10
157.36
 20
32.065
 11
160.36
 21
32.065
  0
LINE
  8
0
 10
160.36
 20
32.065
 11
160.36
 21
38.065
  0
LINE
  8
0
 10
160.36
 20
38.065
 11
157.36
 21
38.065
  0
LINE
  8
0
 10
157.36
 20
38.065
 11
157.36
 21
44.065
  0
LINE
  8
0
 10
157.36
 20
44.065
 11
160.36
 21
44.065
  0
LINE
  8
0
 10
160.36
 20
44.065
 11
160.36
 21
58.13
  0
LINE
  8
0
 10
160.36
 20
58.13
 11
148.31
 21
58.13
  0
LINE
  8
0
 10
148.31
 20
58.13
 11
148.31
 21
55.13
  0
LINE
  8
0
 10
148.31
 20
55.13
 11
142.31
 21
55.13
  0
LINE
  8
0
 10
142.31
 20
55.13
 11
142.31
 21
58.13
  0
LINE
  8
0
 10
142.31
 20
58.13
 11
130.26
 21
58.13
  0
LINE
  8
0
 10
130.26
 20
58.13
 11
130.26
 21
44.065
  0
LINE
  8
0
 10
130.26
 20
44.065
 11
133.26
 21
44.065
  0
LINE
  8
0
 10
133.26
 20
44.065
 11
133.26
 21
38.065
  0
LINE
  8
0
 10
133.26
 20
38.065
 11
130.26
 21
38.065
  0
LINE
  8
0
 10
130.26
 20
38.065
 11
130.26
 21
32.065
  0
LINE
  8
0
 10
130.26
 20
32.065
 11
133.26
 21
32.065
  0
LINE
  8
0
 10
133.26
 20
32.065
 11
133.26
 21
26.065
  0
LINE
  8
0
 10
133.26
 20
26.065
 11
130.26
 21
26.065
  0
LINE
  8
0
 10
130.26
 20
26.065
 11
130.26
 21
20.065
  0
LINE
  8
0
 10
130.26
 20
20.065
 11
133.26
 21
20.065
  0
LINE
  8
0
 10
133.26
 20
20.065
 11
133.26
 21
14.065
  0
LINE
  8
0
 10
133.26
 20
14.065
 11
130.26
 21
14.065
  0
LINE
  8
0
 10
130.26
 20
14.065
 11
130.26
 21
0
  0
LINE
  8
0
 10
130.26
 20
0
 11
142.31
 21
0
  0
LINE
  8
0
 10
142.31
 20
0
 11
142.31
 21
3
  0
LINE
  8
0
 10
138.415
 20
28.03
 11
138.415
 21
40.26
  0
LINE
  8
0
 10
138.415
 20
40.26
 11
152.925
 21
40.26
  0
LINE
  8
0
 10
152.925
 20
40.26
 11
152.925
 21
28.03
  0
LINE
  8
0
 10
152.925
 20
28.03
 11
138.415
 21
28.03
  0
LINE
  8
0
 10
138.415
 20
12.155
 11
138.415
 21
24.385
  0
LINE
  8
0
 10
138.415
 20
24.385
 11
152.925
 21
24.385
  0
LINE
  8
0
 10
152.925
 20
24.385
 11
152.925
 21
12.155
  0
LINE
  8
0
 10
152.925
 20
12.155
 11
138.415
 21
12.155
  0
LINE
  8
0
 10
84.195
 20
3
 11
90.195
 21
3
  0
LINE
  8
0
 10
90.195
 20
3
 11
90.195
 21
0
  0
LINE
  8
0
 10
90.195
 20
0
 11
96.195
 21
0
  0
LINE
  8
0
 10
96.195
 20
0
 11
96.195
 21
3
  0
LINE
  8
0
 10
96.195
 20
3
 11
102.195
 21
3
  0
LINE
  8
0
 10
102.195
 20
3
 11
102.195
 21
0
  0
LINE
  8
0
 10
102.195
 20
0
 11
108.195
 21
0
  0
LINE
  8
0
 10
108.195
 20
0
 11
108.195
 21
3
  0
LINE
  8
0
 10
108.195
 20
3
 11
114.195
 21
3
  0
LINE
  8
0
 10
114.195
 20
3
 11
114.195
 21
0
  0
LINE
  8
0
 10
114.195
 20
0
 11
125.26
 21
0
  0
LINE
  8
0
 10
125.26
 20
0
 11
125.26
 21
12.05
  0
LINE
  8
0
 10
125.26
 20
12.05
 11
128.26
 21
12.05
  0
LINE
  8
0
 10
128.26
 20
12.05
 11
128.26
 21
18.05
  0
LINE
  8
0
 10
128.26
 20
18.05
 11
125.26
 21
18.05
  0
LINE
  8
0
 10
125.26
 20
18.05
 11
125.26
 21
30.1
  0
LINE
  8
0
 10
125.26
 20
30.1
 11
114.195
 21
30.1
  0
LINE
  8
0
 10
114.195
 20
30.1
 11
114.195
 21
27.1
  0
LINE
  8
0
 10
114.195
 20
27.1
 11
108.195
 21
27.1
  0
LINE
  8
0
 10
108.195
 20
27.1
 11
108.195
 21
30.1
  0
LINE
  8
0
 10
108.195
 20
30.1
 11
102.195
 21
30.1
  0
LINE
  8
0
 10
102.195
 20
30.1
 11
102.195
 21
27.1
  0
LINE
  8
0
 10
102.195
 20
27.1
 11
96.195
 21
27.1
  0
LINE
  8
0
 10
96.195
 20
27.1
 11
96.195
 21
30.1
  0
LINE
  8
0
 10
96.195
 20
30.1
 11
90.195
 21
30.1
  0
LINE
  8
0
 10
90.195
 20
30.1
 11
90.195
 21
27.1
  0
LINE
  8
0
 10
90.195
 20
27.1
 11
84.195
 21
27.1
  0
LINE
  8
0
 10
84.195
 20
27.1
 11
84.195
 21
30.1
  0
LINE
  8
0
 10
84.195
 20
30.1
 11
73.13
 21
30.1
  0
LINE
  8
0
 10
73.13
 20
30.1
 11
73.13
 21
18.05
  0
LINE
  8
0
 10
73.13
 20
18.05
 11
70.13
 21
18.05
  0
LINE
  8
0
 10
70.13
 20
18.05
 11
70.13
 21
12.05
  0
LINE
  8
0
 10
70.13
 20
12.05
 11
73.13
 21
12.05
  0
LINE
  8
0
 10
73.13
 20
12.05
 11
73.13
 21
0
  0
LINE
  8
0
 10
73.13
 20
0
 11
84.195
 21
0
  0
LINE
  8
0
 10
84.195
 20
0
 11
84.195
 21
3
  0
ENDSEC
  0
SECTION
  2
OBJECTS
  0
DICTIONARY
  0
ENDSEC
  0
EOF
