<svg id="Layer_1" data-name="Layer 1" xmlns="http://www.w3.org/2000/svg" viewBox="0 0 217.28 246.78"><defs><style>.cls-1,.cls-3{fill:#231f20;}.cls-1,.cls-5{stroke:#fff;}.cls-1,.cls-4,.cls-5,.cls-6{stroke-miterlimit:10;}.cls-2,.cls-4{fill:#fff;}.cls-4,.cls-6{stroke:#231f20;}.cls-5,.cls-6{fill:none;}</style></defs><title>BeeMoS_logo3</title><polygon class="cls-1" points="211.22 183.28 108.85 242.38 6.48 183.28 6.48 65.07 108.85 5.97 211.22 65.07 211.22 183.28"/><path class="cls-2" d="M124.53,164.25l2,3.47,8.58,6.29,3.72,4,2.86,2.29h1.44l2.57,1.72,2,7.15H150l1.15-1.43-4.29-9.44L142,170l-5.29-2.86-6.73-2.9-3.15-4,9.88-4L142.28,144l8.87,4.87,7.15-.57,3.44-2h3.15l4.86,4.3,2.58-2.58-4.87-4-3.72-1.71h-7.15l-4.3,3.15-5-4.58,7.58-2,2-1.71.29-6.59,3.52-6.69,4.49,2.69,8.59-2.87,3.72-4-.92-1.29L172,121.64l-7.31,1.63-4.14-1.63.58-4-2.58-2-5.72-2.57.31-8.43L166,99.89l-1.59-1.59-13,5.6-.28,8.3-10.88-6.3-4,1.43-4.58,3.15L130,115.92l-3.15-4,.86-4,4.29-2.29v-2.28l4.87-4.3-.36-9.39-3.36,2.24,1.64,4.5-8.8,7.8-2,3.72v4.3l-6,.57-4.86,2.29-4,.57v-5.15l8.58-2.58,1.44-3.43-.29-8.3-.57-4.29-3.44,2-.32,2L116,99.6l.28,2.58-5.15,2-7.44,5.44v6.87l-14.88-2.58-28.33-6.58-6.3-1.14-14-1.15-9.45,3.15-3.43,4.29v3.15l6.3,3.15,6.86,5.72,4,2,3.15,2.86,7.15,2.29,13.17-3.72h2l13.74-.86,11.73-1.43L94,131.94l-5.55-2.29-6,1.72-8.31,4.09L71,137l-5.24-.38-4.88,1.75-6.58,2.42-4.5,1.67-1.5,2.33c-.59,2.1,1.83-.42,2.71-.92l1.5-.62,4.12-1.53c.06,0,2.79-1.61,2.85-1.61l6.7-.74-10.87,9.15-4.87,5.73-3.41,6-.81,5.47,1.94,6.41,4,4.74,6.29,2.29h8l8.91-.78,9.12-4.09.28,3.15-2.62,2.49-2.81,2.66-3.44.92L72,185l-1.28,1.11a15.15,15.15,0,0,0-2.22,3.14l1.12,2.37,2.28-4,8-2.21-1.38,1.94-2.92,4.07.29,6.87-1.72,9.16.58,6.29,1.71,2.87,3.44,2h4l2-2.29,10.87-9.44,12.6-24,9.44-18.64,1.72-2.54Z"/><path class="cls-3" d="M70.93,136.94c0,.32,6.12-3.18,6.11-2.86a34,34,0,0,0,1.24,11c2.39,7.09,9.94,19.51,11.92,22.41.15.21,1.79,1.69,1.82,2.67A13.69,13.69,0,0,1,89.63,172c-1.09.76-1.42,1.17-1.88,1.05-2.23-.59-4.44-3.4-5.27-4.77-5.34-8.76-4.61-6.74-5.92-9.44a58.51,58.51,0,0,1-4.2-11.54,54.5,54.5,0,0,1-1.43-10.4"/><path class="cls-3" d="M88.29,129.78a1.47,1.47,0,0,1,.39,1.24l12.87,28.81c.27.65.54,1.29.8,1.94l.83,2-2.39,1.56C85.4,139.86,83.24,132.25,85,130.83,85.27,130.57,87.42,129.11,88.29,129.78Z"/><path class="cls-3" d="M67.21,138.56a31.55,31.55,0,0,0-.57,7.73,33.32,33.32,0,0,0,3.44,12.87,44,44,0,0,0,5,7.64c3.58,4.73,7.17,8.44,7.35,8.29s-3-3.8-7.35-10.49a51.2,51.2,0,0,1-4.67-8.11s-2.83-6.63-2.77-12.87c0-1.55.19-3.06.19-3.06.11-.92.25-1.72.38-2.38"/><path class="cls-3" d="M59.78,144.88c-.06,0,.12-.39,0,0a25.89,25.89,0,0,0-.87,6.94c.07,5.79,2.26,10.11,3.82,13.16,1.34,2.64,2.91,5.72,5.82,8.11,2.1,1.73,2.59,1.62,4.86,3.34a12.23,12.23,0,0,0,3.15,1.91c-.31-.29,1.66.41,1.72,0,.15-1-1.33-1.83-2.15-2.23-3.89-1.89-8.5-7.39-11.4-12.67-1.82-3.34-4.47-8.16-4.67-14.6,0-1,.24-3.77.27-4.58C60.37,143.27,59.88,144.89,59.78,144.88Z"/><path class="cls-3" d="M57.39,146.57c-.2,0-.94,3.71-1.34,7.63-.45,4.4-.15,5.91,0,6.59a21.58,21.58,0,0,0,1.81,5.43,17.29,17.29,0,0,0,3.92,5.25c.93.9.76.76,2.19,2.19a17.74,17.74,0,0,0,5,3.42,7.83,7.83,0,0,0,3.57,1.26h0a9,9,0,0,0,2,.76c.29,0,.06-.62-.55-.86-.85-.33-2.24-1.34-3.44-1.71-4-1.24-6.47-4.57-9.25-8.3a18.86,18.86,0,0,1-3.63-6.59,24.43,24.43,0,0,1-.57-6.48C57,149.84,57.57,146.6,57.39,146.57Z"/><path class="cls-3" d="M50.71,153.63c-1.89,2-2.19,4.21-1.43,8.4a24.72,24.72,0,0,0,1.72,6.2,13.25,13.25,0,0,0,3.53,4.67,20.08,20.08,0,0,1,4.86,4.1,5.93,5.93,0,0,0,2.86,2.2l3,.66-1.56-.38s3.95,2.06,2.92.86c-.71-.83-6.13-5-6.64-5.34-1.93-1.32-4.93-3.37-6.67-6.3a15.5,15.5,0,0,1-1.72-4.86,21.59,21.59,0,0,1-.57-5c0-3.45.89-5.87.47-6C51.25,152.79,50.87,153.47,50.71,153.63Z"/><path class="cls-2" d="M39.55,52.08h7.52q6.56,0,9.44,2.58a8.41,8.41,0,0,1,2.88,6.56q0,4.29-4.19,6.9A7.06,7.06,0,0,1,60,75.28a8.63,8.63,0,0,1-3,6.81,11.41,11.41,0,0,1-7.79,2.59H39.55Zm7.39,6.25v7c3.31-.09,5-1.23,5-3.45a3.07,3.07,0,0,0-1.19-2.76A7.32,7.32,0,0,0,46.94,58.33Zm0,12.94v7.06a8.77,8.77,0,0,0,4.21-.87,2.86,2.86,0,0,0,1.41-2.69q0-3.49-5-3.5Z"/><path class="cls-2" d="M74.8,77.82h6q-1.71,7.56-8.54,7.57a8.1,8.1,0,0,1-6.77-3.25C63.81,80,63,77,63,73.18a13.54,13.54,0,0,1,2.49-8.53,8,8,0,0,1,6.62-3.21A8.42,8.42,0,0,1,76.88,63a9,9,0,0,1,3.34,4.11,24.25,24.25,0,0,1,1.17,8.08H69.55q.15,5,2.78,5A2.32,2.32,0,0,0,74,79.53,2.8,2.8,0,0,0,74.8,77.82Zm-5.15-6.5H74.8a8.58,8.58,0,0,0-.66-3.5,2,2,0,0,0-1.85-1.14,2.14,2.14,0,0,0-2,1.1A7.67,7.67,0,0,0,69.65,71.32Z"/><path class="cls-2" d="M96.09,77.82h6q-1.71,7.56-8.54,7.57a8.1,8.1,0,0,1-6.77-3.25c-1.66-2.17-2.49-5.15-2.49-9a13.54,13.54,0,0,1,2.49-8.53,8,8,0,0,1,6.62-3.21A8.36,8.36,0,0,1,98.16,63a8.94,8.94,0,0,1,3.35,4.11,24.25,24.25,0,0,1,1.17,8.08H90.84q.15,5,2.78,5a2.3,2.3,0,0,0,1.61-.66A2.76,2.76,0,0,0,96.09,77.82Zm-5.15-6.5h5.15a8.58,8.58,0,0,0-.66-3.5,2,2,0,0,0-1.86-1.14,2.13,2.13,0,0,0-2,1.1A7.67,7.67,0,0,0,90.94,71.32Z"/><path class="cls-2" d="M110,52.08h9.35q2,10.56,3.15,18.14l.81-5q.48-3,1-5.76l1.44-7.33h9.54L139,84.68h-7.32l-2-22.41-4.56,22.41h-5l-4.78-22.46-1.91,22.46h-7Z"/><path class="cls-2" d="M152.53,61.44c3.24,0,5.71,1.07,7.4,3.23s2.54,5.16,2.54,9-.88,6.67-2.64,8.72a9.07,9.07,0,0,1-7.3,3.09,8.76,8.76,0,0,1-7.09-3.15c-1.75-2.1-2.62-5-2.62-8.66q0-5.76,2.5-9A8.56,8.56,0,0,1,152.53,61.44Zm.05,17.7a2.25,2.25,0,0,0,2.09-1.3,10.07,10.07,0,0,0,.7-4.42,9.7,9.7,0,0,0-.69-4.34,2.2,2.2,0,0,0-2.05-1.25,2.24,2.24,0,0,0-2,1.21,9.63,9.63,0,0,0-.71,4.43C149.87,77.25,150.78,79.14,152.58,79.14Z"/><path class="cls-2" d="M167.43,84.07v-7.6a12.37,12.37,0,0,0,5.9,2,3,3,0,0,0,2.2-.76,2.7,2.7,0,0,0,.81-2,3,3,0,0,0-.65-1.83,12.65,12.65,0,0,0-2.23-2.08,25.05,25.05,0,0,1-5.56-5.46,9.81,9.81,0,0,1-1.72-5.62,9.12,9.12,0,0,1,9.55-9.55,15.46,15.46,0,0,1,6.2,1.34v7.3a12,12,0,0,0-5.35-1.8,3.23,3.23,0,0,0-2.16.67,2.28,2.28,0,0,0-.79,1.84q0,2.05,3.68,4.62a22.42,22.42,0,0,1,4.46,4.26A9.69,9.69,0,0,1,184,75.77a9.19,9.19,0,0,1-3,7,10.49,10.49,0,0,1-7.49,2.77A14.15,14.15,0,0,1,167.43,84.07Z"/><polygon class="cls-1" points="152.43 190.17 151.03 193.53 147.41 193.99 145.21 191.09 146.61 187.73 150.22 187.27 152.43 190.17"/><polygon class="cls-1" points="176.38 151.41 174.97 154.77 171.36 155.24 169.15 152.34 170.56 148.98 174.17 148.52 176.38 151.41"/><polygon class="cls-1" points="70.21 192.17 68.81 195.53 65.2 195.99 62.99 193.09 64.4 189.73 68.01 189.27 70.21 192.17"/><polygon class="cls-1" points="50.01 144.47 48.61 147.83 44.99 148.29 42.79 145.4 44.19 142.04 47.8 141.58 50.01 144.47"/><rect class="cls-1" x="117.2" y="206.96" width="5.14" height="11.71" transform="translate(331.58 91.28) rotate(89.52)"/><rect class="cls-4" x="117.36" y="209.75" width="4.81" height="6.12" transform="matrix(0.01, 1, -1, 0.01, 331.58, 91.28)"/><rect class="cls-1" x="170.19" y="183.48" width="5.14" height="11.71" transform="translate(240.68 -57.81) rotate(57.75)"/><rect class="cls-4" x="170.36" y="186.28" width="4.81" height="6.12" transform="translate(240.68 -57.81) rotate(57.75)"/><line class="cls-5" x1="174.97" y1="154.77" x2="182.91" y2="171.87"/><line class="cls-5" x1="151.02" y1="193.53" x2="163.83" y2="195.44"/><line class="cls-5" x1="147.41" y1="193.99" x2="129.59" y2="213.37"/><line class="cls-5" x1="130.1" y1="212.81" x2="125.62" y2="212.81"/><line class="cls-5" x1="42.79" y1="145.4" x2="34.65" y2="163.96"/><line class="cls-5" x1="34.49" y1="163.29" x2="71.62" y2="224.04"/><line class="cls-5" x1="113.92" y1="213.89" x2="97.85" y2="213.89"/><line class="cls-5" x1="65.2" y1="195.99" x2="61.48" y2="207.72"/><line class="cls-6" x1="34.29" y1="162.31" x2="33.04" y2="165.48"/><line class="cls-5" x1="182.95" y1="171.49" x2="181.6" y2="183.89"/><line class="cls-5" x1="181.98" y1="183.55" x2="177.76" y2="186.28"/><line class="cls-6" x1="184.89" y1="173.78" x2="183.1" y2="169.81"/><line class="cls-6" x1="182" y1="187.41" x2="182.81" y2="182.78"/><line class="cls-5" x1="168.08" y1="192.32" x2="163.07" y2="195.56"/><line class="cls-6" x1="165.19" y1="195.73" x2="160.35" y2="197.31"/><line class="cls-6" x1="133.34" y1="213.85" x2="128.55" y2="213.81"/><line class="cls-5" x1="180.39" y1="200.6" x2="174.37" y2="191.85"/><line class="cls-5" x1="34.49" y1="163.99" x2="6.48" y2="166.79"/><line class="cls-5" x1="176.37" y1="151.41" x2="211.22" y2="147.49"/><line class="cls-5" x1="130.1" y1="212.81" x2="137.85" y2="225.02"/><line class="cls-5" x1="98.09" y1="213.42" x2="89.12" y2="230.99"/><line class="cls-6" x1="101.18" y1="212.88" x2="96.09" y2="212.95"/></svg>