G75*
%MOIN*%
%OFA0B0*%
%FSLAX25Y25*%
%IPPOS*%
%LPD*%
%AMOC8*
5,1,8,0,0,1.08239X$1,22.5*
%
%ADD10C,0.03900*%
%ADD11C,0.03943*%
%ADD12C,0.05518*%
%ADD13C,0.09691*%
%ADD14R,0.05124X0.02762*%
D10*
X0385758Y0091346D03*
X0393758Y0091346D03*
X0389758Y0111346D03*
D11*
X0479045Y0112852D03*
X0479045Y0130175D03*
D12*
X0461721Y0069663D03*
X0471721Y0065726D03*
X0461721Y0061631D03*
X0471721Y0057694D03*
X0461721Y0053600D03*
X0471721Y0049663D03*
D13*
X0480776Y0036041D03*
X0480776Y0083285D03*
D14*
X0010580Y0038482D03*
X0024753Y0038482D03*
X0024753Y0045568D03*
X0010580Y0045568D03*
X0060580Y0045568D03*
X0074753Y0045568D03*
X0074753Y0038482D03*
X0060580Y0038482D03*
X0110580Y0038482D03*
X0124753Y0038482D03*
X0124753Y0045568D03*
X0110580Y0045568D03*
X0163080Y0045568D03*
X0177253Y0045568D03*
X0177253Y0038482D03*
X0163080Y0038482D03*
X0215580Y0038482D03*
X0229753Y0038482D03*
X0229753Y0045568D03*
X0215580Y0045568D03*
X0268080Y0045568D03*
X0282253Y0045568D03*
X0282253Y0038482D03*
X0268080Y0038482D03*
X0320580Y0038482D03*
X0334753Y0038482D03*
X0334753Y0045568D03*
X0320580Y0045568D03*
X0370580Y0045568D03*
X0384753Y0045568D03*
X0384753Y0038482D03*
X0370580Y0038482D03*
X0370580Y0073482D03*
X0384753Y0073482D03*
X0384753Y0080568D03*
X0370580Y0080568D03*
X0334753Y0080568D03*
X0320580Y0080568D03*
X0320580Y0073482D03*
X0334753Y0073482D03*
X0282253Y0073482D03*
X0268080Y0073482D03*
X0268080Y0080568D03*
X0282253Y0080568D03*
X0229753Y0080568D03*
X0215580Y0080568D03*
X0215580Y0073482D03*
X0229753Y0073482D03*
X0177253Y0073482D03*
X0163080Y0073482D03*
X0163080Y0080568D03*
X0177253Y0080568D03*
X0124753Y0080568D03*
X0110580Y0080568D03*
X0110580Y0073482D03*
X0124753Y0073482D03*
X0074753Y0073482D03*
X0060580Y0073482D03*
X0060580Y0080568D03*
X0074753Y0080568D03*
X0024753Y0080568D03*
X0010580Y0080568D03*
X0010580Y0073482D03*
X0024753Y0073482D03*
M02*
