G75*
%MOIN*%
%OFA0B0*%
%FSLAX25Y25*%
%IPPOS*%
%LPD*%
%AMOC8*
5,1,8,0,0,1.08239X$1,22.5*
%
%ADD10C,0.05118*%
%ADD11R,0.04724X0.02362*%
%ADD12C,0.02400*%
%ADD13C,0.01200*%
%ADD14R,0.02381X0.02381*%
%ADD15C,0.02000*%
%ADD16R,0.02184X0.02184*%
%ADD17C,0.00800*%
%ADD18C,0.02381*%
%ADD19R,0.02400X0.02400*%
%ADD20R,0.03169X0.03169*%
%ADD21C,0.01600*%
%ADD22OC8,0.02381*%
D10*
X0461721Y0053600D03*
X0471721Y0049663D03*
X0471721Y0057694D03*
X0461721Y0061631D03*
X0471721Y0065726D03*
X0461721Y0069663D03*
D11*
X0384753Y0073482D03*
X0370580Y0073482D03*
X0370580Y0080568D03*
X0384753Y0080568D03*
X0334753Y0080568D03*
X0320580Y0080568D03*
X0320580Y0073482D03*
X0334753Y0073482D03*
X0282253Y0073482D03*
X0268080Y0073482D03*
X0268080Y0080568D03*
X0282253Y0080568D03*
X0229753Y0080568D03*
X0215580Y0080568D03*
X0215580Y0073482D03*
X0229753Y0073482D03*
X0177253Y0073482D03*
X0163080Y0073482D03*
X0163080Y0080568D03*
X0177253Y0080568D03*
X0124753Y0080568D03*
X0110580Y0080568D03*
X0110580Y0073482D03*
X0124753Y0073482D03*
X0074753Y0073482D03*
X0060580Y0073482D03*
X0060580Y0080568D03*
X0074753Y0080568D03*
X0024753Y0080568D03*
X0010580Y0080568D03*
X0010580Y0073482D03*
X0024753Y0073482D03*
X0024753Y0045568D03*
X0010580Y0045568D03*
X0010580Y0038482D03*
X0024753Y0038482D03*
X0060580Y0038482D03*
X0074753Y0038482D03*
X0074753Y0045568D03*
X0060580Y0045568D03*
X0110580Y0045568D03*
X0124753Y0045568D03*
X0124753Y0038482D03*
X0110580Y0038482D03*
X0163080Y0038482D03*
X0177253Y0038482D03*
X0177253Y0045568D03*
X0163080Y0045568D03*
X0215580Y0045568D03*
X0229753Y0045568D03*
X0229753Y0038482D03*
X0215580Y0038482D03*
X0268080Y0038482D03*
X0282253Y0038482D03*
X0282253Y0045568D03*
X0268080Y0045568D03*
X0320580Y0045568D03*
X0334753Y0045568D03*
X0334753Y0038482D03*
X0320580Y0038482D03*
X0370580Y0038482D03*
X0384753Y0038482D03*
X0384753Y0045568D03*
X0370580Y0045568D03*
D12*
X0391417Y0029525D02*
X0340792Y0029525D01*
X0288292Y0029525D01*
X0235792Y0029525D01*
X0195020Y0029525D01*
X0183292Y0029525D01*
X0130792Y0029525D01*
X0092807Y0029525D01*
X0080792Y0029525D01*
X0030792Y0029525D01*
X0007667Y0029525D01*
X0391417Y0029525D02*
X0402667Y0029525D01*
D13*
X0391417Y0029525D02*
X0391417Y0045775D01*
X0386417Y0045775D01*
X0340792Y0045775D02*
X0340792Y0029525D01*
X0340792Y0045775D02*
X0335167Y0045775D01*
X0288292Y0045775D02*
X0288292Y0029525D01*
X0288292Y0045775D02*
X0283917Y0045775D01*
X0235792Y0045775D02*
X0235792Y0029525D01*
X0235792Y0045775D02*
X0230167Y0045775D01*
X0183292Y0045775D02*
X0183292Y0029525D01*
X0183292Y0045775D02*
X0178917Y0045775D01*
X0130792Y0045775D02*
X0130792Y0029525D01*
X0130792Y0045775D02*
X0126417Y0045775D01*
X0080792Y0045775D02*
X0080792Y0029525D01*
X0030792Y0029525D02*
X0030792Y0045775D01*
X0026417Y0045775D01*
X0076417Y0045775D02*
X0080792Y0045775D01*
D14*
X0195167Y0040775D03*
X0096417Y0090775D03*
X0262042Y0117707D03*
X0287553Y0127689D03*
X0290620Y0124603D03*
X0294542Y0122025D03*
X0284485Y0130775D03*
X0281417Y0133900D03*
D15*
X0215167Y0120440D02*
X0195167Y0120440D01*
X0195167Y0118275D01*
X0195167Y0040775D02*
X0195020Y0040775D01*
X0195020Y0029525D01*
X0092807Y0029525D02*
X0092807Y0039525D01*
X0092667Y0039525D01*
D16*
X0092667Y0039525D03*
X0103917Y0038275D03*
X0140479Y0042025D03*
X0203917Y0038482D03*
X0242042Y0038482D03*
X0263292Y0044525D03*
X0293917Y0048275D03*
X0311417Y0049525D03*
X0308917Y0038482D03*
X0347667Y0051552D03*
X0361417Y0052025D03*
X0358917Y0062337D03*
X0397667Y0058275D03*
X0358917Y0039525D03*
X0308917Y0062337D03*
X0242042Y0061450D03*
X0238917Y0065775D03*
X0211417Y0068275D03*
X0206417Y0063275D03*
X0192042Y0070775D03*
X0138917Y0064525D03*
X0129542Y0096400D03*
X0132042Y0099525D03*
X0132667Y0105520D03*
X0092667Y0108587D03*
X0092667Y0101045D03*
X0195167Y0118275D03*
X0215167Y0120440D03*
D17*
X0004067Y0037058D02*
X0004067Y0028425D01*
X0472876Y0028425D01*
X0472876Y0042328D01*
X0473111Y0042563D01*
X0488442Y0042563D01*
X0488676Y0042328D01*
X0488676Y0028425D01*
X0497957Y0028425D01*
X0498193Y0151625D01*
X0179208Y0151625D01*
X0179616Y0151217D01*
X0179616Y0149083D01*
X0178718Y0148185D01*
X0178826Y0148077D01*
X0178826Y0147632D01*
X0179616Y0146842D01*
X0179616Y0144708D01*
X0178183Y0143275D01*
X0179616Y0141842D01*
X0179616Y0139708D01*
X0178183Y0138275D01*
X0179616Y0136842D01*
X0179616Y0134708D01*
X0178183Y0133275D01*
X0179616Y0131842D01*
X0179616Y0129708D01*
X0178183Y0128275D01*
X0179616Y0126842D01*
X0179616Y0124708D01*
X0178183Y0123275D01*
X0179616Y0121842D01*
X0179616Y0119708D01*
X0178183Y0118275D01*
X0179616Y0116842D01*
X0179616Y0114708D01*
X0178108Y0113200D01*
X0175975Y0113200D01*
X0175185Y0113991D01*
X0164428Y0113991D01*
X0163382Y0115036D01*
X0163382Y0131803D01*
X0061951Y0131803D01*
X0061951Y0105036D01*
X0060906Y0103991D01*
X0058201Y0103991D01*
X0058201Y0083134D01*
X0063516Y0083134D01*
X0064090Y0082559D01*
X0064560Y0082559D01*
X0064958Y0082958D01*
X0065904Y0083350D01*
X0066929Y0083350D01*
X0067875Y0082958D01*
X0068599Y0082234D01*
X0068991Y0081287D01*
X0068991Y0080263D01*
X0068599Y0079316D01*
X0067875Y0078592D01*
X0066929Y0078200D01*
X0065904Y0078200D01*
X0064958Y0078592D01*
X0064560Y0078991D01*
X0064326Y0078991D01*
X0064326Y0078814D01*
X0063516Y0078003D01*
X0058201Y0078003D01*
X0058201Y0076063D01*
X0060389Y0076063D01*
X0060389Y0073672D01*
X0060771Y0073672D01*
X0064342Y0073672D01*
X0064342Y0074847D01*
X0064247Y0075203D01*
X0064063Y0075522D01*
X0063802Y0075783D01*
X0063483Y0075967D01*
X0063127Y0076063D01*
X0060771Y0076063D01*
X0060771Y0073672D01*
X0060771Y0073291D01*
X0064342Y0073291D01*
X0064342Y0072116D01*
X0064247Y0071760D01*
X0064063Y0071441D01*
X0063802Y0071180D01*
X0063483Y0070996D01*
X0063127Y0070901D01*
X0060771Y0070901D01*
X0060771Y0073291D01*
X0060389Y0073291D01*
X0060389Y0070901D01*
X0058201Y0070901D01*
X0058201Y0068809D01*
X0084632Y0068809D01*
X0084632Y0083991D01*
X0078201Y0083991D01*
X0078201Y0082622D01*
X0078500Y0082323D01*
X0078500Y0078814D01*
X0077689Y0078003D01*
X0071818Y0078003D01*
X0071007Y0078814D01*
X0071007Y0082323D01*
X0071818Y0083134D01*
X0074632Y0083134D01*
X0074632Y0086514D01*
X0075678Y0087559D01*
X0087156Y0087559D01*
X0088201Y0086514D01*
X0088201Y0066934D01*
X0134632Y0066934D01*
X0134632Y0082741D01*
X0128082Y0082741D01*
X0128500Y0082323D01*
X0128500Y0078814D01*
X0127689Y0078003D01*
X0121818Y0078003D01*
X0121007Y0078814D01*
X0121007Y0082323D01*
X0121818Y0083134D01*
X0124007Y0083134D01*
X0124007Y0085264D01*
X0125053Y0086309D01*
X0137156Y0086309D01*
X0138201Y0085264D01*
X0138201Y0067001D01*
X0140582Y0067001D01*
X0141393Y0066191D01*
X0141393Y0063184D01*
X0143695Y0063184D01*
X0143695Y0066950D01*
X0142850Y0066950D01*
X0141342Y0068458D01*
X0141342Y0070592D01*
X0142850Y0072100D01*
X0143217Y0072100D01*
X0143217Y0073717D01*
X0144725Y0075225D01*
X0145092Y0075225D01*
X0145092Y0076842D01*
X0146600Y0078350D01*
X0146967Y0078350D01*
X0146967Y0079967D01*
X0148475Y0081475D01*
X0148842Y0081475D01*
X0148842Y0083092D01*
X0150350Y0084600D01*
X0151029Y0084600D01*
X0151029Y0086217D01*
X0152538Y0087725D01*
X0152904Y0087725D01*
X0152904Y0089342D01*
X0154413Y0090850D01*
X0155092Y0090850D01*
X0155092Y0092467D01*
X0155366Y0092741D01*
X0133826Y0092741D01*
X0133826Y0090036D01*
X0132781Y0088991D01*
X0098971Y0088991D01*
X0098181Y0088200D01*
X0094653Y0088200D01*
X0093842Y0089011D01*
X0093842Y0092539D01*
X0094653Y0093350D01*
X0098181Y0093350D01*
X0098971Y0092559D01*
X0130257Y0092559D01*
X0130257Y0093924D01*
X0127876Y0093924D01*
X0127065Y0094734D01*
X0127065Y0098066D01*
X0127876Y0098876D01*
X0129565Y0098876D01*
X0129565Y0100670D01*
X0096084Y0100525D01*
X0096074Y0100515D01*
X0095143Y0100515D01*
X0095143Y0099379D01*
X0094332Y0098569D01*
X0091001Y0098569D01*
X0090190Y0099379D01*
X0090190Y0102710D01*
X0091001Y0103521D01*
X0092439Y0103521D01*
X0092868Y0104022D01*
X0092947Y0104028D01*
X0093003Y0104084D01*
X0093673Y0104084D01*
X0094341Y0104135D01*
X0094402Y0104084D01*
X0094591Y0104084D01*
X0094595Y0104088D01*
X0094599Y0104088D01*
X0094603Y0104091D01*
X0095337Y0104091D01*
X0130190Y0104241D01*
X0130190Y0106803D01*
X0095024Y0106803D01*
X0094332Y0106111D01*
X0091001Y0106111D01*
X0090190Y0106922D01*
X0090190Y0110253D01*
X0091001Y0111064D01*
X0094332Y0111064D01*
X0095024Y0110372D01*
X0140231Y0110372D01*
X0141276Y0109327D01*
X0141276Y0108497D01*
X0238382Y0108497D01*
X0238382Y0130889D01*
X0239428Y0131934D01*
X0279044Y0131934D01*
X0278842Y0132136D01*
X0278842Y0135664D01*
X0279653Y0136475D01*
X0283181Y0136475D01*
X0283991Y0135664D01*
X0283991Y0133350D01*
X0286249Y0133350D01*
X0287059Y0132539D01*
X0287059Y0130264D01*
X0289316Y0130264D01*
X0290127Y0129453D01*
X0290127Y0127177D01*
X0292384Y0127177D01*
X0293195Y0126367D01*
X0293195Y0124600D01*
X0296306Y0124600D01*
X0297116Y0123789D01*
X0297116Y0120261D01*
X0296306Y0119450D01*
X0295740Y0119450D01*
X0295281Y0118991D01*
X0264616Y0118991D01*
X0264616Y0115943D01*
X0263806Y0115132D01*
X0260278Y0115132D01*
X0259467Y0115943D01*
X0259467Y0116491D01*
X0253826Y0116491D01*
X0253826Y0093786D01*
X0252781Y0092741D01*
X0175866Y0092741D01*
X0175866Y0092559D01*
X0242781Y0092559D01*
X0243826Y0091514D01*
X0243826Y0063808D01*
X0244518Y0063116D01*
X0244518Y0060059D01*
X0244922Y0060059D01*
X0244632Y0060348D01*
X0244632Y0087668D01*
X0243842Y0088458D01*
X0243842Y0090592D01*
X0245350Y0092100D01*
X0247483Y0092100D01*
X0248991Y0090592D01*
X0248991Y0089600D01*
X0250058Y0089600D01*
X0251566Y0088092D01*
X0251566Y0087100D01*
X0252558Y0087100D01*
X0254066Y0085592D01*
X0254066Y0084600D01*
X0255058Y0084600D01*
X0256566Y0083092D01*
X0256566Y0082100D01*
X0257558Y0082100D01*
X0259066Y0080592D01*
X0259066Y0078458D01*
X0258201Y0077593D01*
X0258201Y0070372D01*
X0294632Y0070372D01*
X0294632Y0083991D01*
X0285076Y0083991D01*
X0285076Y0083134D01*
X0285189Y0083134D01*
X0286000Y0082323D01*
X0286000Y0078814D01*
X0285189Y0078003D01*
X0279318Y0078003D01*
X0278507Y0078814D01*
X0278507Y0082323D01*
X0279318Y0083134D01*
X0281507Y0083134D01*
X0281507Y0086514D01*
X0282553Y0087559D01*
X0297156Y0087559D01*
X0298201Y0086514D01*
X0298201Y0068497D01*
X0301645Y0068497D01*
X0303832Y0070684D01*
X0315281Y0070684D01*
X0316326Y0069639D01*
X0317468Y0068497D01*
X0345599Y0068497D01*
X0345853Y0083991D01*
X0336538Y0083991D01*
X0336538Y0083134D01*
X0337689Y0083134D01*
X0338500Y0082323D01*
X0338500Y0078814D01*
X0337689Y0078003D01*
X0331818Y0078003D01*
X0331007Y0078814D01*
X0331007Y0082323D01*
X0331818Y0083134D01*
X0332969Y0083134D01*
X0332969Y0086514D01*
X0334014Y0087559D01*
X0346945Y0087559D01*
X0346957Y0087571D01*
X0347681Y0087559D01*
X0348406Y0087559D01*
X0348418Y0087547D01*
X0348435Y0087547D01*
X0348939Y0087026D01*
X0349451Y0086514D01*
X0349451Y0086497D01*
X0349463Y0086485D01*
X0349451Y0085760D01*
X0349451Y0085036D01*
X0349439Y0085024D01*
X0349138Y0066698D01*
X0349138Y0066622D01*
X0394976Y0066622D01*
X0395226Y0080866D01*
X0388500Y0080866D01*
X0388500Y0078814D01*
X0387689Y0078003D01*
X0381818Y0078003D01*
X0381007Y0078814D01*
X0381007Y0082323D01*
X0381818Y0083134D01*
X0383594Y0083134D01*
X0383594Y0083389D01*
X0383799Y0083594D01*
X0383882Y0083871D01*
X0384302Y0084097D01*
X0384639Y0084434D01*
X0384929Y0084434D01*
X0385183Y0084571D01*
X0385640Y0084434D01*
X0396321Y0084434D01*
X0396334Y0084447D01*
X0397057Y0084434D01*
X0397781Y0084434D01*
X0397794Y0084421D01*
X0397812Y0084421D01*
X0398315Y0083900D01*
X0398826Y0083389D01*
X0398826Y0083371D01*
X0398839Y0083358D01*
X0398826Y0082634D01*
X0398826Y0081911D01*
X0398813Y0081898D01*
X0398513Y0064822D01*
X0398513Y0064098D01*
X0398500Y0064086D01*
X0398500Y0064067D01*
X0397980Y0063565D01*
X0397468Y0063053D01*
X0397450Y0063053D01*
X0397437Y0063041D01*
X0396713Y0063053D01*
X0361393Y0063053D01*
X0361393Y0060672D01*
X0360780Y0060059D01*
X0395309Y0060059D01*
X0396001Y0060751D01*
X0399332Y0060751D01*
X0400143Y0059941D01*
X0400143Y0056609D01*
X0399332Y0055799D01*
X0396001Y0055799D01*
X0395309Y0056491D01*
X0363201Y0056491D01*
X0363201Y0054383D01*
X0363893Y0053691D01*
X0363893Y0050359D01*
X0363082Y0049549D01*
X0359751Y0049549D01*
X0358940Y0050359D01*
X0358940Y0053691D01*
X0359632Y0054383D01*
X0359632Y0054616D01*
X0349451Y0054616D01*
X0349451Y0053909D01*
X0350143Y0053217D01*
X0350143Y0049886D01*
X0349332Y0049075D01*
X0346001Y0049075D01*
X0345190Y0049886D01*
X0345190Y0052741D01*
X0313201Y0052741D01*
X0313201Y0051883D01*
X0313893Y0051191D01*
X0313893Y0047859D01*
X0313082Y0047049D01*
X0309751Y0047049D01*
X0308940Y0047859D01*
X0308940Y0050866D01*
X0295701Y0050866D01*
X0295701Y0050633D01*
X0296393Y0049941D01*
X0296393Y0046609D01*
X0295582Y0045799D01*
X0292251Y0045799D01*
X0291440Y0046609D01*
X0291440Y0048991D01*
X0265076Y0048991D01*
X0265076Y0048065D01*
X0265144Y0048134D01*
X0271016Y0048134D01*
X0271797Y0047353D01*
X0271853Y0047353D01*
X0272458Y0047958D01*
X0273404Y0048350D01*
X0274429Y0048350D01*
X0275375Y0047958D01*
X0276099Y0047234D01*
X0276491Y0046287D01*
X0276491Y0045263D01*
X0276099Y0044316D01*
X0275375Y0043592D01*
X0274429Y0043200D01*
X0273404Y0043200D01*
X0272458Y0043592D01*
X0272266Y0043784D01*
X0271797Y0043784D01*
X0271016Y0043003D01*
X0265768Y0043003D01*
X0265768Y0042859D01*
X0264957Y0042049D01*
X0261626Y0042049D01*
X0260815Y0042859D01*
X0260815Y0046191D01*
X0261507Y0046883D01*
X0261507Y0047116D01*
X0233467Y0047116D01*
X0233515Y0046934D01*
X0233515Y0045759D01*
X0229944Y0045759D01*
X0229944Y0045378D01*
X0233515Y0045378D01*
X0233515Y0044203D01*
X0233420Y0043847D01*
X0233236Y0043528D01*
X0232975Y0043267D01*
X0232656Y0043083D01*
X0232300Y0042987D01*
X0229944Y0042987D01*
X0229944Y0045378D01*
X0229563Y0045378D01*
X0229563Y0042987D01*
X0227207Y0042987D01*
X0226851Y0043083D01*
X0226531Y0043267D01*
X0226271Y0043528D01*
X0226086Y0043847D01*
X0225991Y0044203D01*
X0225991Y0045378D01*
X0229563Y0045378D01*
X0229563Y0045759D01*
X0225991Y0045759D01*
X0225991Y0046934D01*
X0226040Y0047116D01*
X0223648Y0047116D01*
X0223991Y0046287D01*
X0223991Y0045263D01*
X0223599Y0044316D01*
X0222875Y0043592D01*
X0221929Y0043200D01*
X0220904Y0043200D01*
X0219958Y0043592D01*
X0219766Y0043784D01*
X0219297Y0043784D01*
X0218516Y0043003D01*
X0212644Y0043003D01*
X0211834Y0043814D01*
X0211834Y0047116D01*
X0198003Y0047116D01*
X0196957Y0048161D01*
X0194253Y0050866D01*
X0191491Y0050866D01*
X0191491Y0049912D01*
X0192796Y0049912D01*
X0194304Y0048404D01*
X0194304Y0046271D01*
X0193513Y0045480D01*
X0193513Y0045036D01*
X0192468Y0043991D01*
X0185053Y0043991D01*
X0184007Y0045036D01*
X0184007Y0046491D01*
X0181015Y0046491D01*
X0181015Y0045759D01*
X0177444Y0045759D01*
X0177444Y0045378D01*
X0181015Y0045378D01*
X0181015Y0044203D01*
X0180920Y0043847D01*
X0180736Y0043528D01*
X0180475Y0043267D01*
X0180156Y0043083D01*
X0179800Y0042987D01*
X0177444Y0042987D01*
X0177444Y0045378D01*
X0177063Y0045378D01*
X0177063Y0042987D01*
X0174707Y0042987D01*
X0174351Y0043083D01*
X0174031Y0043267D01*
X0173771Y0043528D01*
X0173586Y0043847D01*
X0173491Y0044203D01*
X0173491Y0045378D01*
X0177063Y0045378D01*
X0177063Y0045759D01*
X0173491Y0045759D01*
X0173491Y0046491D01*
X0171148Y0046491D01*
X0171491Y0045662D01*
X0171491Y0044638D01*
X0171099Y0043691D01*
X0170375Y0042967D01*
X0169429Y0042575D01*
X0168404Y0042575D01*
X0167458Y0042967D01*
X0166734Y0043691D01*
X0166725Y0043712D01*
X0166016Y0043003D01*
X0160144Y0043003D01*
X0159334Y0043814D01*
X0159334Y0046491D01*
X0141638Y0046491D01*
X0141638Y0044501D01*
X0142145Y0044501D01*
X0142956Y0043691D01*
X0142956Y0040359D01*
X0142862Y0040266D01*
X0159363Y0040266D01*
X0160144Y0041047D01*
X0166016Y0041047D01*
X0166826Y0040236D01*
X0166826Y0036727D01*
X0166016Y0035916D01*
X0160144Y0035916D01*
X0159363Y0036697D01*
X0136928Y0036697D01*
X0135882Y0037743D01*
X0135882Y0053991D01*
X0108201Y0053991D01*
X0108201Y0048134D01*
X0113516Y0048134D01*
X0114297Y0047353D01*
X0114353Y0047353D01*
X0114958Y0047958D01*
X0115904Y0048350D01*
X0116929Y0048350D01*
X0117875Y0047958D01*
X0118599Y0047234D01*
X0118991Y0046287D01*
X0118991Y0045263D01*
X0118599Y0044316D01*
X0117875Y0043592D01*
X0116929Y0043200D01*
X0115904Y0043200D01*
X0114958Y0043592D01*
X0114766Y0043784D01*
X0114297Y0043784D01*
X0113516Y0043003D01*
X0108201Y0043003D01*
X0108201Y0041047D01*
X0113516Y0041047D01*
X0114326Y0040236D01*
X0114326Y0036727D01*
X0113516Y0035916D01*
X0107644Y0035916D01*
X0106863Y0036697D01*
X0106393Y0036697D01*
X0106393Y0036609D01*
X0105582Y0035799D01*
X0102251Y0035799D01*
X0101440Y0036609D01*
X0101440Y0039941D01*
X0102132Y0040633D01*
X0102132Y0046507D01*
X0078515Y0046727D01*
X0078515Y0045759D01*
X0074944Y0045759D01*
X0074944Y0045378D01*
X0078515Y0045378D01*
X0078515Y0044203D01*
X0078420Y0043847D01*
X0078236Y0043528D01*
X0077975Y0043267D01*
X0077656Y0043083D01*
X0077300Y0042987D01*
X0074944Y0042987D01*
X0074944Y0045378D01*
X0074563Y0045378D01*
X0074563Y0042987D01*
X0072207Y0042987D01*
X0071851Y0043083D01*
X0071531Y0043267D01*
X0071271Y0043528D01*
X0071086Y0043847D01*
X0070991Y0044203D01*
X0070991Y0045378D01*
X0074563Y0045378D01*
X0074563Y0045759D01*
X0070991Y0045759D01*
X0070991Y0046797D01*
X0068772Y0046817D01*
X0068991Y0046287D01*
X0068991Y0045263D01*
X0068599Y0044316D01*
X0067875Y0043592D01*
X0066929Y0043200D01*
X0065904Y0043200D01*
X0064958Y0043592D01*
X0064766Y0043784D01*
X0064297Y0043784D01*
X0063516Y0043003D01*
X0057644Y0043003D01*
X0056834Y0043814D01*
X0056834Y0046928D01*
X0036630Y0047116D01*
X0035899Y0047116D01*
X0035893Y0047123D01*
X0035883Y0047123D01*
X0035388Y0047626D01*
X0035388Y0040558D01*
X0056906Y0040309D01*
X0057644Y0041047D01*
X0063516Y0041047D01*
X0064326Y0040236D01*
X0064326Y0036727D01*
X0063516Y0035916D01*
X0057644Y0035916D01*
X0056834Y0036727D01*
X0056834Y0036741D01*
X0033594Y0037010D01*
X0032865Y0037010D01*
X0032857Y0037018D01*
X0032844Y0037019D01*
X0032335Y0037540D01*
X0031820Y0038055D01*
X0031820Y0038067D01*
X0031811Y0038076D01*
X0031820Y0038804D01*
X0031820Y0144726D01*
X0031818Y0144727D01*
X0031820Y0145464D01*
X0031820Y0145553D01*
X0026951Y0145553D01*
X0026951Y0083134D01*
X0027689Y0083134D01*
X0028500Y0082323D01*
X0028500Y0078814D01*
X0027689Y0078003D01*
X0021818Y0078003D01*
X0021007Y0078814D01*
X0021007Y0082323D01*
X0021818Y0083134D01*
X0023382Y0083134D01*
X0023382Y0147741D01*
X0006951Y0147741D01*
X0006951Y0082440D01*
X0007644Y0083134D01*
X0013516Y0083134D01*
X0014090Y0082559D01*
X0014560Y0082559D01*
X0014958Y0082958D01*
X0015904Y0083350D01*
X0016929Y0083350D01*
X0017875Y0082958D01*
X0018599Y0082234D01*
X0018991Y0081287D01*
X0018991Y0080263D01*
X0018599Y0079316D01*
X0017875Y0078592D01*
X0016929Y0078200D01*
X0015904Y0078200D01*
X0014958Y0078592D01*
X0014560Y0078991D01*
X0014326Y0078991D01*
X0014326Y0078814D01*
X0013516Y0078003D01*
X0007644Y0078003D01*
X0006951Y0078697D01*
X0006951Y0075268D01*
X0007098Y0075522D01*
X0007358Y0075783D01*
X0007677Y0075967D01*
X0008034Y0076063D01*
X0010389Y0076063D01*
X0010389Y0073672D01*
X0010771Y0073672D01*
X0014342Y0073672D01*
X0014342Y0074847D01*
X0014247Y0075203D01*
X0014063Y0075522D01*
X0013802Y0075783D01*
X0013483Y0075967D01*
X0013127Y0076063D01*
X0010771Y0076063D01*
X0010771Y0073672D01*
X0010771Y0073291D01*
X0014342Y0073291D01*
X0014342Y0072116D01*
X0014247Y0071760D01*
X0014063Y0071441D01*
X0013802Y0071180D01*
X0013483Y0070996D01*
X0013127Y0070901D01*
X0010771Y0070901D01*
X0010771Y0073291D01*
X0010389Y0073291D01*
X0010389Y0070901D01*
X0008034Y0070901D01*
X0007677Y0070996D01*
X0007358Y0071180D01*
X0007098Y0071441D01*
X0006951Y0071695D01*
X0006951Y0047440D01*
X0007644Y0048134D01*
X0013516Y0048134D01*
X0014297Y0047353D01*
X0014353Y0047353D01*
X0014958Y0047958D01*
X0015904Y0048350D01*
X0016929Y0048350D01*
X0017875Y0047958D01*
X0018599Y0047234D01*
X0018991Y0046287D01*
X0018991Y0045263D01*
X0018599Y0044316D01*
X0017875Y0043592D01*
X0016929Y0043200D01*
X0015904Y0043200D01*
X0014958Y0043592D01*
X0014766Y0043784D01*
X0014297Y0043784D01*
X0013516Y0043003D01*
X0007644Y0043003D01*
X0006951Y0043697D01*
X0006951Y0040353D01*
X0007644Y0041047D01*
X0013516Y0041047D01*
X0014326Y0040236D01*
X0014326Y0036727D01*
X0013516Y0035916D01*
X0007644Y0035916D01*
X0006863Y0036697D01*
X0004428Y0036697D01*
X0004067Y0037058D01*
X0004067Y0036607D02*
X0006954Y0036607D01*
X0005167Y0038482D02*
X0010580Y0038482D01*
X0014326Y0038204D02*
X0016342Y0038204D01*
X0016342Y0037763D02*
X0016734Y0036816D01*
X0017458Y0036092D01*
X0018404Y0035700D01*
X0019429Y0035700D01*
X0020375Y0036092D01*
X0020774Y0036491D01*
X0021243Y0036491D01*
X0021818Y0035916D01*
X0027689Y0035916D01*
X0028500Y0036727D01*
X0028500Y0040236D01*
X0027689Y0041047D01*
X0021818Y0041047D01*
X0021007Y0040236D01*
X0021007Y0040059D01*
X0020774Y0040059D01*
X0020375Y0040458D01*
X0019429Y0040850D01*
X0018404Y0040850D01*
X0017458Y0040458D01*
X0016734Y0039734D01*
X0016342Y0038787D01*
X0016342Y0037763D01*
X0016490Y0037406D02*
X0014326Y0037406D01*
X0014206Y0036607D02*
X0016943Y0036607D01*
X0018143Y0035809D02*
X0004067Y0035809D01*
X0004067Y0035010D02*
X0472876Y0035010D01*
X0472876Y0034212D02*
X0004067Y0034212D01*
X0004067Y0033413D02*
X0472876Y0033413D01*
X0472876Y0032615D02*
X0004067Y0032615D01*
X0004067Y0031816D02*
X0472876Y0031816D01*
X0472876Y0031018D02*
X0004067Y0031018D01*
X0004067Y0030219D02*
X0472876Y0030219D01*
X0472876Y0029421D02*
X0004067Y0029421D01*
X0004067Y0028622D02*
X0472876Y0028622D01*
X0488676Y0028622D02*
X0497958Y0028622D01*
X0497959Y0029421D02*
X0488676Y0029421D01*
X0488676Y0030219D02*
X0497961Y0030219D01*
X0497962Y0031018D02*
X0488676Y0031018D01*
X0488676Y0031816D02*
X0497964Y0031816D01*
X0497965Y0032615D02*
X0488676Y0032615D01*
X0488676Y0033413D02*
X0497967Y0033413D01*
X0497968Y0034212D02*
X0488676Y0034212D01*
X0488676Y0035010D02*
X0497970Y0035010D01*
X0497971Y0035809D02*
X0488676Y0035809D01*
X0488676Y0036607D02*
X0497973Y0036607D01*
X0497975Y0037406D02*
X0488676Y0037406D01*
X0488676Y0038204D02*
X0497976Y0038204D01*
X0497978Y0039003D02*
X0488676Y0039003D01*
X0488676Y0039801D02*
X0497979Y0039801D01*
X0497981Y0040600D02*
X0488676Y0040600D01*
X0488676Y0041398D02*
X0497982Y0041398D01*
X0497984Y0042197D02*
X0488676Y0042197D01*
X0497985Y0042995D02*
X0387330Y0042995D01*
X0387300Y0042987D02*
X0387656Y0043083D01*
X0387975Y0043267D01*
X0388236Y0043528D01*
X0388420Y0043847D01*
X0388515Y0044203D01*
X0388515Y0045378D01*
X0384944Y0045378D01*
X0384944Y0045759D01*
X0388515Y0045759D01*
X0388515Y0046934D01*
X0388420Y0047290D01*
X0388236Y0047609D01*
X0387975Y0047870D01*
X0387656Y0048054D01*
X0387300Y0048149D01*
X0384944Y0048149D01*
X0384944Y0045759D01*
X0384563Y0045759D01*
X0384563Y0048149D01*
X0382207Y0048149D01*
X0381851Y0048054D01*
X0381531Y0047870D01*
X0381271Y0047609D01*
X0381086Y0047290D01*
X0380991Y0046934D01*
X0380991Y0045759D01*
X0384563Y0045759D01*
X0384563Y0045378D01*
X0384944Y0045378D01*
X0384944Y0042987D01*
X0387300Y0042987D01*
X0388389Y0043794D02*
X0497987Y0043794D01*
X0497988Y0044592D02*
X0388515Y0044592D01*
X0388191Y0045568D02*
X0384753Y0045568D01*
X0384563Y0045391D02*
X0378991Y0045391D01*
X0378991Y0045263D02*
X0378991Y0046287D01*
X0378599Y0047234D01*
X0377875Y0047958D01*
X0376929Y0048350D01*
X0375904Y0048350D01*
X0374958Y0047958D01*
X0374353Y0047353D01*
X0374297Y0047353D01*
X0373516Y0048134D01*
X0367644Y0048134D01*
X0366834Y0047323D01*
X0366834Y0043814D01*
X0367644Y0043003D01*
X0373516Y0043003D01*
X0374297Y0043784D01*
X0374766Y0043784D01*
X0374958Y0043592D01*
X0375904Y0043200D01*
X0376929Y0043200D01*
X0377875Y0043592D01*
X0378599Y0044316D01*
X0378991Y0045263D01*
X0378714Y0044592D02*
X0380991Y0044592D01*
X0380991Y0044203D02*
X0381086Y0043847D01*
X0381271Y0043528D01*
X0381531Y0043267D01*
X0381851Y0043083D01*
X0382207Y0042987D01*
X0384563Y0042987D01*
X0384563Y0045378D01*
X0380991Y0045378D01*
X0380991Y0044203D01*
X0381117Y0043794D02*
X0378077Y0043794D01*
X0378404Y0040850D02*
X0377458Y0040458D01*
X0376734Y0039734D01*
X0376342Y0038787D01*
X0376342Y0037763D01*
X0376734Y0036816D01*
X0377458Y0036092D01*
X0378404Y0035700D01*
X0379429Y0035700D01*
X0380375Y0036092D01*
X0380774Y0036491D01*
X0381243Y0036491D01*
X0381818Y0035916D01*
X0387689Y0035916D01*
X0388500Y0036727D01*
X0388500Y0040236D01*
X0387689Y0041047D01*
X0381818Y0041047D01*
X0381007Y0040236D01*
X0381007Y0040059D01*
X0380774Y0040059D01*
X0380375Y0040458D01*
X0379429Y0040850D01*
X0378404Y0040850D01*
X0377801Y0040600D02*
X0373963Y0040600D01*
X0374326Y0040236D02*
X0373516Y0041047D01*
X0367644Y0041047D01*
X0366863Y0040266D01*
X0361393Y0040266D01*
X0361393Y0041191D01*
X0360582Y0042001D01*
X0357251Y0042001D01*
X0356440Y0041191D01*
X0356440Y0037859D01*
X0357251Y0037049D01*
X0357826Y0037049D01*
X0358178Y0036697D01*
X0366863Y0036697D01*
X0367644Y0035916D01*
X0373516Y0035916D01*
X0374326Y0036727D01*
X0374326Y0040236D01*
X0374326Y0039801D02*
X0376802Y0039801D01*
X0376431Y0039003D02*
X0374326Y0039003D01*
X0374326Y0038204D02*
X0376342Y0038204D01*
X0376490Y0037406D02*
X0374326Y0037406D01*
X0374206Y0036607D02*
X0376943Y0036607D01*
X0378143Y0035809D02*
X0329691Y0035809D01*
X0329429Y0035700D02*
X0330375Y0036092D01*
X0330774Y0036491D01*
X0331243Y0036491D01*
X0331818Y0035916D01*
X0337689Y0035916D01*
X0338500Y0036727D01*
X0338500Y0040236D01*
X0337689Y0041047D01*
X0331818Y0041047D01*
X0331007Y0040236D01*
X0331007Y0040059D01*
X0330774Y0040059D01*
X0330375Y0040458D01*
X0329429Y0040850D01*
X0328404Y0040850D01*
X0327458Y0040458D01*
X0326734Y0039734D01*
X0326342Y0038787D01*
X0326342Y0037763D01*
X0326734Y0036816D01*
X0327458Y0036092D01*
X0328404Y0035700D01*
X0329429Y0035700D01*
X0328143Y0035809D02*
X0277191Y0035809D01*
X0276929Y0035700D02*
X0277875Y0036092D01*
X0278274Y0036491D01*
X0278743Y0036491D01*
X0279318Y0035916D01*
X0285189Y0035916D01*
X0286000Y0036727D01*
X0286000Y0040236D01*
X0285189Y0041047D01*
X0279318Y0041047D01*
X0278507Y0040236D01*
X0278507Y0040059D01*
X0278274Y0040059D01*
X0277875Y0040458D01*
X0276929Y0040850D01*
X0275904Y0040850D01*
X0274958Y0040458D01*
X0274234Y0039734D01*
X0273842Y0038787D01*
X0273842Y0037763D01*
X0274234Y0036816D01*
X0274958Y0036092D01*
X0275904Y0035700D01*
X0276929Y0035700D01*
X0275643Y0035809D02*
X0224691Y0035809D01*
X0224429Y0035700D02*
X0225375Y0036092D01*
X0225774Y0036491D01*
X0226243Y0036491D01*
X0226818Y0035916D01*
X0232689Y0035916D01*
X0233500Y0036727D01*
X0233500Y0040236D01*
X0232689Y0041047D01*
X0226818Y0041047D01*
X0226007Y0040236D01*
X0226007Y0040059D01*
X0225774Y0040059D01*
X0225375Y0040458D01*
X0224429Y0040850D01*
X0223404Y0040850D01*
X0222458Y0040458D01*
X0221734Y0039734D01*
X0221342Y0038787D01*
X0221342Y0037763D01*
X0221734Y0036816D01*
X0222458Y0036092D01*
X0223404Y0035700D01*
X0224429Y0035700D01*
X0223143Y0035809D02*
X0172191Y0035809D01*
X0171929Y0035700D02*
X0172875Y0036092D01*
X0173274Y0036491D01*
X0173743Y0036491D01*
X0174318Y0035916D01*
X0180189Y0035916D01*
X0181000Y0036727D01*
X0181000Y0040236D01*
X0180189Y0041047D01*
X0174318Y0041047D01*
X0173507Y0040236D01*
X0173507Y0040059D01*
X0173274Y0040059D01*
X0172875Y0040458D01*
X0171929Y0040850D01*
X0170904Y0040850D01*
X0169958Y0040458D01*
X0169234Y0039734D01*
X0168842Y0038787D01*
X0168842Y0037763D01*
X0169234Y0036816D01*
X0169958Y0036092D01*
X0170904Y0035700D01*
X0171929Y0035700D01*
X0170643Y0035809D02*
X0119691Y0035809D01*
X0119429Y0035700D02*
X0120375Y0036092D01*
X0120774Y0036491D01*
X0121243Y0036491D01*
X0121818Y0035916D01*
X0127689Y0035916D01*
X0128500Y0036727D01*
X0128500Y0040236D01*
X0127689Y0041047D01*
X0121818Y0041047D01*
X0121007Y0040236D01*
X0121007Y0040059D01*
X0120774Y0040059D01*
X0120375Y0040458D01*
X0119429Y0040850D01*
X0118404Y0040850D01*
X0117458Y0040458D01*
X0116734Y0039734D01*
X0116342Y0038787D01*
X0116342Y0037763D01*
X0116734Y0036816D01*
X0117458Y0036092D01*
X0118404Y0035700D01*
X0119429Y0035700D01*
X0118143Y0035809D02*
X0105592Y0035809D01*
X0106391Y0036607D02*
X0106954Y0036607D01*
X0106417Y0038482D02*
X0110580Y0038482D01*
X0114326Y0038204D02*
X0116342Y0038204D01*
X0116431Y0039003D02*
X0114326Y0039003D01*
X0114326Y0039801D02*
X0116802Y0039801D01*
X0117801Y0040600D02*
X0113963Y0040600D01*
X0114326Y0037406D02*
X0116490Y0037406D01*
X0116943Y0036607D02*
X0114206Y0036607D01*
X0118917Y0038275D02*
X0124753Y0038275D01*
X0124753Y0038482D01*
X0128500Y0038204D02*
X0135882Y0038204D01*
X0135882Y0039003D02*
X0128500Y0039003D01*
X0128500Y0039801D02*
X0135882Y0039801D01*
X0135882Y0040600D02*
X0128136Y0040600D01*
X0128500Y0037406D02*
X0136219Y0037406D01*
X0137667Y0038482D02*
X0163080Y0038482D01*
X0166826Y0038204D02*
X0168842Y0038204D01*
X0168931Y0039003D02*
X0166826Y0039003D01*
X0166826Y0039801D02*
X0169302Y0039801D01*
X0170301Y0040600D02*
X0166463Y0040600D01*
X0166826Y0037406D02*
X0168990Y0037406D01*
X0169443Y0036607D02*
X0166706Y0036607D01*
X0171417Y0038275D02*
X0177253Y0038275D01*
X0177253Y0038482D01*
X0181000Y0038204D02*
X0201440Y0038204D01*
X0201440Y0037406D02*
X0181000Y0037406D01*
X0180880Y0036607D02*
X0201649Y0036607D01*
X0201440Y0036816D02*
X0202251Y0036005D01*
X0205582Y0036005D01*
X0206274Y0036697D01*
X0211863Y0036697D01*
X0212644Y0035916D01*
X0218516Y0035916D01*
X0219326Y0036727D01*
X0219326Y0040236D01*
X0218516Y0041047D01*
X0212644Y0041047D01*
X0211863Y0040266D01*
X0206274Y0040266D01*
X0205582Y0040958D01*
X0202251Y0040958D01*
X0201440Y0040147D01*
X0201440Y0036816D01*
X0201440Y0039003D02*
X0181000Y0039003D01*
X0181000Y0039801D02*
X0201440Y0039801D01*
X0201893Y0040600D02*
X0180636Y0040600D01*
X0173870Y0040600D02*
X0172533Y0040600D01*
X0170403Y0042995D02*
X0174677Y0042995D01*
X0173617Y0043794D02*
X0171142Y0043794D01*
X0171473Y0044592D02*
X0173491Y0044592D01*
X0173491Y0046189D02*
X0171273Y0046189D01*
X0171491Y0045391D02*
X0177063Y0045391D01*
X0177253Y0045568D02*
X0180691Y0045568D01*
X0181015Y0046189D02*
X0184007Y0046189D01*
X0184007Y0045391D02*
X0177444Y0045391D01*
X0177444Y0044592D02*
X0177063Y0044592D01*
X0177063Y0043794D02*
X0177444Y0043794D01*
X0177444Y0042995D02*
X0177063Y0042995D01*
X0179830Y0042995D02*
X0227177Y0042995D01*
X0226117Y0043794D02*
X0223077Y0043794D01*
X0223714Y0044592D02*
X0225991Y0044592D01*
X0225991Y0046189D02*
X0223991Y0046189D01*
X0223991Y0045391D02*
X0229563Y0045391D01*
X0229753Y0045568D02*
X0233191Y0045568D01*
X0233515Y0046189D02*
X0260815Y0046189D01*
X0260815Y0045391D02*
X0229944Y0045391D01*
X0229944Y0044592D02*
X0229563Y0044592D01*
X0229563Y0043794D02*
X0229944Y0043794D01*
X0229944Y0042995D02*
X0229563Y0042995D01*
X0232330Y0042995D02*
X0260815Y0042995D01*
X0260815Y0043794D02*
X0233389Y0043794D01*
X0233515Y0044592D02*
X0260815Y0044592D01*
X0263292Y0044525D02*
X0263292Y0048900D01*
X0198742Y0048900D01*
X0194992Y0052650D01*
X0145479Y0052650D01*
X0145479Y0067963D01*
X0143917Y0069525D01*
X0142051Y0067749D02*
X0138201Y0067749D01*
X0138201Y0068548D02*
X0141342Y0068548D01*
X0141342Y0069346D02*
X0138201Y0069346D01*
X0138201Y0070145D02*
X0141342Y0070145D01*
X0141693Y0070943D02*
X0138201Y0070943D01*
X0138201Y0071742D02*
X0142492Y0071742D01*
X0143217Y0072540D02*
X0138201Y0072540D01*
X0138201Y0073339D02*
X0143217Y0073339D01*
X0143638Y0074137D02*
X0138201Y0074137D01*
X0138201Y0074936D02*
X0144436Y0074936D01*
X0145092Y0075734D02*
X0138201Y0075734D01*
X0138201Y0076533D02*
X0145092Y0076533D01*
X0145582Y0077331D02*
X0138201Y0077331D01*
X0138201Y0078130D02*
X0146380Y0078130D01*
X0146967Y0078928D02*
X0138201Y0078928D01*
X0138201Y0079727D02*
X0146967Y0079727D01*
X0147526Y0080525D02*
X0138201Y0080525D01*
X0138201Y0081324D02*
X0148324Y0081324D01*
X0148842Y0082122D02*
X0138201Y0082122D01*
X0138201Y0082921D02*
X0148842Y0082921D01*
X0149470Y0083719D02*
X0138201Y0083719D01*
X0138201Y0084518D02*
X0150268Y0084518D01*
X0151029Y0085316D02*
X0138149Y0085316D01*
X0137350Y0086115D02*
X0151029Y0086115D01*
X0151726Y0086913D02*
X0087802Y0086913D01*
X0088201Y0086115D02*
X0124858Y0086115D01*
X0124060Y0085316D02*
X0088201Y0085316D01*
X0088201Y0084518D02*
X0124007Y0084518D01*
X0124007Y0083719D02*
X0088201Y0083719D01*
X0088201Y0082921D02*
X0107432Y0082921D01*
X0107644Y0083134D02*
X0106834Y0082323D01*
X0106834Y0078814D01*
X0107644Y0078003D01*
X0113516Y0078003D01*
X0114326Y0078814D01*
X0114326Y0078991D01*
X0114560Y0078991D01*
X0114958Y0078592D01*
X0115904Y0078200D01*
X0116929Y0078200D01*
X0117875Y0078592D01*
X0118599Y0079316D01*
X0118991Y0080263D01*
X0118991Y0081287D01*
X0118599Y0082234D01*
X0117875Y0082958D01*
X0116929Y0083350D01*
X0115904Y0083350D01*
X0114958Y0082958D01*
X0114560Y0082559D01*
X0114090Y0082559D01*
X0113516Y0083134D01*
X0107644Y0083134D01*
X0106834Y0082122D02*
X0088201Y0082122D01*
X0088201Y0081324D02*
X0106834Y0081324D01*
X0106834Y0080525D02*
X0088201Y0080525D01*
X0088201Y0079727D02*
X0106834Y0079727D01*
X0106834Y0078928D02*
X0088201Y0078928D01*
X0088201Y0078130D02*
X0107518Y0078130D01*
X0110580Y0080568D02*
X0110580Y0080775D01*
X0116417Y0080775D01*
X0118211Y0078928D02*
X0121007Y0078928D01*
X0121007Y0079727D02*
X0118769Y0079727D01*
X0118991Y0080525D02*
X0121007Y0080525D01*
X0121007Y0081324D02*
X0118976Y0081324D01*
X0118646Y0082122D02*
X0121007Y0082122D01*
X0121605Y0082921D02*
X0117912Y0082921D01*
X0114921Y0082921D02*
X0113728Y0082921D01*
X0114326Y0078928D02*
X0114622Y0078928D01*
X0113642Y0078130D02*
X0121691Y0078130D01*
X0124753Y0080568D02*
X0125792Y0080568D01*
X0125792Y0084525D01*
X0129369Y0084525D01*
X0130157Y0084525D01*
X0136417Y0084525D01*
X0136417Y0065150D01*
X0054542Y0065150D01*
X0054542Y0107650D01*
X0057042Y0107650D01*
X0057042Y0136088D01*
X0167042Y0136088D01*
X0167042Y0120775D01*
X0177042Y0120775D01*
X0178762Y0118854D02*
X0238382Y0118854D01*
X0238382Y0119652D02*
X0179560Y0119652D01*
X0179616Y0120451D02*
X0238382Y0120451D01*
X0238382Y0121249D02*
X0179616Y0121249D01*
X0179410Y0122048D02*
X0238382Y0122048D01*
X0238382Y0122846D02*
X0178612Y0122846D01*
X0178553Y0123645D02*
X0238382Y0123645D01*
X0238382Y0124443D02*
X0179351Y0124443D01*
X0179616Y0125242D02*
X0238382Y0125242D01*
X0238382Y0126040D02*
X0179616Y0126040D01*
X0179616Y0126839D02*
X0238382Y0126839D01*
X0238382Y0127637D02*
X0178821Y0127637D01*
X0178344Y0128436D02*
X0238382Y0128436D01*
X0238382Y0129234D02*
X0179142Y0129234D01*
X0179616Y0130033D02*
X0238382Y0130033D01*
X0238382Y0130831D02*
X0179616Y0130831D01*
X0179616Y0131630D02*
X0239123Y0131630D01*
X0240167Y0130150D02*
X0281417Y0130150D01*
X0281417Y0133900D01*
X0283991Y0134026D02*
X0297415Y0134026D01*
X0297198Y0134242D02*
X0298009Y0133431D01*
X0302324Y0133431D01*
X0302884Y0133991D01*
X0322132Y0133991D01*
X0322132Y0127775D01*
X0321332Y0126975D01*
X0321332Y0123428D01*
X0322143Y0122617D01*
X0325690Y0122617D01*
X0326501Y0123428D01*
X0326501Y0126975D01*
X0325701Y0127775D01*
X0325701Y0128191D01*
X0328815Y0128191D01*
X0329615Y0128991D01*
X0450882Y0128991D01*
X0450882Y0060892D01*
X0451928Y0059847D01*
X0458192Y0059847D01*
X0458378Y0059397D01*
X0459487Y0058288D01*
X0460937Y0057688D01*
X0462505Y0057688D01*
X0463955Y0058288D01*
X0465064Y0059397D01*
X0465664Y0060847D01*
X0465664Y0062415D01*
X0465064Y0063865D01*
X0464988Y0063941D01*
X0468192Y0063941D01*
X0468378Y0063492D01*
X0469487Y0062383D01*
X0470937Y0061782D01*
X0472505Y0061782D01*
X0473955Y0062383D01*
X0474007Y0062435D01*
X0474007Y0060984D01*
X0473955Y0061037D01*
X0472505Y0061637D01*
X0470937Y0061637D01*
X0469487Y0061037D01*
X0468378Y0059928D01*
X0467778Y0058478D01*
X0467778Y0056910D01*
X0468378Y0055460D01*
X0469487Y0054351D01*
X0470937Y0053751D01*
X0472505Y0053751D01*
X0473955Y0054351D01*
X0475064Y0055460D01*
X0475250Y0055910D01*
X0476531Y0055910D01*
X0477576Y0056955D01*
X0477576Y0076763D01*
X0488442Y0076763D01*
X0488676Y0076997D01*
X0488676Y0092328D01*
X0488442Y0092563D01*
X0473111Y0092563D01*
X0472876Y0092328D01*
X0472876Y0078184D01*
X0458201Y0078184D01*
X0458201Y0136514D01*
X0457156Y0137559D01*
X0303135Y0137559D01*
X0303135Y0138558D01*
X0302324Y0139368D01*
X0298009Y0139368D01*
X0297198Y0138558D01*
X0297198Y0134242D01*
X0297198Y0134824D02*
X0283991Y0134824D01*
X0283991Y0135623D02*
X0297198Y0135623D01*
X0297198Y0136421D02*
X0283234Y0136421D01*
X0279599Y0136421D02*
X0179616Y0136421D01*
X0179616Y0135623D02*
X0278842Y0135623D01*
X0278842Y0134824D02*
X0179616Y0134824D01*
X0178933Y0134026D02*
X0278842Y0134026D01*
X0278842Y0133227D02*
X0178231Y0133227D01*
X0179029Y0132428D02*
X0278842Y0132428D01*
X0284485Y0130775D02*
X0284485Y0127650D01*
X0242042Y0127650D01*
X0242042Y0104895D01*
X0237667Y0104895D01*
X0139492Y0104310D01*
X0137092Y0104310D01*
X0137092Y0105546D01*
X0132667Y0105520D01*
X0130190Y0105279D02*
X0061951Y0105279D01*
X0061951Y0106078D02*
X0130190Y0106078D01*
X0130190Y0104481D02*
X0061396Y0104481D01*
X0060167Y0105775D02*
X0060167Y0133588D01*
X0165167Y0133588D01*
X0165167Y0115775D01*
X0177042Y0115775D01*
X0179616Y0115660D02*
X0238382Y0115660D01*
X0238382Y0116458D02*
X0179616Y0116458D01*
X0179201Y0117257D02*
X0238382Y0117257D01*
X0238382Y0118055D02*
X0178403Y0118055D01*
X0179616Y0114861D02*
X0238382Y0114861D01*
X0238382Y0114063D02*
X0178971Y0114063D01*
X0178172Y0113264D02*
X0238382Y0113264D01*
X0238382Y0112466D02*
X0061951Y0112466D01*
X0061951Y0113264D02*
X0175911Y0113264D01*
X0164356Y0114063D02*
X0061951Y0114063D01*
X0061951Y0114861D02*
X0163557Y0114861D01*
X0163382Y0115660D02*
X0061951Y0115660D01*
X0061951Y0116458D02*
X0163382Y0116458D01*
X0163382Y0117257D02*
X0061951Y0117257D01*
X0061951Y0118055D02*
X0163382Y0118055D01*
X0163382Y0118854D02*
X0061951Y0118854D01*
X0061951Y0119652D02*
X0163382Y0119652D01*
X0163382Y0120451D02*
X0061951Y0120451D01*
X0061951Y0121249D02*
X0163382Y0121249D01*
X0163382Y0122048D02*
X0061951Y0122048D01*
X0061951Y0122846D02*
X0163382Y0122846D01*
X0163382Y0123645D02*
X0061951Y0123645D01*
X0061951Y0124443D02*
X0163382Y0124443D01*
X0163382Y0125242D02*
X0061951Y0125242D01*
X0061951Y0126040D02*
X0163382Y0126040D01*
X0163382Y0126839D02*
X0061951Y0126839D01*
X0061951Y0127637D02*
X0163382Y0127637D01*
X0163382Y0128436D02*
X0061951Y0128436D01*
X0061951Y0129234D02*
X0163382Y0129234D01*
X0163382Y0130033D02*
X0061951Y0130033D01*
X0061951Y0130831D02*
X0163382Y0130831D01*
X0163382Y0131630D02*
X0061951Y0131630D01*
X0047042Y0138588D02*
X0168917Y0138588D01*
X0168917Y0125775D01*
X0177042Y0125775D01*
X0177042Y0130775D02*
X0170792Y0130775D01*
X0170792Y0140775D01*
X0041729Y0140775D01*
X0041417Y0055775D01*
X0137667Y0055775D01*
X0137667Y0038482D01*
X0142956Y0040600D02*
X0159697Y0040600D01*
X0159354Y0043794D02*
X0142852Y0043794D01*
X0142956Y0042995D02*
X0167430Y0042995D01*
X0168917Y0045150D02*
X0168917Y0045568D01*
X0163080Y0045568D01*
X0159334Y0045391D02*
X0141638Y0045391D01*
X0141638Y0046189D02*
X0159334Y0046189D01*
X0159334Y0044592D02*
X0141638Y0044592D01*
X0142956Y0042197D02*
X0261478Y0042197D01*
X0264363Y0040266D02*
X0244399Y0040266D01*
X0243707Y0040958D01*
X0240376Y0040958D01*
X0239565Y0040147D01*
X0239565Y0036816D01*
X0240376Y0036005D01*
X0243707Y0036005D01*
X0244399Y0036697D01*
X0264363Y0036697D01*
X0265144Y0035916D01*
X0271016Y0035916D01*
X0271826Y0036727D01*
X0271826Y0040236D01*
X0271016Y0041047D01*
X0265144Y0041047D01*
X0264363Y0040266D01*
X0264697Y0040600D02*
X0244066Y0040600D01*
X0242042Y0038482D02*
X0268080Y0038482D01*
X0271826Y0038204D02*
X0273842Y0038204D01*
X0273931Y0039003D02*
X0271826Y0039003D01*
X0271826Y0039801D02*
X0274302Y0039801D01*
X0275301Y0040600D02*
X0271463Y0040600D01*
X0271826Y0037406D02*
X0273990Y0037406D01*
X0274443Y0036607D02*
X0271706Y0036607D01*
X0276417Y0038275D02*
X0282253Y0038275D01*
X0282253Y0038482D01*
X0286000Y0038204D02*
X0306440Y0038204D01*
X0306440Y0037406D02*
X0286000Y0037406D01*
X0285880Y0036607D02*
X0306649Y0036607D01*
X0306440Y0036816D02*
X0307251Y0036005D01*
X0310582Y0036005D01*
X0311274Y0036697D01*
X0316863Y0036697D01*
X0317644Y0035916D01*
X0323516Y0035916D01*
X0324326Y0036727D01*
X0324326Y0040236D01*
X0323516Y0041047D01*
X0317644Y0041047D01*
X0316863Y0040266D01*
X0311274Y0040266D01*
X0310582Y0040958D01*
X0307251Y0040958D01*
X0306440Y0040147D01*
X0306440Y0036816D01*
X0306440Y0039003D02*
X0286000Y0039003D01*
X0286000Y0039801D02*
X0306440Y0039801D01*
X0306893Y0040600D02*
X0285636Y0040600D01*
X0278870Y0040600D02*
X0277533Y0040600D01*
X0279031Y0043267D02*
X0279351Y0043083D01*
X0279707Y0042987D01*
X0282063Y0042987D01*
X0282063Y0045378D01*
X0282444Y0045378D01*
X0282444Y0045759D01*
X0286015Y0045759D01*
X0286015Y0046934D01*
X0285920Y0047290D01*
X0285736Y0047609D01*
X0285475Y0047870D01*
X0285156Y0048054D01*
X0284800Y0048149D01*
X0282444Y0048149D01*
X0282444Y0045759D01*
X0282063Y0045759D01*
X0282063Y0048149D01*
X0279707Y0048149D01*
X0279351Y0048054D01*
X0279031Y0047870D01*
X0278771Y0047609D01*
X0278586Y0047290D01*
X0278491Y0046934D01*
X0278491Y0045759D01*
X0282063Y0045759D01*
X0282063Y0045378D01*
X0278491Y0045378D01*
X0278491Y0044203D01*
X0278586Y0043847D01*
X0278771Y0043528D01*
X0279031Y0043267D01*
X0278617Y0043794D02*
X0275577Y0043794D01*
X0276214Y0044592D02*
X0278491Y0044592D01*
X0278491Y0046189D02*
X0276491Y0046189D01*
X0276491Y0045391D02*
X0282063Y0045391D01*
X0282253Y0045568D02*
X0285691Y0045568D01*
X0286015Y0045378D02*
X0282444Y0045378D01*
X0282444Y0042987D01*
X0284800Y0042987D01*
X0285156Y0043083D01*
X0285475Y0043267D01*
X0285736Y0043528D01*
X0285920Y0043847D01*
X0286015Y0044203D01*
X0286015Y0045378D01*
X0286015Y0044592D02*
X0316834Y0044592D01*
X0316834Y0043814D02*
X0317644Y0043003D01*
X0323516Y0043003D01*
X0324297Y0043784D01*
X0324766Y0043784D01*
X0324958Y0043592D01*
X0325904Y0043200D01*
X0326929Y0043200D01*
X0327875Y0043592D01*
X0328599Y0044316D01*
X0328991Y0045263D01*
X0328991Y0046287D01*
X0328599Y0047234D01*
X0327875Y0047958D01*
X0326929Y0048350D01*
X0325904Y0048350D01*
X0324958Y0047958D01*
X0324353Y0047353D01*
X0324297Y0047353D01*
X0323516Y0048134D01*
X0317644Y0048134D01*
X0316834Y0047323D01*
X0316834Y0043814D01*
X0316854Y0043794D02*
X0285889Y0043794D01*
X0284830Y0042995D02*
X0332177Y0042995D01*
X0332207Y0042987D02*
X0334563Y0042987D01*
X0334563Y0045378D01*
X0334944Y0045378D01*
X0334944Y0045759D01*
X0338515Y0045759D01*
X0338515Y0046934D01*
X0338420Y0047290D01*
X0338236Y0047609D01*
X0337975Y0047870D01*
X0337656Y0048054D01*
X0337300Y0048149D01*
X0334944Y0048149D01*
X0334944Y0045759D01*
X0334563Y0045759D01*
X0334563Y0048149D01*
X0332207Y0048149D01*
X0331851Y0048054D01*
X0331531Y0047870D01*
X0331271Y0047609D01*
X0331086Y0047290D01*
X0330991Y0046934D01*
X0330991Y0045759D01*
X0334563Y0045759D01*
X0334563Y0045378D01*
X0330991Y0045378D01*
X0330991Y0044203D01*
X0331086Y0043847D01*
X0331271Y0043528D01*
X0331531Y0043267D01*
X0331851Y0043083D01*
X0332207Y0042987D01*
X0331117Y0043794D02*
X0328077Y0043794D01*
X0328714Y0044592D02*
X0330991Y0044592D01*
X0330991Y0046189D02*
X0328991Y0046189D01*
X0328991Y0045391D02*
X0334563Y0045391D01*
X0334753Y0045568D02*
X0338191Y0045568D01*
X0338515Y0045378D02*
X0334944Y0045378D01*
X0334944Y0042987D01*
X0337300Y0042987D01*
X0337656Y0043083D01*
X0337975Y0043267D01*
X0338236Y0043528D01*
X0338420Y0043847D01*
X0338515Y0044203D01*
X0338515Y0045378D01*
X0338515Y0044592D02*
X0366834Y0044592D01*
X0366854Y0043794D02*
X0338389Y0043794D01*
X0337330Y0042995D02*
X0382177Y0042995D01*
X0384563Y0042995D02*
X0384944Y0042995D01*
X0384944Y0043794D02*
X0384563Y0043794D01*
X0384563Y0044592D02*
X0384944Y0044592D01*
X0384944Y0045391D02*
X0497990Y0045391D01*
X0497991Y0046189D02*
X0473649Y0046189D01*
X0473596Y0046154D02*
X0474245Y0046587D01*
X0474796Y0047139D01*
X0475230Y0047787D01*
X0475528Y0048508D01*
X0475680Y0049273D01*
X0475680Y0049275D01*
X0472109Y0049275D01*
X0472109Y0050050D01*
X0475680Y0050050D01*
X0475680Y0050053D01*
X0475528Y0050817D01*
X0475230Y0051538D01*
X0474796Y0052186D01*
X0474245Y0052738D01*
X0473596Y0053171D01*
X0472876Y0053470D01*
X0472111Y0053622D01*
X0472109Y0053622D01*
X0472109Y0050050D01*
X0471334Y0050050D01*
X0471334Y0053622D01*
X0471331Y0053622D01*
X0470566Y0053470D01*
X0469846Y0053171D01*
X0469197Y0052738D01*
X0468646Y0052186D01*
X0468213Y0051538D01*
X0467914Y0050817D01*
X0467762Y0050053D01*
X0467762Y0050050D01*
X0471334Y0050050D01*
X0471334Y0049275D01*
X0472109Y0049275D01*
X0472109Y0045704D01*
X0472111Y0045704D01*
X0472876Y0045856D01*
X0473596Y0046154D01*
X0474645Y0046988D02*
X0497993Y0046988D01*
X0497994Y0047786D02*
X0475229Y0047786D01*
X0475543Y0048585D02*
X0497996Y0048585D01*
X0497997Y0049383D02*
X0472109Y0049383D01*
X0471334Y0049383D02*
X0349640Y0049383D01*
X0350143Y0050182D02*
X0359118Y0050182D01*
X0358940Y0050980D02*
X0350143Y0050980D01*
X0350143Y0051779D02*
X0358940Y0051779D01*
X0358940Y0052577D02*
X0350143Y0052577D01*
X0349985Y0053376D02*
X0358940Y0053376D01*
X0359424Y0054174D02*
X0349451Y0054174D01*
X0347667Y0054525D02*
X0201554Y0054525D01*
X0197804Y0058275D01*
X0151104Y0058275D01*
X0151104Y0077338D01*
X0149542Y0078900D01*
X0151417Y0082025D02*
X0152979Y0080463D01*
X0152979Y0060150D01*
X0198742Y0060150D01*
X0202492Y0056400D01*
X0361417Y0056400D01*
X0361417Y0052025D01*
X0363893Y0051779D02*
X0458207Y0051779D01*
X0458378Y0051366D02*
X0459487Y0050257D01*
X0460937Y0049656D01*
X0462505Y0049656D01*
X0463955Y0050257D01*
X0465064Y0051366D01*
X0465664Y0052815D01*
X0465664Y0054384D01*
X0465064Y0055833D01*
X0463955Y0056943D01*
X0462505Y0057543D01*
X0460937Y0057543D01*
X0459487Y0056943D01*
X0458378Y0055833D01*
X0457778Y0054384D01*
X0457778Y0052815D01*
X0458378Y0051366D01*
X0458764Y0050980D02*
X0363893Y0050980D01*
X0363715Y0050182D02*
X0459668Y0050182D01*
X0463774Y0050182D02*
X0467788Y0050182D01*
X0467982Y0050980D02*
X0464679Y0050980D01*
X0465235Y0051779D02*
X0468374Y0051779D01*
X0469037Y0052577D02*
X0465566Y0052577D01*
X0465664Y0053376D02*
X0470340Y0053376D01*
X0469914Y0054174D02*
X0465664Y0054174D01*
X0465420Y0054973D02*
X0468866Y0054973D01*
X0468249Y0055771D02*
X0465090Y0055771D01*
X0464327Y0056570D02*
X0467919Y0056570D01*
X0467778Y0057368D02*
X0462927Y0057368D01*
X0463662Y0058167D02*
X0467778Y0058167D01*
X0467980Y0058965D02*
X0464632Y0058965D01*
X0465216Y0059764D02*
X0468310Y0059764D01*
X0469013Y0060562D02*
X0465547Y0060562D01*
X0465664Y0061361D02*
X0470269Y0061361D01*
X0470026Y0062159D02*
X0465664Y0062159D01*
X0465440Y0062958D02*
X0468912Y0062958D01*
X0468269Y0063757D02*
X0465109Y0063757D01*
X0463355Y0065719D02*
X0454597Y0065719D01*
X0454542Y0065719D01*
X0454542Y0133900D01*
X0323917Y0133900D01*
X0323917Y0125202D01*
X0326501Y0125242D02*
X0450882Y0125242D01*
X0450882Y0126040D02*
X0326501Y0126040D01*
X0326501Y0126839D02*
X0450882Y0126839D01*
X0450882Y0127637D02*
X0325839Y0127637D01*
X0329060Y0128436D02*
X0450882Y0128436D01*
X0458201Y0128436D02*
X0476332Y0128436D01*
X0476356Y0128378D02*
X0477248Y0127486D01*
X0478414Y0127003D01*
X0479675Y0127003D01*
X0480841Y0127486D01*
X0481733Y0128378D01*
X0482216Y0129544D01*
X0482216Y0130805D01*
X0481733Y0131971D01*
X0480841Y0132863D01*
X0479675Y0133346D01*
X0478414Y0133346D01*
X0477248Y0132863D01*
X0476356Y0131971D01*
X0475873Y0130805D01*
X0475873Y0129544D01*
X0476356Y0128378D01*
X0476001Y0129234D02*
X0458201Y0129234D01*
X0458201Y0130033D02*
X0475873Y0130033D01*
X0475884Y0130831D02*
X0458201Y0130831D01*
X0458201Y0131630D02*
X0476214Y0131630D01*
X0476813Y0132428D02*
X0458201Y0132428D01*
X0458201Y0133227D02*
X0478126Y0133227D01*
X0479963Y0133227D02*
X0498158Y0133227D01*
X0498156Y0132428D02*
X0481276Y0132428D01*
X0481875Y0131630D02*
X0498155Y0131630D01*
X0498153Y0130831D02*
X0482205Y0130831D01*
X0482216Y0130033D02*
X0498152Y0130033D01*
X0498150Y0129234D02*
X0482088Y0129234D01*
X0481757Y0128436D02*
X0498149Y0128436D01*
X0498147Y0127637D02*
X0480993Y0127637D01*
X0477096Y0127637D02*
X0458201Y0127637D01*
X0458201Y0126839D02*
X0498146Y0126839D01*
X0498144Y0126040D02*
X0458201Y0126040D01*
X0458201Y0125242D02*
X0498143Y0125242D01*
X0498141Y0124443D02*
X0458201Y0124443D01*
X0458201Y0123645D02*
X0498140Y0123645D01*
X0498138Y0122846D02*
X0458201Y0122846D01*
X0458201Y0122048D02*
X0498137Y0122048D01*
X0498135Y0121249D02*
X0458201Y0121249D01*
X0458201Y0120451D02*
X0498133Y0120451D01*
X0498132Y0119652D02*
X0458201Y0119652D01*
X0458201Y0118854D02*
X0498130Y0118854D01*
X0498129Y0118055D02*
X0458201Y0118055D01*
X0458201Y0117257D02*
X0498127Y0117257D01*
X0498126Y0116458D02*
X0458201Y0116458D01*
X0458201Y0115660D02*
X0477536Y0115660D01*
X0477248Y0115541D02*
X0476356Y0114648D01*
X0475873Y0113483D01*
X0475873Y0112221D01*
X0476356Y0111055D01*
X0477248Y0110163D01*
X0478414Y0109680D01*
X0479675Y0109680D01*
X0480841Y0110163D01*
X0481733Y0111055D01*
X0482216Y0112221D01*
X0482216Y0113483D01*
X0481733Y0114648D01*
X0480841Y0115541D01*
X0479675Y0116023D01*
X0478414Y0116023D01*
X0477248Y0115541D01*
X0476569Y0114861D02*
X0458201Y0114861D01*
X0458201Y0114063D02*
X0476113Y0114063D01*
X0475873Y0113264D02*
X0458201Y0113264D01*
X0458201Y0112466D02*
X0475873Y0112466D01*
X0476102Y0111667D02*
X0458201Y0111667D01*
X0458201Y0110869D02*
X0476542Y0110869D01*
X0477472Y0110070D02*
X0458201Y0110070D01*
X0458201Y0109272D02*
X0498112Y0109272D01*
X0498114Y0110070D02*
X0480617Y0110070D01*
X0481547Y0110869D02*
X0498115Y0110869D01*
X0498117Y0111667D02*
X0481987Y0111667D01*
X0482216Y0112466D02*
X0498118Y0112466D01*
X0498120Y0113264D02*
X0482216Y0113264D01*
X0481976Y0114063D02*
X0498121Y0114063D01*
X0498123Y0114861D02*
X0481521Y0114861D01*
X0480553Y0115660D02*
X0498124Y0115660D01*
X0498111Y0108473D02*
X0458201Y0108473D01*
X0458201Y0107675D02*
X0498109Y0107675D01*
X0498107Y0106876D02*
X0458201Y0106876D01*
X0458201Y0106078D02*
X0498106Y0106078D01*
X0498104Y0105279D02*
X0458201Y0105279D01*
X0458201Y0104481D02*
X0498103Y0104481D01*
X0498101Y0103682D02*
X0458201Y0103682D01*
X0458201Y0102884D02*
X0498100Y0102884D01*
X0498098Y0102085D02*
X0458201Y0102085D01*
X0458201Y0101287D02*
X0498097Y0101287D01*
X0498095Y0100488D02*
X0458201Y0100488D01*
X0458201Y0099690D02*
X0498094Y0099690D01*
X0498092Y0098891D02*
X0458201Y0098891D01*
X0458201Y0098093D02*
X0498091Y0098093D01*
X0498089Y0097294D02*
X0458201Y0097294D01*
X0458201Y0096495D02*
X0498088Y0096495D01*
X0498086Y0095697D02*
X0458201Y0095697D01*
X0458201Y0094898D02*
X0498085Y0094898D01*
X0498083Y0094100D02*
X0458201Y0094100D01*
X0458201Y0093301D02*
X0498081Y0093301D01*
X0498080Y0092503D02*
X0488502Y0092503D01*
X0488676Y0091704D02*
X0498078Y0091704D01*
X0498077Y0090906D02*
X0488676Y0090906D01*
X0488676Y0090107D02*
X0498075Y0090107D01*
X0498074Y0089309D02*
X0488676Y0089309D01*
X0488676Y0088510D02*
X0498072Y0088510D01*
X0498071Y0087712D02*
X0488676Y0087712D01*
X0488676Y0086913D02*
X0498069Y0086913D01*
X0498068Y0086115D02*
X0488676Y0086115D01*
X0488676Y0085316D02*
X0498066Y0085316D01*
X0498065Y0084518D02*
X0488676Y0084518D01*
X0488676Y0083719D02*
X0498063Y0083719D01*
X0498062Y0082921D02*
X0488676Y0082921D01*
X0488676Y0082122D02*
X0498060Y0082122D01*
X0498059Y0081324D02*
X0488676Y0081324D01*
X0488676Y0080525D02*
X0498057Y0080525D01*
X0498056Y0079727D02*
X0488676Y0079727D01*
X0488676Y0078928D02*
X0498054Y0078928D01*
X0498052Y0078130D02*
X0488676Y0078130D01*
X0488676Y0077331D02*
X0498051Y0077331D01*
X0498049Y0076533D02*
X0477576Y0076533D01*
X0477576Y0075734D02*
X0498048Y0075734D01*
X0498046Y0074936D02*
X0477576Y0074936D01*
X0477576Y0074137D02*
X0498045Y0074137D01*
X0498043Y0073339D02*
X0477576Y0073339D01*
X0477576Y0072540D02*
X0498042Y0072540D01*
X0498040Y0071742D02*
X0477576Y0071742D01*
X0477576Y0070943D02*
X0498039Y0070943D01*
X0498037Y0070145D02*
X0477576Y0070145D01*
X0477576Y0069346D02*
X0498036Y0069346D01*
X0498034Y0068548D02*
X0477576Y0068548D01*
X0477576Y0067749D02*
X0498033Y0067749D01*
X0498031Y0066951D02*
X0477576Y0066951D01*
X0477576Y0066152D02*
X0498030Y0066152D01*
X0498028Y0065354D02*
X0477576Y0065354D01*
X0477576Y0064555D02*
X0498026Y0064555D01*
X0498025Y0063757D02*
X0477576Y0063757D01*
X0477576Y0062958D02*
X0498023Y0062958D01*
X0498022Y0062159D02*
X0477576Y0062159D01*
X0477576Y0061361D02*
X0498020Y0061361D01*
X0498019Y0060562D02*
X0477576Y0060562D01*
X0477576Y0059764D02*
X0498017Y0059764D01*
X0498016Y0058965D02*
X0477576Y0058965D01*
X0477576Y0058167D02*
X0498014Y0058167D01*
X0498013Y0057368D02*
X0477576Y0057368D01*
X0477191Y0056570D02*
X0498011Y0056570D01*
X0498010Y0055771D02*
X0475193Y0055771D01*
X0474577Y0054973D02*
X0498008Y0054973D01*
X0498007Y0054174D02*
X0473528Y0054174D01*
X0473102Y0053376D02*
X0498005Y0053376D01*
X0498004Y0052577D02*
X0474405Y0052577D01*
X0475069Y0051779D02*
X0498002Y0051779D01*
X0498001Y0050980D02*
X0475461Y0050980D01*
X0475654Y0050182D02*
X0497999Y0050182D01*
X0475792Y0057694D02*
X0471721Y0057694D01*
X0475792Y0057694D02*
X0475792Y0076400D01*
X0456417Y0076400D01*
X0456417Y0135775D01*
X0300167Y0135775D01*
X0300167Y0136400D01*
X0297198Y0137220D02*
X0179238Y0137220D01*
X0178440Y0138018D02*
X0297198Y0138018D01*
X0297457Y0138817D02*
X0178725Y0138817D01*
X0179523Y0139615D02*
X0498170Y0139615D01*
X0498169Y0138817D02*
X0302876Y0138817D01*
X0303135Y0138018D02*
X0498167Y0138018D01*
X0498166Y0137220D02*
X0457495Y0137220D01*
X0458201Y0136421D02*
X0498164Y0136421D01*
X0498162Y0135623D02*
X0458201Y0135623D01*
X0458201Y0134824D02*
X0498161Y0134824D01*
X0498159Y0134026D02*
X0458201Y0134026D01*
X0452667Y0130775D02*
X0327042Y0130775D01*
X0322132Y0130831D02*
X0287059Y0130831D01*
X0287059Y0131630D02*
X0322132Y0131630D01*
X0322132Y0132428D02*
X0287059Y0132428D01*
X0286371Y0133227D02*
X0322132Y0133227D01*
X0322132Y0130033D02*
X0289547Y0130033D01*
X0290127Y0129234D02*
X0322132Y0129234D01*
X0322132Y0128436D02*
X0290127Y0128436D01*
X0290127Y0127637D02*
X0321995Y0127637D01*
X0321332Y0126839D02*
X0292723Y0126839D01*
X0293195Y0126040D02*
X0321332Y0126040D01*
X0321332Y0125242D02*
X0293195Y0125242D01*
X0290620Y0124603D02*
X0290620Y0123275D01*
X0246417Y0123275D01*
X0246417Y0100146D01*
X0238292Y0100146D01*
X0238292Y0100150D01*
X0237042Y0100150D01*
X0139492Y0099553D01*
X0139492Y0099539D01*
X0137092Y0099539D01*
X0134854Y0099525D01*
X0132042Y0099525D01*
X0129565Y0099690D02*
X0095143Y0099690D01*
X0095143Y0100488D02*
X0129565Y0100488D01*
X0129565Y0098891D02*
X0094655Y0098891D01*
X0090679Y0098891D02*
X0058201Y0098891D01*
X0058201Y0098093D02*
X0127092Y0098093D01*
X0127065Y0097294D02*
X0058201Y0097294D01*
X0058201Y0096495D02*
X0127065Y0096495D01*
X0127065Y0095697D02*
X0058201Y0095697D01*
X0058201Y0094898D02*
X0127065Y0094898D01*
X0127700Y0094100D02*
X0058201Y0094100D01*
X0058201Y0093301D02*
X0094604Y0093301D01*
X0093842Y0092503D02*
X0058201Y0092503D01*
X0058201Y0091704D02*
X0093842Y0091704D01*
X0093842Y0090906D02*
X0058201Y0090906D01*
X0058201Y0090107D02*
X0093842Y0090107D01*
X0093842Y0089309D02*
X0058201Y0089309D01*
X0058201Y0088510D02*
X0094343Y0088510D01*
X0096417Y0090775D02*
X0132042Y0090775D01*
X0132042Y0094525D01*
X0252042Y0094525D01*
X0252042Y0118275D01*
X0262042Y0118275D01*
X0262042Y0117707D01*
X0264616Y0118055D02*
X0450882Y0118055D01*
X0450882Y0117257D02*
X0264616Y0117257D01*
X0264616Y0116458D02*
X0297702Y0116458D01*
X0297658Y0116415D02*
X0297136Y0115898D01*
X0297136Y0115893D01*
X0297132Y0115889D01*
X0297132Y0115154D01*
X0297129Y0114420D01*
X0297132Y0114416D01*
X0297132Y0110114D01*
X0296332Y0109314D01*
X0296332Y0105767D01*
X0297143Y0104956D01*
X0300690Y0104956D01*
X0301501Y0105767D01*
X0301501Y0109314D01*
X0300701Y0110114D01*
X0300701Y0113357D01*
X0387001Y0112922D01*
X0386608Y0111973D01*
X0386608Y0110719D01*
X0387087Y0109562D01*
X0387973Y0108675D01*
X0389131Y0108196D01*
X0390384Y0108196D01*
X0391542Y0108675D01*
X0392428Y0109562D01*
X0392908Y0110719D01*
X0392908Y0111973D01*
X0392526Y0112894D01*
X0420277Y0112754D01*
X0420277Y0109822D01*
X0421088Y0109011D01*
X0424635Y0109011D01*
X0425446Y0109822D01*
X0425446Y0113368D01*
X0424646Y0114168D01*
X0424646Y0114521D01*
X0424650Y0115255D01*
X0424646Y0115259D01*
X0424646Y0115264D01*
X0424127Y0115783D01*
X0423610Y0116305D01*
X0423605Y0116306D01*
X0423601Y0116309D01*
X0422866Y0116309D01*
X0299659Y0116931D01*
X0299656Y0116934D01*
X0298921Y0116934D01*
X0298187Y0116938D01*
X0298183Y0116934D01*
X0298178Y0116934D01*
X0297658Y0116415D01*
X0297132Y0115660D02*
X0264333Y0115660D01*
X0259750Y0115660D02*
X0253826Y0115660D01*
X0253826Y0116458D02*
X0259467Y0116458D01*
X0253826Y0114861D02*
X0297131Y0114861D01*
X0297132Y0114063D02*
X0253826Y0114063D01*
X0253826Y0113264D02*
X0297132Y0113264D01*
X0297132Y0112466D02*
X0253826Y0112466D01*
X0253826Y0111667D02*
X0297132Y0111667D01*
X0297132Y0110869D02*
X0253826Y0110869D01*
X0253826Y0110070D02*
X0297089Y0110070D01*
X0296332Y0109272D02*
X0295976Y0109272D01*
X0296007Y0109240D02*
X0295196Y0110051D01*
X0291650Y0110051D01*
X0290839Y0109240D01*
X0290839Y0105694D01*
X0291639Y0104894D01*
X0291639Y0094434D01*
X0275240Y0094434D01*
X0274440Y0095234D01*
X0270893Y0095234D01*
X0270082Y0094423D01*
X0270082Y0090877D01*
X0270893Y0090066D01*
X0274440Y0090066D01*
X0275240Y0090866D01*
X0294162Y0090866D01*
X0295207Y0091911D01*
X0295207Y0104894D01*
X0296007Y0105694D01*
X0296007Y0109240D01*
X0296007Y0108473D02*
X0296332Y0108473D01*
X0296332Y0107675D02*
X0296007Y0107675D01*
X0296007Y0106876D02*
X0296332Y0106876D01*
X0296332Y0106078D02*
X0296007Y0106078D01*
X0295593Y0105279D02*
X0296820Y0105279D01*
X0295207Y0104481D02*
X0303382Y0104481D01*
X0303382Y0104967D02*
X0303382Y0089527D01*
X0303381Y0088790D01*
X0303382Y0088788D01*
X0303382Y0088786D01*
X0303902Y0088266D01*
X0304423Y0087743D01*
X0304426Y0087743D01*
X0304428Y0087741D01*
X0305164Y0087741D01*
X0353837Y0087622D01*
X0354643Y0086816D01*
X0358190Y0086816D01*
X0359001Y0087626D01*
X0359001Y0091173D01*
X0358834Y0091340D01*
X0359001Y0091508D01*
X0359001Y0095054D01*
X0358834Y0095222D01*
X0359001Y0095389D01*
X0359001Y0098936D01*
X0358834Y0099103D01*
X0359001Y0099270D01*
X0359001Y0102817D01*
X0358190Y0103628D01*
X0354643Y0103628D01*
X0353843Y0102828D01*
X0348096Y0102828D01*
X0347565Y0103359D01*
X0344018Y0103359D01*
X0343207Y0102548D01*
X0343207Y0099002D01*
X0343375Y0098834D01*
X0343207Y0098667D01*
X0343207Y0095120D01*
X0343262Y0095065D01*
X0330701Y0095065D01*
X0330701Y0106952D01*
X0330876Y0107127D01*
X0330876Y0110673D01*
X0330065Y0111484D01*
X0326518Y0111484D01*
X0325707Y0110673D01*
X0325707Y0107127D01*
X0326518Y0106316D01*
X0327132Y0106316D01*
X0327132Y0092542D01*
X0328178Y0091497D01*
X0353843Y0091497D01*
X0354000Y0091340D01*
X0353850Y0091190D01*
X0306951Y0091305D01*
X0306951Y0104967D01*
X0307751Y0105767D01*
X0307751Y0109314D01*
X0306940Y0110125D01*
X0303393Y0110125D01*
X0302582Y0109314D01*
X0302582Y0105767D01*
X0303382Y0104967D01*
X0303070Y0105279D02*
X0301013Y0105279D01*
X0301501Y0106078D02*
X0302582Y0106078D01*
X0302582Y0106876D02*
X0301501Y0106876D01*
X0301501Y0107675D02*
X0302582Y0107675D01*
X0302582Y0108473D02*
X0301501Y0108473D01*
X0301501Y0109272D02*
X0302582Y0109272D01*
X0303339Y0110070D02*
X0300744Y0110070D01*
X0300701Y0110869D02*
X0325903Y0110869D01*
X0325707Y0110070D02*
X0306994Y0110070D01*
X0307751Y0109272D02*
X0325707Y0109272D01*
X0325707Y0108473D02*
X0307751Y0108473D01*
X0307751Y0107675D02*
X0325707Y0107675D01*
X0325958Y0106876D02*
X0307751Y0106876D01*
X0307751Y0106078D02*
X0327132Y0106078D01*
X0327132Y0105279D02*
X0307263Y0105279D01*
X0306951Y0104481D02*
X0327132Y0104481D01*
X0327132Y0103682D02*
X0306951Y0103682D01*
X0306951Y0102884D02*
X0327132Y0102884D01*
X0327132Y0102085D02*
X0306951Y0102085D01*
X0306951Y0101287D02*
X0327132Y0101287D01*
X0327132Y0100488D02*
X0306951Y0100488D01*
X0306951Y0099690D02*
X0327132Y0099690D01*
X0327132Y0098891D02*
X0306951Y0098891D01*
X0306951Y0098093D02*
X0327132Y0098093D01*
X0327132Y0097294D02*
X0306951Y0097294D01*
X0306951Y0096495D02*
X0327132Y0096495D01*
X0327132Y0095697D02*
X0306951Y0095697D01*
X0306951Y0094898D02*
X0327132Y0094898D01*
X0327132Y0094100D02*
X0306951Y0094100D01*
X0306951Y0093301D02*
X0327132Y0093301D01*
X0327172Y0092503D02*
X0306951Y0092503D01*
X0306951Y0091704D02*
X0327970Y0091704D01*
X0328917Y0093281D02*
X0328917Y0108900D01*
X0328292Y0108900D01*
X0330876Y0109272D02*
X0387377Y0109272D01*
X0386877Y0110070D02*
X0330876Y0110070D01*
X0330681Y0110869D02*
X0386608Y0110869D01*
X0386608Y0111667D02*
X0300701Y0111667D01*
X0300701Y0112466D02*
X0386812Y0112466D01*
X0392703Y0112466D02*
X0420277Y0112466D01*
X0420277Y0111667D02*
X0392908Y0111667D01*
X0392908Y0110869D02*
X0420277Y0110869D01*
X0420277Y0110070D02*
X0392639Y0110070D01*
X0392138Y0109272D02*
X0420828Y0109272D01*
X0422862Y0111595D02*
X0422862Y0114525D01*
X0298917Y0115150D01*
X0298917Y0107540D01*
X0293423Y0107467D02*
X0293423Y0092650D01*
X0272667Y0092650D01*
X0270082Y0092503D02*
X0242837Y0092503D01*
X0243636Y0091704D02*
X0244955Y0091704D01*
X0244156Y0090906D02*
X0243826Y0090906D01*
X0243826Y0090107D02*
X0243842Y0090107D01*
X0243826Y0089309D02*
X0243842Y0089309D01*
X0243826Y0088510D02*
X0243842Y0088510D01*
X0243826Y0087712D02*
X0244588Y0087712D01*
X0244632Y0086913D02*
X0243826Y0086913D01*
X0243826Y0086115D02*
X0244632Y0086115D01*
X0244632Y0085316D02*
X0243826Y0085316D01*
X0243826Y0084518D02*
X0244632Y0084518D01*
X0244632Y0083719D02*
X0243826Y0083719D01*
X0243826Y0082921D02*
X0244632Y0082921D01*
X0244632Y0082122D02*
X0243826Y0082122D01*
X0243826Y0081324D02*
X0244632Y0081324D01*
X0244632Y0080525D02*
X0243826Y0080525D01*
X0243826Y0079727D02*
X0244632Y0079727D01*
X0244632Y0078928D02*
X0243826Y0078928D01*
X0243826Y0078130D02*
X0244632Y0078130D01*
X0244632Y0077331D02*
X0243826Y0077331D01*
X0243826Y0076533D02*
X0244632Y0076533D01*
X0244632Y0075734D02*
X0243826Y0075734D01*
X0243826Y0074936D02*
X0244632Y0074936D01*
X0244632Y0074137D02*
X0243826Y0074137D01*
X0243826Y0073339D02*
X0244632Y0073339D01*
X0244632Y0072540D02*
X0243826Y0072540D01*
X0243826Y0071742D02*
X0244632Y0071742D01*
X0244632Y0070943D02*
X0243826Y0070943D01*
X0243826Y0070145D02*
X0244632Y0070145D01*
X0244632Y0069346D02*
X0243826Y0069346D01*
X0243826Y0068548D02*
X0244632Y0068548D01*
X0244632Y0067749D02*
X0243826Y0067749D01*
X0243826Y0066951D02*
X0244632Y0066951D01*
X0244632Y0066152D02*
X0243826Y0066152D01*
X0243826Y0065354D02*
X0244632Y0065354D01*
X0244632Y0064555D02*
X0243826Y0064555D01*
X0243877Y0063757D02*
X0244632Y0063757D01*
X0244632Y0062958D02*
X0244518Y0062958D01*
X0244518Y0062159D02*
X0244632Y0062159D01*
X0244632Y0061361D02*
X0244518Y0061361D01*
X0244518Y0060562D02*
X0244632Y0060562D01*
X0246417Y0061087D02*
X0246417Y0089525D01*
X0247879Y0091704D02*
X0270082Y0091704D01*
X0270082Y0090906D02*
X0248677Y0090906D01*
X0248991Y0090107D02*
X0270852Y0090107D01*
X0274482Y0090107D02*
X0303382Y0090107D01*
X0303382Y0089309D02*
X0250349Y0089309D01*
X0251147Y0088510D02*
X0303658Y0088510D01*
X0305167Y0089525D02*
X0305167Y0107540D01*
X0303382Y0103682D02*
X0295207Y0103682D01*
X0295207Y0102884D02*
X0303382Y0102884D01*
X0303382Y0102085D02*
X0295207Y0102085D01*
X0295207Y0101287D02*
X0303382Y0101287D01*
X0303382Y0100488D02*
X0295207Y0100488D01*
X0295207Y0099690D02*
X0303382Y0099690D01*
X0303382Y0098891D02*
X0295207Y0098891D01*
X0295207Y0098093D02*
X0303382Y0098093D01*
X0303382Y0097294D02*
X0295207Y0097294D01*
X0295207Y0096495D02*
X0303382Y0096495D01*
X0303382Y0095697D02*
X0295207Y0095697D01*
X0295207Y0094898D02*
X0303382Y0094898D01*
X0303382Y0094100D02*
X0295207Y0094100D01*
X0295207Y0093301D02*
X0303382Y0093301D01*
X0303382Y0092503D02*
X0295207Y0092503D01*
X0295001Y0091704D02*
X0303382Y0091704D01*
X0303382Y0090906D02*
X0294202Y0090906D01*
X0297802Y0086913D02*
X0333368Y0086913D01*
X0332969Y0086115D02*
X0298201Y0086115D01*
X0298201Y0085316D02*
X0332969Y0085316D01*
X0332969Y0084518D02*
X0298201Y0084518D01*
X0298201Y0083719D02*
X0332969Y0083719D01*
X0331605Y0082921D02*
X0327912Y0082921D01*
X0327875Y0082958D02*
X0328599Y0082234D01*
X0328991Y0081287D01*
X0328991Y0080263D01*
X0328599Y0079316D01*
X0327875Y0078592D01*
X0326929Y0078200D01*
X0325904Y0078200D01*
X0324958Y0078592D01*
X0324560Y0078991D01*
X0324326Y0078991D01*
X0324326Y0078814D01*
X0323516Y0078003D01*
X0317644Y0078003D01*
X0316834Y0078814D01*
X0316834Y0082323D01*
X0317644Y0083134D01*
X0323516Y0083134D01*
X0324090Y0082559D01*
X0324560Y0082559D01*
X0324958Y0082958D01*
X0325904Y0083350D01*
X0326929Y0083350D01*
X0327875Y0082958D01*
X0328646Y0082122D02*
X0331007Y0082122D01*
X0331007Y0081324D02*
X0328976Y0081324D01*
X0328991Y0080525D02*
X0331007Y0080525D01*
X0331007Y0079727D02*
X0328769Y0079727D01*
X0328211Y0078928D02*
X0331007Y0078928D01*
X0331691Y0078130D02*
X0323642Y0078130D01*
X0324326Y0078928D02*
X0324622Y0078928D01*
X0326417Y0080775D02*
X0320580Y0080775D01*
X0320580Y0080568D01*
X0316834Y0080525D02*
X0298201Y0080525D01*
X0298201Y0079727D02*
X0316834Y0079727D01*
X0316834Y0078928D02*
X0298201Y0078928D01*
X0298201Y0078130D02*
X0317518Y0078130D01*
X0318034Y0076063D02*
X0317677Y0075967D01*
X0317358Y0075783D01*
X0317098Y0075522D01*
X0316913Y0075203D01*
X0316818Y0074847D01*
X0316818Y0073672D01*
X0320389Y0073672D01*
X0320389Y0073291D01*
X0316818Y0073291D01*
X0316818Y0072116D01*
X0316913Y0071760D01*
X0317098Y0071441D01*
X0317358Y0071180D01*
X0317677Y0070996D01*
X0318034Y0070901D01*
X0320389Y0070901D01*
X0320389Y0073291D01*
X0320771Y0073291D01*
X0320771Y0073672D01*
X0324342Y0073672D01*
X0324342Y0074847D01*
X0324247Y0075203D01*
X0324063Y0075522D01*
X0323802Y0075783D01*
X0323483Y0075967D01*
X0323127Y0076063D01*
X0320771Y0076063D01*
X0320771Y0073672D01*
X0320389Y0073672D01*
X0320389Y0076063D01*
X0318034Y0076063D01*
X0317309Y0075734D02*
X0298201Y0075734D01*
X0298201Y0074936D02*
X0316842Y0074936D01*
X0316818Y0074137D02*
X0298201Y0074137D01*
X0298201Y0073339D02*
X0320389Y0073339D01*
X0320580Y0073482D02*
X0320580Y0070362D01*
X0320792Y0070150D01*
X0340167Y0070150D01*
X0340167Y0072025D01*
X0338500Y0071742D02*
X0345652Y0071742D01*
X0345665Y0072540D02*
X0338500Y0072540D01*
X0338500Y0073339D02*
X0345678Y0073339D01*
X0345691Y0074137D02*
X0338500Y0074137D01*
X0338500Y0074936D02*
X0345704Y0074936D01*
X0345718Y0075734D02*
X0338002Y0075734D01*
X0337689Y0076047D02*
X0331818Y0076047D01*
X0331037Y0075266D01*
X0330567Y0075266D01*
X0330375Y0075458D01*
X0329429Y0075850D01*
X0328404Y0075850D01*
X0327458Y0075458D01*
X0326734Y0074734D01*
X0326342Y0073787D01*
X0326342Y0072763D01*
X0326734Y0071816D01*
X0327458Y0071092D01*
X0328404Y0070700D01*
X0329429Y0070700D01*
X0330375Y0071092D01*
X0330980Y0071697D01*
X0331037Y0071697D01*
X0331818Y0070916D01*
X0337689Y0070916D01*
X0338500Y0071727D01*
X0338500Y0075236D01*
X0337689Y0076047D01*
X0334753Y0073482D02*
X0328917Y0073482D01*
X0328917Y0073275D01*
X0326342Y0073339D02*
X0320771Y0073339D01*
X0320771Y0073291D02*
X0324342Y0073291D01*
X0324342Y0072116D01*
X0324247Y0071760D01*
X0324063Y0071441D01*
X0323802Y0071180D01*
X0323483Y0070996D01*
X0323127Y0070901D01*
X0320771Y0070901D01*
X0320771Y0073291D01*
X0320771Y0072540D02*
X0320389Y0072540D01*
X0320389Y0071742D02*
X0320771Y0071742D01*
X0320771Y0070943D02*
X0320389Y0070943D01*
X0317875Y0070943D02*
X0298201Y0070943D01*
X0298201Y0070145D02*
X0303293Y0070145D01*
X0302494Y0069346D02*
X0298201Y0069346D01*
X0298201Y0068548D02*
X0301696Y0068548D01*
X0302384Y0066713D02*
X0304571Y0068900D01*
X0314542Y0068900D01*
X0316729Y0066713D01*
X0347354Y0066713D01*
X0347667Y0085775D01*
X0334753Y0085775D01*
X0334753Y0080568D01*
X0338500Y0080525D02*
X0345796Y0080525D01*
X0345783Y0079727D02*
X0338500Y0079727D01*
X0338500Y0078928D02*
X0345770Y0078928D01*
X0345757Y0078130D02*
X0337816Y0078130D01*
X0338500Y0081324D02*
X0345809Y0081324D01*
X0345822Y0082122D02*
X0338500Y0082122D01*
X0337902Y0082921D02*
X0345835Y0082921D01*
X0345848Y0083719D02*
X0336538Y0083719D01*
X0324921Y0082921D02*
X0323728Y0082921D01*
X0317432Y0082921D02*
X0298201Y0082921D01*
X0298201Y0082122D02*
X0316834Y0082122D01*
X0316834Y0081324D02*
X0298201Y0081324D01*
X0294632Y0081324D02*
X0286000Y0081324D01*
X0286000Y0082122D02*
X0294632Y0082122D01*
X0294632Y0082921D02*
X0285402Y0082921D01*
X0285076Y0083719D02*
X0294632Y0083719D01*
X0296417Y0085775D02*
X0283292Y0085775D01*
X0283292Y0080568D01*
X0282253Y0080568D01*
X0278507Y0080525D02*
X0276491Y0080525D01*
X0276491Y0080263D02*
X0276491Y0081287D01*
X0276099Y0082234D01*
X0275375Y0082958D01*
X0274429Y0083350D01*
X0273404Y0083350D01*
X0272458Y0082958D01*
X0272060Y0082559D01*
X0271590Y0082559D01*
X0271016Y0083134D01*
X0265144Y0083134D01*
X0264334Y0082323D01*
X0264334Y0078814D01*
X0265144Y0078003D01*
X0271016Y0078003D01*
X0271826Y0078814D01*
X0271826Y0078991D01*
X0272060Y0078991D01*
X0272458Y0078592D01*
X0273404Y0078200D01*
X0274429Y0078200D01*
X0275375Y0078592D01*
X0276099Y0079316D01*
X0276491Y0080263D01*
X0276269Y0079727D02*
X0278507Y0079727D01*
X0278507Y0078928D02*
X0275711Y0078928D01*
X0275904Y0076475D02*
X0274958Y0076083D01*
X0274234Y0075359D01*
X0273842Y0074412D01*
X0273842Y0073388D01*
X0274234Y0072441D01*
X0274958Y0071717D01*
X0275904Y0071325D01*
X0276929Y0071325D01*
X0277827Y0071697D01*
X0278537Y0071697D01*
X0279318Y0070916D01*
X0285189Y0070916D01*
X0286000Y0071727D01*
X0286000Y0075236D01*
X0285189Y0076047D01*
X0279318Y0076047D01*
X0278608Y0075338D01*
X0278599Y0075359D01*
X0277875Y0076083D01*
X0276929Y0076475D01*
X0275904Y0076475D01*
X0274610Y0075734D02*
X0271351Y0075734D01*
X0271302Y0075783D02*
X0270983Y0075967D01*
X0270627Y0076063D01*
X0268271Y0076063D01*
X0268271Y0073672D01*
X0271842Y0073672D01*
X0271842Y0074847D01*
X0271747Y0075203D01*
X0271563Y0075522D01*
X0271302Y0075783D01*
X0271819Y0074936D02*
X0274059Y0074936D01*
X0273842Y0074137D02*
X0271842Y0074137D01*
X0271842Y0073291D02*
X0268271Y0073291D01*
X0268271Y0073672D01*
X0267889Y0073672D01*
X0267889Y0073291D01*
X0264318Y0073291D01*
X0264318Y0072116D01*
X0264413Y0071760D01*
X0264598Y0071441D01*
X0264858Y0071180D01*
X0265177Y0070996D01*
X0265534Y0070901D01*
X0267889Y0070901D01*
X0267889Y0073291D01*
X0268271Y0073291D01*
X0268271Y0070901D01*
X0270627Y0070901D01*
X0270983Y0070996D01*
X0271302Y0071180D01*
X0271563Y0071441D01*
X0271747Y0071760D01*
X0271842Y0072116D01*
X0271842Y0073291D01*
X0271842Y0072540D02*
X0274193Y0072540D01*
X0273862Y0073339D02*
X0268271Y0073339D01*
X0268080Y0073482D02*
X0268080Y0070987D01*
X0268292Y0070775D01*
X0287667Y0070775D01*
X0287667Y0072025D01*
X0286000Y0071742D02*
X0294632Y0071742D01*
X0294632Y0072540D02*
X0286000Y0072540D01*
X0286000Y0073339D02*
X0294632Y0073339D01*
X0294632Y0074137D02*
X0286000Y0074137D01*
X0286000Y0074936D02*
X0294632Y0074936D01*
X0294632Y0075734D02*
X0285502Y0075734D01*
X0282253Y0073482D02*
X0276417Y0073482D01*
X0276417Y0073900D01*
X0278224Y0075734D02*
X0279005Y0075734D01*
X0279191Y0078130D02*
X0271142Y0078130D01*
X0271826Y0078928D02*
X0272122Y0078928D01*
X0273917Y0080775D02*
X0268080Y0080775D01*
X0268080Y0080568D01*
X0264334Y0080525D02*
X0259066Y0080525D01*
X0259066Y0079727D02*
X0264334Y0079727D01*
X0264334Y0078928D02*
X0259066Y0078928D01*
X0258737Y0078130D02*
X0265018Y0078130D01*
X0258201Y0077331D02*
X0294632Y0077331D01*
X0294632Y0076533D02*
X0258201Y0076533D01*
X0258201Y0075734D02*
X0264809Y0075734D01*
X0264858Y0075783D02*
X0264598Y0075522D01*
X0264413Y0075203D01*
X0264318Y0074847D01*
X0264318Y0073672D01*
X0267889Y0073672D01*
X0267889Y0076063D01*
X0265534Y0076063D01*
X0265177Y0075967D01*
X0264858Y0075783D01*
X0264342Y0074936D02*
X0258201Y0074936D01*
X0258201Y0074137D02*
X0264318Y0074137D01*
X0264318Y0072540D02*
X0258201Y0072540D01*
X0258201Y0071742D02*
X0264424Y0071742D01*
X0265375Y0070943D02*
X0258201Y0070943D01*
X0256417Y0068588D02*
X0256417Y0079525D01*
X0256491Y0079525D01*
X0258334Y0081324D02*
X0264334Y0081324D01*
X0264334Y0082122D02*
X0256566Y0082122D01*
X0256566Y0082921D02*
X0264932Y0082921D01*
X0271228Y0082921D02*
X0272421Y0082921D01*
X0275412Y0082921D02*
X0279105Y0082921D01*
X0278507Y0082122D02*
X0276146Y0082122D01*
X0276476Y0081324D02*
X0278507Y0081324D01*
X0281507Y0083719D02*
X0255938Y0083719D01*
X0255140Y0084518D02*
X0281507Y0084518D01*
X0281507Y0085316D02*
X0254066Y0085316D01*
X0253543Y0086115D02*
X0281507Y0086115D01*
X0281907Y0086913D02*
X0252744Y0086913D01*
X0251566Y0087712D02*
X0316990Y0087712D01*
X0305167Y0089525D02*
X0356417Y0089400D01*
X0359001Y0089309D02*
X0360323Y0089309D01*
X0360323Y0088617D02*
X0361107Y0087833D01*
X0361107Y0084967D01*
X0360323Y0084183D01*
X0360323Y0079867D01*
X0361134Y0079056D01*
X0365449Y0079056D01*
X0366260Y0079867D01*
X0366260Y0084183D01*
X0365476Y0084967D01*
X0365476Y0087833D01*
X0366260Y0088617D01*
X0366260Y0092933D01*
X0365449Y0093743D01*
X0361134Y0093743D01*
X0360323Y0092933D01*
X0360323Y0088617D01*
X0360430Y0088510D02*
X0359001Y0088510D01*
X0359001Y0087712D02*
X0361107Y0087712D01*
X0361107Y0086913D02*
X0358288Y0086913D01*
X0361107Y0086115D02*
X0349457Y0086115D01*
X0349451Y0085316D02*
X0361107Y0085316D01*
X0360658Y0084518D02*
X0349431Y0084518D01*
X0349417Y0083719D02*
X0360323Y0083719D01*
X0360323Y0082921D02*
X0349404Y0082921D01*
X0349391Y0082122D02*
X0360323Y0082122D01*
X0360323Y0081324D02*
X0349378Y0081324D01*
X0349365Y0080525D02*
X0360323Y0080525D01*
X0360464Y0079727D02*
X0349352Y0079727D01*
X0349339Y0078928D02*
X0366834Y0078928D01*
X0366834Y0078814D02*
X0367644Y0078003D01*
X0373516Y0078003D01*
X0374326Y0078814D01*
X0374326Y0078991D01*
X0374560Y0078991D01*
X0374958Y0078592D01*
X0375904Y0078200D01*
X0376929Y0078200D01*
X0377875Y0078592D01*
X0378599Y0079316D01*
X0378991Y0080263D01*
X0378991Y0081287D01*
X0378599Y0082234D01*
X0377875Y0082958D01*
X0376929Y0083350D01*
X0375904Y0083350D01*
X0374958Y0082958D01*
X0374560Y0082559D01*
X0374090Y0082559D01*
X0373516Y0083134D01*
X0367644Y0083134D01*
X0366834Y0082323D01*
X0366834Y0078814D01*
X0366834Y0079727D02*
X0366120Y0079727D01*
X0366260Y0080525D02*
X0366834Y0080525D01*
X0366834Y0081324D02*
X0366260Y0081324D01*
X0366260Y0082122D02*
X0366834Y0082122D01*
X0366260Y0082921D02*
X0367432Y0082921D01*
X0366260Y0083719D02*
X0383836Y0083719D01*
X0385084Y0084518D02*
X0365925Y0084518D01*
X0365476Y0085316D02*
X0450882Y0085316D01*
X0450882Y0084518D02*
X0385362Y0084518D01*
X0385378Y0082650D02*
X0397042Y0082650D01*
X0396729Y0064837D01*
X0316592Y0064837D01*
X0316501Y0064928D01*
X0315990Y0064928D01*
X0313803Y0067116D01*
X0305310Y0067116D01*
X0303117Y0064922D01*
X0303117Y0064837D01*
X0251417Y0064837D01*
X0251417Y0084525D01*
X0251491Y0084525D01*
X0253917Y0082025D02*
X0253917Y0066713D01*
X0302384Y0066713D01*
X0306134Y0065331D02*
X0313064Y0065331D01*
X0315342Y0063053D01*
X0316501Y0063053D01*
X0316592Y0062962D01*
X0358917Y0062962D01*
X0358917Y0062337D01*
X0361393Y0062159D02*
X0450882Y0062159D01*
X0450882Y0061361D02*
X0361393Y0061361D01*
X0361284Y0060562D02*
X0395812Y0060562D01*
X0399521Y0060562D02*
X0451212Y0060562D01*
X0452667Y0061631D02*
X0452667Y0130775D01*
X0450882Y0124443D02*
X0326501Y0124443D01*
X0326501Y0123645D02*
X0450882Y0123645D01*
X0450882Y0122846D02*
X0325919Y0122846D01*
X0321914Y0122846D02*
X0297116Y0122846D01*
X0297116Y0122048D02*
X0450882Y0122048D01*
X0450882Y0121249D02*
X0297116Y0121249D01*
X0297116Y0120451D02*
X0450882Y0120451D01*
X0450882Y0119652D02*
X0296508Y0119652D01*
X0294542Y0120775D02*
X0249542Y0120775D01*
X0249229Y0097337D01*
X0129542Y0097025D01*
X0129542Y0096400D01*
X0130257Y0093301D02*
X0098229Y0093301D01*
X0098491Y0088510D02*
X0152904Y0088510D01*
X0152904Y0089309D02*
X0133099Y0089309D01*
X0133826Y0090107D02*
X0153670Y0090107D01*
X0155092Y0090906D02*
X0133826Y0090906D01*
X0133826Y0091704D02*
X0155092Y0091704D01*
X0155128Y0092503D02*
X0133826Y0092503D01*
X0152525Y0087712D02*
X0058201Y0087712D01*
X0058201Y0086913D02*
X0075032Y0086913D01*
X0074632Y0086115D02*
X0058201Y0086115D01*
X0058201Y0085316D02*
X0074632Y0085316D01*
X0074632Y0084518D02*
X0058201Y0084518D01*
X0058201Y0083719D02*
X0074632Y0083719D01*
X0076417Y0085775D02*
X0076417Y0080568D01*
X0074753Y0080568D01*
X0071007Y0080525D02*
X0068991Y0080525D01*
X0068976Y0081324D02*
X0071007Y0081324D01*
X0071007Y0082122D02*
X0068646Y0082122D01*
X0067912Y0082921D02*
X0071605Y0082921D01*
X0071007Y0079727D02*
X0068769Y0079727D01*
X0068211Y0078928D02*
X0071007Y0078928D01*
X0071691Y0078130D02*
X0063642Y0078130D01*
X0064326Y0078928D02*
X0064622Y0078928D01*
X0066417Y0080775D02*
X0060580Y0080775D01*
X0060580Y0080568D01*
X0063728Y0082921D02*
X0064921Y0082921D01*
X0058201Y0077331D02*
X0084632Y0077331D01*
X0084632Y0076533D02*
X0058201Y0076533D01*
X0060389Y0075734D02*
X0060771Y0075734D01*
X0060771Y0074936D02*
X0060389Y0074936D01*
X0060389Y0074137D02*
X0060771Y0074137D01*
X0060580Y0073482D02*
X0060580Y0070362D01*
X0060792Y0070150D01*
X0080167Y0070150D01*
X0080167Y0072025D01*
X0078500Y0071742D02*
X0084632Y0071742D01*
X0084632Y0072540D02*
X0078500Y0072540D01*
X0078500Y0073339D02*
X0084632Y0073339D01*
X0084632Y0074137D02*
X0078500Y0074137D01*
X0078500Y0074936D02*
X0084632Y0074936D01*
X0084632Y0075734D02*
X0078002Y0075734D01*
X0077689Y0076047D02*
X0071818Y0076047D01*
X0071037Y0075266D01*
X0070567Y0075266D01*
X0070375Y0075458D01*
X0069429Y0075850D01*
X0068404Y0075850D01*
X0067458Y0075458D01*
X0066734Y0074734D01*
X0066342Y0073787D01*
X0066342Y0072763D01*
X0066734Y0071816D01*
X0067458Y0071092D01*
X0068404Y0070700D01*
X0069429Y0070700D01*
X0070375Y0071092D01*
X0070980Y0071697D01*
X0071037Y0071697D01*
X0071818Y0070916D01*
X0077689Y0070916D01*
X0078500Y0071727D01*
X0078500Y0075236D01*
X0077689Y0076047D01*
X0074753Y0073482D02*
X0068917Y0073482D01*
X0068917Y0073275D01*
X0066342Y0073339D02*
X0060771Y0073339D01*
X0060771Y0072540D02*
X0060389Y0072540D01*
X0060389Y0071742D02*
X0060771Y0071742D01*
X0060771Y0070943D02*
X0060389Y0070943D01*
X0058201Y0070145D02*
X0084632Y0070145D01*
X0084632Y0070943D02*
X0077716Y0070943D01*
X0071791Y0070943D02*
X0070015Y0070943D01*
X0067818Y0070943D02*
X0063285Y0070943D01*
X0064236Y0071742D02*
X0066809Y0071742D01*
X0066434Y0072540D02*
X0064342Y0072540D01*
X0064342Y0074137D02*
X0066487Y0074137D01*
X0066936Y0074936D02*
X0064319Y0074936D01*
X0063851Y0075734D02*
X0068125Y0075734D01*
X0069708Y0075734D02*
X0071505Y0075734D01*
X0077816Y0078130D02*
X0084632Y0078130D01*
X0084632Y0078928D02*
X0078500Y0078928D01*
X0078500Y0079727D02*
X0084632Y0079727D01*
X0084632Y0080525D02*
X0078500Y0080525D01*
X0078500Y0081324D02*
X0084632Y0081324D01*
X0084632Y0082122D02*
X0078500Y0082122D01*
X0078201Y0082921D02*
X0084632Y0082921D01*
X0084632Y0083719D02*
X0078201Y0083719D01*
X0076417Y0085775D02*
X0086417Y0085775D01*
X0086417Y0067025D01*
X0056417Y0067025D01*
X0056417Y0105775D01*
X0060167Y0105775D01*
X0061951Y0106876D02*
X0090236Y0106876D01*
X0090190Y0107675D02*
X0061951Y0107675D01*
X0061951Y0108473D02*
X0090190Y0108473D01*
X0090190Y0109272D02*
X0061951Y0109272D01*
X0061951Y0110070D02*
X0090190Y0110070D01*
X0090806Y0110869D02*
X0061951Y0110869D01*
X0061951Y0111667D02*
X0238382Y0111667D01*
X0238382Y0110869D02*
X0094527Y0110869D01*
X0092667Y0108587D02*
X0139492Y0108587D01*
X0139492Y0106712D01*
X0240167Y0106712D01*
X0240167Y0130150D01*
X0243917Y0125775D02*
X0287553Y0125775D01*
X0287553Y0127689D01*
X0296462Y0124443D02*
X0321332Y0124443D01*
X0321332Y0123645D02*
X0297116Y0123645D01*
X0294542Y0122025D02*
X0294542Y0120775D01*
X0300701Y0113264D02*
X0319047Y0113264D01*
X0330876Y0108473D02*
X0388462Y0108473D01*
X0391054Y0108473D02*
X0450882Y0108473D01*
X0450882Y0107675D02*
X0330876Y0107675D01*
X0330701Y0106876D02*
X0450882Y0106876D01*
X0450882Y0106078D02*
X0330701Y0106078D01*
X0330701Y0105279D02*
X0450882Y0105279D01*
X0450882Y0104481D02*
X0330701Y0104481D01*
X0330701Y0103682D02*
X0450882Y0103682D01*
X0450882Y0102884D02*
X0358934Y0102884D01*
X0359001Y0102085D02*
X0450882Y0102085D01*
X0450882Y0101287D02*
X0359001Y0101287D01*
X0359001Y0100488D02*
X0450882Y0100488D01*
X0450882Y0099690D02*
X0359001Y0099690D01*
X0359001Y0098891D02*
X0450882Y0098891D01*
X0450882Y0098093D02*
X0359001Y0098093D01*
X0359001Y0097294D02*
X0450882Y0097294D01*
X0450882Y0096495D02*
X0359001Y0096495D01*
X0359001Y0095697D02*
X0450882Y0095697D01*
X0450882Y0094898D02*
X0359001Y0094898D01*
X0359001Y0094100D02*
X0384175Y0094100D01*
X0383973Y0094016D02*
X0383087Y0093130D01*
X0382608Y0091973D01*
X0382608Y0090719D01*
X0383087Y0089562D01*
X0383973Y0088675D01*
X0385131Y0088196D01*
X0386384Y0088196D01*
X0387542Y0088675D01*
X0388428Y0089562D01*
X0388908Y0090719D01*
X0388908Y0091973D01*
X0388428Y0093130D01*
X0387542Y0094016D01*
X0386384Y0094496D01*
X0385131Y0094496D01*
X0383973Y0094016D01*
X0383258Y0093301D02*
X0365891Y0093301D01*
X0366260Y0092503D02*
X0382827Y0092503D01*
X0382608Y0091704D02*
X0366260Y0091704D01*
X0366260Y0090906D02*
X0382608Y0090906D01*
X0382861Y0090107D02*
X0366260Y0090107D01*
X0366260Y0089309D02*
X0383340Y0089309D01*
X0384372Y0088510D02*
X0366153Y0088510D01*
X0365476Y0087712D02*
X0450882Y0087712D01*
X0450882Y0088510D02*
X0395143Y0088510D01*
X0395542Y0088675D02*
X0396428Y0089562D01*
X0396908Y0090719D01*
X0396908Y0091973D01*
X0396428Y0093130D01*
X0395542Y0094016D01*
X0394384Y0094496D01*
X0393131Y0094496D01*
X0391973Y0094016D01*
X0391087Y0093130D01*
X0390608Y0091973D01*
X0390608Y0090719D01*
X0391087Y0089562D01*
X0391973Y0088675D01*
X0393131Y0088196D01*
X0394384Y0088196D01*
X0395542Y0088675D01*
X0396175Y0089309D02*
X0450882Y0089309D01*
X0450882Y0090107D02*
X0396654Y0090107D01*
X0396908Y0090906D02*
X0450882Y0090906D01*
X0450882Y0091704D02*
X0396908Y0091704D01*
X0396688Y0092503D02*
X0450882Y0092503D01*
X0450882Y0093301D02*
X0396257Y0093301D01*
X0395340Y0094100D02*
X0450882Y0094100D01*
X0458201Y0092503D02*
X0473051Y0092503D01*
X0472876Y0091704D02*
X0458201Y0091704D01*
X0458201Y0090906D02*
X0472876Y0090906D01*
X0472876Y0090107D02*
X0458201Y0090107D01*
X0458201Y0089309D02*
X0472876Y0089309D01*
X0472876Y0088510D02*
X0458201Y0088510D01*
X0458201Y0087712D02*
X0472876Y0087712D01*
X0472876Y0086913D02*
X0458201Y0086913D01*
X0458201Y0086115D02*
X0472876Y0086115D01*
X0472876Y0085316D02*
X0458201Y0085316D01*
X0458201Y0084518D02*
X0472876Y0084518D01*
X0472876Y0083719D02*
X0458201Y0083719D01*
X0458201Y0082921D02*
X0472876Y0082921D01*
X0472876Y0082122D02*
X0458201Y0082122D01*
X0458201Y0081324D02*
X0472876Y0081324D01*
X0472876Y0080525D02*
X0458201Y0080525D01*
X0458201Y0079727D02*
X0472876Y0079727D01*
X0472876Y0078928D02*
X0458201Y0078928D01*
X0450882Y0078928D02*
X0398761Y0078928D01*
X0398747Y0078130D02*
X0450882Y0078130D01*
X0450882Y0077331D02*
X0398733Y0077331D01*
X0398719Y0076533D02*
X0450882Y0076533D01*
X0450882Y0075734D02*
X0398705Y0075734D01*
X0398691Y0074936D02*
X0450882Y0074936D01*
X0450882Y0074137D02*
X0398677Y0074137D01*
X0398663Y0073339D02*
X0450882Y0073339D01*
X0450882Y0072540D02*
X0398649Y0072540D01*
X0398635Y0071742D02*
X0450882Y0071742D01*
X0450882Y0070943D02*
X0398621Y0070943D01*
X0398607Y0070145D02*
X0450882Y0070145D01*
X0450882Y0069346D02*
X0398593Y0069346D01*
X0398579Y0068548D02*
X0450882Y0068548D01*
X0450882Y0067749D02*
X0398565Y0067749D01*
X0398551Y0066951D02*
X0450882Y0066951D01*
X0450882Y0066152D02*
X0398537Y0066152D01*
X0398523Y0065354D02*
X0450882Y0065354D01*
X0450882Y0064555D02*
X0398513Y0064555D01*
X0398178Y0063757D02*
X0450882Y0063757D01*
X0450882Y0062958D02*
X0361393Y0062958D01*
X0349143Y0066951D02*
X0394982Y0066951D01*
X0394996Y0067749D02*
X0349156Y0067749D01*
X0349169Y0068548D02*
X0395010Y0068548D01*
X0395024Y0069346D02*
X0349182Y0069346D01*
X0349195Y0070145D02*
X0395038Y0070145D01*
X0395052Y0070943D02*
X0387716Y0070943D01*
X0387689Y0070916D02*
X0388500Y0071727D01*
X0388500Y0075236D01*
X0387689Y0076047D01*
X0381818Y0076047D01*
X0381037Y0075266D01*
X0380567Y0075266D01*
X0380375Y0075458D01*
X0379429Y0075850D01*
X0378404Y0075850D01*
X0377458Y0075458D01*
X0376734Y0074734D01*
X0376342Y0073787D01*
X0376342Y0072763D01*
X0376734Y0071816D01*
X0377458Y0071092D01*
X0378404Y0070700D01*
X0379429Y0070700D01*
X0380375Y0071092D01*
X0380980Y0071697D01*
X0381037Y0071697D01*
X0381818Y0070916D01*
X0387689Y0070916D01*
X0388500Y0071742D02*
X0395066Y0071742D01*
X0395080Y0072540D02*
X0388500Y0072540D01*
X0388500Y0073339D02*
X0395094Y0073339D01*
X0395108Y0074137D02*
X0388500Y0074137D01*
X0388500Y0074936D02*
X0395122Y0074936D01*
X0395136Y0075734D02*
X0388002Y0075734D01*
X0384753Y0073482D02*
X0378917Y0073482D01*
X0378917Y0073275D01*
X0376342Y0073339D02*
X0370771Y0073339D01*
X0370771Y0073291D02*
X0370771Y0073672D01*
X0374342Y0073672D01*
X0374342Y0074847D01*
X0374247Y0075203D01*
X0374063Y0075522D01*
X0373802Y0075783D01*
X0373483Y0075967D01*
X0373127Y0076063D01*
X0370771Y0076063D01*
X0370771Y0073672D01*
X0370389Y0073672D01*
X0370389Y0073291D01*
X0366818Y0073291D01*
X0366818Y0072116D01*
X0366913Y0071760D01*
X0367098Y0071441D01*
X0367358Y0071180D01*
X0367677Y0070996D01*
X0368034Y0070901D01*
X0370389Y0070901D01*
X0370389Y0073291D01*
X0370771Y0073291D01*
X0374342Y0073291D01*
X0374342Y0072116D01*
X0374247Y0071760D01*
X0374063Y0071441D01*
X0373802Y0071180D01*
X0373483Y0070996D01*
X0373127Y0070901D01*
X0370771Y0070901D01*
X0370771Y0073291D01*
X0370580Y0073482D02*
X0370580Y0070362D01*
X0370792Y0070150D01*
X0390167Y0070150D01*
X0390167Y0072025D01*
X0381791Y0070943D02*
X0380015Y0070943D01*
X0377818Y0070943D02*
X0373285Y0070943D01*
X0374236Y0071742D02*
X0376809Y0071742D01*
X0376434Y0072540D02*
X0374342Y0072540D01*
X0374342Y0074137D02*
X0376487Y0074137D01*
X0376936Y0074936D02*
X0374319Y0074936D01*
X0373851Y0075734D02*
X0378125Y0075734D01*
X0379708Y0075734D02*
X0381505Y0075734D01*
X0381691Y0078130D02*
X0373642Y0078130D01*
X0374326Y0078928D02*
X0374622Y0078928D01*
X0376417Y0080775D02*
X0370580Y0080775D01*
X0370580Y0080568D01*
X0367518Y0078130D02*
X0349326Y0078130D01*
X0349313Y0077331D02*
X0395164Y0077331D01*
X0395150Y0076533D02*
X0349300Y0076533D01*
X0349287Y0075734D02*
X0367309Y0075734D01*
X0367358Y0075783D02*
X0367098Y0075522D01*
X0366913Y0075203D01*
X0366818Y0074847D01*
X0366818Y0073672D01*
X0370389Y0073672D01*
X0370389Y0076063D01*
X0368034Y0076063D01*
X0367677Y0075967D01*
X0367358Y0075783D01*
X0366842Y0074936D02*
X0349273Y0074936D01*
X0349260Y0074137D02*
X0366818Y0074137D01*
X0366818Y0072540D02*
X0349234Y0072540D01*
X0349221Y0071742D02*
X0366924Y0071742D01*
X0367875Y0070943D02*
X0349208Y0070943D01*
X0345639Y0070943D02*
X0337716Y0070943D01*
X0331791Y0070943D02*
X0330015Y0070943D01*
X0327818Y0070943D02*
X0323285Y0070943D01*
X0324236Y0071742D02*
X0326809Y0071742D01*
X0326434Y0072540D02*
X0324342Y0072540D01*
X0324342Y0074137D02*
X0326487Y0074137D01*
X0326936Y0074936D02*
X0324319Y0074936D01*
X0323851Y0075734D02*
X0328125Y0075734D01*
X0329708Y0075734D02*
X0331505Y0075734D01*
X0320771Y0075734D02*
X0320389Y0075734D01*
X0320389Y0074936D02*
X0320771Y0074936D01*
X0320771Y0074137D02*
X0320389Y0074137D01*
X0316818Y0072540D02*
X0298201Y0072540D01*
X0298201Y0071742D02*
X0316924Y0071742D01*
X0315820Y0070145D02*
X0345626Y0070145D01*
X0345613Y0069346D02*
X0316619Y0069346D01*
X0317417Y0068548D02*
X0345600Y0068548D01*
X0349247Y0073339D02*
X0370389Y0073339D01*
X0370389Y0074137D02*
X0370771Y0074137D01*
X0370771Y0074936D02*
X0370389Y0074936D01*
X0370389Y0075734D02*
X0370771Y0075734D01*
X0370771Y0072540D02*
X0370389Y0072540D01*
X0370389Y0071742D02*
X0370771Y0071742D01*
X0370771Y0070943D02*
X0370389Y0070943D01*
X0378211Y0078928D02*
X0381007Y0078928D01*
X0381007Y0079727D02*
X0378769Y0079727D01*
X0378991Y0080525D02*
X0381007Y0080525D01*
X0381007Y0081324D02*
X0378976Y0081324D01*
X0378646Y0082122D02*
X0381007Y0082122D01*
X0381605Y0082921D02*
X0377912Y0082921D01*
X0374921Y0082921D02*
X0373728Y0082921D01*
X0365476Y0086115D02*
X0450882Y0086115D01*
X0450882Y0086913D02*
X0365476Y0086913D01*
X0360323Y0090107D02*
X0359001Y0090107D01*
X0359001Y0090906D02*
X0360323Y0090906D01*
X0360323Y0091704D02*
X0359001Y0091704D01*
X0359001Y0092503D02*
X0360323Y0092503D01*
X0360692Y0093301D02*
X0359001Y0093301D01*
X0356417Y0093281D02*
X0328917Y0093281D01*
X0330701Y0095697D02*
X0343207Y0095697D01*
X0343207Y0096495D02*
X0330701Y0096495D01*
X0330701Y0097294D02*
X0343207Y0097294D01*
X0343207Y0098093D02*
X0330701Y0098093D01*
X0330701Y0098891D02*
X0343318Y0098891D01*
X0343207Y0099690D02*
X0330701Y0099690D01*
X0330701Y0100488D02*
X0343207Y0100488D01*
X0343207Y0101287D02*
X0330701Y0101287D01*
X0330701Y0102085D02*
X0343207Y0102085D01*
X0343543Y0102884D02*
X0330701Y0102884D01*
X0345792Y0101044D02*
X0345792Y0100775D01*
X0345792Y0101044D02*
X0356417Y0101044D01*
X0353899Y0102884D02*
X0348041Y0102884D01*
X0345792Y0097162D02*
X0345792Y0096894D01*
X0345792Y0097162D02*
X0356417Y0097162D01*
X0354545Y0086913D02*
X0349052Y0086913D01*
X0345744Y0077331D02*
X0298201Y0077331D01*
X0298201Y0076533D02*
X0345731Y0076533D01*
X0384753Y0080568D02*
X0385378Y0082650D01*
X0388500Y0080525D02*
X0395220Y0080525D01*
X0395206Y0079727D02*
X0388500Y0079727D01*
X0388500Y0078928D02*
X0395192Y0078928D01*
X0395178Y0078130D02*
X0387816Y0078130D01*
X0398775Y0079727D02*
X0450882Y0079727D01*
X0450882Y0080525D02*
X0398789Y0080525D01*
X0398803Y0081324D02*
X0450882Y0081324D01*
X0450882Y0082122D02*
X0398826Y0082122D01*
X0398831Y0082921D02*
X0450882Y0082921D01*
X0450882Y0083719D02*
X0398496Y0083719D01*
X0392372Y0088510D02*
X0387143Y0088510D01*
X0388175Y0089309D02*
X0391340Y0089309D01*
X0390861Y0090107D02*
X0388654Y0090107D01*
X0388908Y0090906D02*
X0390608Y0090906D01*
X0390608Y0091704D02*
X0388908Y0091704D01*
X0388688Y0092503D02*
X0390827Y0092503D01*
X0391258Y0093301D02*
X0388257Y0093301D01*
X0387340Y0094100D02*
X0392175Y0094100D01*
X0424896Y0109272D02*
X0450882Y0109272D01*
X0450882Y0110070D02*
X0425446Y0110070D01*
X0425446Y0110869D02*
X0450882Y0110869D01*
X0450882Y0111667D02*
X0425446Y0111667D01*
X0425446Y0112466D02*
X0450882Y0112466D01*
X0450882Y0113264D02*
X0425446Y0113264D01*
X0424752Y0114063D02*
X0450882Y0114063D01*
X0450882Y0114861D02*
X0424648Y0114861D01*
X0424250Y0115660D02*
X0450882Y0115660D01*
X0450882Y0116458D02*
X0393311Y0116458D01*
X0450882Y0118854D02*
X0264616Y0118854D01*
X0243917Y0125775D02*
X0243917Y0102295D01*
X0237667Y0102295D01*
X0139492Y0101872D01*
X0137092Y0101872D01*
X0137092Y0102486D01*
X0095342Y0102306D01*
X0095335Y0102300D01*
X0093742Y0102300D01*
X0092667Y0101045D01*
X0090190Y0101287D02*
X0058201Y0101287D01*
X0058201Y0102085D02*
X0090190Y0102085D01*
X0090363Y0102884D02*
X0058201Y0102884D01*
X0058201Y0103682D02*
X0092577Y0103682D01*
X0090190Y0100488D02*
X0058201Y0100488D01*
X0058201Y0099690D02*
X0090190Y0099690D01*
X0052116Y0112650D02*
X0052042Y0112650D01*
X0052042Y0063275D01*
X0138604Y0063275D01*
X0138917Y0064525D01*
X0141393Y0064555D02*
X0143695Y0064555D01*
X0143695Y0063757D02*
X0141393Y0063757D01*
X0141393Y0065354D02*
X0143695Y0065354D01*
X0143695Y0066152D02*
X0141393Y0066152D01*
X0140633Y0066951D02*
X0142850Y0066951D01*
X0147354Y0071088D02*
X0147354Y0054525D01*
X0195929Y0054525D01*
X0199679Y0050775D01*
X0293917Y0050775D01*
X0293917Y0048275D01*
X0296393Y0048585D02*
X0308940Y0048585D01*
X0308940Y0049383D02*
X0296393Y0049383D01*
X0296152Y0050182D02*
X0308940Y0050182D01*
X0309013Y0047786D02*
X0296393Y0047786D01*
X0296393Y0046988D02*
X0316834Y0046988D01*
X0316834Y0046189D02*
X0295973Y0046189D01*
X0291860Y0046189D02*
X0286015Y0046189D01*
X0286001Y0046988D02*
X0291440Y0046988D01*
X0291440Y0047786D02*
X0285558Y0047786D01*
X0282444Y0047786D02*
X0282063Y0047786D01*
X0282063Y0046988D02*
X0282444Y0046988D01*
X0282444Y0046189D02*
X0282063Y0046189D01*
X0282444Y0045391D02*
X0316834Y0045391D01*
X0320580Y0045568D02*
X0326417Y0045568D01*
X0326417Y0045775D01*
X0328701Y0046988D02*
X0331006Y0046988D01*
X0331448Y0047786D02*
X0328047Y0047786D01*
X0324787Y0047786D02*
X0323863Y0047786D01*
X0317297Y0047786D02*
X0313820Y0047786D01*
X0313893Y0048585D02*
X0467899Y0048585D01*
X0467914Y0048508D02*
X0468213Y0047787D01*
X0468646Y0047139D01*
X0469197Y0046587D01*
X0469846Y0046154D01*
X0470566Y0045856D01*
X0471331Y0045704D01*
X0471334Y0045704D01*
X0471334Y0049275D01*
X0467762Y0049275D01*
X0467762Y0049273D01*
X0467914Y0048508D01*
X0468213Y0047786D02*
X0388058Y0047786D01*
X0388501Y0046988D02*
X0468797Y0046988D01*
X0469793Y0046189D02*
X0388515Y0046189D01*
X0384944Y0046189D02*
X0384563Y0046189D01*
X0384563Y0046988D02*
X0384944Y0046988D01*
X0384944Y0047786D02*
X0384563Y0047786D01*
X0381448Y0047786D02*
X0378047Y0047786D01*
X0378701Y0046988D02*
X0381006Y0046988D01*
X0380991Y0046189D02*
X0378991Y0046189D01*
X0376417Y0045775D02*
X0376417Y0045568D01*
X0370580Y0045568D01*
X0366834Y0045391D02*
X0334944Y0045391D01*
X0334944Y0046189D02*
X0334563Y0046189D01*
X0334563Y0046988D02*
X0334944Y0046988D01*
X0334944Y0047786D02*
X0334563Y0047786D01*
X0338058Y0047786D02*
X0367297Y0047786D01*
X0366834Y0046988D02*
X0338501Y0046988D01*
X0338515Y0046189D02*
X0366834Y0046189D01*
X0373863Y0047786D02*
X0374787Y0047786D01*
X0363893Y0052577D02*
X0457876Y0052577D01*
X0457778Y0053376D02*
X0363893Y0053376D01*
X0363409Y0054174D02*
X0457778Y0054174D01*
X0458022Y0054973D02*
X0363201Y0054973D01*
X0363201Y0055771D02*
X0458353Y0055771D01*
X0459115Y0056570D02*
X0400103Y0056570D01*
X0400143Y0057368D02*
X0460516Y0057368D01*
X0459780Y0058167D02*
X0400143Y0058167D01*
X0400143Y0058965D02*
X0458810Y0058965D01*
X0458226Y0059764D02*
X0400143Y0059764D01*
X0397667Y0058275D02*
X0203429Y0058275D01*
X0199679Y0062025D01*
X0154854Y0062025D01*
X0154854Y0084213D01*
X0153604Y0085150D01*
X0156729Y0086712D02*
X0156729Y0063900D01*
X0206417Y0063900D01*
X0206417Y0063275D01*
X0208940Y0067559D02*
X0160388Y0067559D01*
X0160388Y0070939D01*
X0160534Y0070901D01*
X0162889Y0070901D01*
X0162889Y0073291D01*
X0163271Y0073291D01*
X0163271Y0073672D01*
X0166842Y0073672D01*
X0166842Y0074847D01*
X0166747Y0075203D01*
X0166563Y0075522D01*
X0166302Y0075783D01*
X0165983Y0075967D01*
X0165627Y0076063D01*
X0163271Y0076063D01*
X0163271Y0073672D01*
X0162889Y0073672D01*
X0162889Y0076063D01*
X0160534Y0076063D01*
X0160388Y0076024D01*
X0160388Y0078003D01*
X0166016Y0078003D01*
X0166826Y0078814D01*
X0166826Y0078991D01*
X0167060Y0078991D01*
X0167458Y0078592D01*
X0168404Y0078200D01*
X0169429Y0078200D01*
X0170375Y0078592D01*
X0171099Y0079316D01*
X0171491Y0080263D01*
X0171491Y0081287D01*
X0171099Y0082234D01*
X0170375Y0082958D01*
X0169429Y0083350D01*
X0168404Y0083350D01*
X0167458Y0082958D01*
X0167060Y0082559D01*
X0166590Y0082559D01*
X0166016Y0083134D01*
X0160388Y0083134D01*
X0160388Y0091202D01*
X0160241Y0091348D01*
X0160241Y0092467D01*
X0159967Y0092741D01*
X0162592Y0092741D01*
X0162592Y0090884D01*
X0163382Y0090093D01*
X0163382Y0089411D01*
X0164428Y0088366D01*
X0164632Y0088366D01*
X0164632Y0086286D01*
X0165678Y0085241D01*
X0175469Y0085241D01*
X0175469Y0083134D01*
X0174318Y0083134D01*
X0173507Y0082323D01*
X0173507Y0078814D01*
X0174318Y0078003D01*
X0180189Y0078003D01*
X0181000Y0078814D01*
X0181000Y0082323D01*
X0180582Y0082741D01*
X0190257Y0082741D01*
X0190257Y0073133D01*
X0189565Y0072441D01*
X0189565Y0069109D01*
X0190376Y0068299D01*
X0193707Y0068299D01*
X0194518Y0069109D01*
X0194518Y0072441D01*
X0193826Y0073133D01*
X0193826Y0085241D01*
X0227969Y0085241D01*
X0227969Y0083134D01*
X0226818Y0083134D01*
X0226007Y0082323D01*
X0226007Y0078814D01*
X0226818Y0078003D01*
X0232689Y0078003D01*
X0233500Y0078814D01*
X0233500Y0082323D01*
X0232689Y0083134D01*
X0231538Y0083134D01*
X0231538Y0087116D01*
X0237757Y0087116D01*
X0237757Y0070059D01*
X0213774Y0070059D01*
X0213082Y0070751D01*
X0209751Y0070751D01*
X0208940Y0069941D01*
X0208940Y0067559D01*
X0208940Y0067749D02*
X0160388Y0067749D01*
X0160388Y0068548D02*
X0190127Y0068548D01*
X0189565Y0069346D02*
X0160388Y0069346D01*
X0160388Y0070145D02*
X0189565Y0070145D01*
X0189565Y0070943D02*
X0180216Y0070943D01*
X0180189Y0070916D02*
X0181000Y0071727D01*
X0181000Y0075236D01*
X0180189Y0076047D01*
X0174318Y0076047D01*
X0173537Y0075266D01*
X0173067Y0075266D01*
X0172875Y0075458D01*
X0171929Y0075850D01*
X0170904Y0075850D01*
X0169958Y0075458D01*
X0169234Y0074734D01*
X0168842Y0073787D01*
X0168842Y0072763D01*
X0169234Y0071816D01*
X0169958Y0071092D01*
X0170904Y0070700D01*
X0171929Y0070700D01*
X0172875Y0071092D01*
X0173480Y0071697D01*
X0173537Y0071697D01*
X0174318Y0070916D01*
X0180189Y0070916D01*
X0181000Y0071742D02*
X0189565Y0071742D01*
X0189665Y0072540D02*
X0181000Y0072540D01*
X0181000Y0073339D02*
X0190257Y0073339D01*
X0190257Y0074137D02*
X0181000Y0074137D01*
X0181000Y0074936D02*
X0190257Y0074936D01*
X0190257Y0075734D02*
X0180502Y0075734D01*
X0177253Y0073482D02*
X0171417Y0073482D01*
X0171417Y0073275D01*
X0168842Y0073339D02*
X0163271Y0073339D01*
X0163271Y0073291D02*
X0166842Y0073291D01*
X0166842Y0072116D01*
X0166747Y0071760D01*
X0166563Y0071441D01*
X0166302Y0071180D01*
X0165983Y0070996D01*
X0165627Y0070901D01*
X0163271Y0070901D01*
X0163271Y0073291D01*
X0163080Y0073482D02*
X0163080Y0070362D01*
X0163292Y0070150D01*
X0182667Y0070150D01*
X0182667Y0072025D01*
X0192042Y0070775D02*
X0192042Y0084525D01*
X0177253Y0084525D01*
X0177253Y0080568D01*
X0173507Y0080525D02*
X0171491Y0080525D01*
X0171476Y0081324D02*
X0173507Y0081324D01*
X0173507Y0082122D02*
X0171146Y0082122D01*
X0170412Y0082921D02*
X0174105Y0082921D01*
X0175469Y0083719D02*
X0160388Y0083719D01*
X0160388Y0084518D02*
X0175469Y0084518D01*
X0181000Y0082122D02*
X0190257Y0082122D01*
X0190257Y0081324D02*
X0181000Y0081324D01*
X0181000Y0080525D02*
X0190257Y0080525D01*
X0190257Y0079727D02*
X0181000Y0079727D01*
X0181000Y0078928D02*
X0190257Y0078928D01*
X0190257Y0078130D02*
X0180316Y0078130D01*
X0174191Y0078130D02*
X0166142Y0078130D01*
X0166826Y0078928D02*
X0167122Y0078928D01*
X0168917Y0080775D02*
X0163080Y0080775D01*
X0163080Y0080568D01*
X0166228Y0082921D02*
X0167421Y0082921D01*
X0171269Y0079727D02*
X0173507Y0079727D01*
X0173507Y0078928D02*
X0170711Y0078928D01*
X0170625Y0075734D02*
X0166351Y0075734D01*
X0166819Y0074936D02*
X0169436Y0074936D01*
X0168987Y0074137D02*
X0166842Y0074137D01*
X0166842Y0072540D02*
X0168934Y0072540D01*
X0169309Y0071742D02*
X0166736Y0071742D01*
X0165785Y0070943D02*
X0170318Y0070943D01*
X0172515Y0070943D02*
X0174291Y0070943D01*
X0163271Y0070943D02*
X0162889Y0070943D01*
X0162889Y0071742D02*
X0163271Y0071742D01*
X0163271Y0072540D02*
X0162889Y0072540D01*
X0162889Y0074137D02*
X0163271Y0074137D01*
X0163271Y0074936D02*
X0162889Y0074936D01*
X0162889Y0075734D02*
X0163271Y0075734D01*
X0160388Y0076533D02*
X0190257Y0076533D01*
X0190257Y0077331D02*
X0160388Y0077331D01*
X0149229Y0074213D02*
X0147667Y0075775D01*
X0149229Y0074213D02*
X0149229Y0056400D01*
X0196867Y0056400D01*
X0200617Y0052650D01*
X0311417Y0052650D01*
X0311417Y0049525D01*
X0313893Y0049383D02*
X0345693Y0049383D01*
X0345190Y0050182D02*
X0313893Y0050182D01*
X0313893Y0050980D02*
X0345190Y0050980D01*
X0345190Y0051779D02*
X0313305Y0051779D01*
X0313201Y0052577D02*
X0345190Y0052577D01*
X0347667Y0051552D02*
X0347667Y0054525D01*
X0334944Y0044592D02*
X0334563Y0044592D01*
X0334563Y0043794D02*
X0334944Y0043794D01*
X0334944Y0042995D02*
X0334563Y0042995D01*
X0331370Y0040600D02*
X0330033Y0040600D01*
X0327801Y0040600D02*
X0323963Y0040600D01*
X0324326Y0039801D02*
X0326802Y0039801D01*
X0326431Y0039003D02*
X0324326Y0039003D01*
X0324326Y0038204D02*
X0326342Y0038204D01*
X0326490Y0037406D02*
X0324326Y0037406D01*
X0324206Y0036607D02*
X0326943Y0036607D01*
X0328917Y0038275D02*
X0334753Y0038275D01*
X0334753Y0038482D01*
X0338500Y0038204D02*
X0356440Y0038204D01*
X0356440Y0039003D02*
X0338500Y0039003D01*
X0338500Y0039801D02*
X0356440Y0039801D01*
X0356440Y0040600D02*
X0338136Y0040600D01*
X0338500Y0037406D02*
X0356894Y0037406D01*
X0358917Y0038482D02*
X0370580Y0038482D01*
X0367197Y0040600D02*
X0361393Y0040600D01*
X0361185Y0041398D02*
X0472876Y0041398D01*
X0472876Y0040600D02*
X0388136Y0040600D01*
X0388500Y0039801D02*
X0472876Y0039801D01*
X0472876Y0039003D02*
X0388500Y0039003D01*
X0388500Y0038204D02*
X0472876Y0038204D01*
X0472876Y0037406D02*
X0388500Y0037406D01*
X0388380Y0036607D02*
X0472876Y0036607D01*
X0472876Y0035809D02*
X0379691Y0035809D01*
X0378917Y0038275D02*
X0384753Y0038275D01*
X0384753Y0038482D01*
X0381370Y0040600D02*
X0380033Y0040600D01*
X0366954Y0036607D02*
X0338380Y0036607D01*
X0320580Y0038482D02*
X0308917Y0038482D01*
X0310941Y0040600D02*
X0317197Y0040600D01*
X0316954Y0036607D02*
X0311184Y0036607D01*
X0282444Y0042995D02*
X0282063Y0042995D01*
X0282063Y0043794D02*
X0282444Y0043794D01*
X0282444Y0044592D02*
X0282063Y0044592D01*
X0279677Y0042995D02*
X0265768Y0042995D01*
X0265105Y0042197D02*
X0472876Y0042197D01*
X0472109Y0046189D02*
X0471334Y0046189D01*
X0471334Y0046988D02*
X0472109Y0046988D01*
X0472109Y0047786D02*
X0471334Y0047786D01*
X0471334Y0048585D02*
X0472109Y0048585D01*
X0472109Y0050182D02*
X0471334Y0050182D01*
X0471334Y0050980D02*
X0472109Y0050980D01*
X0472109Y0051779D02*
X0471334Y0051779D01*
X0471334Y0052577D02*
X0472109Y0052577D01*
X0472109Y0053376D02*
X0471334Y0053376D01*
X0473173Y0061361D02*
X0474007Y0061361D01*
X0474007Y0062159D02*
X0473416Y0062159D01*
X0471721Y0065726D02*
X0463361Y0065726D01*
X0463355Y0065719D01*
X0454597Y0065719D02*
X0454542Y0065775D01*
X0452667Y0061631D02*
X0461721Y0061631D01*
X0358917Y0039525D02*
X0358917Y0038482D01*
X0356648Y0041398D02*
X0142956Y0041398D01*
X0140479Y0042025D02*
X0139854Y0042025D01*
X0139854Y0057650D01*
X0044542Y0057650D01*
X0044542Y0123274D01*
X0044240Y0123274D01*
X0049542Y0119525D02*
X0049542Y0061400D01*
X0143604Y0061400D01*
X0143604Y0050775D01*
X0188917Y0050775D01*
X0188917Y0049837D01*
X0191491Y0050182D02*
X0194937Y0050182D01*
X0195735Y0049383D02*
X0193325Y0049383D01*
X0194123Y0048585D02*
X0196534Y0048585D01*
X0197332Y0047786D02*
X0194304Y0047786D01*
X0194304Y0046988D02*
X0211834Y0046988D01*
X0211834Y0046189D02*
X0194222Y0046189D01*
X0193513Y0045391D02*
X0211834Y0045391D01*
X0211834Y0044592D02*
X0193070Y0044592D01*
X0191729Y0045775D02*
X0191729Y0047337D01*
X0191729Y0045775D02*
X0185792Y0045775D01*
X0185792Y0048275D01*
X0141729Y0048275D01*
X0141729Y0059525D01*
X0047042Y0059525D01*
X0047042Y0138588D01*
X0039542Y0142963D02*
X0172667Y0142963D01*
X0172667Y0135775D01*
X0177042Y0135775D01*
X0177042Y0140775D02*
X0174542Y0140775D01*
X0174542Y0144634D01*
X0174467Y0144708D01*
X0174467Y0145150D01*
X0033604Y0145463D01*
X0033604Y0038794D01*
X0060580Y0038482D01*
X0064326Y0038204D02*
X0066342Y0038204D01*
X0066342Y0037763D02*
X0066734Y0036816D01*
X0067458Y0036092D01*
X0068404Y0035700D01*
X0069429Y0035700D01*
X0070375Y0036092D01*
X0070774Y0036491D01*
X0071243Y0036491D01*
X0071818Y0035916D01*
X0077689Y0035916D01*
X0078500Y0036727D01*
X0078500Y0040236D01*
X0077689Y0041047D01*
X0071818Y0041047D01*
X0071007Y0040236D01*
X0071007Y0040059D01*
X0070774Y0040059D01*
X0070375Y0040458D01*
X0069429Y0040850D01*
X0068404Y0040850D01*
X0067458Y0040458D01*
X0066734Y0039734D01*
X0066342Y0038787D01*
X0066342Y0037763D01*
X0066490Y0037406D02*
X0064326Y0037406D01*
X0064206Y0036607D02*
X0066943Y0036607D01*
X0068143Y0035809D02*
X0019691Y0035809D01*
X0018917Y0038275D02*
X0024753Y0038275D01*
X0024753Y0038482D01*
X0028500Y0038204D02*
X0031813Y0038204D01*
X0031820Y0039003D02*
X0028500Y0039003D01*
X0028500Y0039801D02*
X0031820Y0039801D01*
X0031820Y0040600D02*
X0028136Y0040600D01*
X0028500Y0037406D02*
X0032466Y0037406D01*
X0028380Y0036607D02*
X0056954Y0036607D01*
X0064326Y0039003D02*
X0066431Y0039003D01*
X0066802Y0039801D02*
X0064326Y0039801D01*
X0063963Y0040600D02*
X0067801Y0040600D01*
X0070033Y0040600D02*
X0071370Y0040600D01*
X0068917Y0038275D02*
X0074753Y0038275D01*
X0074753Y0038482D01*
X0078500Y0038204D02*
X0101440Y0038204D01*
X0101440Y0037406D02*
X0078500Y0037406D01*
X0078380Y0036607D02*
X0101443Y0036607D01*
X0102241Y0035809D02*
X0069691Y0035809D01*
X0078500Y0039003D02*
X0101440Y0039003D01*
X0101440Y0039801D02*
X0078500Y0039801D01*
X0078136Y0040600D02*
X0102099Y0040600D01*
X0102132Y0041398D02*
X0035388Y0041398D01*
X0035388Y0040600D02*
X0057197Y0040600D01*
X0056854Y0043794D02*
X0035388Y0043794D01*
X0035388Y0044592D02*
X0056834Y0044592D01*
X0056834Y0045391D02*
X0035388Y0045391D01*
X0035388Y0046189D02*
X0056834Y0046189D01*
X0060580Y0045568D02*
X0066417Y0045568D01*
X0066417Y0045775D01*
X0068714Y0044592D02*
X0070991Y0044592D01*
X0071117Y0043794D02*
X0068077Y0043794D01*
X0068991Y0045391D02*
X0074563Y0045391D01*
X0074753Y0045568D02*
X0078191Y0045568D01*
X0078515Y0046189D02*
X0102132Y0046189D01*
X0102132Y0045391D02*
X0074944Y0045391D01*
X0074944Y0044592D02*
X0074563Y0044592D01*
X0074563Y0043794D02*
X0074944Y0043794D01*
X0074944Y0042995D02*
X0074563Y0042995D01*
X0072177Y0042995D02*
X0035388Y0042995D01*
X0035388Y0042197D02*
X0102132Y0042197D01*
X0102132Y0042995D02*
X0077330Y0042995D01*
X0078389Y0043794D02*
X0102132Y0043794D01*
X0102132Y0044592D02*
X0078515Y0044592D01*
X0070991Y0046189D02*
X0068991Y0046189D01*
X0050405Y0046988D02*
X0035388Y0046988D01*
X0031820Y0046988D02*
X0028501Y0046988D01*
X0028515Y0046934D02*
X0028420Y0047290D01*
X0028236Y0047609D01*
X0027975Y0047870D01*
X0027656Y0048054D01*
X0027300Y0048149D01*
X0024944Y0048149D01*
X0024944Y0045759D01*
X0028515Y0045759D01*
X0028515Y0046934D01*
X0028515Y0046189D02*
X0031820Y0046189D01*
X0031820Y0045391D02*
X0024944Y0045391D01*
X0024944Y0045378D02*
X0024944Y0045759D01*
X0024563Y0045759D01*
X0024563Y0048149D01*
X0022207Y0048149D01*
X0021851Y0048054D01*
X0021531Y0047870D01*
X0021271Y0047609D01*
X0021086Y0047290D01*
X0020991Y0046934D01*
X0020991Y0045759D01*
X0024563Y0045759D01*
X0024563Y0045378D01*
X0024944Y0045378D01*
X0028515Y0045378D01*
X0028515Y0044203D01*
X0028420Y0043847D01*
X0028236Y0043528D01*
X0027975Y0043267D01*
X0027656Y0043083D01*
X0027300Y0042987D01*
X0024944Y0042987D01*
X0024944Y0045378D01*
X0024753Y0045568D02*
X0028191Y0045568D01*
X0028515Y0044592D02*
X0031820Y0044592D01*
X0031820Y0043794D02*
X0028389Y0043794D01*
X0027330Y0042995D02*
X0031820Y0042995D01*
X0031820Y0042197D02*
X0006951Y0042197D01*
X0006951Y0042995D02*
X0022177Y0042995D01*
X0022207Y0042987D02*
X0024563Y0042987D01*
X0024563Y0045378D01*
X0020991Y0045378D01*
X0020991Y0044203D01*
X0021086Y0043847D01*
X0021271Y0043528D01*
X0021531Y0043267D01*
X0021851Y0043083D01*
X0022207Y0042987D01*
X0021117Y0043794D02*
X0018077Y0043794D01*
X0018714Y0044592D02*
X0020991Y0044592D01*
X0020991Y0046189D02*
X0018991Y0046189D01*
X0018991Y0045391D02*
X0024563Y0045391D01*
X0024563Y0046189D02*
X0024944Y0046189D01*
X0024944Y0046988D02*
X0024563Y0046988D01*
X0024563Y0047786D02*
X0024944Y0047786D01*
X0028058Y0047786D02*
X0031820Y0047786D01*
X0031820Y0048585D02*
X0006951Y0048585D01*
X0006951Y0049383D02*
X0031820Y0049383D01*
X0031820Y0050182D02*
X0006951Y0050182D01*
X0006951Y0050980D02*
X0031820Y0050980D01*
X0031820Y0051779D02*
X0006951Y0051779D01*
X0006951Y0052577D02*
X0031820Y0052577D01*
X0031820Y0053376D02*
X0006951Y0053376D01*
X0006951Y0054174D02*
X0031820Y0054174D01*
X0031820Y0054973D02*
X0006951Y0054973D01*
X0006951Y0055771D02*
X0031820Y0055771D01*
X0031820Y0056570D02*
X0006951Y0056570D01*
X0006951Y0057368D02*
X0031820Y0057368D01*
X0031820Y0058167D02*
X0006951Y0058167D01*
X0006951Y0058965D02*
X0031820Y0058965D01*
X0031820Y0059764D02*
X0006951Y0059764D01*
X0006951Y0060562D02*
X0031820Y0060562D01*
X0031820Y0061361D02*
X0006951Y0061361D01*
X0006951Y0062159D02*
X0031820Y0062159D01*
X0031820Y0062958D02*
X0006951Y0062958D01*
X0006951Y0063757D02*
X0031820Y0063757D01*
X0031820Y0064555D02*
X0006951Y0064555D01*
X0006951Y0065354D02*
X0031820Y0065354D01*
X0031820Y0066152D02*
X0006951Y0066152D01*
X0006951Y0066951D02*
X0031820Y0066951D01*
X0031820Y0067749D02*
X0006951Y0067749D01*
X0006951Y0068548D02*
X0031820Y0068548D01*
X0031820Y0069346D02*
X0006951Y0069346D01*
X0006951Y0070145D02*
X0031820Y0070145D01*
X0031820Y0070943D02*
X0027716Y0070943D01*
X0027689Y0070916D02*
X0028500Y0071727D01*
X0028500Y0075236D01*
X0027689Y0076047D01*
X0021818Y0076047D01*
X0021037Y0075266D01*
X0020567Y0075266D01*
X0020375Y0075458D01*
X0019429Y0075850D01*
X0018404Y0075850D01*
X0017458Y0075458D01*
X0016734Y0074734D01*
X0016342Y0073787D01*
X0016342Y0072763D01*
X0016734Y0071816D01*
X0017458Y0071092D01*
X0018404Y0070700D01*
X0019429Y0070700D01*
X0020375Y0071092D01*
X0020980Y0071697D01*
X0021037Y0071697D01*
X0021818Y0070916D01*
X0027689Y0070916D01*
X0028500Y0071742D02*
X0031820Y0071742D01*
X0031820Y0072540D02*
X0028500Y0072540D01*
X0028500Y0073339D02*
X0031820Y0073339D01*
X0031820Y0074137D02*
X0028500Y0074137D01*
X0028500Y0074936D02*
X0031820Y0074936D01*
X0031820Y0075734D02*
X0028002Y0075734D01*
X0031820Y0076533D02*
X0006951Y0076533D01*
X0006951Y0077331D02*
X0031820Y0077331D01*
X0031820Y0078130D02*
X0027816Y0078130D01*
X0028500Y0078928D02*
X0031820Y0078928D01*
X0031820Y0079727D02*
X0028500Y0079727D01*
X0028500Y0080525D02*
X0031820Y0080525D01*
X0031820Y0081324D02*
X0028500Y0081324D01*
X0028500Y0082122D02*
X0031820Y0082122D01*
X0031820Y0082921D02*
X0027902Y0082921D01*
X0026951Y0083719D02*
X0031820Y0083719D01*
X0031820Y0084518D02*
X0026951Y0084518D01*
X0026951Y0085316D02*
X0031820Y0085316D01*
X0031820Y0086115D02*
X0026951Y0086115D01*
X0026951Y0086913D02*
X0031820Y0086913D01*
X0031820Y0087712D02*
X0026951Y0087712D01*
X0026951Y0088510D02*
X0031820Y0088510D01*
X0031820Y0089309D02*
X0026951Y0089309D01*
X0026951Y0090107D02*
X0031820Y0090107D01*
X0031820Y0090906D02*
X0026951Y0090906D01*
X0026951Y0091704D02*
X0031820Y0091704D01*
X0031820Y0092503D02*
X0026951Y0092503D01*
X0026951Y0093301D02*
X0031820Y0093301D01*
X0031820Y0094100D02*
X0026951Y0094100D01*
X0026951Y0094898D02*
X0031820Y0094898D01*
X0031820Y0095697D02*
X0026951Y0095697D01*
X0026951Y0096495D02*
X0031820Y0096495D01*
X0031820Y0097294D02*
X0026951Y0097294D01*
X0026951Y0098093D02*
X0031820Y0098093D01*
X0031820Y0098891D02*
X0026951Y0098891D01*
X0026951Y0099690D02*
X0031820Y0099690D01*
X0031820Y0100488D02*
X0026951Y0100488D01*
X0026951Y0101287D02*
X0031820Y0101287D01*
X0031820Y0102085D02*
X0026951Y0102085D01*
X0026951Y0102884D02*
X0031820Y0102884D01*
X0031820Y0103682D02*
X0026951Y0103682D01*
X0026951Y0104481D02*
X0031820Y0104481D01*
X0031820Y0105279D02*
X0026951Y0105279D01*
X0026951Y0106078D02*
X0031820Y0106078D01*
X0031820Y0106876D02*
X0026951Y0106876D01*
X0026951Y0107675D02*
X0031820Y0107675D01*
X0031820Y0108473D02*
X0026951Y0108473D01*
X0026951Y0109272D02*
X0031820Y0109272D01*
X0031820Y0110070D02*
X0026951Y0110070D01*
X0026951Y0110869D02*
X0031820Y0110869D01*
X0031820Y0111667D02*
X0026951Y0111667D01*
X0026951Y0112466D02*
X0031820Y0112466D01*
X0031820Y0113264D02*
X0026951Y0113264D01*
X0026951Y0114063D02*
X0031820Y0114063D01*
X0031820Y0114861D02*
X0026951Y0114861D01*
X0026951Y0115660D02*
X0031820Y0115660D01*
X0031820Y0116458D02*
X0026951Y0116458D01*
X0026951Y0117257D02*
X0031820Y0117257D01*
X0031820Y0118055D02*
X0026951Y0118055D01*
X0026951Y0118854D02*
X0031820Y0118854D01*
X0031820Y0119652D02*
X0026951Y0119652D01*
X0026951Y0120451D02*
X0031820Y0120451D01*
X0031820Y0121249D02*
X0026951Y0121249D01*
X0026951Y0122048D02*
X0031820Y0122048D01*
X0031820Y0122846D02*
X0026951Y0122846D01*
X0026951Y0123645D02*
X0031820Y0123645D01*
X0031820Y0124443D02*
X0026951Y0124443D01*
X0026951Y0125242D02*
X0031820Y0125242D01*
X0031820Y0126040D02*
X0026951Y0126040D01*
X0026951Y0126839D02*
X0031820Y0126839D01*
X0031820Y0127637D02*
X0026951Y0127637D01*
X0026951Y0128436D02*
X0031820Y0128436D01*
X0031820Y0129234D02*
X0026951Y0129234D01*
X0026951Y0130033D02*
X0031820Y0130033D01*
X0031820Y0130831D02*
X0026951Y0130831D01*
X0026951Y0131630D02*
X0031820Y0131630D01*
X0031820Y0132428D02*
X0026951Y0132428D01*
X0026951Y0133227D02*
X0031820Y0133227D01*
X0031820Y0134026D02*
X0026951Y0134026D01*
X0026951Y0134824D02*
X0031820Y0134824D01*
X0031820Y0135623D02*
X0026951Y0135623D01*
X0026951Y0136421D02*
X0031820Y0136421D01*
X0031820Y0137220D02*
X0026951Y0137220D01*
X0026951Y0138018D02*
X0031820Y0138018D01*
X0031820Y0138817D02*
X0026951Y0138817D01*
X0026951Y0139615D02*
X0031820Y0139615D01*
X0031820Y0140414D02*
X0026951Y0140414D01*
X0026951Y0141212D02*
X0031820Y0141212D01*
X0031820Y0142011D02*
X0026951Y0142011D01*
X0026951Y0142809D02*
X0031820Y0142809D01*
X0031820Y0143608D02*
X0026951Y0143608D01*
X0026951Y0144406D02*
X0031820Y0144406D01*
X0031819Y0145205D02*
X0026951Y0145205D01*
X0025167Y0147338D02*
X0177042Y0147338D01*
X0177042Y0145775D01*
X0178858Y0147600D02*
X0498185Y0147600D01*
X0498184Y0146802D02*
X0179616Y0146802D01*
X0179616Y0146003D02*
X0498182Y0146003D01*
X0498181Y0145205D02*
X0179616Y0145205D01*
X0179314Y0144406D02*
X0498179Y0144406D01*
X0498178Y0143608D02*
X0178516Y0143608D01*
X0178649Y0142809D02*
X0498176Y0142809D01*
X0498175Y0142011D02*
X0179447Y0142011D01*
X0179616Y0141212D02*
X0498173Y0141212D01*
X0498172Y0140414D02*
X0179616Y0140414D01*
X0178932Y0148399D02*
X0498187Y0148399D01*
X0498188Y0149197D02*
X0179616Y0149197D01*
X0179616Y0149996D02*
X0498190Y0149996D01*
X0498192Y0150794D02*
X0179616Y0150794D01*
X0179240Y0151593D02*
X0498193Y0151593D01*
X0290870Y0109272D02*
X0253826Y0109272D01*
X0253826Y0108473D02*
X0290839Y0108473D01*
X0290839Y0107675D02*
X0253826Y0107675D01*
X0253826Y0106876D02*
X0290839Y0106876D01*
X0290839Y0106078D02*
X0253826Y0106078D01*
X0253826Y0105279D02*
X0291253Y0105279D01*
X0291639Y0104481D02*
X0253826Y0104481D01*
X0253826Y0103682D02*
X0291639Y0103682D01*
X0291639Y0102884D02*
X0253826Y0102884D01*
X0253826Y0102085D02*
X0291639Y0102085D01*
X0291639Y0101287D02*
X0253826Y0101287D01*
X0253826Y0100488D02*
X0291639Y0100488D01*
X0291639Y0099690D02*
X0253826Y0099690D01*
X0253826Y0098891D02*
X0291639Y0098891D01*
X0291639Y0098093D02*
X0253826Y0098093D01*
X0253826Y0097294D02*
X0291639Y0097294D01*
X0291639Y0096495D02*
X0253826Y0096495D01*
X0253826Y0095697D02*
X0291639Y0095697D01*
X0291639Y0094898D02*
X0274776Y0094898D01*
X0270557Y0094898D02*
X0253826Y0094898D01*
X0253826Y0094100D02*
X0270082Y0094100D01*
X0270082Y0093301D02*
X0253341Y0093301D01*
X0242042Y0090775D02*
X0173292Y0090775D01*
X0173292Y0091950D01*
X0169542Y0090775D02*
X0169542Y0088900D01*
X0239542Y0088900D01*
X0239542Y0068275D01*
X0211417Y0068275D01*
X0208940Y0068548D02*
X0193956Y0068548D01*
X0194518Y0069346D02*
X0208940Y0069346D01*
X0209144Y0070145D02*
X0194518Y0070145D01*
X0194518Y0070943D02*
X0212875Y0070943D01*
X0213034Y0070901D02*
X0215389Y0070901D01*
X0215389Y0073291D01*
X0211818Y0073291D01*
X0211818Y0072116D01*
X0211913Y0071760D01*
X0212098Y0071441D01*
X0212358Y0071180D01*
X0212677Y0070996D01*
X0213034Y0070901D01*
X0213689Y0070145D02*
X0237757Y0070145D01*
X0237757Y0070943D02*
X0232716Y0070943D01*
X0232689Y0070916D02*
X0233500Y0071727D01*
X0233500Y0075236D01*
X0232689Y0076047D01*
X0226818Y0076047D01*
X0226037Y0075266D01*
X0225567Y0075266D01*
X0225375Y0075458D01*
X0224429Y0075850D01*
X0223404Y0075850D01*
X0222458Y0075458D01*
X0221734Y0074734D01*
X0221342Y0073787D01*
X0221342Y0072763D01*
X0221734Y0071816D01*
X0222458Y0071092D01*
X0223404Y0070700D01*
X0224429Y0070700D01*
X0225375Y0071092D01*
X0225980Y0071697D01*
X0226037Y0071697D01*
X0226818Y0070916D01*
X0232689Y0070916D01*
X0233500Y0071742D02*
X0237757Y0071742D01*
X0237757Y0072540D02*
X0233500Y0072540D01*
X0233500Y0073339D02*
X0237757Y0073339D01*
X0237757Y0074137D02*
X0233500Y0074137D01*
X0233500Y0074936D02*
X0237757Y0074936D01*
X0237757Y0075734D02*
X0233002Y0075734D01*
X0229753Y0073482D02*
X0223917Y0073482D01*
X0223917Y0073275D01*
X0221342Y0073339D02*
X0215771Y0073339D01*
X0215771Y0073291D02*
X0215771Y0073672D01*
X0219342Y0073672D01*
X0219342Y0074847D01*
X0219247Y0075203D01*
X0219063Y0075522D01*
X0218802Y0075783D01*
X0218483Y0075967D01*
X0218127Y0076063D01*
X0215771Y0076063D01*
X0215771Y0073672D01*
X0215389Y0073672D01*
X0215389Y0073291D01*
X0215771Y0073291D01*
X0219342Y0073291D01*
X0219342Y0072116D01*
X0219247Y0071760D01*
X0219063Y0071441D01*
X0218802Y0071180D01*
X0218483Y0070996D01*
X0218127Y0070901D01*
X0215771Y0070901D01*
X0215771Y0073291D01*
X0215580Y0073482D02*
X0215580Y0070362D01*
X0215792Y0070150D01*
X0235167Y0070150D01*
X0235167Y0072025D01*
X0226791Y0070943D02*
X0225015Y0070943D01*
X0222818Y0070943D02*
X0218285Y0070943D01*
X0219236Y0071742D02*
X0221809Y0071742D01*
X0221434Y0072540D02*
X0219342Y0072540D01*
X0219342Y0074137D02*
X0221487Y0074137D01*
X0221936Y0074936D02*
X0219319Y0074936D01*
X0218851Y0075734D02*
X0223125Y0075734D01*
X0224708Y0075734D02*
X0226505Y0075734D01*
X0219326Y0078814D02*
X0218516Y0078003D01*
X0212644Y0078003D01*
X0211834Y0078814D01*
X0211834Y0082323D01*
X0212644Y0083134D01*
X0218516Y0083134D01*
X0219090Y0082559D01*
X0219560Y0082559D01*
X0219958Y0082958D01*
X0220904Y0083350D01*
X0221929Y0083350D01*
X0222875Y0082958D01*
X0223599Y0082234D01*
X0223991Y0081287D01*
X0223991Y0080263D01*
X0223599Y0079316D01*
X0222875Y0078592D01*
X0221929Y0078200D01*
X0220904Y0078200D01*
X0219958Y0078592D01*
X0219560Y0078991D01*
X0219326Y0078991D01*
X0219326Y0078814D01*
X0219326Y0078928D02*
X0219622Y0078928D01*
X0218642Y0078130D02*
X0226691Y0078130D01*
X0226007Y0078928D02*
X0223211Y0078928D01*
X0223769Y0079727D02*
X0226007Y0079727D01*
X0226007Y0080525D02*
X0223991Y0080525D01*
X0223976Y0081324D02*
X0226007Y0081324D01*
X0226007Y0082122D02*
X0223646Y0082122D01*
X0222912Y0082921D02*
X0226605Y0082921D01*
X0227969Y0083719D02*
X0193826Y0083719D01*
X0193826Y0082921D02*
X0212432Y0082921D01*
X0211834Y0082122D02*
X0193826Y0082122D01*
X0193826Y0081324D02*
X0211834Y0081324D01*
X0211834Y0080525D02*
X0193826Y0080525D01*
X0193826Y0079727D02*
X0211834Y0079727D01*
X0211834Y0078928D02*
X0193826Y0078928D01*
X0193826Y0078130D02*
X0212518Y0078130D01*
X0215580Y0080568D02*
X0215580Y0080775D01*
X0221417Y0080775D01*
X0219921Y0082921D02*
X0218728Y0082921D01*
X0227969Y0084518D02*
X0193826Y0084518D01*
X0193826Y0077331D02*
X0237757Y0077331D01*
X0237757Y0076533D02*
X0193826Y0076533D01*
X0193826Y0075734D02*
X0212309Y0075734D01*
X0212358Y0075783D02*
X0212098Y0075522D01*
X0211913Y0075203D01*
X0211818Y0074847D01*
X0211818Y0073672D01*
X0215389Y0073672D01*
X0215389Y0076063D01*
X0213034Y0076063D01*
X0212677Y0075967D01*
X0212358Y0075783D01*
X0211842Y0074936D02*
X0193826Y0074936D01*
X0193826Y0074137D02*
X0211818Y0074137D01*
X0211818Y0072540D02*
X0194418Y0072540D01*
X0194518Y0071742D02*
X0211924Y0071742D01*
X0215389Y0071742D02*
X0215771Y0071742D01*
X0215771Y0072540D02*
X0215389Y0072540D01*
X0215389Y0073339D02*
X0193826Y0073339D01*
X0174005Y0075734D02*
X0172208Y0075734D01*
X0147354Y0071088D02*
X0145792Y0072650D01*
X0134632Y0072540D02*
X0128500Y0072540D01*
X0128500Y0071742D02*
X0134632Y0071742D01*
X0134632Y0070943D02*
X0127716Y0070943D01*
X0127689Y0070916D02*
X0128500Y0071727D01*
X0128500Y0075236D01*
X0127689Y0076047D01*
X0121818Y0076047D01*
X0121037Y0075266D01*
X0120567Y0075266D01*
X0120375Y0075458D01*
X0119429Y0075850D01*
X0118404Y0075850D01*
X0117458Y0075458D01*
X0116734Y0074734D01*
X0116342Y0073787D01*
X0116342Y0072763D01*
X0116734Y0071816D01*
X0117458Y0071092D01*
X0118404Y0070700D01*
X0119429Y0070700D01*
X0120375Y0071092D01*
X0120980Y0071697D01*
X0121037Y0071697D01*
X0121818Y0070916D01*
X0127689Y0070916D01*
X0130167Y0070150D02*
X0130167Y0072025D01*
X0130167Y0070150D02*
X0110792Y0070150D01*
X0110580Y0070362D01*
X0110580Y0073482D01*
X0110389Y0073339D02*
X0088201Y0073339D01*
X0088201Y0074137D02*
X0106818Y0074137D01*
X0106818Y0073672D02*
X0110389Y0073672D01*
X0110389Y0073291D01*
X0106818Y0073291D01*
X0106818Y0072116D01*
X0106913Y0071760D01*
X0107098Y0071441D01*
X0107358Y0071180D01*
X0107677Y0070996D01*
X0108034Y0070901D01*
X0110389Y0070901D01*
X0110389Y0073291D01*
X0110771Y0073291D01*
X0110771Y0073672D01*
X0114342Y0073672D01*
X0114342Y0074847D01*
X0114247Y0075203D01*
X0114063Y0075522D01*
X0113802Y0075783D01*
X0113483Y0075967D01*
X0113127Y0076063D01*
X0110771Y0076063D01*
X0110771Y0073672D01*
X0110389Y0073672D01*
X0110389Y0076063D01*
X0108034Y0076063D01*
X0107677Y0075967D01*
X0107358Y0075783D01*
X0107098Y0075522D01*
X0106913Y0075203D01*
X0106818Y0074847D01*
X0106818Y0073672D01*
X0106818Y0072540D02*
X0088201Y0072540D01*
X0088201Y0071742D02*
X0106924Y0071742D01*
X0107875Y0070943D02*
X0088201Y0070943D01*
X0088201Y0070145D02*
X0134632Y0070145D01*
X0134632Y0069346D02*
X0088201Y0069346D01*
X0088201Y0068548D02*
X0134632Y0068548D01*
X0134632Y0067749D02*
X0088201Y0067749D01*
X0088201Y0066951D02*
X0134632Y0066951D01*
X0121791Y0070943D02*
X0120015Y0070943D01*
X0117818Y0070943D02*
X0113285Y0070943D01*
X0113127Y0070901D02*
X0113483Y0070996D01*
X0113802Y0071180D01*
X0114063Y0071441D01*
X0114247Y0071760D01*
X0114342Y0072116D01*
X0114342Y0073291D01*
X0110771Y0073291D01*
X0110771Y0070901D01*
X0113127Y0070901D01*
X0114236Y0071742D02*
X0116809Y0071742D01*
X0116434Y0072540D02*
X0114342Y0072540D01*
X0114342Y0074137D02*
X0116487Y0074137D01*
X0116342Y0073339D02*
X0110771Y0073339D01*
X0110771Y0074137D02*
X0110389Y0074137D01*
X0110389Y0074936D02*
X0110771Y0074936D01*
X0110771Y0075734D02*
X0110389Y0075734D01*
X0107309Y0075734D02*
X0088201Y0075734D01*
X0088201Y0074936D02*
X0106842Y0074936D01*
X0113851Y0075734D02*
X0118125Y0075734D01*
X0116936Y0074936D02*
X0114319Y0074936D01*
X0118917Y0073482D02*
X0118917Y0073275D01*
X0118917Y0073482D02*
X0124753Y0073482D01*
X0128500Y0073339D02*
X0134632Y0073339D01*
X0134632Y0074137D02*
X0128500Y0074137D01*
X0128500Y0074936D02*
X0134632Y0074936D01*
X0134632Y0075734D02*
X0128002Y0075734D01*
X0121505Y0075734D02*
X0119708Y0075734D01*
X0127816Y0078130D02*
X0134632Y0078130D01*
X0134632Y0078928D02*
X0128500Y0078928D01*
X0128500Y0079727D02*
X0134632Y0079727D01*
X0134632Y0080525D02*
X0128500Y0080525D01*
X0128500Y0081324D02*
X0134632Y0081324D01*
X0134632Y0082122D02*
X0128500Y0082122D01*
X0134632Y0077331D02*
X0088201Y0077331D01*
X0088201Y0076533D02*
X0134632Y0076533D01*
X0110771Y0072540D02*
X0110389Y0072540D01*
X0110389Y0071742D02*
X0110771Y0071742D01*
X0110771Y0070943D02*
X0110389Y0070943D01*
X0084632Y0069346D02*
X0058201Y0069346D01*
X0030167Y0070150D02*
X0030167Y0072025D01*
X0030167Y0070150D02*
X0010792Y0070150D01*
X0010580Y0070362D01*
X0010580Y0073482D01*
X0010771Y0073339D02*
X0016342Y0073339D01*
X0016434Y0072540D02*
X0014342Y0072540D01*
X0014236Y0071742D02*
X0016809Y0071742D01*
X0017818Y0070943D02*
X0013285Y0070943D01*
X0010771Y0070943D02*
X0010389Y0070943D01*
X0010389Y0071742D02*
X0010771Y0071742D01*
X0010771Y0072540D02*
X0010389Y0072540D01*
X0010389Y0074137D02*
X0010771Y0074137D01*
X0010771Y0074936D02*
X0010389Y0074936D01*
X0010389Y0075734D02*
X0010771Y0075734D01*
X0013851Y0075734D02*
X0018125Y0075734D01*
X0016936Y0074936D02*
X0014319Y0074936D01*
X0014342Y0074137D02*
X0016487Y0074137D01*
X0018917Y0073482D02*
X0018917Y0073275D01*
X0018917Y0073482D02*
X0024753Y0073482D01*
X0021505Y0075734D02*
X0019708Y0075734D01*
X0021691Y0078130D02*
X0013642Y0078130D01*
X0014326Y0078928D02*
X0014622Y0078928D01*
X0016417Y0080775D02*
X0010580Y0080775D01*
X0010580Y0080568D01*
X0007518Y0078130D02*
X0006951Y0078130D01*
X0006951Y0075734D02*
X0007309Y0075734D01*
X0018211Y0078928D02*
X0021007Y0078928D01*
X0021007Y0079727D02*
X0018769Y0079727D01*
X0018991Y0080525D02*
X0021007Y0080525D01*
X0021007Y0081324D02*
X0018976Y0081324D01*
X0018646Y0082122D02*
X0021007Y0082122D01*
X0021605Y0082921D02*
X0017912Y0082921D01*
X0014921Y0082921D02*
X0013728Y0082921D01*
X0007432Y0082921D02*
X0006951Y0082921D01*
X0006951Y0083719D02*
X0023382Y0083719D01*
X0023382Y0084518D02*
X0006951Y0084518D01*
X0006951Y0085316D02*
X0023382Y0085316D01*
X0023382Y0086115D02*
X0006951Y0086115D01*
X0006951Y0086913D02*
X0023382Y0086913D01*
X0023382Y0087712D02*
X0006951Y0087712D01*
X0006951Y0088510D02*
X0023382Y0088510D01*
X0023382Y0089309D02*
X0006951Y0089309D01*
X0006951Y0090107D02*
X0023382Y0090107D01*
X0023382Y0090906D02*
X0006951Y0090906D01*
X0006951Y0091704D02*
X0023382Y0091704D01*
X0023382Y0092503D02*
X0006951Y0092503D01*
X0006951Y0093301D02*
X0023382Y0093301D01*
X0023382Y0094100D02*
X0006951Y0094100D01*
X0006951Y0094898D02*
X0023382Y0094898D01*
X0023382Y0095697D02*
X0006951Y0095697D01*
X0006951Y0096495D02*
X0023382Y0096495D01*
X0023382Y0097294D02*
X0006951Y0097294D01*
X0006951Y0098093D02*
X0023382Y0098093D01*
X0023382Y0098891D02*
X0006951Y0098891D01*
X0006951Y0099690D02*
X0023382Y0099690D01*
X0023382Y0100488D02*
X0006951Y0100488D01*
X0006951Y0101287D02*
X0023382Y0101287D01*
X0023382Y0102085D02*
X0006951Y0102085D01*
X0006951Y0102884D02*
X0023382Y0102884D01*
X0023382Y0103682D02*
X0006951Y0103682D01*
X0006951Y0104481D02*
X0023382Y0104481D01*
X0023382Y0105279D02*
X0006951Y0105279D01*
X0006951Y0106078D02*
X0023382Y0106078D01*
X0023382Y0106876D02*
X0006951Y0106876D01*
X0006951Y0107675D02*
X0023382Y0107675D01*
X0023382Y0108473D02*
X0006951Y0108473D01*
X0006951Y0109272D02*
X0023382Y0109272D01*
X0023382Y0110070D02*
X0006951Y0110070D01*
X0006951Y0110869D02*
X0023382Y0110869D01*
X0023382Y0111667D02*
X0006951Y0111667D01*
X0006951Y0112466D02*
X0023382Y0112466D01*
X0023382Y0113264D02*
X0006951Y0113264D01*
X0006951Y0114063D02*
X0023382Y0114063D01*
X0023382Y0114861D02*
X0006951Y0114861D01*
X0006951Y0115660D02*
X0023382Y0115660D01*
X0023382Y0116458D02*
X0006951Y0116458D01*
X0006951Y0117257D02*
X0023382Y0117257D01*
X0023382Y0118055D02*
X0006951Y0118055D01*
X0006951Y0118854D02*
X0023382Y0118854D01*
X0023382Y0119652D02*
X0006951Y0119652D01*
X0006951Y0120451D02*
X0023382Y0120451D01*
X0023382Y0121249D02*
X0006951Y0121249D01*
X0006951Y0122048D02*
X0023382Y0122048D01*
X0023382Y0122846D02*
X0006951Y0122846D01*
X0006951Y0123645D02*
X0023382Y0123645D01*
X0023382Y0124443D02*
X0006951Y0124443D01*
X0006951Y0125242D02*
X0023382Y0125242D01*
X0023382Y0126040D02*
X0006951Y0126040D01*
X0006951Y0126839D02*
X0023382Y0126839D01*
X0023382Y0127637D02*
X0006951Y0127637D01*
X0006951Y0128436D02*
X0023382Y0128436D01*
X0023382Y0129234D02*
X0006951Y0129234D01*
X0006951Y0130033D02*
X0023382Y0130033D01*
X0023382Y0130831D02*
X0006951Y0130831D01*
X0006951Y0131630D02*
X0023382Y0131630D01*
X0023382Y0132428D02*
X0006951Y0132428D01*
X0006951Y0133227D02*
X0023382Y0133227D01*
X0023382Y0134026D02*
X0006951Y0134026D01*
X0006951Y0134824D02*
X0023382Y0134824D01*
X0023382Y0135623D02*
X0006951Y0135623D01*
X0006951Y0136421D02*
X0023382Y0136421D01*
X0023382Y0137220D02*
X0006951Y0137220D01*
X0006951Y0138018D02*
X0023382Y0138018D01*
X0023382Y0138817D02*
X0006951Y0138817D01*
X0006951Y0139615D02*
X0023382Y0139615D01*
X0023382Y0140414D02*
X0006951Y0140414D01*
X0006951Y0141212D02*
X0023382Y0141212D01*
X0023382Y0142011D02*
X0006951Y0142011D01*
X0006951Y0142809D02*
X0023382Y0142809D01*
X0023382Y0143608D02*
X0006951Y0143608D01*
X0006951Y0144406D02*
X0023382Y0144406D01*
X0023382Y0145205D02*
X0006951Y0145205D01*
X0006951Y0146003D02*
X0023382Y0146003D01*
X0023382Y0146802D02*
X0006951Y0146802D01*
X0006951Y0147600D02*
X0023382Y0147600D01*
X0025167Y0147338D02*
X0025167Y0080568D01*
X0024753Y0080568D01*
X0021791Y0070943D02*
X0020015Y0070943D01*
X0007875Y0070943D02*
X0006951Y0070943D01*
X0039542Y0053900D02*
X0039542Y0142963D01*
X0005167Y0149525D02*
X0177042Y0149525D01*
X0177042Y0150150D01*
X0140532Y0110070D02*
X0238382Y0110070D01*
X0238382Y0109272D02*
X0141276Y0109272D01*
X0157667Y0091400D02*
X0158604Y0090462D01*
X0158604Y0065775D01*
X0238917Y0065775D01*
X0248917Y0062962D02*
X0303765Y0062962D01*
X0306134Y0065331D01*
X0308917Y0062337D02*
X0308917Y0061087D01*
X0246417Y0061087D01*
X0248917Y0062962D02*
X0248917Y0087025D01*
X0248991Y0087025D01*
X0242042Y0090775D02*
X0242042Y0061450D01*
X0256417Y0068588D02*
X0296417Y0068588D01*
X0296417Y0085775D01*
X0294632Y0080525D02*
X0286000Y0080525D01*
X0286000Y0079727D02*
X0294632Y0079727D01*
X0294632Y0078928D02*
X0286000Y0078928D01*
X0285316Y0078130D02*
X0294632Y0078130D01*
X0274934Y0071742D02*
X0271736Y0071742D01*
X0270785Y0070943D02*
X0279291Y0070943D01*
X0285216Y0070943D02*
X0294632Y0070943D01*
X0268271Y0070943D02*
X0267889Y0070943D01*
X0267889Y0071742D02*
X0268271Y0071742D01*
X0268271Y0072540D02*
X0267889Y0072540D01*
X0267889Y0073339D02*
X0258201Y0073339D01*
X0267889Y0074137D02*
X0268271Y0074137D01*
X0268271Y0074936D02*
X0267889Y0074936D01*
X0267889Y0075734D02*
X0268271Y0075734D01*
X0253991Y0082025D02*
X0253917Y0082025D01*
X0237757Y0082122D02*
X0233500Y0082122D01*
X0233500Y0081324D02*
X0237757Y0081324D01*
X0237757Y0080525D02*
X0233500Y0080525D01*
X0233500Y0079727D02*
X0237757Y0079727D01*
X0237757Y0078928D02*
X0233500Y0078928D01*
X0232816Y0078130D02*
X0237757Y0078130D01*
X0237757Y0082921D02*
X0232902Y0082921D01*
X0231538Y0083719D02*
X0237757Y0083719D01*
X0237757Y0084518D02*
X0231538Y0084518D01*
X0231538Y0085316D02*
X0237757Y0085316D01*
X0237757Y0086115D02*
X0231538Y0086115D01*
X0231538Y0086913D02*
X0237757Y0086913D01*
X0229753Y0087025D02*
X0166417Y0087025D01*
X0166417Y0090150D01*
X0165167Y0090150D01*
X0165167Y0091950D01*
X0163368Y0090107D02*
X0160388Y0090107D01*
X0160388Y0089309D02*
X0163484Y0089309D01*
X0164283Y0088510D02*
X0160388Y0088510D01*
X0160388Y0087712D02*
X0164632Y0087712D01*
X0164632Y0086913D02*
X0160388Y0086913D01*
X0160388Y0086115D02*
X0164804Y0086115D01*
X0165602Y0085316D02*
X0160388Y0085316D01*
X0156729Y0086712D02*
X0155479Y0088275D01*
X0160388Y0090906D02*
X0162592Y0090906D01*
X0162592Y0091704D02*
X0160241Y0091704D01*
X0160205Y0092503D02*
X0162592Y0092503D01*
X0215389Y0075734D02*
X0215771Y0075734D01*
X0215771Y0074936D02*
X0215389Y0074936D01*
X0215389Y0074137D02*
X0215771Y0074137D01*
X0215771Y0070943D02*
X0215389Y0070943D01*
X0229753Y0080568D02*
X0229753Y0087025D01*
X0272667Y0100775D02*
X0287667Y0100775D01*
X0287667Y0107650D01*
X0135882Y0053376D02*
X0108201Y0053376D01*
X0108201Y0052577D02*
X0135882Y0052577D01*
X0135882Y0051779D02*
X0108201Y0051779D01*
X0108201Y0050980D02*
X0135882Y0050980D01*
X0135882Y0050182D02*
X0108201Y0050182D01*
X0108201Y0049383D02*
X0135882Y0049383D01*
X0135882Y0048585D02*
X0108201Y0048585D01*
X0110580Y0045568D02*
X0116417Y0045568D01*
X0116417Y0045775D01*
X0118714Y0044592D02*
X0120991Y0044592D01*
X0120991Y0044203D02*
X0121086Y0043847D01*
X0121271Y0043528D01*
X0121531Y0043267D01*
X0121851Y0043083D01*
X0122207Y0042987D01*
X0124563Y0042987D01*
X0124563Y0045378D01*
X0124944Y0045378D01*
X0124944Y0045759D01*
X0128515Y0045759D01*
X0128515Y0046934D01*
X0128420Y0047290D01*
X0128236Y0047609D01*
X0127975Y0047870D01*
X0127656Y0048054D01*
X0127300Y0048149D01*
X0124944Y0048149D01*
X0124944Y0045759D01*
X0124563Y0045759D01*
X0124563Y0048149D01*
X0122207Y0048149D01*
X0121851Y0048054D01*
X0121531Y0047870D01*
X0121271Y0047609D01*
X0121086Y0047290D01*
X0120991Y0046934D01*
X0120991Y0045759D01*
X0124563Y0045759D01*
X0124563Y0045378D01*
X0120991Y0045378D01*
X0120991Y0044203D01*
X0121117Y0043794D02*
X0118077Y0043794D01*
X0118991Y0045391D02*
X0124563Y0045391D01*
X0124753Y0045568D02*
X0128191Y0045568D01*
X0128515Y0045378D02*
X0124944Y0045378D01*
X0124944Y0042987D01*
X0127300Y0042987D01*
X0127656Y0043083D01*
X0127975Y0043267D01*
X0128236Y0043528D01*
X0128420Y0043847D01*
X0128515Y0044203D01*
X0128515Y0045378D01*
X0128515Y0044592D02*
X0135882Y0044592D01*
X0135882Y0043794D02*
X0128389Y0043794D01*
X0127330Y0042995D02*
X0135882Y0042995D01*
X0135882Y0042197D02*
X0108201Y0042197D01*
X0108201Y0042995D02*
X0122177Y0042995D01*
X0124563Y0042995D02*
X0124944Y0042995D01*
X0124944Y0043794D02*
X0124563Y0043794D01*
X0124563Y0044592D02*
X0124944Y0044592D01*
X0124944Y0045391D02*
X0135882Y0045391D01*
X0135882Y0046189D02*
X0128515Y0046189D01*
X0128501Y0046988D02*
X0135882Y0046988D01*
X0135882Y0047786D02*
X0128058Y0047786D01*
X0124944Y0047786D02*
X0124563Y0047786D01*
X0124563Y0046988D02*
X0124944Y0046988D01*
X0124944Y0046189D02*
X0124563Y0046189D01*
X0121448Y0047786D02*
X0118047Y0047786D01*
X0118701Y0046988D02*
X0121006Y0046988D01*
X0120991Y0046189D02*
X0118991Y0046189D01*
X0114787Y0047786D02*
X0113863Y0047786D01*
X0103917Y0048275D02*
X0036638Y0048900D01*
X0036638Y0127025D01*
X0036804Y0127025D01*
X0049542Y0119525D02*
X0050167Y0119525D01*
X0005167Y0149525D02*
X0005167Y0038482D01*
X0006951Y0040600D02*
X0007197Y0040600D01*
X0006951Y0041398D02*
X0031820Y0041398D01*
X0024944Y0042995D02*
X0024563Y0042995D01*
X0024563Y0043794D02*
X0024944Y0043794D01*
X0024944Y0044592D02*
X0024563Y0044592D01*
X0021006Y0046988D02*
X0018701Y0046988D01*
X0018047Y0047786D02*
X0021448Y0047786D01*
X0016417Y0045775D02*
X0016417Y0045568D01*
X0010580Y0045568D01*
X0007297Y0047786D02*
X0006951Y0047786D01*
X0013863Y0047786D02*
X0014787Y0047786D01*
X0013963Y0040600D02*
X0017801Y0040600D01*
X0016802Y0039801D02*
X0014326Y0039801D01*
X0014326Y0039003D02*
X0016431Y0039003D01*
X0020033Y0040600D02*
X0021370Y0040600D01*
X0039542Y0053900D02*
X0106417Y0053900D01*
X0106417Y0038482D01*
X0103917Y0038275D02*
X0103917Y0048275D01*
X0108201Y0041398D02*
X0135882Y0041398D01*
X0121370Y0040600D02*
X0120033Y0040600D01*
X0128380Y0036607D02*
X0159454Y0036607D01*
X0180889Y0043794D02*
X0211854Y0043794D01*
X0212197Y0040600D02*
X0205941Y0040600D01*
X0203917Y0038482D02*
X0215580Y0038482D01*
X0219326Y0038204D02*
X0221342Y0038204D01*
X0221431Y0039003D02*
X0219326Y0039003D01*
X0219326Y0039801D02*
X0221802Y0039801D01*
X0222801Y0040600D02*
X0218963Y0040600D01*
X0219326Y0037406D02*
X0221490Y0037406D01*
X0221943Y0036607D02*
X0219206Y0036607D01*
X0223917Y0038275D02*
X0229753Y0038275D01*
X0229753Y0038482D01*
X0233500Y0038204D02*
X0239565Y0038204D01*
X0239565Y0037406D02*
X0233500Y0037406D01*
X0233380Y0036607D02*
X0239774Y0036607D01*
X0239565Y0039003D02*
X0233500Y0039003D01*
X0233500Y0039801D02*
X0239565Y0039801D01*
X0240018Y0040600D02*
X0233136Y0040600D01*
X0226370Y0040600D02*
X0225033Y0040600D01*
X0211954Y0036607D02*
X0206184Y0036607D01*
X0184451Y0044592D02*
X0181015Y0044592D01*
X0215580Y0045568D02*
X0221417Y0045568D01*
X0221417Y0045775D01*
X0223701Y0046988D02*
X0226006Y0046988D01*
X0233501Y0046988D02*
X0261507Y0046988D01*
X0265076Y0048585D02*
X0291440Y0048585D01*
X0278948Y0047786D02*
X0275547Y0047786D01*
X0276201Y0046988D02*
X0278506Y0046988D01*
X0273917Y0045775D02*
X0273917Y0045568D01*
X0268080Y0045568D01*
X0271363Y0047786D02*
X0272287Y0047786D01*
X0264454Y0036607D02*
X0244309Y0036607D01*
D18*
X0223917Y0038275D03*
X0221417Y0045775D03*
X0233191Y0045568D03*
X0273917Y0045775D03*
X0285691Y0045568D03*
X0276417Y0038275D03*
X0326417Y0045775D03*
X0338191Y0045568D03*
X0328917Y0038275D03*
X0376417Y0045775D03*
X0388191Y0045568D03*
X0378917Y0038275D03*
X0390167Y0072025D03*
X0378917Y0073275D03*
X0376417Y0080775D03*
X0340167Y0072025D03*
X0328917Y0073275D03*
X0326417Y0080775D03*
X0287667Y0072025D03*
X0276417Y0073900D03*
X0273917Y0080775D03*
X0235167Y0072025D03*
X0223917Y0073275D03*
X0221417Y0080775D03*
X0182667Y0072025D03*
X0171417Y0073275D03*
X0168917Y0080775D03*
X0130167Y0072025D03*
X0118917Y0073275D03*
X0116417Y0080775D03*
X0080167Y0072025D03*
X0068917Y0073275D03*
X0066417Y0080775D03*
X0030167Y0072025D03*
X0018917Y0073275D03*
X0016417Y0080775D03*
X0016417Y0045775D03*
X0028191Y0045568D03*
X0018917Y0038275D03*
X0066417Y0045775D03*
X0078191Y0045568D03*
X0068917Y0038275D03*
X0116417Y0045775D03*
X0128191Y0045568D03*
X0118917Y0038275D03*
X0168917Y0045150D03*
X0180691Y0045568D03*
X0171417Y0038275D03*
D19*
X0272667Y0092650D03*
X0272667Y0100775D03*
X0287667Y0107650D03*
X0293423Y0107467D03*
X0298917Y0107540D03*
X0305167Y0107540D03*
X0328292Y0108900D03*
X0345792Y0100775D03*
X0345792Y0096894D03*
X0356417Y0097162D03*
X0356417Y0093281D03*
X0356417Y0089400D03*
X0356417Y0101044D03*
X0422862Y0111595D03*
X0327042Y0130775D03*
X0323917Y0125202D03*
D20*
X0309259Y0120150D03*
X0278292Y0112025D03*
X0255792Y0105775D03*
X0300167Y0136400D03*
X0247042Y0147650D03*
X0355792Y0148900D03*
X0372042Y0119525D03*
X0398917Y0096400D03*
X0363292Y0090775D03*
X0363292Y0082025D03*
X0432667Y0075775D03*
X0448292Y0085775D03*
X0460167Y0131400D03*
X0433292Y0035150D03*
D21*
X0363292Y0082025D02*
X0363292Y0090775D01*
D22*
X0256491Y0079525D03*
X0253991Y0082025D03*
X0251491Y0084525D03*
X0248991Y0087025D03*
X0246417Y0089525D03*
X0173292Y0091950D03*
X0169542Y0090775D03*
X0165167Y0091950D03*
X0157667Y0091400D03*
X0155479Y0088275D03*
X0153604Y0085150D03*
X0151417Y0082025D03*
X0149542Y0078900D03*
X0147667Y0075775D03*
X0145792Y0072650D03*
X0143917Y0069525D03*
X0188917Y0049837D03*
X0191729Y0047337D03*
X0052116Y0112650D03*
X0050167Y0119525D03*
X0044240Y0123274D03*
X0036804Y0127025D03*
X0177042Y0125775D03*
X0177042Y0120775D03*
X0177042Y0115775D03*
X0177042Y0130775D03*
X0177042Y0135775D03*
X0177042Y0140775D03*
X0177042Y0145775D03*
X0177042Y0150150D03*
M02*
