%
M48
M72
T01C0.00984
T02C0.01181
T03C0.01200
T04C0.01969
T05C0.03150
T06C0.03500
T07C0.03543
T08C0.09291
%
T01
X103917Y38275
X92667Y39525
X140479Y42025
X203917Y38482
X242042Y38482
X263292Y44525
X293917Y48275
X311417Y49525
X308917Y38482
X347667Y51552
X361417Y52025
X358917Y62337
X397667Y58275
X358917Y39525
X308917Y62337
X242042Y61450
X238917Y65775
X211417Y68275
X206417Y63275
X192042Y70775
X138917Y64525
X129542Y96400
X132042Y99525
X132667Y105520
X92667Y108587
X92667Y101045
X195167Y118275
X215167Y120440
T02
X18917Y38275
X16417Y45775
X28191Y45568
X66417Y45775
X78191Y45568
X68917Y38275
X116417Y45775
X128191Y45568
X118917Y38275
X168917Y45150
X180691Y45568
X188917Y49837
X191729Y47337
X195167Y40775
X171417Y38275
X221417Y45775
X233191Y45568
X223917Y38275
X273917Y45775
X285691Y45568
X276417Y38275
X326417Y45775
X338191Y45568
X328917Y38275
X376417Y45775
X388191Y45568
X378917Y38275
X390167Y72025
X378917Y73275
X376417Y80775
X340167Y72025
X328917Y73275
X326417Y80775
X287667Y72025
X276417Y73900
X273917Y80775
X256491Y79525
X253991Y82025
X251491Y84525
X248991Y87025
X246417Y89525
X221417Y80775
X223917Y73275
X235167Y72025
X182667Y72025
X171417Y73275
X168917Y80775
X153604Y85150
X155479Y88275
X157667Y91400
X165167Y91950
X169542Y90775
X173292Y91950
X151417Y82025
X149542Y78900
X147667Y75775
X145792Y72650
X143917Y69525
X130167Y72025
X118917Y73275
X116417Y80775
X96417Y90775
X66417Y80775
X68917Y73275
X80167Y72025
X30167Y72025
X18917Y73275
X16417Y80775
X52116Y112650
X50167Y119525
X44240Y123274
X36804Y127025
X177042Y125775
X177042Y120775
X177042Y115775
X177042Y130775
X177042Y135775
X177042Y140775
X177042Y145775
X177042Y150150
X262042Y117707
X287553Y127689
X290620Y124603
X294542Y122025
X284485Y130775
X281417Y133900
T03
X323917Y125202
X327042Y130775
X328292Y108900
X305167Y107540
X298917Y107540
X293423Y107467
X287667Y107650
X272667Y100775
X272667Y92650
X345792Y96894
X345792Y100775
X356417Y101044
X356417Y97162
X356417Y93281
X356417Y89400
X422862Y111595
T04
X398917Y96400
X363292Y90775
X363292Y82025
X432667Y75775
X448292Y85775
X372042Y119525
X309259Y120150
X278292Y112025
X255792Y105775
X300167Y136400
X247042Y147650
X355792Y148900
X460167Y131400
X433292Y35150
T05
X471721Y49663
X461721Y53600
X471721Y57694
X461721Y61631
X471721Y65726
X461721Y69663
T06
X393758Y91346
X385758Y91346
X389758Y111346
T07
X479045Y112852
X479045Y130175
T08
X480776Y83285
X480776Y36041
M30
