  0
SECTION
  2
HEADER
  9
$ACADVER
  1
AC1009
  9
$INSBASE
 10
0.0
 20
0.0
 30
0.0
  9
$EXTMIN
 10
0.0
 20
0.0
 30
0.0
  9
$EXTMAX
 10
0.0
 20
0.0
 30
0.0
  0
ENDSEC
  0
SECTION
  2
TABLES
  0
TABLE
  2
VPORT
 70
0
  0
ENDTAB
  0
TABLE
  2
LTYPE
 70
1
  0
LTYPE
  2
CONTINUOUS
 70
0
  3
Solid line
 72
65
 73
0
 40
0.0
  0
ENDTAB
  0
TABLE
  2
LAYER
 70
1
  0
LAYER
  2
0
 70
64
 62
7
  6
continuous
  0
ENDTAB
  0
TABLE
  2
STYLE
 70
1
  0
STYLE
  2
STANDARD
 70
0
 40
0
 41
1.0
 50
0.0
 71
0
 42
1
 3
ARIAL.TTF
 4

  0
ENDTAB
  0
TABLE
  2
VIEW
 70
0
  0
ENDTAB
  0
ENDSEC
  0
SECTION
  2
BLOCKS
  0
BLOCK
  8
0
  2
SKETCH
 70
0
 10
0.0
 20
0.0
 30
0.0
  3
SKETCH
  0
POLYLINE
  8
0
 62
7
 70
1
 66
1
 10
0.0
 20
0.0
 30
0.0
  0
VERTEX
  8
0
 10
-151.701162
 20
28.3886354575
 30
0.0
  0
VERTEX
  8
0
 10
-151.701162
 20
17.3886354575
 30
0.0
  0
VERTEX
  8
0
 10
-148.601162
 20
17.3886354575
 30
0.0
  0
VERTEX
  8
0
 10
-148.601162
 20
11.8886354575
 30
0.0
  0
VERTEX
  8
0
 10
-18.601162
 20
11.8886354575
 30
0.0
  0
VERTEX
  8
0
 10
-18.601162
 20
39.3886354575
 30
0.0
  0
VERTEX
  8
0
 10
-15.501162
 20
39.3886354575
 30
0.0
  0
VERTEX
  8
0
 10
-15.501162
 20
50.3886354575
 30
0.0
  0
VERTEX
  8
0
 10
-18.601162
 20
50.3886354575
 30
0.0
  0
VERTEX
  8
0
 10
-18.601162
 20
55.8886354575
 30
0.0
  0
VERTEX
  8
0
 10
-148.601162
 20
55.8886354575
 30
0.0
  0
VERTEX
  8
0
 10
-148.601162
 20
28.3886354575
 30
0.0
  0
SEQEND
  8
0
  0
POLYLINE
  8
0
 62
7
 70
1
 66
1
 10
0.0
 20
0.0
 30
0.0
  0
VERTEX
  8
0
 10
-145.601162
 20
50.8886354575
 30
0.0
  0
VERTEX
  8
0
 10
-139.601162
 20
50.8886354575
 30
0.0
  0
VERTEX
  8
0
 10
-139.601162
 20
45.8886354575
 30
0.0
  0
VERTEX
  8
0
 10
-145.601162
 20
45.8886354575
 30
0.0
  0
SEQEND
  8
0
  0
POLYLINE
  8
0
 62
7
 70
1
 66
1
 10
0.0
 20
0.0
 30
0.0
  0
VERTEX
  8
0
 10
-145.601162
 20
42.8886354575
 30
0.0
  0
VERTEX
  8
0
 10
-139.601162
 20
42.8886354575
 30
0.0
  0
VERTEX
  8
0
 10
-139.601162
 20
37.8886354575
 30
0.0
  0
VERTEX
  8
0
 10
-145.601162
 20
37.8886354575
 30
0.0
  0
SEQEND
  8
0
  0
POLYLINE
  8
0
 62
7
 70
1
 66
1
 10
0.0
 20
0.0
 30
0.0
  0
VERTEX
  8
0
 10
-132.601162
 20
50.8886354575
 30
0.0
  0
VERTEX
  8
0
 10
-126.601162
 20
50.8886354575
 30
0.0
  0
VERTEX
  8
0
 10
-126.601162
 20
45.8886354575
 30
0.0
  0
VERTEX
  8
0
 10
-132.601162
 20
45.8886354575
 30
0.0
  0
SEQEND
  8
0
  0
POLYLINE
  8
0
 62
7
 70
1
 66
1
 10
0.0
 20
0.0
 30
0.0
  0
VERTEX
  8
0
 10
-132.601162
 20
42.8886354575
 30
0.0
  0
VERTEX
  8
0
 10
-126.601162
 20
42.8886354575
 30
0.0
  0
VERTEX
  8
0
 10
-126.601162
 20
37.8886354575
 30
0.0
  0
VERTEX
  8
0
 10
-132.601162
 20
37.8886354575
 30
0.0
  0
SEQEND
  8
0
  0
POLYLINE
  8
0
 62
7
 70
1
 66
1
 10
0.0
 20
0.0
 30
0.0
  0
VERTEX
  8
0
 10
-119.601162
 20
50.8886354575
 30
0.0
  0
VERTEX
  8
0
 10
-113.601162
 20
50.8886354575
 30
0.0
  0
VERTEX
  8
0
 10
-113.601162
 20
45.8886354575
 30
0.0
  0
VERTEX
  8
0
 10
-119.601162
 20
45.8886354575
 30
0.0
  0
SEQEND
  8
0
  0
POLYLINE
  8
0
 62
7
 70
1
 66
1
 10
0.0
 20
0.0
 30
0.0
  0
VERTEX
  8
0
 10
-119.601162
 20
42.8886354575
 30
0.0
  0
VERTEX
  8
0
 10
-113.601162
 20
42.8886354575
 30
0.0
  0
VERTEX
  8
0
 10
-113.601162
 20
37.8886354575
 30
0.0
  0
VERTEX
  8
0
 10
-119.601162
 20
37.8886354575
 30
0.0
  0
SEQEND
  8
0
  0
POLYLINE
  8
0
 62
7
 70
1
 66
1
 10
0.0
 20
0.0
 30
0.0
  0
VERTEX
  8
0
 10
-106.601162
 20
50.8886354575
 30
0.0
  0
VERTEX
  8
0
 10
-100.601162
 20
50.8886354575
 30
0.0
  0
VERTEX
  8
0
 10
-100.601162
 20
45.8886354575
 30
0.0
  0
VERTEX
  8
0
 10
-106.601162
 20
45.8886354575
 30
0.0
  0
SEQEND
  8
0
  0
POLYLINE
  8
0
 62
7
 70
1
 66
1
 10
0.0
 20
0.0
 30
0.0
  0
VERTEX
  8
0
 10
-106.601162
 20
42.8886354575
 30
0.0
  0
VERTEX
  8
0
 10
-100.601162
 20
42.8886354575
 30
0.0
  0
VERTEX
  8
0
 10
-100.601162
 20
37.8886354575
 30
0.0
  0
VERTEX
  8
0
 10
-106.601162
 20
37.8886354575
 30
0.0
  0
SEQEND
  8
0
  0
POLYLINE
  8
0
 62
7
 70
1
 66
1
 10
0.0
 20
0.0
 30
0.0
  0
VERTEX
  8
0
 10
-93.601162
 20
50.8886354575
 30
0.0
  0
VERTEX
  8
0
 10
-87.601162
 20
50.8886354575
 30
0.0
  0
VERTEX
  8
0
 10
-87.601162
 20
45.8886354575
 30
0.0
  0
VERTEX
  8
0
 10
-93.601162
 20
45.8886354575
 30
0.0
  0
SEQEND
  8
0
  0
POLYLINE
  8
0
 62
7
 70
1
 66
1
 10
0.0
 20
0.0
 30
0.0
  0
VERTEX
  8
0
 10
-93.601162
 20
42.8886354575
 30
0.0
  0
VERTEX
  8
0
 10
-87.601162
 20
42.8886354575
 30
0.0
  0
VERTEX
  8
0
 10
-87.601162
 20
37.8886354575
 30
0.0
  0
VERTEX
  8
0
 10
-93.601162
 20
37.8886354575
 30
0.0
  0
SEQEND
  8
0
  0
POLYLINE
  8
0
 62
7
 70
1
 66
1
 10
0.0
 20
0.0
 30
0.0
  0
VERTEX
  8
0
 10
-80.601162
 20
50.8886354575
 30
0.0
  0
VERTEX
  8
0
 10
-74.601162
 20
50.8886354575
 30
0.0
  0
VERTEX
  8
0
 10
-74.601162
 20
45.8886354575
 30
0.0
  0
VERTEX
  8
0
 10
-80.601162
 20
45.8886354575
 30
0.0
  0
SEQEND
  8
0
  0
POLYLINE
  8
0
 62
7
 70
1
 66
1
 10
0.0
 20
0.0
 30
0.0
  0
VERTEX
  8
0
 10
-80.601162
 20
42.8886354575
 30
0.0
  0
VERTEX
  8
0
 10
-74.601162
 20
42.8886354575
 30
0.0
  0
VERTEX
  8
0
 10
-74.601162
 20
37.8886354575
 30
0.0
  0
VERTEX
  8
0
 10
-80.601162
 20
37.8886354575
 30
0.0
  0
SEQEND
  8
0
  0
POLYLINE
  8
0
 62
7
 70
1
 66
1
 10
0.0
 20
0.0
 30
0.0
  0
VERTEX
  8
0
 10
-67.601162
 20
50.8886354575
 30
0.0
  0
VERTEX
  8
0
 10
-61.601162
 20
50.8886354575
 30
0.0
  0
VERTEX
  8
0
 10
-61.601162
 20
45.8886354575
 30
0.0
  0
VERTEX
  8
0
 10
-67.601162
 20
45.8886354575
 30
0.0
  0
SEQEND
  8
0
  0
POLYLINE
  8
0
 62
7
 70
1
 66
1
 10
0.0
 20
0.0
 30
0.0
  0
VERTEX
  8
0
 10
-67.601162
 20
42.8886354575
 30
0.0
  0
VERTEX
  8
0
 10
-61.601162
 20
42.8886354575
 30
0.0
  0
VERTEX
  8
0
 10
-61.601162
 20
37.8886354575
 30
0.0
  0
VERTEX
  8
0
 10
-67.601162
 20
37.8886354575
 30
0.0
  0
SEQEND
  8
0
  0
POLYLINE
  8
0
 62
7
 70
1
 66
1
 10
0.0
 20
0.0
 30
0.0
  0
VERTEX
  8
0
 10
-54.601162
 20
50.8886354575
 30
0.0
  0
VERTEX
  8
0
 10
-48.601162
 20
50.8886354575
 30
0.0
  0
VERTEX
  8
0
 10
-48.601162
 20
45.8886354575
 30
0.0
  0
VERTEX
  8
0
 10
-54.601162
 20
45.8886354575
 30
0.0
  0
SEQEND
  8
0
  0
POLYLINE
  8
0
 62
7
 70
1
 66
1
 10
0.0
 20
0.0
 30
0.0
  0
VERTEX
  8
0
 10
-54.601162
 20
42.8886354575
 30
0.0
  0
VERTEX
  8
0
 10
-48.601162
 20
42.8886354575
 30
0.0
  0
VERTEX
  8
0
 10
-48.601162
 20
37.8886354575
 30
0.0
  0
VERTEX
  8
0
 10
-54.601162
 20
37.8886354575
 30
0.0
  0
SEQEND
  8
0
  0
POLYLINE
  8
0
 62
7
 70
1
 66
1
 10
0.0
 20
0.0
 30
0.0
  0
VERTEX
  8
0
 10
-26.601162
 20
52.8886354575
 30
0.0
  0
VERTEX
  8
0
 10
-24.601162
 20
52.8886354575
 30
0.0
  0
VERTEX
  8
0
 10
-24.601162
 20
35.8886354575
 30
0.0
  0
VERTEX
  8
0
 10
-26.601162
 20
35.8886354575
 30
0.0
  0
SEQEND
  8
0
  0
ENDBLK
  0
BLOCK
  8
0
  2
SKETCH002
 70
0
 10
0.0
 20
0.0
 30
0.0
  3
SKETCH002
  0
POLYLINE
  8
0
 62
7
 70
1
 66
1
 10
0.0
 20
0.0
 30
0.0
  0
VERTEX
  8
0
 10
-106.737907
 20
150.709556062
 30
0.0
  0
VERTEX
  8
0
 10
-106.737907
 20
115.209556062
 30
0.0
  0
VERTEX
  8
0
 10
-90.237907
 20
115.209556062
 30
0.0
  0
VERTEX
  8
0
 10
-90.237907
 20
112.109556062
 30
0.0
  0
VERTEX
  8
0
 10
-79.237907
 20
112.109556062
 30
0.0
  0
VERTEX
  8
0
 10
-79.237907
 20
115.209556062
 30
0.0
  0
VERTEX
  8
0
 10
-62.737907
 20
115.209556062
 30
0.0
  0
VERTEX
  8
0
 10
-62.737907
 20
150.709556062
 30
0.0
  0
VERTEX
  8
0
 10
-79.237907
 20
150.709556062
 30
0.0
  0
VERTEX
  8
0
 10
-79.237907
 20
153.809556062
 30
0.0
  0
VERTEX
  8
0
 10
-90.237907
 20
153.809556062
 30
0.0
  0
VERTEX
  8
0
 10
-90.237907
 20
150.709556062
 30
0.0
  0
SEQEND
  8
0
  0
POLYLINE
  8
0
 62
7
 70
1
 66
1
 10
0.0
 20
0.0
 30
0.0
  0
VERTEX
  8
0
 10
-84.737907
 20
134.309556062
 30
0.0
  0
VERTEX
  8
0
 10
-74.737907
 20
134.309556062
 30
0.0
  0
VERTEX
  8
0
 10
-74.737907
 20
127.309556062
 30
0.0
  0
VERTEX
  8
0
 10
-84.737907
 20
127.309556062
 30
0.0
  0
SEQEND
  8
0
  0
POLYLINE
  8
0
 62
7
 70
1
 66
1
 10
0.0
 20
0.0
 30
0.0
  0
VERTEX
  8
0
 10
-101.237907
 20
127.309556062
 30
0.0
  0
VERTEX
  8
0
 10
-90.237907
 20
127.309556062
 30
0.0
  0
VERTEX
  8
0
 10
-90.237907
 20
124.209556062
 30
0.0
  0
VERTEX
  8
0
 10
-101.237907
 20
124.209556062
 30
0.0
  0
SEQEND
  8
0
  0
POLYLINE
  8
0
 62
7
 70
1
 66
1
 10
0.0
 20
0.0
 30
0.0
  0
VERTEX
  8
0
 10
-103.737907
 20
146.309556062
 30
0.0
  0
VERTEX
  8
0
 10
-88.737907
 20
146.309556062
 30
0.0
  0
VERTEX
  8
0
 10
-88.737907
 20
129.309556062
 30
0.0
  0
VERTEX
  8
0
 10
-103.737907
 20
129.309556062
 30
0.0
  0
SEQEND
  8
0
  0
ENDBLK
  0
BLOCK
  8
0
  2
SKETCH010
 70
0
 10
0.0
 20
0.0
 30
0.0
  3
SKETCH010
  0
POLYLINE
  8
0
 62
7
 70
1
 66
1
 10
0.0
 20
0.0
 30
0.0
  0
VERTEX
  8
0
 10
-15.570105
 20
-9.041241
 30
0.0
  0
VERTEX
  8
0
 10
-18.670105
 20
-9.041241
 30
0.0
  0
VERTEX
  8
0
 10
-18.670105
 20
-20.041241
 30
0.0
  0
VERTEX
  8
0
 10
-15.570105
 20
-20.041241
 30
0.0
  0
VERTEX
  8
0
 10
-15.570105
 20
-36.541241
 30
0.0
  0
VERTEX
  8
0
 10
-151.770105
 20
-36.541241
 30
0.0
  0
VERTEX
  8
0
 10
-151.770105
 20
-20.041241
 30
0.0
  0
VERTEX
  8
0
 10
-148.670105
 20
-20.041241
 30
0.0
  0
VERTEX
  8
0
 10
-148.670105
 20
-9.041241
 30
0.0
  0
VERTEX
  8
0
 10
-151.770105
 20
-9.041241
 30
0.0
  0
VERTEX
  8
0
 10
-151.770105
 20
7.458759
 30
0.0
  0
VERTEX
  8
0
 10
-15.570105
 20
7.458759
 30
0.0
  0
SEQEND
  8
0
  0
POLYLINE
  8
0
 62
7
 70
1
 66
1
 10
0.0
 20
0.0
 30
0.0
  0
VERTEX
  8
0
 10
-137.670105
 20
-9.041241
 30
0.0
  0
VERTEX
  8
0
 10
-134.570105
 20
-9.041241
 30
0.0
  0
VERTEX
  8
0
 10
-134.570105
 20
-20.041241
 30
0.0
  0
VERTEX
  8
0
 10
-137.670105
 20
-20.041241
 30
0.0
  0
SEQEND
  8
0
  0
POLYLINE
  8
0
 62
7
 70
1
 66
1
 10
0.0
 20
0.0
 30
0.0
  0
VERTEX
  8
0
 10
-124.670105
 20
-9.041241
 30
0.0
  0
VERTEX
  8
0
 10
-121.570105
 20
-9.041241
 30
0.0
  0
VERTEX
  8
0
 10
-121.570105
 20
-20.041241
 30
0.0
  0
VERTEX
  8
0
 10
-124.670105
 20
-20.041241
 30
0.0
  0
SEQEND
  8
0
  0
POLYLINE
  8
0
 62
7
 70
1
 66
1
 10
0.0
 20
0.0
 30
0.0
  0
VERTEX
  8
0
 10
-111.670105
 20
-9.041241
 30
0.0
  0
VERTEX
  8
0
 10
-108.573835
 20
-9.041241
 30
0.0
  0
VERTEX
  8
0
 10
-108.573835
 20
-20.041241
 30
0.0
  0
VERTEX
  8
0
 10
-111.670105
 20
-20.041241
 30
0.0
  0
SEQEND
  8
0
  0
POLYLINE
  8
0
 62
7
 70
1
 66
1
 10
0.0
 20
0.0
 30
0.0
  0
VERTEX
  8
0
 10
-85.673835
 20
-9.041241
 30
0.0
  0
VERTEX
  8
0
 10
-82.573835
 20
-9.041241
 30
0.0
  0
VERTEX
  8
0
 10
-82.573835
 20
-20.041241
 30
0.0
  0
VERTEX
  8
0
 10
-85.673835
 20
-20.041241
 30
0.0
  0
SEQEND
  8
0
  0
POLYLINE
  8
0
 62
7
 70
1
 66
1
 10
0.0
 20
0.0
 30
0.0
  0
VERTEX
  8
0
 10
-98.673835
 20
-9.041241
 30
0.0
  0
VERTEX
  8
0
 10
-95.573835
 20
-9.041241
 30
0.0
  0
VERTEX
  8
0
 10
-95.573835
 20
-20.041241
 30
0.0
  0
VERTEX
  8
0
 10
-98.673835
 20
-20.041241
 30
0.0
  0
SEQEND
  8
0
  0
POLYLINE
  8
0
 62
7
 70
1
 66
1
 10
0.0
 20
0.0
 30
0.0
  0
VERTEX
  8
0
 10
-72.673835
 20
-9.041241
 30
0.0
  0
VERTEX
  8
0
 10
-69.573835
 20
-9.041241
 30
0.0
  0
VERTEX
  8
0
 10
-69.573835
 20
-20.041241
 30
0.0
  0
VERTEX
  8
0
 10
-72.673835
 20
-20.041241
 30
0.0
  0
SEQEND
  8
0
  0
POLYLINE
  8
0
 62
7
 70
1
 66
1
 10
0.0
 20
0.0
 30
0.0
  0
VERTEX
  8
0
 10
-59.673835
 20
-9.041241
 30
0.0
  0
VERTEX
  8
0
 10
-56.573835
 20
-9.041241
 30
0.0
  0
VERTEX
  8
0
 10
-56.573835
 20
-20.041241
 30
0.0
  0
VERTEX
  8
0
 10
-59.673835
 20
-20.041241
 30
0.0
  0
SEQEND
  8
0
  0
POLYLINE
  8
0
 62
7
 70
1
 66
1
 10
0.0
 20
0.0
 30
0.0
  0
VERTEX
  8
0
 10
-46.673835
 20
-9.041241
 30
0.0
  0
VERTEX
  8
0
 10
-43.573835
 20
-9.041241
 30
0.0
  0
VERTEX
  8
0
 10
-43.573835
 20
-20.041241
 30
0.0
  0
VERTEX
  8
0
 10
-46.673835
 20
-20.041241
 30
0.0
  0
SEQEND
  8
0
  0
ENDBLK
  0
BLOCK
  8
0
  2
SKETCH007
 70
0
 10
0.0
 20
0.0
 30
0.0
  3
SKETCH007
  0
POLYLINE
  8
0
 62
7
 70
1
 66
1
 10
0.0
 20
0.0
 30
0.0
  0
VERTEX
  8
0
 10
-154.584211408
 20
150.522334433
 30
0.0
  0
VERTEX
  8
0
 10
-154.584211408
 20
115.022334433
 30
0.0
  0
VERTEX
  8
0
 10
-138.084211408
 20
115.022334433
 30
0.0
  0
VERTEX
  8
0
 10
-138.084211408
 20
111.922334433
 30
0.0
  0
VERTEX
  8
0
 10
-127.084211408
 20
111.922334433
 30
0.0
  0
VERTEX
  8
0
 10
-127.084211408
 20
115.022334433
 30
0.0
  0
VERTEX
  8
0
 10
-110.584211408
 20
115.022334433
 30
0.0
  0
VERTEX
  8
0
 10
-110.584211408
 20
150.522334433
 30
0.0
  0
VERTEX
  8
0
 10
-127.084211408
 20
150.522334433
 30
0.0
  0
VERTEX
  8
0
 10
-127.084211408
 20
153.622334433
 30
0.0
  0
VERTEX
  8
0
 10
-138.084211408
 20
153.622334433
 30
0.0
  0
VERTEX
  8
0
 10
-138.084211408
 20
150.522334433
 30
0.0
  0
SEQEND
  8
0
  0
POLYLINE
  8
0
 62
7
 70
1
 66
1
 10
0.0
 20
0.0
 30
0.0
  0
VERTEX
  8
0
 10
-127.084211408
 20
127.122334433
 30
0.0
  0
VERTEX
  8
0
 10
-116.084211408
 20
127.122334433
 30
0.0
  0
VERTEX
  8
0
 10
-116.084211408
 20
124.022334433
 30
0.0
  0
VERTEX
  8
0
 10
-127.084211408
 20
124.022334433
 30
0.0
  0
SEQEND
  8
0
  0
ENDBLK
  0
ENDSEC
  0
SECTION
  2
ENTITIES
  0
INSERT
  2
SKETCH
  8
0
 62
7
 10
0.0
 20
0.0
 30
0.0
  0
POLYLINE
  8
0
 62
7
 70
1
 66
1
 10
0.0
 20
0.0
 30
0.0
  0
VERTEX
  8
0
 10
-58.3329846406
 20
112.229923617
 30
0.0
  0
VERTEX
  8
0
 10
-58.3329846406
 20
121.229923617
 30
0.0
  0
VERTEX
  8
0
 10
-41.8329846406
 20
121.229923617
 30
0.0
  0
VERTEX
  8
0
 10
-41.8329846406
 20
124.329923617
 30
0.0
  0
VERTEX
  8
0
 10
-30.8329846406
 20
124.329923617
 30
0.0
  0
VERTEX
  8
0
 10
-30.8329846406
 20
121.229923617
 30
0.0
  0
VERTEX
  8
0
 10
-14.3329846406
 20
121.229923617
 30
0.0
  0
VERTEX
  8
0
 10
-14.3329846406
 20
112.229923617
 30
0.0
  0
SEQEND
  8
0
  0
POLYLINE
  8
0
 62
7
 70
1
 66
1
 10
0.0
 20
0.0
 30
0.0
  0
VERTEX
  8
0
 10
-200.392400641
 20
-33.3798833832
 30
0.0
  0
VERTEX
  8
0
 10
-200.392400641
 20
-24.3798833832
 30
0.0
  0
VERTEX
  8
0
 10
-183.892400641
 20
-24.3798833832
 30
0.0
  0
VERTEX
  8
0
 10
-183.892400641
 20
-21.2798833832
 30
0.0
  0
VERTEX
  8
0
 10
-172.892400641
 20
-21.2798833832
 30
0.0
  0
VERTEX
  8
0
 10
-172.892400641
 20
-24.3798833832
 30
0.0
  0
VERTEX
  8
0
 10
-156.392400641
 20
-24.3798833832
 30
0.0
  0
VERTEX
  8
0
 10
-156.392400641
 20
-33.3798833832
 30
0.0
  0
SEQEND
  8
0
  0
INSERT
  2
SKETCH002
  8
0
 62
7
 10
0.0
 20
0.0
 30
0.0
  0
POLYLINE
  8
0
 62
7
 70
1
 66
1
 10
0.0
 20
0.0
 30
0.0
  0
VERTEX
  8
0
 10
-202.038022641
 20
-65.6720073832
 30
0.0
  0
VERTEX
  8
0
 10
-202.038022641
 20
-56.6720073832
 30
0.0
  0
VERTEX
  8
0
 10
-185.538022641
 20
-56.6720073832
 30
0.0
  0
VERTEX
  8
0
 10
-185.538022641
 20
-53.5720073832
 30
0.0
  0
VERTEX
  8
0
 10
-174.538022641
 20
-53.5720073832
 30
0.0
  0
VERTEX
  8
0
 10
-174.538022641
 20
-56.6720073832
 30
0.0
  0
VERTEX
  8
0
 10
-158.038022641
 20
-56.6720073832
 30
0.0
  0
VERTEX
  8
0
 10
-158.038022641
 20
-65.6720073832
 30
0.0
  0
SEQEND
  8
0
  0
POLYLINE
  8
0
 62
7
 70
1
 66
1
 10
0.0
 20
0.0
 30
0.0
  0
VERTEX
  8
0
 10
-151.947256973
 20
-42.6591237668
 30
0.0
  0
VERTEX
  8
0
 10
-151.947256973
 20
-69.1591237668
 30
0.0
  0
VERTEX
  8
0
 10
-43.747256973
 20
-69.1591237668
 30
0.0
  0
VERTEX
  8
0
 10
-43.747256973
 20
-78.1591237668
 30
0.0
  0
VERTEX
  8
0
 10
-15.747256973
 20
-78.1591237668
 30
0.0
  0
VERTEX
  8
0
 10
-15.747256973
 20
-42.6591237668
 30
0.0
  0
VERTEX
  8
0
 10
-76.747256973
 20
-42.6591237668
 30
0.0
  0
VERTEX
  8
0
 10
-76.747256973
 20
-39.5591237668
 30
0.0
  0
VERTEX
  8
0
 10
-87.747256973
 20
-39.5591237668
 30
0.0
  0
VERTEX
  8
0
 10
-87.747256973
 20
-42.6591237668
 30
0.0
  0
SEQEND
  8
0
  0
POLYLINE
  8
0
 62
7
 70
1
 66
1
 10
0.0
 20
0.0
 30
0.0
  0
VERTEX
  8
0
 10
-90.7267705132
 20
106.500833183
 30
0.0
  0
VERTEX
  8
0
 10
-79.7267705132
 20
106.500833183
 30
0.0
  0
VERTEX
  8
0
 10
-79.7267705132
 20
109.600833183
 30
0.0
  0
VERTEX
  8
0
 10
-17.1267705132
 20
109.600833183
 30
0.0
  0
VERTEX
  8
0
 10
-17.1267705132
 20
93.1008331833
 30
0.0
  0
VERTEX
  8
0
 10
-20.2267705132
 20
93.1008331833
 30
0.0
  0
VERTEX
  8
0
 10
-20.2267705132
 20
82.1008331833
 30
0.0
  0
VERTEX
  8
0
 10
-17.1267705132
 20
82.1008331833
 30
0.0
  0
VERTEX
  8
0
 10
-17.1267705132
 20
59.4008331833
 30
0.0
  0
VERTEX
  8
0
 10
-79.7267705132
 20
59.4008331833
 30
0.0
  0
VERTEX
  8
0
 10
-79.7267705132
 20
62.5008331833
 30
0.0
  0
VERTEX
  8
0
 10
-90.7267705132
 20
62.5008331833
 30
0.0
  0
VERTEX
  8
0
 10
-90.7267705132
 20
59.4008331833
 30
0.0
  0
VERTEX
  8
0
 10
-153.326770513
 20
59.4008331833
 30
0.0
  0
VERTEX
  8
0
 10
-153.326770513
 20
75.9008331833
 30
0.0
  0
VERTEX
  8
0
 10
-150.226770513
 20
75.9008331833
 30
0.0
  0
VERTEX
  8
0
 10
-150.226770513
 20
86.9008331833
 30
0.0
  0
VERTEX
  8
0
 10
-153.326770513
 20
86.9008331833
 30
0.0
  0
VERTEX
  8
0
 10
-153.326770513
 20
109.600833183
 30
0.0
  0
VERTEX
  8
0
 10
-90.7267705132
 20
109.600833183
 30
0.0
  0
SEQEND
  8
0
  0
POLYLINE
  8
0
 62
7
 70
1
 66
1
 10
0.0
 20
0.0
 30
0.0
  0
VERTEX
  8
0
 10
-200.629788641
 20
-16.4440943832
 30
0.0
  0
VERTEX
  8
0
 10
-200.629788641
 20
-7.44409438319
 30
0.0
  0
VERTEX
  8
0
 10
-184.129788641
 20
-7.44409438319
 30
0.0
  0
VERTEX
  8
0
 10
-184.129788641
 20
-4.34409438319
 30
0.0
  0
VERTEX
  8
0
 10
-173.129788641
 20
-4.34409438319
 30
0.0
  0
VERTEX
  8
0
 10
-173.129788641
 20
-7.44409438319
 30
0.0
  0
VERTEX
  8
0
 10
-156.629788641
 20
-7.44409438319
 30
0.0
  0
VERTEX
  8
0
 10
-156.629788641
 20
-16.4440943832
 30
0.0
  0
SEQEND
  8
0
  0
POLYLINE
  8
0
 62
7
 70
1
 66
1
 10
0.0
 20
0.0
 30
0.0
  0
VERTEX
  8
0
 10
-185.751743781
 20
152.342453402
 30
0.0
  0
VERTEX
  8
0
 10
-159.251743781
 20
152.342453402
 30
0.0
  0
VERTEX
  8
0
 10
-159.251743781
 20
97.82316
 30
0.0
  0
VERTEX
  8
0
 10
-156.151743781
 20
97.82316
 30
0.0
  0
VERTEX
  8
0
 10
-156.151743781
 20
86.82316
 30
0.0
  0
VERTEX
  8
0
 10
-159.251743781
 20
86.82316
 30
0.0
  0
VERTEX
  8
0
 10
-159.251743781
 20
16.1424534019
 30
0.0
  0
VERTEX
  8
0
 10
-194.751743781
 20
16.1424534019
 30
0.0
  0
VERTEX
  8
0
 10
-194.751743781
 20
44.1424534019
 30
0.0
  0
VERTEX
  8
0
 10
-185.751743781
 20
44.1424534019
 30
0.0
  0
SEQEND
  8
0
  0
POLYLINE
  8
0
 62
7
 70
1
 66
1
 10
0.0
 20
0.0
 30
0.0
  0
VERTEX
  8
0
 10
-199.668988641
 20
-0.929493383192
 30
0.0
  0
VERTEX
  8
0
 10
-199.668988641
 20
8.07050661681
 30
0.0
  0
VERTEX
  8
0
 10
-183.168988641
 20
8.07050661681
 30
0.0
  0
VERTEX
  8
0
 10
-183.168988641
 20
11.1705066168
 30
0.0
  0
VERTEX
  8
0
 10
-172.168988641
 20
11.1705066168
 30
0.0
  0
VERTEX
  8
0
 10
-172.168988641
 20
8.07050661681
 30
0.0
  0
VERTEX
  8
0
 10
-155.668988641
 20
8.07050661681
 30
0.0
  0
VERTEX
  8
0
 10
-155.668988641
 20
-0.929493383192
 30
0.0
  0
SEQEND
  8
0
  0
POLYLINE
  8
0
 62
7
 70
1
 66
1
 10
0.0
 20
0.0
 30
0.0
  0
VERTEX
  8
0
 10
-201.920520641
 20
-50.0643913832
 30
0.0
  0
VERTEX
  8
0
 10
-201.920520641
 20
-41.0643913832
 30
0.0
  0
VERTEX
  8
0
 10
-185.420520641
 20
-41.0643913832
 30
0.0
  0
VERTEX
  8
0
 10
-185.420520641
 20
-37.9643913832
 30
0.0
  0
VERTEX
  8
0
 10
-174.420520641
 20
-37.9643913832
 30
0.0
  0
VERTEX
  8
0
 10
-174.420520641
 20
-41.0643913832
 30
0.0
  0
VERTEX
  8
0
 10
-157.920520641
 20
-41.0643913832
 30
0.0
  0
VERTEX
  8
0
 10
-157.920520641
 20
-50.0643913832
 30
0.0
  0
SEQEND
  8
0
  0
POLYLINE
  8
0
 62
7
 70
1
 66
1
 10
0.0
 20
0.0
 30
0.0
  0
VERTEX
  8
0
 10
-58.6711596406
 20
126.410901617
 30
0.0
  0
VERTEX
  8
0
 10
-58.6711596406
 20
135.410901617
 30
0.0
  0
VERTEX
  8
0
 10
-42.1711596406
 20
135.410901617
 30
0.0
  0
VERTEX
  8
0
 10
-42.1711596406
 20
138.510901617
 30
0.0
  0
VERTEX
  8
0
 10
-31.1711596406
 20
138.510901617
 30
0.0
  0
VERTEX
  8
0
 10
-31.1711596406
 20
135.410901617
 30
0.0
  0
VERTEX
  8
0
 10
-14.6711596406
 20
135.410901617
 30
0.0
  0
VERTEX
  8
0
 10
-14.6711596406
 20
126.410901617
 30
0.0
  0
SEQEND
  8
0
  0
POLYLINE
  8
0
 62
7
 70
1
 66
1
 10
0.0
 20
0.0
 30
0.0
  0
VERTEX
  8
0
 10
-58.5254196406
 20
140.493362617
 30
0.0
  0
VERTEX
  8
0
 10
-58.5254196406
 20
149.493362617
 30
0.0
  0
VERTEX
  8
0
 10
-42.0254196406
 20
149.493362617
 30
0.0
  0
VERTEX
  8
0
 10
-42.0254196406
 20
152.593362617
 30
0.0
  0
VERTEX
  8
0
 10
-31.0254196406
 20
152.593362617
 30
0.0
  0
VERTEX
  8
0
 10
-31.0254196406
 20
149.493362617
 30
0.0
  0
VERTEX
  8
0
 10
-14.5254196406
 20
149.493362617
 30
0.0
  0
VERTEX
  8
0
 10
-14.5254196406
 20
140.493362617
 30
0.0
  0
SEQEND
  8
0
  0
INSERT
  2
SKETCH010
  8
0
 62
7
 10
0.0
 20
0.0
 30
0.0
  0
INSERT
  2
SKETCH007
  8
0
 62
7
 10
0.0
 20
0.0
 30
0.0
  0
ENDSEC
  0
EOF
