G75*
%MOIN*%
%OFA0B0*%
%FSLAX25Y25*%
%IPPOS*%
%LPD*%
%AMOC8*
5,1,8,0,0,1.08239X$1,22.5*
%
%ADD10C,0.00800*%
%ADD11C,0.00100*%
%ADD12C,0.00400*%
%ADD13C,0.01000*%
%ADD14C,0.00300*%
%ADD15C,0.00500*%
%ADD16R,0.01181X0.00591*%
%ADD17R,0.01181X0.01181*%
%ADD18C,0.00600*%
%ADD19C,0.00200*%
%ADD20R,0.00500X0.02000*%
D10*
X0273704Y0104398D02*
X0275279Y0102823D01*
X0309925Y0102823D01*
X0311499Y0104398D01*
X0311499Y0139043D01*
X0309925Y0140618D01*
X0275279Y0140618D01*
X0273704Y0139043D01*
X0273704Y0104398D01*
X0406471Y0104146D02*
X0406471Y0098634D01*
X0414345Y0098634D02*
X0414345Y0104146D01*
X0406471Y0104146D01*
X0418710Y0104386D02*
X0418710Y0098874D01*
X0420285Y0096118D02*
X0422647Y0093756D01*
X0425010Y0096118D01*
X0420285Y0096118D01*
X0426584Y0098874D02*
X0426584Y0104386D01*
X0418710Y0104386D01*
X0430714Y0104230D02*
X0430714Y0098718D01*
X0432289Y0095962D02*
X0434651Y0093600D01*
X0437013Y0095962D01*
X0432289Y0095962D01*
X0438588Y0098718D02*
X0438588Y0104230D01*
X0430714Y0104230D01*
X0412770Y0095878D02*
X0408046Y0095878D01*
X0410408Y0093516D01*
X0412770Y0095878D01*
X0413164Y0093516D02*
X0410408Y0093516D01*
X0407652Y0093516D01*
X0406471Y0090760D02*
X0406471Y0085248D01*
X0414345Y0085248D01*
X0414345Y0090760D01*
X0418710Y0091000D02*
X0418710Y0085488D01*
X0426584Y0085488D01*
X0426584Y0091000D01*
X0430714Y0090844D02*
X0430714Y0085332D01*
X0438588Y0085332D01*
X0438588Y0090844D01*
X0437407Y0093600D02*
X0434651Y0093600D01*
X0431895Y0093600D01*
X0425403Y0093756D02*
X0422647Y0093756D01*
X0419891Y0093756D01*
X0445560Y0084564D02*
X0445560Y0034761D01*
X0477823Y0034761D01*
X0483729Y0034761D01*
X0504201Y0034761D01*
X0504201Y0084564D01*
X0483729Y0084564D01*
X0445560Y0084564D01*
X0477823Y0084564D02*
X0477868Y0084667D01*
X0477917Y0084768D01*
X0477969Y0084868D01*
X0478024Y0084965D01*
X0478083Y0085061D01*
X0478145Y0085155D01*
X0478211Y0085246D01*
X0478280Y0085335D01*
X0478351Y0085421D01*
X0478426Y0085505D01*
X0478504Y0085586D01*
X0478584Y0085665D01*
X0478667Y0085740D01*
X0478753Y0085813D01*
X0478841Y0085882D01*
X0478932Y0085949D01*
X0479025Y0086012D01*
X0479120Y0086072D01*
X0479217Y0086128D01*
X0479316Y0086181D01*
X0479417Y0086231D01*
X0479519Y0086277D01*
X0479623Y0086319D01*
X0479729Y0086358D01*
X0479835Y0086393D01*
X0479943Y0086424D01*
X0480052Y0086451D01*
X0480162Y0086475D01*
X0480273Y0086494D01*
X0480384Y0086510D01*
X0480496Y0086522D01*
X0480608Y0086530D01*
X0480720Y0086534D01*
X0480832Y0086534D01*
X0480944Y0086530D01*
X0481056Y0086522D01*
X0481168Y0086510D01*
X0481279Y0086494D01*
X0481390Y0086475D01*
X0481500Y0086451D01*
X0481609Y0086424D01*
X0481717Y0086393D01*
X0481823Y0086358D01*
X0481929Y0086319D01*
X0482033Y0086277D01*
X0482135Y0086231D01*
X0482236Y0086181D01*
X0482335Y0086128D01*
X0482432Y0086072D01*
X0482527Y0086012D01*
X0482620Y0085949D01*
X0482711Y0085882D01*
X0482799Y0085813D01*
X0482885Y0085740D01*
X0482968Y0085665D01*
X0483048Y0085586D01*
X0483126Y0085505D01*
X0483201Y0085421D01*
X0483272Y0085335D01*
X0483341Y0085246D01*
X0483407Y0085155D01*
X0483469Y0085061D01*
X0483528Y0084965D01*
X0483583Y0084868D01*
X0483635Y0084768D01*
X0483684Y0084667D01*
X0483729Y0084564D01*
X0431832Y0068601D02*
X0431832Y0042801D01*
X0417832Y0042801D01*
X0417832Y0068601D01*
X0431832Y0068601D01*
X0477823Y0034761D02*
X0477868Y0034658D01*
X0477917Y0034557D01*
X0477969Y0034457D01*
X0478024Y0034360D01*
X0478083Y0034264D01*
X0478145Y0034170D01*
X0478211Y0034079D01*
X0478280Y0033990D01*
X0478351Y0033904D01*
X0478426Y0033820D01*
X0478504Y0033739D01*
X0478584Y0033660D01*
X0478667Y0033585D01*
X0478753Y0033512D01*
X0478841Y0033443D01*
X0478932Y0033376D01*
X0479025Y0033313D01*
X0479120Y0033253D01*
X0479217Y0033197D01*
X0479316Y0033144D01*
X0479417Y0033094D01*
X0479519Y0033048D01*
X0479623Y0033006D01*
X0479729Y0032967D01*
X0479835Y0032932D01*
X0479943Y0032901D01*
X0480052Y0032874D01*
X0480162Y0032850D01*
X0480273Y0032831D01*
X0480384Y0032815D01*
X0480496Y0032803D01*
X0480608Y0032795D01*
X0480720Y0032791D01*
X0480832Y0032791D01*
X0480944Y0032795D01*
X0481056Y0032803D01*
X0481168Y0032815D01*
X0481279Y0032831D01*
X0481390Y0032850D01*
X0481500Y0032874D01*
X0481609Y0032901D01*
X0481717Y0032932D01*
X0481823Y0032967D01*
X0481929Y0033006D01*
X0482033Y0033048D01*
X0482135Y0033094D01*
X0482236Y0033144D01*
X0482335Y0033197D01*
X0482432Y0033253D01*
X0482527Y0033313D01*
X0482620Y0033376D01*
X0482711Y0033443D01*
X0482799Y0033512D01*
X0482885Y0033585D01*
X0482968Y0033660D01*
X0483048Y0033739D01*
X0483126Y0033820D01*
X0483201Y0033904D01*
X0483272Y0033990D01*
X0483341Y0034079D01*
X0483407Y0034170D01*
X0483469Y0034264D01*
X0483528Y0034360D01*
X0483583Y0034457D01*
X0483635Y0034557D01*
X0483684Y0034658D01*
X0483729Y0034761D01*
D11*
X0478959Y0048463D02*
X0479476Y0048980D01*
X0479476Y0050014D01*
X0478959Y0050531D01*
X0477925Y0050531D01*
X0477925Y0049497D01*
X0476891Y0050531D02*
X0476374Y0050014D01*
X0476374Y0048980D01*
X0476891Y0048463D01*
X0478959Y0048463D01*
X0479476Y0051409D02*
X0476374Y0051409D01*
X0479476Y0053478D01*
X0476374Y0053478D01*
X0476374Y0054356D02*
X0476374Y0055907D01*
X0476891Y0056424D01*
X0478959Y0056424D01*
X0479476Y0055907D01*
X0479476Y0054356D01*
X0476374Y0054356D01*
X0456976Y0054943D02*
X0455942Y0055978D01*
X0453874Y0055978D01*
X0453874Y0053909D02*
X0455942Y0053909D01*
X0456976Y0054943D01*
X0456459Y0053031D02*
X0456976Y0052514D01*
X0456976Y0051480D01*
X0456459Y0050963D01*
X0455425Y0050963D02*
X0454908Y0051997D01*
X0454908Y0052514D01*
X0455425Y0053031D01*
X0456459Y0053031D01*
X0455425Y0050963D02*
X0453874Y0050963D01*
X0453874Y0053031D01*
X0454391Y0058463D02*
X0454908Y0058463D01*
X0455425Y0058980D01*
X0455425Y0060014D01*
X0455942Y0060531D01*
X0456459Y0060531D01*
X0456976Y0060014D01*
X0456976Y0058980D01*
X0456459Y0058463D01*
X0454391Y0058463D02*
X0453874Y0058980D01*
X0453874Y0060014D01*
X0454391Y0060531D01*
X0453874Y0061409D02*
X0453874Y0062960D01*
X0454391Y0063478D01*
X0456459Y0063478D01*
X0456976Y0062960D01*
X0456976Y0061409D01*
X0453874Y0061409D01*
X0454908Y0064356D02*
X0453874Y0065390D01*
X0454908Y0066424D01*
X0456976Y0066424D01*
X0455425Y0066424D02*
X0455425Y0064356D01*
X0454908Y0064356D02*
X0456976Y0064356D01*
X0456976Y0069713D02*
X0456976Y0071781D01*
X0456976Y0072659D02*
X0454908Y0074728D01*
X0454391Y0074728D01*
X0453874Y0074210D01*
X0453874Y0073176D01*
X0454391Y0072659D01*
X0453874Y0070747D02*
X0456976Y0070747D01*
X0456976Y0072659D02*
X0456976Y0074728D01*
X0455942Y0075606D02*
X0453874Y0075606D01*
X0455942Y0075606D02*
X0456976Y0076640D01*
X0455942Y0077674D01*
X0453874Y0077674D01*
X0453874Y0070747D02*
X0454908Y0069713D01*
X0476374Y0068106D02*
X0479476Y0068106D01*
X0479476Y0070174D01*
X0478959Y0067228D02*
X0479476Y0066710D01*
X0479476Y0065676D01*
X0478959Y0065159D01*
X0476891Y0065159D01*
X0476374Y0065676D01*
X0476374Y0066710D01*
X0476891Y0067228D01*
X0476891Y0064281D02*
X0476374Y0063764D01*
X0476374Y0062730D01*
X0476891Y0062213D01*
X0477408Y0062213D01*
X0477925Y0062730D01*
X0477925Y0063764D01*
X0478442Y0064281D01*
X0478959Y0064281D01*
X0479476Y0063764D01*
X0479476Y0062730D01*
X0478959Y0062213D01*
X0429201Y0084098D02*
X0429201Y0085099D01*
X0429201Y0085572D02*
X0427700Y0085572D01*
X0429201Y0086572D01*
X0427700Y0086572D01*
X0427700Y0087045D02*
X0428450Y0087045D01*
X0428200Y0087545D01*
X0428200Y0087795D01*
X0428450Y0088046D01*
X0428951Y0088046D01*
X0429201Y0087795D01*
X0429201Y0087295D01*
X0428951Y0087045D01*
X0427700Y0087045D02*
X0427700Y0088046D01*
X0427950Y0088518D02*
X0428200Y0088518D01*
X0428450Y0088768D01*
X0428450Y0089269D01*
X0428700Y0089519D01*
X0428951Y0089519D01*
X0429201Y0089269D01*
X0429201Y0088768D01*
X0428951Y0088518D01*
X0428700Y0088518D01*
X0428450Y0088768D01*
X0428450Y0089269D02*
X0428200Y0089519D01*
X0427950Y0089519D01*
X0427700Y0089269D01*
X0427700Y0088768D01*
X0427950Y0088518D01*
X0428200Y0089991D02*
X0427700Y0090492D01*
X0429201Y0090492D01*
X0429201Y0090992D02*
X0429201Y0089991D01*
X0429201Y0091465D02*
X0429201Y0092215D01*
X0428951Y0092465D01*
X0427950Y0092465D01*
X0427700Y0092215D01*
X0427700Y0091465D01*
X0429201Y0091465D01*
X0429201Y0092938D02*
X0429201Y0093939D01*
X0429201Y0094411D02*
X0428200Y0095412D01*
X0427950Y0095412D01*
X0427700Y0095162D01*
X0427700Y0094661D01*
X0427950Y0094411D01*
X0427700Y0093438D02*
X0429201Y0093438D01*
X0429201Y0094411D02*
X0429201Y0095412D01*
X0428951Y0095884D02*
X0427950Y0096885D01*
X0428951Y0096885D01*
X0429201Y0096635D01*
X0429201Y0096135D01*
X0428951Y0095884D01*
X0427950Y0095884D01*
X0427700Y0096135D01*
X0427700Y0096635D01*
X0427950Y0096885D01*
X0428450Y0097358D02*
X0428450Y0098108D01*
X0428700Y0098358D01*
X0428951Y0098358D01*
X0429201Y0098108D01*
X0429201Y0097608D01*
X0428951Y0097358D01*
X0428450Y0097358D01*
X0427950Y0097858D01*
X0427700Y0098358D01*
X0417197Y0098265D02*
X0416947Y0098515D01*
X0416697Y0098515D01*
X0416447Y0098265D01*
X0416447Y0097514D01*
X0416947Y0097514D01*
X0417197Y0097764D01*
X0417197Y0098265D01*
X0416447Y0097514D02*
X0415946Y0098014D01*
X0415696Y0098515D01*
X0415946Y0097042D02*
X0416947Y0096041D01*
X0417197Y0096291D01*
X0417197Y0096791D01*
X0416947Y0097042D01*
X0415946Y0097042D01*
X0415696Y0096791D01*
X0415696Y0096291D01*
X0415946Y0096041D01*
X0416947Y0096041D01*
X0417197Y0095568D02*
X0417197Y0094567D01*
X0416197Y0095568D01*
X0415946Y0095568D01*
X0415696Y0095318D01*
X0415696Y0094818D01*
X0415946Y0094567D01*
X0415696Y0093595D02*
X0417197Y0093595D01*
X0417197Y0094095D02*
X0417197Y0093094D01*
X0416947Y0092622D02*
X0415946Y0092622D01*
X0415696Y0092372D01*
X0415696Y0091621D01*
X0417197Y0091621D01*
X0417197Y0092372D01*
X0416947Y0092622D01*
X0416197Y0093094D02*
X0415696Y0093595D01*
X0417197Y0091149D02*
X0417197Y0090148D01*
X0417197Y0090648D02*
X0415696Y0090648D01*
X0416197Y0090148D01*
X0416197Y0089675D02*
X0416447Y0089425D01*
X0416447Y0088925D01*
X0416197Y0088674D01*
X0415946Y0088674D01*
X0415696Y0088925D01*
X0415696Y0089425D01*
X0415946Y0089675D01*
X0416197Y0089675D01*
X0416447Y0089425D02*
X0416697Y0089675D01*
X0416947Y0089675D01*
X0417197Y0089425D01*
X0417197Y0088925D01*
X0416947Y0088674D01*
X0416697Y0088674D01*
X0416447Y0088925D01*
X0416447Y0088202D02*
X0416947Y0088202D01*
X0417197Y0087952D01*
X0417197Y0087451D01*
X0416947Y0087201D01*
X0416447Y0087201D02*
X0416197Y0087702D01*
X0416197Y0087952D01*
X0416447Y0088202D01*
X0415696Y0088202D02*
X0415696Y0087201D01*
X0416447Y0087201D01*
X0417197Y0086729D02*
X0415696Y0086729D01*
X0415696Y0085728D02*
X0417197Y0086729D01*
X0417197Y0085728D02*
X0415696Y0085728D01*
X0415696Y0084755D02*
X0417197Y0084755D01*
X0417197Y0084255D02*
X0417197Y0085256D01*
X0416197Y0084255D02*
X0415696Y0084755D01*
X0404958Y0084515D02*
X0403457Y0084515D01*
X0403957Y0084015D01*
X0404958Y0084015D02*
X0404958Y0085016D01*
X0404958Y0085488D02*
X0403457Y0085488D01*
X0404958Y0086489D01*
X0403457Y0086489D01*
X0403457Y0086961D02*
X0404207Y0086961D01*
X0403957Y0087462D01*
X0403957Y0087712D01*
X0404207Y0087962D01*
X0404708Y0087962D01*
X0404958Y0087712D01*
X0404958Y0087211D01*
X0404708Y0086961D01*
X0403457Y0086961D02*
X0403457Y0087962D01*
X0403707Y0088434D02*
X0403957Y0088434D01*
X0404207Y0088685D01*
X0404207Y0089185D01*
X0404457Y0089435D01*
X0404708Y0089435D01*
X0404958Y0089185D01*
X0404958Y0088685D01*
X0404708Y0088434D01*
X0404457Y0088434D01*
X0404207Y0088685D01*
X0404207Y0089185D02*
X0403957Y0089435D01*
X0403707Y0089435D01*
X0403457Y0089185D01*
X0403457Y0088685D01*
X0403707Y0088434D01*
X0403957Y0089908D02*
X0403457Y0090408D01*
X0404958Y0090408D01*
X0404958Y0089908D02*
X0404958Y0090909D01*
X0404958Y0091381D02*
X0403457Y0091381D01*
X0403457Y0092132D01*
X0403707Y0092382D01*
X0404708Y0092382D01*
X0404958Y0092132D01*
X0404958Y0091381D01*
X0404958Y0092854D02*
X0404958Y0093855D01*
X0404958Y0094327D02*
X0403957Y0095328D01*
X0403707Y0095328D01*
X0403457Y0095078D01*
X0403457Y0094578D01*
X0403707Y0094327D01*
X0403457Y0093355D02*
X0404958Y0093355D01*
X0404958Y0094327D02*
X0404958Y0095328D01*
X0404708Y0095801D02*
X0403707Y0096802D01*
X0404708Y0096802D01*
X0404958Y0096551D01*
X0404958Y0096051D01*
X0404708Y0095801D01*
X0403707Y0095801D01*
X0403457Y0096051D01*
X0403457Y0096551D01*
X0403707Y0096802D01*
X0404207Y0097274D02*
X0404207Y0098025D01*
X0404457Y0098275D01*
X0404708Y0098275D01*
X0404958Y0098025D01*
X0404958Y0097524D01*
X0404708Y0097274D01*
X0404207Y0097274D01*
X0403707Y0097774D01*
X0403457Y0098275D01*
X0403457Y0093355D02*
X0403957Y0092854D01*
X0427700Y0093438D02*
X0428200Y0092938D01*
X0427700Y0084599D02*
X0429201Y0084599D01*
X0428200Y0084098D02*
X0427700Y0084599D01*
D12*
X0028147Y0035034D02*
X0026613Y0036569D01*
X0031217Y0036569D01*
X0031217Y0035034D02*
X0031217Y0038104D01*
X0031217Y0039638D02*
X0026613Y0039638D01*
X0028147Y0041940D02*
X0029682Y0039638D01*
X0031217Y0041940D01*
X0053488Y0042596D02*
X0054255Y0041829D01*
X0053488Y0042596D02*
X0053488Y0044131D01*
X0054255Y0044898D01*
X0055022Y0044898D01*
X0058092Y0041829D01*
X0058092Y0044898D01*
X0057324Y0046433D02*
X0054255Y0046433D01*
X0053488Y0047200D01*
X0053488Y0048735D01*
X0054255Y0049502D01*
X0057324Y0046433D01*
X0058092Y0047200D01*
X0058092Y0048735D01*
X0057324Y0049502D01*
X0054255Y0049502D01*
X0037644Y0052850D02*
X0037644Y0055152D01*
X0036876Y0055919D01*
X0034575Y0055919D01*
X0034575Y0052850D01*
X0033040Y0053617D02*
X0032273Y0052850D01*
X0030738Y0052850D01*
X0029971Y0053617D01*
X0033040Y0056687D01*
X0033040Y0053617D01*
X0029971Y0053617D02*
X0029971Y0056687D01*
X0030738Y0057454D01*
X0032273Y0057454D01*
X0033040Y0056687D01*
X0026901Y0057454D02*
X0026901Y0052850D01*
X0025367Y0052850D02*
X0028436Y0052850D01*
X0025367Y0055919D02*
X0026901Y0057454D01*
X0026499Y0062225D02*
X0023430Y0062225D01*
X0024964Y0062225D02*
X0024964Y0066829D01*
X0023430Y0065294D01*
X0028034Y0066062D02*
X0028801Y0066829D01*
X0030336Y0066829D01*
X0031103Y0066062D01*
X0028034Y0062992D01*
X0028801Y0062225D01*
X0030336Y0062225D01*
X0031103Y0062992D01*
X0031103Y0066062D01*
X0032638Y0065294D02*
X0034940Y0065294D01*
X0035707Y0064527D01*
X0035707Y0062225D01*
X0032638Y0062225D02*
X0032638Y0065294D01*
X0028034Y0066062D02*
X0028034Y0062992D01*
X0028005Y0070913D02*
X0027238Y0071681D01*
X0027238Y0073215D01*
X0028005Y0073982D01*
X0028772Y0073982D01*
X0031842Y0070913D01*
X0031842Y0073982D01*
X0031842Y0075517D02*
X0028772Y0078586D01*
X0028005Y0078586D01*
X0027238Y0077819D01*
X0027238Y0076284D01*
X0028005Y0075517D01*
X0031842Y0075517D02*
X0031842Y0078586D01*
X0031074Y0080121D02*
X0028005Y0080121D01*
X0027238Y0080888D01*
X0027238Y0082423D01*
X0028005Y0083190D01*
X0031074Y0080121D01*
X0031842Y0080888D01*
X0031842Y0082423D01*
X0031074Y0083190D01*
X0028005Y0083190D01*
X0008092Y0080381D02*
X0006557Y0078079D01*
X0005022Y0080381D01*
X0003488Y0078079D02*
X0008092Y0078079D01*
X0008092Y0076544D02*
X0008092Y0073475D01*
X0008092Y0075010D02*
X0003488Y0075010D01*
X0005022Y0073475D01*
X0053488Y0075010D02*
X0055022Y0073475D01*
X0053488Y0075010D02*
X0058092Y0075010D01*
X0058092Y0076544D02*
X0058092Y0073475D01*
X0058092Y0078079D02*
X0053488Y0078079D01*
X0055022Y0080381D02*
X0056557Y0078079D01*
X0058092Y0080381D01*
X0077238Y0080888D02*
X0077238Y0082423D01*
X0078005Y0083190D01*
X0081074Y0080121D01*
X0081842Y0080888D01*
X0081842Y0082423D01*
X0081074Y0083190D01*
X0078005Y0083190D01*
X0077238Y0080888D02*
X0078005Y0080121D01*
X0081074Y0080121D01*
X0081842Y0078586D02*
X0081842Y0075517D01*
X0078772Y0078586D01*
X0078005Y0078586D01*
X0077238Y0077819D01*
X0077238Y0076284D01*
X0078005Y0075517D01*
X0078005Y0073982D02*
X0077238Y0073215D01*
X0077238Y0071681D01*
X0078005Y0070913D01*
X0078772Y0073982D02*
X0081842Y0070913D01*
X0081842Y0073982D01*
X0078772Y0073982D02*
X0078005Y0073982D01*
X0078801Y0066829D02*
X0080336Y0066829D01*
X0081103Y0066062D01*
X0078034Y0062992D01*
X0078801Y0062225D01*
X0080336Y0062225D01*
X0081103Y0062992D01*
X0081103Y0066062D01*
X0082638Y0065294D02*
X0084940Y0065294D01*
X0085707Y0064527D01*
X0085707Y0062225D01*
X0082638Y0062225D02*
X0082638Y0065294D01*
X0078801Y0066829D02*
X0078034Y0066062D01*
X0078034Y0062992D01*
X0076499Y0062225D02*
X0073430Y0062225D01*
X0074964Y0062225D02*
X0074964Y0066829D01*
X0073430Y0065294D01*
X0076901Y0057454D02*
X0076901Y0052850D01*
X0075367Y0052850D02*
X0078436Y0052850D01*
X0079971Y0053617D02*
X0083040Y0056687D01*
X0083040Y0053617D01*
X0082273Y0052850D01*
X0080738Y0052850D01*
X0079971Y0053617D01*
X0079971Y0056687D01*
X0080738Y0057454D01*
X0082273Y0057454D01*
X0083040Y0056687D01*
X0084575Y0055919D02*
X0086876Y0055919D01*
X0087644Y0055152D01*
X0087644Y0052850D01*
X0084575Y0052850D02*
X0084575Y0055919D01*
X0076901Y0057454D02*
X0075367Y0055919D01*
X0103488Y0048735D02*
X0104255Y0049502D01*
X0107324Y0046433D01*
X0108092Y0047200D01*
X0108092Y0048735D01*
X0107324Y0049502D01*
X0104255Y0049502D01*
X0103488Y0048735D02*
X0103488Y0047200D01*
X0104255Y0046433D01*
X0107324Y0046433D01*
X0108092Y0044898D02*
X0108092Y0041829D01*
X0105022Y0044898D01*
X0104255Y0044898D01*
X0103488Y0044131D01*
X0103488Y0042596D01*
X0104255Y0041829D01*
X0104255Y0040294D02*
X0103488Y0039527D01*
X0103488Y0037992D01*
X0104255Y0037225D01*
X0105022Y0040294D02*
X0108092Y0037225D01*
X0108092Y0040294D01*
X0105022Y0040294D02*
X0104255Y0040294D01*
X0081217Y0039638D02*
X0076613Y0039638D01*
X0078147Y0041940D02*
X0079682Y0039638D01*
X0081217Y0041940D01*
X0081217Y0038104D02*
X0081217Y0035034D01*
X0081217Y0036569D02*
X0076613Y0036569D01*
X0078147Y0035034D01*
X0058092Y0037225D02*
X0055022Y0040294D01*
X0054255Y0040294D01*
X0053488Y0039527D01*
X0053488Y0037992D01*
X0054255Y0037225D01*
X0058092Y0037225D02*
X0058092Y0040294D01*
X0008092Y0040294D02*
X0008092Y0037225D01*
X0005022Y0040294D01*
X0004255Y0040294D01*
X0003488Y0039527D01*
X0003488Y0037992D01*
X0004255Y0037225D01*
X0004255Y0041829D02*
X0003488Y0042596D01*
X0003488Y0044131D01*
X0004255Y0044898D01*
X0005022Y0044898D01*
X0008092Y0041829D01*
X0008092Y0044898D01*
X0007324Y0046433D02*
X0004255Y0046433D01*
X0003488Y0047200D01*
X0003488Y0048735D01*
X0004255Y0049502D01*
X0007324Y0046433D01*
X0008092Y0047200D01*
X0008092Y0048735D01*
X0007324Y0049502D01*
X0004255Y0049502D01*
X0103488Y0075010D02*
X0105022Y0073475D01*
X0103488Y0075010D02*
X0108092Y0075010D01*
X0108092Y0076544D02*
X0108092Y0073475D01*
X0108092Y0078079D02*
X0103488Y0078079D01*
X0105022Y0080381D02*
X0106557Y0078079D01*
X0108092Y0080381D01*
X0127238Y0080888D02*
X0127238Y0082423D01*
X0128005Y0083190D01*
X0131074Y0080121D01*
X0131842Y0080888D01*
X0131842Y0082423D01*
X0131074Y0083190D01*
X0128005Y0083190D01*
X0127238Y0080888D02*
X0128005Y0080121D01*
X0131074Y0080121D01*
X0131842Y0078586D02*
X0131842Y0075517D01*
X0128772Y0078586D01*
X0128005Y0078586D01*
X0127238Y0077819D01*
X0127238Y0076284D01*
X0128005Y0075517D01*
X0128005Y0073982D02*
X0127238Y0073215D01*
X0127238Y0071681D01*
X0128005Y0070913D01*
X0128772Y0073982D02*
X0131842Y0070913D01*
X0131842Y0073982D01*
X0128772Y0073982D02*
X0128005Y0073982D01*
X0128801Y0066829D02*
X0130336Y0066829D01*
X0131103Y0066062D01*
X0128034Y0062992D01*
X0128801Y0062225D01*
X0130336Y0062225D01*
X0131103Y0062992D01*
X0131103Y0066062D01*
X0132638Y0065294D02*
X0134940Y0065294D01*
X0135707Y0064527D01*
X0135707Y0062225D01*
X0132638Y0062225D02*
X0132638Y0065294D01*
X0128801Y0066829D02*
X0128034Y0066062D01*
X0128034Y0062992D01*
X0126499Y0062225D02*
X0123430Y0062225D01*
X0124964Y0062225D02*
X0124964Y0066829D01*
X0123430Y0065294D01*
X0126901Y0057454D02*
X0126901Y0052850D01*
X0125367Y0052850D02*
X0128436Y0052850D01*
X0129971Y0053617D02*
X0133040Y0056687D01*
X0133040Y0053617D01*
X0132273Y0052850D01*
X0130738Y0052850D01*
X0129971Y0053617D01*
X0129971Y0056687D01*
X0130738Y0057454D01*
X0132273Y0057454D01*
X0133040Y0056687D01*
X0134575Y0055919D02*
X0136876Y0055919D01*
X0137644Y0055152D01*
X0137644Y0052850D01*
X0134575Y0052850D02*
X0134575Y0055919D01*
X0126901Y0057454D02*
X0125367Y0055919D01*
X0155988Y0048735D02*
X0156755Y0049502D01*
X0159824Y0046433D01*
X0160592Y0047200D01*
X0160592Y0048735D01*
X0159824Y0049502D01*
X0156755Y0049502D01*
X0155988Y0048735D02*
X0155988Y0047200D01*
X0156755Y0046433D01*
X0159824Y0046433D01*
X0160592Y0044898D02*
X0160592Y0041829D01*
X0157522Y0044898D01*
X0156755Y0044898D01*
X0155988Y0044131D01*
X0155988Y0042596D01*
X0156755Y0041829D01*
X0156755Y0040294D02*
X0155988Y0039527D01*
X0155988Y0037992D01*
X0156755Y0037225D01*
X0157522Y0040294D02*
X0160592Y0037225D01*
X0160592Y0040294D01*
X0157522Y0040294D02*
X0156755Y0040294D01*
X0179113Y0039638D02*
X0183717Y0039638D01*
X0183717Y0038104D02*
X0183717Y0035034D01*
X0183717Y0036569D02*
X0179113Y0036569D01*
X0180647Y0035034D01*
X0182182Y0039638D02*
X0180647Y0041940D01*
X0182182Y0039638D02*
X0183717Y0041940D01*
X0208488Y0042596D02*
X0209255Y0041829D01*
X0208488Y0042596D02*
X0208488Y0044131D01*
X0209255Y0044898D01*
X0210022Y0044898D01*
X0213092Y0041829D01*
X0213092Y0044898D01*
X0212324Y0046433D02*
X0209255Y0049502D01*
X0212324Y0049502D01*
X0213092Y0048735D01*
X0213092Y0047200D01*
X0212324Y0046433D01*
X0209255Y0046433D01*
X0208488Y0047200D01*
X0208488Y0048735D01*
X0209255Y0049502D01*
X0190144Y0052850D02*
X0190144Y0055152D01*
X0189376Y0055919D01*
X0187075Y0055919D01*
X0187075Y0052850D01*
X0185540Y0053617D02*
X0184773Y0052850D01*
X0183238Y0052850D01*
X0182471Y0053617D01*
X0185540Y0056687D01*
X0185540Y0053617D01*
X0182471Y0053617D02*
X0182471Y0056687D01*
X0183238Y0057454D01*
X0184773Y0057454D01*
X0185540Y0056687D01*
X0179401Y0057454D02*
X0179401Y0052850D01*
X0177867Y0052850D02*
X0180936Y0052850D01*
X0177867Y0055919D02*
X0179401Y0057454D01*
X0178999Y0062225D02*
X0175930Y0062225D01*
X0177464Y0062225D02*
X0177464Y0066829D01*
X0175930Y0065294D01*
X0180534Y0066062D02*
X0181301Y0066829D01*
X0182836Y0066829D01*
X0183603Y0066062D01*
X0180534Y0062992D01*
X0181301Y0062225D01*
X0182836Y0062225D01*
X0183603Y0062992D01*
X0183603Y0066062D01*
X0185138Y0065294D02*
X0187440Y0065294D01*
X0188207Y0064527D01*
X0188207Y0062225D01*
X0185138Y0062225D02*
X0185138Y0065294D01*
X0180534Y0066062D02*
X0180534Y0062992D01*
X0180505Y0070913D02*
X0179738Y0071681D01*
X0179738Y0073215D01*
X0180505Y0073982D01*
X0181272Y0073982D01*
X0184342Y0070913D01*
X0184342Y0073982D01*
X0184342Y0075517D02*
X0181272Y0078586D01*
X0180505Y0078586D01*
X0179738Y0077819D01*
X0179738Y0076284D01*
X0180505Y0075517D01*
X0184342Y0075517D02*
X0184342Y0078586D01*
X0183574Y0080121D02*
X0180505Y0080121D01*
X0179738Y0080888D01*
X0179738Y0082423D01*
X0180505Y0083190D01*
X0183574Y0080121D01*
X0184342Y0080888D01*
X0184342Y0082423D01*
X0183574Y0083190D01*
X0180505Y0083190D01*
X0160592Y0080381D02*
X0159057Y0078079D01*
X0157522Y0080381D01*
X0155988Y0078079D02*
X0160592Y0078079D01*
X0160592Y0076544D02*
X0160592Y0073475D01*
X0160592Y0075010D02*
X0155988Y0075010D01*
X0157522Y0073475D01*
X0208488Y0075010D02*
X0210022Y0073475D01*
X0208488Y0075010D02*
X0213092Y0075010D01*
X0213092Y0076544D02*
X0213092Y0073475D01*
X0213092Y0078079D02*
X0208488Y0078079D01*
X0210022Y0080381D02*
X0211557Y0078079D01*
X0213092Y0080381D01*
X0232238Y0080888D02*
X0232238Y0082423D01*
X0233005Y0083190D01*
X0236074Y0080121D01*
X0236842Y0080888D01*
X0236842Y0082423D01*
X0236074Y0083190D01*
X0233005Y0083190D01*
X0232238Y0080888D02*
X0233005Y0080121D01*
X0236074Y0080121D01*
X0236842Y0078586D02*
X0236842Y0075517D01*
X0233772Y0078586D01*
X0233005Y0078586D01*
X0232238Y0077819D01*
X0232238Y0076284D01*
X0233005Y0075517D01*
X0233005Y0073982D02*
X0232238Y0073215D01*
X0232238Y0071681D01*
X0233005Y0070913D01*
X0233772Y0073982D02*
X0236842Y0070913D01*
X0236842Y0073982D01*
X0233772Y0073982D02*
X0233005Y0073982D01*
X0233801Y0066829D02*
X0235336Y0066829D01*
X0236103Y0066062D01*
X0233034Y0062992D01*
X0233801Y0062225D01*
X0235336Y0062225D01*
X0236103Y0062992D01*
X0236103Y0066062D01*
X0237638Y0065294D02*
X0239940Y0065294D01*
X0240707Y0064527D01*
X0240707Y0062225D01*
X0237638Y0062225D02*
X0237638Y0065294D01*
X0233801Y0066829D02*
X0233034Y0066062D01*
X0233034Y0062992D01*
X0231499Y0062225D02*
X0228430Y0062225D01*
X0229964Y0062225D02*
X0229964Y0066829D01*
X0228430Y0065294D01*
X0231901Y0057454D02*
X0231901Y0052850D01*
X0230367Y0052850D02*
X0233436Y0052850D01*
X0234971Y0053617D02*
X0238040Y0056687D01*
X0238040Y0053617D01*
X0237273Y0052850D01*
X0235738Y0052850D01*
X0234971Y0053617D01*
X0234971Y0056687D01*
X0235738Y0057454D01*
X0237273Y0057454D01*
X0238040Y0056687D01*
X0239575Y0055919D02*
X0241876Y0055919D01*
X0242644Y0055152D01*
X0242644Y0052850D01*
X0239575Y0052850D02*
X0239575Y0055919D01*
X0231901Y0057454D02*
X0230367Y0055919D01*
X0260988Y0048735D02*
X0261755Y0049502D01*
X0264824Y0046433D01*
X0265592Y0047200D01*
X0265592Y0048735D01*
X0264824Y0049502D01*
X0261755Y0049502D01*
X0260988Y0048735D02*
X0260988Y0047200D01*
X0261755Y0046433D01*
X0264824Y0046433D01*
X0265592Y0044898D02*
X0265592Y0041829D01*
X0262522Y0044898D01*
X0261755Y0044898D01*
X0260988Y0044131D01*
X0260988Y0042596D01*
X0261755Y0041829D01*
X0261755Y0040294D02*
X0260988Y0039527D01*
X0260988Y0037992D01*
X0261755Y0037225D01*
X0262522Y0040294D02*
X0265592Y0037225D01*
X0265592Y0040294D01*
X0262522Y0040294D02*
X0261755Y0040294D01*
X0284113Y0039638D02*
X0288717Y0039638D01*
X0288717Y0038104D02*
X0288717Y0035034D01*
X0288717Y0036569D02*
X0284113Y0036569D01*
X0285647Y0035034D01*
X0287182Y0039638D02*
X0285647Y0041940D01*
X0287182Y0039638D02*
X0288717Y0041940D01*
X0313488Y0042596D02*
X0314255Y0041829D01*
X0313488Y0042596D02*
X0313488Y0044131D01*
X0314255Y0044898D01*
X0315022Y0044898D01*
X0318092Y0041829D01*
X0318092Y0044898D01*
X0317324Y0046433D02*
X0314255Y0049502D01*
X0317324Y0049502D01*
X0318092Y0048735D01*
X0318092Y0047200D01*
X0317324Y0046433D01*
X0314255Y0046433D01*
X0313488Y0047200D01*
X0313488Y0048735D01*
X0314255Y0049502D01*
X0295144Y0052850D02*
X0295144Y0055152D01*
X0294376Y0055919D01*
X0292075Y0055919D01*
X0292075Y0052850D01*
X0290540Y0053617D02*
X0289773Y0052850D01*
X0288238Y0052850D01*
X0287471Y0053617D01*
X0290540Y0056687D01*
X0290540Y0053617D01*
X0287471Y0053617D02*
X0287471Y0056687D01*
X0288238Y0057454D01*
X0289773Y0057454D01*
X0290540Y0056687D01*
X0284401Y0057454D02*
X0284401Y0052850D01*
X0282867Y0052850D02*
X0285936Y0052850D01*
X0282867Y0055919D02*
X0284401Y0057454D01*
X0283999Y0062225D02*
X0280930Y0062225D01*
X0282464Y0062225D02*
X0282464Y0066829D01*
X0280930Y0065294D01*
X0285534Y0066062D02*
X0286301Y0066829D01*
X0287836Y0066829D01*
X0288603Y0066062D01*
X0285534Y0062992D01*
X0286301Y0062225D01*
X0287836Y0062225D01*
X0288603Y0062992D01*
X0288603Y0066062D01*
X0290138Y0065294D02*
X0292440Y0065294D01*
X0293207Y0064527D01*
X0293207Y0062225D01*
X0290138Y0062225D02*
X0290138Y0065294D01*
X0285534Y0066062D02*
X0285534Y0062992D01*
X0285505Y0070913D02*
X0284738Y0071681D01*
X0284738Y0073215D01*
X0285505Y0073982D01*
X0286272Y0073982D01*
X0289342Y0070913D01*
X0289342Y0073982D01*
X0289342Y0075517D02*
X0286272Y0078586D01*
X0285505Y0078586D01*
X0284738Y0077819D01*
X0284738Y0076284D01*
X0285505Y0075517D01*
X0289342Y0075517D02*
X0289342Y0078586D01*
X0288574Y0080121D02*
X0285505Y0080121D01*
X0284738Y0080888D01*
X0284738Y0082423D01*
X0285505Y0083190D01*
X0288574Y0080121D01*
X0289342Y0080888D01*
X0289342Y0082423D01*
X0288574Y0083190D01*
X0285505Y0083190D01*
X0265592Y0080381D02*
X0264057Y0078079D01*
X0262522Y0080381D01*
X0260988Y0078079D02*
X0265592Y0078079D01*
X0265592Y0076544D02*
X0265592Y0073475D01*
X0265592Y0075010D02*
X0260988Y0075010D01*
X0262522Y0073475D01*
X0261918Y0083359D02*
X0261918Y0086428D01*
X0261918Y0084893D02*
X0257314Y0084893D01*
X0258848Y0083359D01*
X0258081Y0087963D02*
X0257314Y0088730D01*
X0257314Y0090265D01*
X0258081Y0091032D01*
X0261150Y0087963D01*
X0261918Y0088730D01*
X0261918Y0090265D01*
X0261150Y0091032D01*
X0258081Y0091032D01*
X0258081Y0092566D02*
X0257314Y0093334D01*
X0257314Y0094868D01*
X0258081Y0095636D01*
X0261150Y0092566D01*
X0261918Y0093334D01*
X0261918Y0094868D01*
X0261150Y0095636D01*
X0258081Y0095636D01*
X0258848Y0097170D02*
X0258848Y0099472D01*
X0259616Y0100240D01*
X0261918Y0100240D01*
X0261918Y0097170D02*
X0258848Y0097170D01*
X0258081Y0092566D02*
X0261150Y0092566D01*
X0261150Y0087963D02*
X0258081Y0087963D01*
X0313488Y0078079D02*
X0318092Y0078079D01*
X0318092Y0076544D02*
X0318092Y0073475D01*
X0318092Y0075010D02*
X0313488Y0075010D01*
X0315022Y0073475D01*
X0316557Y0078079D02*
X0315022Y0080381D01*
X0316557Y0078079D02*
X0318092Y0080381D01*
X0337238Y0080888D02*
X0337238Y0082423D01*
X0338005Y0083190D01*
X0341074Y0080121D01*
X0341842Y0080888D01*
X0341842Y0082423D01*
X0341074Y0083190D01*
X0338005Y0083190D01*
X0337238Y0080888D02*
X0338005Y0080121D01*
X0341074Y0080121D01*
X0341842Y0078586D02*
X0341842Y0075517D01*
X0338772Y0078586D01*
X0338005Y0078586D01*
X0337238Y0077819D01*
X0337238Y0076284D01*
X0338005Y0075517D01*
X0338005Y0073982D02*
X0337238Y0073215D01*
X0337238Y0071681D01*
X0338005Y0070913D01*
X0338772Y0073982D02*
X0341842Y0070913D01*
X0341842Y0073982D01*
X0338772Y0073982D02*
X0338005Y0073982D01*
X0338801Y0066829D02*
X0340336Y0066829D01*
X0341103Y0066062D01*
X0338034Y0062992D01*
X0338801Y0062225D01*
X0340336Y0062225D01*
X0341103Y0062992D01*
X0341103Y0066062D01*
X0342638Y0065294D02*
X0344940Y0065294D01*
X0345707Y0064527D01*
X0345707Y0062225D01*
X0342638Y0062225D02*
X0342638Y0065294D01*
X0338801Y0066829D02*
X0338034Y0066062D01*
X0338034Y0062992D01*
X0336499Y0062225D02*
X0333430Y0062225D01*
X0334964Y0062225D02*
X0334964Y0066829D01*
X0333430Y0065294D01*
X0336901Y0057454D02*
X0336901Y0052850D01*
X0335367Y0052850D02*
X0338436Y0052850D01*
X0339971Y0053617D02*
X0343040Y0056687D01*
X0343040Y0053617D01*
X0342273Y0052850D01*
X0340738Y0052850D01*
X0339971Y0053617D01*
X0339971Y0056687D01*
X0340738Y0057454D01*
X0342273Y0057454D01*
X0343040Y0056687D01*
X0344575Y0055919D02*
X0346876Y0055919D01*
X0347644Y0055152D01*
X0347644Y0052850D01*
X0344575Y0052850D02*
X0344575Y0055919D01*
X0336901Y0057454D02*
X0335367Y0055919D01*
X0363488Y0048735D02*
X0364255Y0049502D01*
X0367324Y0046433D01*
X0368092Y0047200D01*
X0368092Y0048735D01*
X0367324Y0049502D01*
X0364255Y0049502D01*
X0363488Y0048735D02*
X0363488Y0047200D01*
X0364255Y0046433D01*
X0367324Y0046433D01*
X0368092Y0044898D02*
X0368092Y0041829D01*
X0365022Y0044898D01*
X0364255Y0044898D01*
X0363488Y0044131D01*
X0363488Y0042596D01*
X0364255Y0041829D01*
X0364255Y0040294D02*
X0363488Y0039527D01*
X0363488Y0037992D01*
X0364255Y0037225D01*
X0365022Y0040294D02*
X0368092Y0037225D01*
X0368092Y0040294D01*
X0365022Y0040294D02*
X0364255Y0040294D01*
X0386613Y0039638D02*
X0391217Y0039638D01*
X0391217Y0038104D02*
X0391217Y0035034D01*
X0391217Y0036569D02*
X0386613Y0036569D01*
X0388147Y0035034D01*
X0389682Y0039638D02*
X0388147Y0041940D01*
X0389682Y0039638D02*
X0391217Y0041940D01*
X0408029Y0049402D02*
X0408029Y0050337D01*
X0408496Y0050804D01*
X0408963Y0050804D01*
X0409430Y0050337D01*
X0409898Y0050804D01*
X0410365Y0050804D01*
X0410832Y0050337D01*
X0410832Y0049402D01*
X0410365Y0048935D01*
X0409430Y0049869D02*
X0409430Y0050337D01*
X0408496Y0048935D02*
X0408029Y0049402D01*
X0397644Y0052850D02*
X0397644Y0055152D01*
X0396876Y0055919D01*
X0394575Y0055919D01*
X0394575Y0052850D01*
X0393040Y0053617D02*
X0392273Y0052850D01*
X0390738Y0052850D01*
X0389971Y0053617D01*
X0393040Y0056687D01*
X0393040Y0053617D01*
X0389971Y0053617D02*
X0389971Y0056687D01*
X0390738Y0057454D01*
X0392273Y0057454D01*
X0393040Y0056687D01*
X0386901Y0057454D02*
X0386901Y0052850D01*
X0385367Y0052850D02*
X0388436Y0052850D01*
X0385367Y0055919D02*
X0386901Y0057454D01*
X0386499Y0062225D02*
X0383430Y0062225D01*
X0384964Y0062225D02*
X0384964Y0066829D01*
X0383430Y0065294D01*
X0388034Y0066062D02*
X0388801Y0066829D01*
X0390336Y0066829D01*
X0391103Y0066062D01*
X0388034Y0062992D01*
X0388801Y0062225D01*
X0390336Y0062225D01*
X0391103Y0062992D01*
X0391103Y0066062D01*
X0392638Y0065294D02*
X0394940Y0065294D01*
X0395707Y0064527D01*
X0395707Y0062225D01*
X0392638Y0062225D02*
X0392638Y0065294D01*
X0388034Y0066062D02*
X0388034Y0062992D01*
X0407992Y0059437D02*
X0407992Y0058502D01*
X0408459Y0058035D01*
X0407992Y0059437D02*
X0408459Y0059904D01*
X0408926Y0059904D01*
X0410795Y0058035D01*
X0410795Y0059904D01*
X0419828Y0058995D02*
X0419828Y0056693D01*
X0424432Y0056693D01*
X0424432Y0058995D01*
X0423664Y0059762D01*
X0420595Y0059762D01*
X0419828Y0058995D01*
X0419828Y0061297D02*
X0419828Y0063599D01*
X0420595Y0064366D01*
X0421362Y0064366D01*
X0422130Y0063599D01*
X0422130Y0061297D01*
X0424432Y0061297D02*
X0424432Y0063599D01*
X0423664Y0064366D01*
X0422897Y0064366D01*
X0422130Y0063599D01*
X0422716Y0065874D02*
X0421182Y0065874D01*
X0420414Y0066641D01*
X0423484Y0069710D01*
X0423484Y0066641D01*
X0422716Y0065874D01*
X0420414Y0066641D02*
X0420414Y0069710D01*
X0421182Y0070478D01*
X0422716Y0070478D01*
X0423484Y0069710D01*
X0425018Y0068943D02*
X0425018Y0066641D01*
X0425786Y0065874D01*
X0428088Y0065874D01*
X0428088Y0068943D01*
X0418880Y0065874D02*
X0415811Y0065874D01*
X0417345Y0065874D02*
X0417345Y0070478D01*
X0415811Y0068943D01*
X0410832Y0068415D02*
X0410832Y0066547D01*
X0410832Y0067481D02*
X0408029Y0067481D01*
X0408963Y0066547D01*
X0419828Y0061297D02*
X0424432Y0061297D01*
X0423664Y0055158D02*
X0424432Y0054391D01*
X0424432Y0052856D01*
X0423664Y0052089D01*
X0423664Y0050554D02*
X0424432Y0049787D01*
X0424432Y0048252D01*
X0423664Y0047485D01*
X0420595Y0050554D01*
X0423664Y0050554D01*
X0420595Y0050554D02*
X0419828Y0049787D01*
X0419828Y0048252D01*
X0420595Y0047485D01*
X0423664Y0047485D01*
X0420595Y0045950D02*
X0423664Y0042881D01*
X0424432Y0042881D01*
X0424432Y0041346D02*
X0424432Y0038277D01*
X0424432Y0039812D02*
X0419828Y0039812D01*
X0421362Y0038277D01*
X0420595Y0036742D02*
X0422130Y0036742D01*
X0422897Y0035975D01*
X0422897Y0033673D01*
X0424432Y0033673D02*
X0419828Y0033673D01*
X0419828Y0035975D01*
X0420595Y0036742D01*
X0420595Y0032139D02*
X0419828Y0031371D01*
X0419828Y0029837D01*
X0420595Y0029069D01*
X0423664Y0029069D01*
X0424432Y0029837D01*
X0424432Y0031371D01*
X0423664Y0032139D01*
X0422172Y0029836D02*
X0422939Y0029068D01*
X0419870Y0025999D01*
X0420637Y0025232D01*
X0422172Y0025232D01*
X0422939Y0025999D01*
X0422939Y0029068D01*
X0422172Y0029836D02*
X0420637Y0029836D01*
X0419870Y0029068D01*
X0419870Y0025999D01*
X0421362Y0026000D02*
X0419828Y0027535D01*
X0424432Y0027535D01*
X0424474Y0028301D02*
X0424474Y0025999D01*
X0425241Y0025232D01*
X0427543Y0025232D01*
X0427543Y0028301D01*
X0424432Y0024465D02*
X0419828Y0024465D01*
X0421362Y0026000D01*
X0418336Y0025232D02*
X0415266Y0025232D01*
X0416801Y0025232D02*
X0416801Y0029836D01*
X0415266Y0028301D01*
X0419828Y0042881D02*
X0419828Y0045950D01*
X0420595Y0045950D01*
X0435029Y0046855D02*
X0436430Y0045454D01*
X0436430Y0047322D01*
X0435029Y0046855D02*
X0437832Y0046855D01*
X0422130Y0053623D02*
X0422130Y0054391D01*
X0422897Y0055158D01*
X0423664Y0055158D01*
X0422130Y0054391D02*
X0421362Y0055158D01*
X0420595Y0055158D01*
X0419828Y0054391D01*
X0419828Y0052856D01*
X0420595Y0052089D01*
X0391842Y0070913D02*
X0388772Y0073982D01*
X0388005Y0073982D01*
X0387238Y0073215D01*
X0387238Y0071681D01*
X0388005Y0070913D01*
X0391842Y0070913D02*
X0391842Y0073982D01*
X0391842Y0075517D02*
X0388772Y0078586D01*
X0388005Y0078586D01*
X0387238Y0077819D01*
X0387238Y0076284D01*
X0388005Y0075517D01*
X0391842Y0075517D02*
X0391842Y0078586D01*
X0391074Y0080121D02*
X0388005Y0080121D01*
X0387238Y0080888D01*
X0387238Y0082423D01*
X0388005Y0083190D01*
X0391074Y0080121D01*
X0391842Y0080888D01*
X0391842Y0082423D01*
X0391074Y0083190D01*
X0388005Y0083190D01*
X0368092Y0080381D02*
X0366557Y0078079D01*
X0365022Y0080381D01*
X0363488Y0078079D02*
X0368092Y0078079D01*
X0368092Y0076544D02*
X0368092Y0073475D01*
X0368092Y0075010D02*
X0363488Y0075010D01*
X0365022Y0073475D01*
X0364280Y0096139D02*
X0367349Y0096139D01*
X0365815Y0096139D02*
X0365815Y0100743D01*
X0364280Y0099208D01*
X0368884Y0099975D02*
X0369651Y0100743D01*
X0371186Y0100743D01*
X0371953Y0099975D01*
X0368884Y0096906D01*
X0369651Y0096139D01*
X0371186Y0096139D01*
X0371953Y0096906D01*
X0371953Y0099975D01*
X0373488Y0100743D02*
X0373488Y0096139D01*
X0373488Y0097673D02*
X0375790Y0099208D01*
X0373488Y0097673D02*
X0375790Y0096139D01*
X0368884Y0096906D02*
X0368884Y0099975D01*
X0328539Y0114496D02*
X0327772Y0113729D01*
X0327005Y0113729D01*
X0326237Y0114496D01*
X0326237Y0116031D01*
X0327005Y0116798D01*
X0327772Y0116798D01*
X0328539Y0116031D01*
X0328539Y0114496D01*
X0326237Y0114496D02*
X0325470Y0113729D01*
X0324703Y0113729D01*
X0323935Y0114496D01*
X0323935Y0116031D01*
X0324703Y0116798D01*
X0325470Y0116798D01*
X0326237Y0116031D01*
X0323935Y0118333D02*
X0325470Y0119867D01*
X0323935Y0121402D01*
X0328539Y0121402D01*
X0328539Y0122937D02*
X0323935Y0122937D01*
X0326237Y0122937D02*
X0326237Y0126006D01*
X0325470Y0127541D02*
X0325470Y0130610D01*
X0328539Y0127541D01*
X0328539Y0130610D01*
X0328539Y0126006D02*
X0323935Y0126006D01*
X0323935Y0118333D02*
X0328539Y0118333D01*
X0351758Y0119208D02*
X0354827Y0122278D01*
X0354827Y0123045D01*
X0354060Y0123812D01*
X0352525Y0123812D01*
X0351758Y0123045D01*
X0356362Y0123045D02*
X0357129Y0123812D01*
X0358664Y0123812D01*
X0359431Y0123045D01*
X0359431Y0122278D01*
X0356362Y0119208D01*
X0359431Y0119208D01*
X0360966Y0119208D02*
X0363268Y0119208D01*
X0364035Y0119976D01*
X0364035Y0121510D01*
X0363268Y0122278D01*
X0360966Y0122278D01*
X0360966Y0117674D01*
X0361321Y0118249D02*
X0356717Y0118249D01*
X0358252Y0116715D01*
X0361321Y0116715D02*
X0361321Y0119784D01*
X0361321Y0121319D02*
X0356717Y0121319D01*
X0358252Y0122853D01*
X0356717Y0124388D01*
X0361321Y0124388D01*
X0365570Y0123812D02*
X0368639Y0123812D01*
X0365570Y0123812D02*
X0365570Y0119208D01*
X0365570Y0121510D02*
X0367104Y0121510D01*
X0354827Y0119208D02*
X0351758Y0119208D01*
X0361016Y0128424D02*
X0361016Y0133028D01*
X0363318Y0133028D01*
X0364085Y0132260D01*
X0364085Y0130726D01*
X0363318Y0129958D01*
X0361016Y0129958D01*
X0359481Y0129958D02*
X0356412Y0129958D01*
X0359481Y0133028D01*
X0359481Y0133795D01*
X0358714Y0134562D01*
X0357179Y0134562D01*
X0356412Y0133795D01*
X0354877Y0133795D02*
X0354110Y0134562D01*
X0352575Y0134562D01*
X0351808Y0133795D01*
X0354877Y0133795D02*
X0354877Y0133028D01*
X0351808Y0129958D01*
X0354877Y0129958D01*
X0365620Y0129958D02*
X0365620Y0134562D01*
X0368689Y0134562D01*
X0367154Y0132260D02*
X0365620Y0132260D01*
X0351658Y0139212D02*
X0349356Y0141514D01*
X0348588Y0140747D02*
X0351658Y0143816D01*
X0348588Y0143816D02*
X0348588Y0139212D01*
X0347054Y0139212D02*
X0343984Y0139212D01*
X0343984Y0143816D01*
X0342450Y0143049D02*
X0342450Y0142281D01*
X0341682Y0141514D01*
X0339380Y0141514D01*
X0339380Y0139212D02*
X0339380Y0143816D01*
X0341682Y0143816D01*
X0342450Y0143049D01*
X0341682Y0141514D02*
X0342450Y0140747D01*
X0342450Y0139980D01*
X0341682Y0139212D01*
X0339380Y0139212D01*
X0335662Y0139217D02*
X0333360Y0140752D01*
X0335662Y0142286D01*
X0333360Y0143821D02*
X0333360Y0139217D01*
X0331825Y0139984D02*
X0331058Y0139217D01*
X0329523Y0139217D01*
X0328756Y0139984D01*
X0331825Y0143054D01*
X0331825Y0139984D01*
X0328756Y0139984D02*
X0328756Y0143054D01*
X0329523Y0143821D01*
X0331058Y0143821D01*
X0331825Y0143054D01*
X0325687Y0143821D02*
X0325687Y0139217D01*
X0327221Y0139217D02*
X0324152Y0139217D01*
X0324152Y0142286D02*
X0325687Y0143821D01*
X0358142Y0154062D02*
X0358142Y0158666D01*
X0360444Y0158666D01*
X0361211Y0157898D01*
X0361211Y0156364D01*
X0360444Y0155596D01*
X0358142Y0155596D01*
X0359677Y0155596D02*
X0361211Y0154062D01*
X0362746Y0154062D02*
X0365815Y0154062D01*
X0367350Y0154062D02*
X0369652Y0154062D01*
X0370419Y0154829D01*
X0370419Y0157898D01*
X0369652Y0158666D01*
X0367350Y0158666D01*
X0367350Y0154062D01*
X0362746Y0154062D02*
X0362746Y0158666D01*
X0365815Y0158666D01*
X0364281Y0156364D02*
X0362746Y0156364D01*
X0372742Y0157061D02*
X0374276Y0158596D01*
X0374276Y0153992D01*
X0372742Y0153992D02*
X0375811Y0153992D01*
X0377346Y0154759D02*
X0378113Y0153992D01*
X0379648Y0153992D01*
X0380415Y0154759D01*
X0380415Y0157828D01*
X0377346Y0154759D01*
X0377346Y0157828D01*
X0378113Y0158596D01*
X0379648Y0158596D01*
X0380415Y0157828D01*
X0381950Y0158596D02*
X0381950Y0153992D01*
X0381950Y0155526D02*
X0384252Y0153992D01*
X0381950Y0155526D02*
X0384252Y0157061D01*
X0462982Y0148817D02*
X0462982Y0144213D01*
X0466052Y0144213D02*
X0466052Y0148817D01*
X0464517Y0147282D01*
X0462982Y0148817D01*
X0467586Y0148817D02*
X0469121Y0148817D01*
X0468354Y0148817D02*
X0468354Y0144213D01*
X0469121Y0144213D02*
X0467586Y0144213D01*
X0470656Y0144213D02*
X0470656Y0148817D01*
X0473725Y0144213D01*
X0473725Y0148817D01*
X0475260Y0148817D02*
X0476794Y0148817D01*
X0476027Y0148817D02*
X0476027Y0144213D01*
X0475260Y0144213D02*
X0476794Y0144213D01*
X0482933Y0144980D02*
X0483700Y0144213D01*
X0485235Y0144213D01*
X0486002Y0144980D01*
X0486002Y0148817D01*
X0487537Y0148050D02*
X0487537Y0147282D01*
X0488304Y0146515D01*
X0489839Y0146515D01*
X0490606Y0145748D01*
X0490606Y0144980D01*
X0489839Y0144213D01*
X0488304Y0144213D01*
X0487537Y0144980D01*
X0482933Y0144980D02*
X0482933Y0148817D01*
X0481398Y0146515D02*
X0478329Y0146515D01*
X0487537Y0148050D02*
X0488304Y0148817D01*
X0489839Y0148817D01*
X0490606Y0148050D01*
X0492141Y0148817D02*
X0494443Y0148817D01*
X0495210Y0148050D01*
X0495210Y0147282D01*
X0494443Y0146515D01*
X0492141Y0146515D01*
X0494443Y0146515D02*
X0495210Y0145748D01*
X0495210Y0144980D01*
X0494443Y0144213D01*
X0492141Y0144213D01*
X0492141Y0148817D01*
X0496425Y0136637D02*
X0502345Y0136637D01*
X0502345Y0106389D01*
X0496425Y0106389D01*
X0497031Y0110681D02*
X0486199Y0109863D01*
X0486199Y0110681D01*
X0495600Y0111703D01*
X0495600Y0113747D01*
X0486199Y0114768D01*
X0486199Y0115586D01*
X0497031Y0114564D01*
X0497097Y0114557D01*
X0497162Y0114546D01*
X0497227Y0114532D01*
X0497290Y0114514D01*
X0497353Y0114492D01*
X0497414Y0114467D01*
X0497474Y0114439D01*
X0497532Y0114407D01*
X0497588Y0114371D01*
X0497642Y0114333D01*
X0497693Y0114292D01*
X0497742Y0114248D01*
X0497789Y0114201D01*
X0497833Y0114151D01*
X0497874Y0114099D01*
X0497912Y0114045D01*
X0497947Y0113989D01*
X0497978Y0113931D01*
X0498006Y0113871D01*
X0498031Y0113809D01*
X0498052Y0113747D01*
X0498052Y0111498D02*
X0498031Y0111436D01*
X0498006Y0111374D01*
X0497978Y0111314D01*
X0497947Y0111256D01*
X0497912Y0111200D01*
X0497874Y0111146D01*
X0497833Y0111094D01*
X0497789Y0111044D01*
X0497742Y0110997D01*
X0497693Y0110953D01*
X0497642Y0110912D01*
X0497588Y0110874D01*
X0497532Y0110838D01*
X0497474Y0110806D01*
X0497414Y0110778D01*
X0497353Y0110753D01*
X0497290Y0110731D01*
X0497227Y0110713D01*
X0497162Y0110699D01*
X0497097Y0110688D01*
X0497031Y0110681D01*
X0498052Y0111498D02*
X0498086Y0111613D01*
X0498116Y0111730D01*
X0498142Y0111847D01*
X0498164Y0111965D01*
X0498183Y0112083D01*
X0498198Y0112203D01*
X0498209Y0112322D01*
X0498217Y0112442D01*
X0498221Y0112562D01*
X0498221Y0112682D01*
X0498217Y0112802D01*
X0498209Y0112922D01*
X0498198Y0113041D01*
X0498183Y0113161D01*
X0498164Y0113279D01*
X0498142Y0113397D01*
X0498116Y0113514D01*
X0498086Y0113631D01*
X0498052Y0113746D01*
X0497030Y0116608D02*
X0481089Y0117425D01*
X0481031Y0117430D01*
X0480975Y0117439D01*
X0480918Y0117452D01*
X0480863Y0117468D01*
X0480809Y0117488D01*
X0480757Y0117511D01*
X0480706Y0117538D01*
X0480657Y0117569D01*
X0480610Y0117602D01*
X0480566Y0117638D01*
X0480523Y0117678D01*
X0480484Y0117720D01*
X0480448Y0117764D01*
X0480414Y0117811D01*
X0480384Y0117860D01*
X0480357Y0117911D01*
X0480334Y0117964D01*
X0480314Y0118018D01*
X0480298Y0118073D01*
X0480285Y0118129D01*
X0480276Y0118186D01*
X0480271Y0118243D01*
X0480271Y0124782D01*
X0480276Y0124839D01*
X0480285Y0124896D01*
X0480298Y0124952D01*
X0480314Y0125008D01*
X0480334Y0125062D01*
X0480357Y0125114D01*
X0480384Y0125165D01*
X0480414Y0125214D01*
X0480448Y0125261D01*
X0480484Y0125305D01*
X0480523Y0125347D01*
X0480565Y0125387D01*
X0480610Y0125423D01*
X0480657Y0125456D01*
X0480706Y0125487D01*
X0480757Y0125513D01*
X0480809Y0125537D01*
X0480863Y0125557D01*
X0480918Y0125573D01*
X0480974Y0125586D01*
X0481031Y0125595D01*
X0481088Y0125600D01*
X0481089Y0125600D02*
X0497030Y0126418D01*
X0497031Y0126417D02*
X0497087Y0126415D01*
X0497142Y0126409D01*
X0497197Y0126400D01*
X0497251Y0126387D01*
X0497305Y0126370D01*
X0497356Y0126349D01*
X0497407Y0126325D01*
X0497456Y0126298D01*
X0497502Y0126267D01*
X0497547Y0126234D01*
X0497589Y0126197D01*
X0497628Y0126158D01*
X0497665Y0126116D01*
X0497698Y0126071D01*
X0497729Y0126025D01*
X0497756Y0125976D01*
X0497780Y0125925D01*
X0497801Y0125874D01*
X0497818Y0125820D01*
X0497831Y0125766D01*
X0497840Y0125711D01*
X0497846Y0125656D01*
X0497848Y0125600D01*
X0497846Y0125544D01*
X0497840Y0125489D01*
X0497831Y0125434D01*
X0497818Y0125380D01*
X0497801Y0125326D01*
X0497780Y0125275D01*
X0497756Y0125224D01*
X0497729Y0125175D01*
X0497698Y0125129D01*
X0497665Y0125084D01*
X0497628Y0125042D01*
X0497589Y0125003D01*
X0497547Y0124966D01*
X0497502Y0124933D01*
X0497456Y0124902D01*
X0497407Y0124875D01*
X0497356Y0124851D01*
X0497305Y0124830D01*
X0497251Y0124813D01*
X0497197Y0124800D01*
X0497142Y0124791D01*
X0497087Y0124785D01*
X0497031Y0124783D01*
X0497031Y0124782D02*
X0483541Y0123965D01*
X0483541Y0119060D01*
X0497031Y0118243D01*
X0497087Y0118241D01*
X0497142Y0118235D01*
X0497197Y0118226D01*
X0497251Y0118213D01*
X0497305Y0118196D01*
X0497356Y0118175D01*
X0497407Y0118151D01*
X0497456Y0118124D01*
X0497502Y0118093D01*
X0497547Y0118060D01*
X0497589Y0118023D01*
X0497628Y0117984D01*
X0497665Y0117942D01*
X0497698Y0117897D01*
X0497729Y0117851D01*
X0497756Y0117802D01*
X0497780Y0117751D01*
X0497801Y0117700D01*
X0497818Y0117646D01*
X0497831Y0117592D01*
X0497840Y0117537D01*
X0497846Y0117482D01*
X0497848Y0117426D01*
X0497848Y0117425D01*
X0497846Y0117369D01*
X0497840Y0117314D01*
X0497831Y0117259D01*
X0497818Y0117205D01*
X0497801Y0117151D01*
X0497780Y0117100D01*
X0497756Y0117049D01*
X0497729Y0117000D01*
X0497698Y0116954D01*
X0497665Y0116909D01*
X0497628Y0116867D01*
X0497589Y0116828D01*
X0497547Y0116791D01*
X0497502Y0116758D01*
X0497456Y0116727D01*
X0497407Y0116700D01*
X0497356Y0116676D01*
X0497305Y0116655D01*
X0497251Y0116638D01*
X0497197Y0116625D01*
X0497142Y0116616D01*
X0497087Y0116610D01*
X0497031Y0116608D01*
X0476797Y0114564D02*
X0476797Y0128462D01*
X0476797Y0128461D02*
X0476795Y0128523D01*
X0476789Y0128584D01*
X0476780Y0128645D01*
X0476767Y0128706D01*
X0476750Y0128765D01*
X0476730Y0128823D01*
X0476707Y0128880D01*
X0476680Y0128936D01*
X0476649Y0128990D01*
X0476616Y0129041D01*
X0476579Y0129091D01*
X0476540Y0129138D01*
X0476497Y0129183D01*
X0476452Y0129226D01*
X0476405Y0129265D01*
X0476355Y0129302D01*
X0476304Y0129335D01*
X0476250Y0129366D01*
X0476194Y0129393D01*
X0476137Y0129416D01*
X0476079Y0129436D01*
X0476020Y0129453D01*
X0475959Y0129466D01*
X0475898Y0129475D01*
X0475837Y0129481D01*
X0475775Y0129483D01*
X0475720Y0129481D01*
X0475664Y0129475D01*
X0475609Y0129466D01*
X0475555Y0129453D01*
X0475502Y0129436D01*
X0475450Y0129415D01*
X0475399Y0129391D01*
X0475351Y0129364D01*
X0475304Y0129334D01*
X0475259Y0129300D01*
X0475217Y0129263D01*
X0475178Y0129224D01*
X0475141Y0129182D01*
X0475107Y0129137D01*
X0475077Y0129090D01*
X0475050Y0129042D01*
X0475026Y0128991D01*
X0475005Y0128939D01*
X0474988Y0128886D01*
X0474975Y0128832D01*
X0474966Y0128777D01*
X0474960Y0128721D01*
X0474958Y0128666D01*
X0474958Y0114360D01*
X0474958Y0114359D02*
X0474960Y0114304D01*
X0474966Y0114248D01*
X0474975Y0114193D01*
X0474988Y0114139D01*
X0475005Y0114086D01*
X0475026Y0114034D01*
X0475050Y0113983D01*
X0475077Y0113935D01*
X0475107Y0113888D01*
X0475141Y0113843D01*
X0475178Y0113801D01*
X0475217Y0113762D01*
X0475259Y0113725D01*
X0475304Y0113691D01*
X0475351Y0113661D01*
X0475399Y0113634D01*
X0475450Y0113610D01*
X0475502Y0113589D01*
X0475555Y0113572D01*
X0475609Y0113559D01*
X0475664Y0113550D01*
X0475720Y0113544D01*
X0475775Y0113542D01*
X0475775Y0113542D01*
X0475837Y0113544D01*
X0475899Y0113549D01*
X0475960Y0113559D01*
X0476020Y0113572D01*
X0476079Y0113588D01*
X0476138Y0113608D01*
X0476195Y0113632D01*
X0476250Y0113659D01*
X0476304Y0113689D01*
X0476356Y0113723D01*
X0476405Y0113760D01*
X0476453Y0113799D01*
X0476498Y0113841D01*
X0476540Y0113886D01*
X0476579Y0113934D01*
X0476616Y0113983D01*
X0476650Y0114035D01*
X0476680Y0114089D01*
X0476707Y0114144D01*
X0476731Y0114201D01*
X0476751Y0114260D01*
X0476767Y0114319D01*
X0476780Y0114379D01*
X0476790Y0114440D01*
X0476795Y0114502D01*
X0476797Y0114564D01*
X0472914Y0113542D02*
X0465556Y0113542D01*
X0465351Y0113542D02*
X0465351Y0109659D01*
X0465556Y0109659D02*
X0466987Y0109659D01*
X0476184Y0106389D02*
X0485275Y0106389D01*
X0477001Y0105571D02*
X0477001Y0104958D01*
X0477001Y0105571D02*
X0476999Y0105627D01*
X0476993Y0105682D01*
X0476984Y0105737D01*
X0476971Y0105791D01*
X0476954Y0105845D01*
X0476933Y0105896D01*
X0476909Y0105947D01*
X0476882Y0105996D01*
X0476851Y0106042D01*
X0476818Y0106087D01*
X0476781Y0106129D01*
X0476742Y0106168D01*
X0476700Y0106205D01*
X0476655Y0106238D01*
X0476609Y0106269D01*
X0476560Y0106296D01*
X0476509Y0106320D01*
X0476458Y0106341D01*
X0476404Y0106358D01*
X0476350Y0106371D01*
X0476295Y0106380D01*
X0476240Y0106386D01*
X0476184Y0106388D01*
X0459132Y0103680D02*
X0454528Y0103680D01*
X0454528Y0106749D01*
X0456830Y0105214D02*
X0456830Y0103680D01*
X0456062Y0102145D02*
X0459132Y0102145D01*
X0459132Y0099843D01*
X0458364Y0099076D01*
X0456062Y0099076D01*
X0455295Y0097541D02*
X0454528Y0096774D01*
X0454528Y0095239D01*
X0455295Y0094472D01*
X0458364Y0094472D01*
X0455295Y0097541D01*
X0458364Y0097541D01*
X0459132Y0096774D01*
X0459132Y0095239D01*
X0458364Y0094472D01*
X0459132Y0092937D02*
X0459132Y0089868D01*
X0459132Y0091402D02*
X0454528Y0091402D01*
X0456062Y0089868D01*
X0450485Y0106729D02*
X0447415Y0106729D01*
X0450485Y0109798D01*
X0450485Y0110566D01*
X0449717Y0111333D01*
X0448183Y0111333D01*
X0447415Y0110566D01*
X0445881Y0110566D02*
X0445113Y0111333D01*
X0443579Y0111333D01*
X0442812Y0110566D01*
X0445881Y0110566D02*
X0445881Y0109798D01*
X0442812Y0106729D01*
X0445881Y0106729D01*
X0445936Y0115225D02*
X0442867Y0115225D01*
X0445936Y0118294D01*
X0445936Y0119062D01*
X0445169Y0119829D01*
X0443634Y0119829D01*
X0442867Y0119062D01*
X0447471Y0119062D02*
X0448238Y0119829D01*
X0449773Y0119829D01*
X0450540Y0119062D01*
X0450540Y0118294D01*
X0447471Y0115225D01*
X0450540Y0115225D01*
X0486199Y0127440D02*
X0486199Y0128257D01*
X0495600Y0129279D01*
X0495600Y0131323D01*
X0486199Y0132345D01*
X0486199Y0133162D01*
X0497031Y0132345D01*
X0497097Y0132338D01*
X0497162Y0132327D01*
X0497227Y0132313D01*
X0497290Y0132295D01*
X0497353Y0132273D01*
X0497414Y0132248D01*
X0497474Y0132220D01*
X0497532Y0132188D01*
X0497588Y0132152D01*
X0497642Y0132114D01*
X0497693Y0132073D01*
X0497742Y0132029D01*
X0497789Y0131982D01*
X0497833Y0131932D01*
X0497874Y0131880D01*
X0497912Y0131826D01*
X0497947Y0131770D01*
X0497978Y0131712D01*
X0498006Y0131652D01*
X0498031Y0131590D01*
X0498052Y0131528D01*
X0498052Y0129279D02*
X0498031Y0129217D01*
X0498006Y0129155D01*
X0497978Y0129095D01*
X0497947Y0129037D01*
X0497912Y0128981D01*
X0497874Y0128927D01*
X0497833Y0128875D01*
X0497789Y0128825D01*
X0497742Y0128778D01*
X0497693Y0128734D01*
X0497642Y0128693D01*
X0497588Y0128655D01*
X0497532Y0128619D01*
X0497474Y0128587D01*
X0497414Y0128559D01*
X0497353Y0128534D01*
X0497290Y0128512D01*
X0497227Y0128494D01*
X0497162Y0128480D01*
X0497097Y0128469D01*
X0497031Y0128462D01*
X0486199Y0127440D01*
X0498052Y0129279D02*
X0498086Y0129394D01*
X0498116Y0129511D01*
X0498142Y0129628D01*
X0498164Y0129746D01*
X0498183Y0129864D01*
X0498198Y0129984D01*
X0498209Y0130103D01*
X0498217Y0130223D01*
X0498221Y0130343D01*
X0498221Y0130463D01*
X0498217Y0130583D01*
X0498209Y0130703D01*
X0498198Y0130822D01*
X0498183Y0130942D01*
X0498164Y0131060D01*
X0498142Y0131178D01*
X0498116Y0131295D01*
X0498086Y0131412D01*
X0498052Y0131527D01*
X0502345Y0136637D02*
X0502345Y0136637D01*
X0485275Y0136637D02*
X0476184Y0136637D01*
X0476240Y0136639D01*
X0476295Y0136645D01*
X0476350Y0136654D01*
X0476404Y0136667D01*
X0476458Y0136684D01*
X0476509Y0136705D01*
X0476560Y0136729D01*
X0476609Y0136756D01*
X0476655Y0136787D01*
X0476700Y0136820D01*
X0476742Y0136857D01*
X0476781Y0136896D01*
X0476818Y0136938D01*
X0476851Y0136983D01*
X0476882Y0137029D01*
X0476909Y0137078D01*
X0476933Y0137129D01*
X0476954Y0137180D01*
X0476971Y0137234D01*
X0476984Y0137288D01*
X0476993Y0137343D01*
X0476999Y0137398D01*
X0477001Y0137454D01*
X0477001Y0138068D01*
X0466987Y0133367D02*
X0465556Y0133367D01*
X0465351Y0133367D02*
X0465351Y0129484D01*
X0465556Y0129484D02*
X0472914Y0129484D01*
X0269254Y0129613D02*
X0269254Y0131915D01*
X0268486Y0132682D01*
X0266184Y0132682D01*
X0266184Y0129613D01*
X0264650Y0130380D02*
X0263883Y0129613D01*
X0262348Y0129613D01*
X0261581Y0130380D01*
X0264650Y0133449D01*
X0264650Y0130380D01*
X0261581Y0130380D02*
X0261581Y0133449D01*
X0262348Y0134217D01*
X0263883Y0134217D01*
X0264650Y0133449D01*
X0260046Y0133449D02*
X0256977Y0130380D01*
X0257744Y0129613D01*
X0259279Y0129613D01*
X0260046Y0130380D01*
X0260046Y0133449D01*
X0259279Y0134217D01*
X0257744Y0134217D01*
X0256977Y0133449D01*
X0256977Y0130380D01*
X0255442Y0129613D02*
X0252373Y0129613D01*
X0253907Y0129613D02*
X0253907Y0134217D01*
X0252373Y0132682D01*
X0252433Y0138123D02*
X0255502Y0138123D01*
X0253967Y0138123D02*
X0253967Y0142727D01*
X0252433Y0141192D01*
X0257037Y0141959D02*
X0257037Y0138890D01*
X0260106Y0141959D01*
X0260106Y0138890D01*
X0259338Y0138123D01*
X0257804Y0138123D01*
X0257037Y0138890D01*
X0261640Y0139657D02*
X0263942Y0141192D01*
X0261640Y0142727D02*
X0261640Y0138123D01*
X0261640Y0139657D02*
X0263942Y0138123D01*
X0260106Y0141959D02*
X0259338Y0142727D01*
X0257804Y0142727D01*
X0257037Y0141959D01*
X0254445Y0121858D02*
X0255213Y0121090D01*
X0252143Y0118021D01*
X0252911Y0117254D01*
X0254445Y0117254D01*
X0255213Y0118021D01*
X0255213Y0121090D01*
X0254445Y0121858D02*
X0252911Y0121858D01*
X0252143Y0121090D01*
X0252143Y0118021D01*
X0250609Y0118021D02*
X0249841Y0117254D01*
X0248307Y0117254D01*
X0247540Y0118021D01*
X0250609Y0121090D01*
X0250609Y0118021D01*
X0247540Y0118021D02*
X0247540Y0121090D01*
X0248307Y0121858D01*
X0249841Y0121858D01*
X0250609Y0121090D01*
X0256747Y0120323D02*
X0259049Y0120323D01*
X0259817Y0119556D01*
X0259817Y0117254D01*
X0256747Y0117254D02*
X0256747Y0120323D01*
X0246005Y0117254D02*
X0242936Y0117254D01*
X0244470Y0117254D02*
X0244470Y0121858D01*
X0242936Y0120323D01*
X0236217Y0041940D02*
X0234682Y0039638D01*
X0233147Y0041940D01*
X0231613Y0039638D02*
X0236217Y0039638D01*
X0236217Y0038104D02*
X0236217Y0035034D01*
X0236217Y0036569D02*
X0231613Y0036569D01*
X0233147Y0035034D01*
X0213092Y0037225D02*
X0210022Y0040294D01*
X0209255Y0040294D01*
X0208488Y0039527D01*
X0208488Y0037992D01*
X0209255Y0037225D01*
X0213092Y0037225D02*
X0213092Y0040294D01*
X0131217Y0039638D02*
X0126613Y0039638D01*
X0128147Y0041940D02*
X0129682Y0039638D01*
X0131217Y0041940D01*
X0131217Y0038104D02*
X0131217Y0035034D01*
X0131217Y0036569D02*
X0126613Y0036569D01*
X0128147Y0035034D01*
X0313488Y0037992D02*
X0314255Y0037225D01*
X0313488Y0037992D02*
X0313488Y0039527D01*
X0314255Y0040294D01*
X0315022Y0040294D01*
X0318092Y0037225D01*
X0318092Y0040294D01*
X0336613Y0039638D02*
X0341217Y0039638D01*
X0341217Y0038104D02*
X0341217Y0035034D01*
X0341217Y0036569D02*
X0336613Y0036569D01*
X0338147Y0035034D01*
X0339682Y0039638D02*
X0338147Y0041940D01*
X0339682Y0039638D02*
X0341217Y0041940D01*
D13*
X0275741Y0105972D02*
X0275743Y0106039D01*
X0275749Y0106105D01*
X0275759Y0106171D01*
X0275773Y0106236D01*
X0275790Y0106300D01*
X0275812Y0106363D01*
X0275837Y0106425D01*
X0275866Y0106485D01*
X0275899Y0106543D01*
X0275934Y0106599D01*
X0275974Y0106653D01*
X0276016Y0106704D01*
X0276061Y0106753D01*
X0276109Y0106799D01*
X0276160Y0106842D01*
X0276213Y0106882D01*
X0276269Y0106919D01*
X0276327Y0106952D01*
X0276386Y0106982D01*
X0276447Y0107008D01*
X0276510Y0107031D01*
X0276574Y0107049D01*
X0276639Y0107064D01*
X0276705Y0107075D01*
X0276771Y0107082D01*
X0276837Y0107085D01*
X0276904Y0107084D01*
X0276970Y0107079D01*
X0277036Y0107070D01*
X0277102Y0107057D01*
X0277166Y0107040D01*
X0277229Y0107020D01*
X0277291Y0106995D01*
X0277352Y0106967D01*
X0277411Y0106936D01*
X0277467Y0106901D01*
X0277522Y0106863D01*
X0277574Y0106821D01*
X0277623Y0106776D01*
X0277670Y0106729D01*
X0277714Y0106679D01*
X0277754Y0106626D01*
X0277792Y0106571D01*
X0277826Y0106514D01*
X0277857Y0106455D01*
X0277884Y0106394D01*
X0277907Y0106332D01*
X0277927Y0106268D01*
X0277943Y0106203D01*
X0277955Y0106138D01*
X0277963Y0106072D01*
X0277967Y0106005D01*
X0277967Y0105939D01*
X0277963Y0105872D01*
X0277955Y0105806D01*
X0277943Y0105741D01*
X0277927Y0105676D01*
X0277907Y0105612D01*
X0277884Y0105550D01*
X0277857Y0105489D01*
X0277826Y0105430D01*
X0277792Y0105373D01*
X0277754Y0105318D01*
X0277714Y0105265D01*
X0277670Y0105215D01*
X0277623Y0105168D01*
X0277574Y0105123D01*
X0277522Y0105081D01*
X0277467Y0105043D01*
X0277410Y0105008D01*
X0277352Y0104977D01*
X0277291Y0104949D01*
X0277229Y0104924D01*
X0277166Y0104904D01*
X0277102Y0104887D01*
X0277036Y0104874D01*
X0276970Y0104865D01*
X0276904Y0104860D01*
X0276837Y0104859D01*
X0276771Y0104862D01*
X0276705Y0104869D01*
X0276639Y0104880D01*
X0276574Y0104895D01*
X0276510Y0104913D01*
X0276447Y0104936D01*
X0276386Y0104962D01*
X0276327Y0104992D01*
X0276269Y0105025D01*
X0276213Y0105062D01*
X0276160Y0105102D01*
X0276109Y0105145D01*
X0276061Y0105191D01*
X0276016Y0105240D01*
X0275974Y0105291D01*
X0275934Y0105345D01*
X0275899Y0105401D01*
X0275866Y0105459D01*
X0275837Y0105519D01*
X0275812Y0105581D01*
X0275790Y0105644D01*
X0275773Y0105708D01*
X0275759Y0105773D01*
X0275749Y0105839D01*
X0275743Y0105905D01*
X0275741Y0105972D01*
D14*
X0278278Y0134833D02*
X0278278Y0136768D01*
X0279245Y0137736D01*
X0280213Y0136768D01*
X0280213Y0134833D01*
X0280213Y0136284D02*
X0278278Y0136284D01*
X0281224Y0137736D02*
X0283159Y0137736D01*
X0282192Y0137736D02*
X0282192Y0134833D01*
X0284171Y0134833D02*
X0284171Y0137736D01*
X0285138Y0136768D01*
X0286106Y0137736D01*
X0286106Y0134833D01*
X0287117Y0134833D02*
X0289052Y0134833D01*
X0290064Y0135317D02*
X0290547Y0134833D01*
X0291515Y0134833D01*
X0291999Y0135317D01*
X0291999Y0136284D01*
X0291031Y0136284D01*
X0290064Y0135317D02*
X0290064Y0137252D01*
X0290547Y0137736D01*
X0291515Y0137736D01*
X0291999Y0137252D01*
X0293010Y0136768D02*
X0293978Y0137736D01*
X0294945Y0136768D01*
X0294945Y0134833D01*
X0295957Y0135317D02*
X0296440Y0134833D01*
X0297408Y0134833D01*
X0297892Y0135317D01*
X0297892Y0135801D01*
X0297408Y0136284D01*
X0296924Y0136284D01*
X0297408Y0136284D02*
X0297892Y0136768D01*
X0297892Y0137252D01*
X0297408Y0137736D01*
X0296440Y0137736D01*
X0295957Y0137252D01*
X0294945Y0136284D02*
X0293010Y0136284D01*
X0293010Y0136768D02*
X0293010Y0134833D01*
X0288085Y0136284D02*
X0287117Y0136284D01*
X0287117Y0134833D02*
X0287117Y0137736D01*
X0289052Y0137736D01*
X0298903Y0137252D02*
X0299387Y0137736D01*
X0300354Y0137736D01*
X0300838Y0137252D01*
X0300838Y0136768D01*
X0298903Y0134833D01*
X0300838Y0134833D01*
X0301850Y0135317D02*
X0302333Y0134833D01*
X0303301Y0134833D01*
X0303785Y0135317D01*
X0303785Y0137736D01*
X0304796Y0136284D02*
X0306247Y0137736D01*
X0306247Y0134833D01*
X0306731Y0136284D02*
X0304796Y0136284D01*
X0301850Y0135317D02*
X0301850Y0137736D01*
X0336179Y0150479D02*
X0336179Y0152948D01*
X0337413Y0151713D02*
X0334944Y0151713D01*
X0373518Y0145246D02*
X0375987Y0145246D01*
X0374752Y0144012D02*
X0374752Y0146481D01*
D15*
X0345255Y0130464D02*
X0345255Y0108593D01*
X0345253Y0108523D01*
X0345247Y0108454D01*
X0345237Y0108384D01*
X0345224Y0108316D01*
X0345206Y0108248D01*
X0345185Y0108182D01*
X0345160Y0108117D01*
X0345132Y0108053D01*
X0345100Y0107991D01*
X0345064Y0107931D01*
X0345025Y0107873D01*
X0344983Y0107817D01*
X0344938Y0107763D01*
X0344890Y0107713D01*
X0344840Y0107665D01*
X0344786Y0107620D01*
X0344730Y0107578D01*
X0344672Y0107539D01*
X0344612Y0107503D01*
X0344550Y0107471D01*
X0344486Y0107443D01*
X0344421Y0107418D01*
X0344355Y0107397D01*
X0344287Y0107379D01*
X0344219Y0107366D01*
X0344149Y0107356D01*
X0344080Y0107350D01*
X0344010Y0107348D01*
X0334046Y0107348D01*
X0334046Y0107349D02*
X0333981Y0107351D01*
X0333917Y0107357D01*
X0333853Y0107366D01*
X0333789Y0107379D01*
X0333727Y0107396D01*
X0333665Y0107416D01*
X0333605Y0107440D01*
X0333546Y0107467D01*
X0333490Y0107498D01*
X0333434Y0107532D01*
X0333381Y0107569D01*
X0333331Y0107609D01*
X0333282Y0107652D01*
X0333236Y0107698D01*
X0333193Y0107747D01*
X0333153Y0107797D01*
X0333116Y0107850D01*
X0333082Y0107906D01*
X0333051Y0107962D01*
X0333024Y0108021D01*
X0333000Y0108081D01*
X0332980Y0108143D01*
X0332963Y0108205D01*
X0332950Y0108269D01*
X0332941Y0108333D01*
X0332935Y0108397D01*
X0332933Y0108462D01*
X0332932Y0108462D02*
X0332932Y0130231D01*
X0332933Y0130231D02*
X0332935Y0130296D01*
X0332941Y0130360D01*
X0332950Y0130424D01*
X0332963Y0130488D01*
X0332980Y0130550D01*
X0333000Y0130612D01*
X0333024Y0130672D01*
X0333051Y0130731D01*
X0333082Y0130788D01*
X0333116Y0130843D01*
X0333153Y0130896D01*
X0333193Y0130946D01*
X0333236Y0130995D01*
X0333282Y0131041D01*
X0333331Y0131084D01*
X0333381Y0131124D01*
X0333434Y0131161D01*
X0333490Y0131195D01*
X0333546Y0131226D01*
X0333605Y0131253D01*
X0333665Y0131277D01*
X0333727Y0131297D01*
X0333789Y0131314D01*
X0333853Y0131327D01*
X0333917Y0131336D01*
X0333981Y0131342D01*
X0334046Y0131344D01*
X0344375Y0131344D01*
X0344433Y0131342D01*
X0344490Y0131336D01*
X0344547Y0131327D01*
X0344603Y0131314D01*
X0344658Y0131297D01*
X0344712Y0131277D01*
X0344764Y0131253D01*
X0344815Y0131226D01*
X0344864Y0131196D01*
X0344911Y0131162D01*
X0344955Y0131126D01*
X0344997Y0131086D01*
X0345037Y0131044D01*
X0345073Y0131000D01*
X0345107Y0130953D01*
X0345137Y0130904D01*
X0345164Y0130853D01*
X0345188Y0130801D01*
X0345208Y0130747D01*
X0345225Y0130692D01*
X0345238Y0130636D01*
X0345247Y0130579D01*
X0345253Y0130522D01*
X0345255Y0130464D01*
X0342105Y0129376D02*
X0336082Y0129376D01*
X0336005Y0129374D01*
X0335928Y0129368D01*
X0335851Y0129359D01*
X0335775Y0129346D01*
X0335699Y0129329D01*
X0335625Y0129308D01*
X0335551Y0129284D01*
X0335479Y0129256D01*
X0335409Y0129225D01*
X0335340Y0129190D01*
X0335272Y0129152D01*
X0335207Y0129111D01*
X0335144Y0129066D01*
X0335083Y0129018D01*
X0335024Y0128968D01*
X0334968Y0128915D01*
X0334915Y0128859D01*
X0334865Y0128800D01*
X0334817Y0128739D01*
X0334772Y0128676D01*
X0334731Y0128611D01*
X0334693Y0128543D01*
X0334658Y0128474D01*
X0334627Y0128404D01*
X0334599Y0128332D01*
X0334575Y0128258D01*
X0334554Y0128184D01*
X0334537Y0128108D01*
X0334524Y0128032D01*
X0334515Y0127955D01*
X0334509Y0127878D01*
X0334507Y0127801D01*
X0334507Y0110892D01*
X0334509Y0110815D01*
X0334515Y0110738D01*
X0334524Y0110661D01*
X0334537Y0110585D01*
X0334554Y0110509D01*
X0334575Y0110435D01*
X0334599Y0110361D01*
X0334627Y0110289D01*
X0334658Y0110219D01*
X0334693Y0110150D01*
X0334731Y0110082D01*
X0334772Y0110017D01*
X0334817Y0109954D01*
X0334865Y0109893D01*
X0334915Y0109834D01*
X0334968Y0109778D01*
X0335024Y0109725D01*
X0335083Y0109675D01*
X0335144Y0109627D01*
X0335207Y0109582D01*
X0335272Y0109541D01*
X0335340Y0109503D01*
X0335409Y0109468D01*
X0335479Y0109437D01*
X0335551Y0109409D01*
X0335625Y0109385D01*
X0335699Y0109364D01*
X0335775Y0109347D01*
X0335851Y0109334D01*
X0335928Y0109325D01*
X0336005Y0109319D01*
X0336082Y0109317D01*
X0342105Y0109317D01*
X0342105Y0109316D02*
X0342187Y0109309D01*
X0342269Y0109305D01*
X0342352Y0109306D01*
X0342434Y0109310D01*
X0342516Y0109318D01*
X0342598Y0109330D01*
X0342678Y0109345D01*
X0342759Y0109364D01*
X0342838Y0109387D01*
X0342916Y0109414D01*
X0342992Y0109444D01*
X0343067Y0109478D01*
X0343141Y0109515D01*
X0343213Y0109555D01*
X0343283Y0109599D01*
X0343350Y0109646D01*
X0343416Y0109696D01*
X0343479Y0109749D01*
X0343540Y0109804D01*
X0343598Y0109863D01*
X0343653Y0109924D01*
X0343705Y0109988D01*
X0343754Y0110054D01*
X0343801Y0110122D01*
X0343844Y0110192D01*
X0343883Y0110264D01*
X0343920Y0110338D01*
X0343953Y0110414D01*
X0343982Y0110491D01*
X0344008Y0110569D01*
X0344030Y0110648D01*
X0344048Y0110728D01*
X0344063Y0110809D01*
X0344074Y0110891D01*
X0344074Y0110892D02*
X0344074Y0127407D01*
X0344072Y0127493D01*
X0344067Y0127579D01*
X0344057Y0127664D01*
X0344044Y0127749D01*
X0344027Y0127833D01*
X0344007Y0127917D01*
X0343983Y0127999D01*
X0343955Y0128080D01*
X0343924Y0128161D01*
X0343890Y0128239D01*
X0343852Y0128316D01*
X0343810Y0128392D01*
X0343766Y0128465D01*
X0343718Y0128536D01*
X0343667Y0128606D01*
X0343613Y0128673D01*
X0343557Y0128737D01*
X0343497Y0128799D01*
X0343435Y0128859D01*
X0343371Y0128915D01*
X0343304Y0128969D01*
X0343234Y0129020D01*
X0343163Y0129068D01*
X0343090Y0129112D01*
X0343014Y0129154D01*
X0342937Y0129192D01*
X0342859Y0129226D01*
X0342778Y0129257D01*
X0342697Y0129285D01*
X0342615Y0129309D01*
X0342531Y0129329D01*
X0342447Y0129346D01*
X0342362Y0129359D01*
X0342277Y0129369D01*
X0342191Y0129374D01*
X0342105Y0129376D01*
X0205889Y0129026D02*
X0205889Y0127525D01*
X0205138Y0126775D01*
X0203637Y0126775D02*
X0202887Y0128276D01*
X0202887Y0129026D01*
X0203637Y0129777D01*
X0205138Y0129777D01*
X0205889Y0129026D01*
X0203637Y0131378D02*
X0203637Y0134381D01*
X0205889Y0133630D02*
X0201385Y0133630D01*
X0203637Y0131378D01*
X0201385Y0129777D02*
X0201385Y0126775D01*
X0203637Y0126775D01*
X0205889Y0125173D02*
X0205889Y0122171D01*
X0205889Y0123672D02*
X0201385Y0123672D01*
X0202887Y0122171D01*
X0202136Y0120569D02*
X0201385Y0119819D01*
X0201385Y0118317D01*
X0202136Y0117567D01*
X0205138Y0117567D01*
X0205889Y0118317D01*
X0205889Y0119819D01*
X0205138Y0120569D01*
X0205889Y0115965D02*
X0201385Y0115965D01*
X0203637Y0115965D02*
X0203637Y0112963D01*
X0203637Y0111361D02*
X0203637Y0108359D01*
X0201385Y0110611D01*
X0205889Y0110611D01*
X0205889Y0112963D02*
X0201385Y0112963D01*
X0201385Y0106758D02*
X0202136Y0106758D01*
X0205138Y0103755D01*
X0205889Y0103755D01*
X0201385Y0103755D02*
X0201385Y0106758D01*
X0201385Y0135982D02*
X0201385Y0138234D01*
X0202136Y0138985D01*
X0205138Y0138985D01*
X0205889Y0138234D01*
X0205889Y0135982D01*
X0201385Y0135982D01*
X0201385Y0140586D02*
X0205889Y0140586D01*
X0204388Y0142088D01*
X0205889Y0143589D01*
X0201385Y0143589D01*
X0106082Y0141668D02*
X0106082Y0139416D01*
X0101578Y0139416D01*
X0101578Y0141668D01*
X0102329Y0142418D01*
X0105331Y0142418D01*
X0106082Y0141668D01*
X0102329Y0137814D02*
X0105331Y0134812D01*
X0106082Y0134812D01*
X0105331Y0133210D02*
X0104581Y0133210D01*
X0103830Y0132460D01*
X0103830Y0130208D01*
X0105331Y0130208D01*
X0106082Y0130958D01*
X0106082Y0132460D01*
X0105331Y0133210D01*
X0102329Y0131709D02*
X0103830Y0130208D01*
X0102329Y0131709D02*
X0101578Y0133210D01*
X0101578Y0134812D02*
X0101578Y0137814D01*
X0102329Y0137814D01*
X0102329Y0128606D02*
X0105331Y0125604D01*
X0106082Y0126355D01*
X0106082Y0127856D01*
X0105331Y0128606D01*
X0102329Y0128606D01*
X0101578Y0127856D01*
X0101578Y0126355D01*
X0102329Y0125604D01*
X0105331Y0125604D01*
X0103830Y0124003D02*
X0103830Y0121000D01*
X0101578Y0123252D01*
X0106082Y0123252D01*
D16*
X0344771Y0146650D03*
X0344771Y0151374D03*
X0366163Y0151224D03*
X0366163Y0146500D03*
D17*
X0366163Y0148862D03*
X0344771Y0149012D03*
D18*
X0217839Y0151940D02*
X0217839Y0093940D01*
X0217837Y0093864D01*
X0217831Y0093788D01*
X0217822Y0093713D01*
X0217808Y0093638D01*
X0217791Y0093564D01*
X0217770Y0093491D01*
X0217746Y0093419D01*
X0217717Y0093348D01*
X0217686Y0093279D01*
X0217651Y0093212D01*
X0217612Y0093147D01*
X0217570Y0093083D01*
X0217525Y0093022D01*
X0217477Y0092963D01*
X0217426Y0092907D01*
X0217372Y0092853D01*
X0217316Y0092802D01*
X0217257Y0092754D01*
X0217196Y0092709D01*
X0217132Y0092667D01*
X0217067Y0092628D01*
X0217000Y0092593D01*
X0216931Y0092562D01*
X0216860Y0092533D01*
X0216788Y0092509D01*
X0216715Y0092488D01*
X0216641Y0092471D01*
X0216566Y0092457D01*
X0216491Y0092448D01*
X0216415Y0092442D01*
X0216339Y0092440D01*
X0189939Y0092440D01*
X0189863Y0092442D01*
X0189787Y0092448D01*
X0189712Y0092457D01*
X0189637Y0092471D01*
X0189563Y0092488D01*
X0189490Y0092509D01*
X0189418Y0092533D01*
X0189347Y0092562D01*
X0189278Y0092593D01*
X0189211Y0092628D01*
X0189146Y0092667D01*
X0189082Y0092709D01*
X0189021Y0092754D01*
X0188962Y0092802D01*
X0188906Y0092853D01*
X0188852Y0092907D01*
X0188801Y0092963D01*
X0188753Y0093022D01*
X0188708Y0093083D01*
X0188666Y0093147D01*
X0188627Y0093212D01*
X0188592Y0093279D01*
X0188561Y0093348D01*
X0188532Y0093419D01*
X0188508Y0093491D01*
X0188487Y0093564D01*
X0188470Y0093638D01*
X0188456Y0093713D01*
X0188447Y0093788D01*
X0188441Y0093864D01*
X0188439Y0093940D01*
X0188439Y0151940D01*
X0188441Y0152016D01*
X0188447Y0152092D01*
X0188456Y0152167D01*
X0188470Y0152242D01*
X0188487Y0152316D01*
X0188508Y0152389D01*
X0188532Y0152461D01*
X0188561Y0152532D01*
X0188592Y0152601D01*
X0188627Y0152668D01*
X0188666Y0152733D01*
X0188708Y0152797D01*
X0188753Y0152858D01*
X0188801Y0152917D01*
X0188852Y0152973D01*
X0188906Y0153027D01*
X0188962Y0153078D01*
X0189021Y0153126D01*
X0189082Y0153171D01*
X0189146Y0153213D01*
X0189211Y0153252D01*
X0189278Y0153287D01*
X0189347Y0153318D01*
X0189418Y0153347D01*
X0189490Y0153371D01*
X0189563Y0153392D01*
X0189637Y0153409D01*
X0189712Y0153423D01*
X0189787Y0153432D01*
X0189863Y0153438D01*
X0189939Y0153440D01*
X0198139Y0153440D01*
X0208139Y0153440D01*
X0216339Y0153440D01*
X0216415Y0153438D01*
X0216491Y0153432D01*
X0216566Y0153423D01*
X0216641Y0153409D01*
X0216715Y0153392D01*
X0216788Y0153371D01*
X0216860Y0153347D01*
X0216931Y0153318D01*
X0217000Y0153287D01*
X0217067Y0153252D01*
X0217132Y0153213D01*
X0217196Y0153171D01*
X0217257Y0153126D01*
X0217316Y0153078D01*
X0217372Y0153027D01*
X0217426Y0152973D01*
X0217477Y0152917D01*
X0217525Y0152858D01*
X0217570Y0152797D01*
X0217612Y0152733D01*
X0217651Y0152668D01*
X0217686Y0152601D01*
X0217717Y0152532D01*
X0217746Y0152461D01*
X0217770Y0152389D01*
X0217791Y0152316D01*
X0217808Y0152242D01*
X0217822Y0152167D01*
X0217831Y0152092D01*
X0217837Y0152016D01*
X0217839Y0151940D01*
X0208139Y0153440D02*
X0208137Y0153300D01*
X0208131Y0153160D01*
X0208121Y0153020D01*
X0208108Y0152880D01*
X0208090Y0152741D01*
X0208068Y0152602D01*
X0208043Y0152465D01*
X0208014Y0152327D01*
X0207981Y0152191D01*
X0207944Y0152056D01*
X0207903Y0151922D01*
X0207858Y0151789D01*
X0207810Y0151657D01*
X0207758Y0151527D01*
X0207703Y0151398D01*
X0207644Y0151271D01*
X0207581Y0151145D01*
X0207515Y0151021D01*
X0207446Y0150900D01*
X0207373Y0150780D01*
X0207296Y0150662D01*
X0207217Y0150547D01*
X0207134Y0150433D01*
X0207048Y0150323D01*
X0206959Y0150214D01*
X0206867Y0150108D01*
X0206772Y0150005D01*
X0206675Y0149904D01*
X0206574Y0149807D01*
X0206471Y0149712D01*
X0206365Y0149620D01*
X0206256Y0149531D01*
X0206146Y0149445D01*
X0206032Y0149362D01*
X0205917Y0149283D01*
X0205799Y0149206D01*
X0205679Y0149133D01*
X0205558Y0149064D01*
X0205434Y0148998D01*
X0205308Y0148935D01*
X0205181Y0148876D01*
X0205052Y0148821D01*
X0204922Y0148769D01*
X0204790Y0148721D01*
X0204657Y0148676D01*
X0204523Y0148635D01*
X0204388Y0148598D01*
X0204252Y0148565D01*
X0204114Y0148536D01*
X0203977Y0148511D01*
X0203838Y0148489D01*
X0203699Y0148471D01*
X0203559Y0148458D01*
X0203419Y0148448D01*
X0203279Y0148442D01*
X0203139Y0148440D01*
X0202999Y0148442D01*
X0202859Y0148448D01*
X0202719Y0148458D01*
X0202579Y0148471D01*
X0202440Y0148489D01*
X0202301Y0148511D01*
X0202164Y0148536D01*
X0202026Y0148565D01*
X0201890Y0148598D01*
X0201755Y0148635D01*
X0201621Y0148676D01*
X0201488Y0148721D01*
X0201356Y0148769D01*
X0201226Y0148821D01*
X0201097Y0148876D01*
X0200970Y0148935D01*
X0200844Y0148998D01*
X0200720Y0149064D01*
X0200599Y0149133D01*
X0200479Y0149206D01*
X0200361Y0149283D01*
X0200246Y0149362D01*
X0200132Y0149445D01*
X0200022Y0149531D01*
X0199913Y0149620D01*
X0199807Y0149712D01*
X0199704Y0149807D01*
X0199603Y0149904D01*
X0199506Y0150005D01*
X0199411Y0150108D01*
X0199319Y0150214D01*
X0199230Y0150323D01*
X0199144Y0150433D01*
X0199061Y0150547D01*
X0198982Y0150662D01*
X0198905Y0150780D01*
X0198832Y0150900D01*
X0198763Y0151021D01*
X0198697Y0151145D01*
X0198634Y0151271D01*
X0198575Y0151398D01*
X0198520Y0151527D01*
X0198468Y0151657D01*
X0198420Y0151789D01*
X0198375Y0151922D01*
X0198334Y0152056D01*
X0198297Y0152191D01*
X0198264Y0152327D01*
X0198235Y0152465D01*
X0198210Y0152602D01*
X0198188Y0152741D01*
X0198170Y0152880D01*
X0198157Y0153020D01*
X0198147Y0153160D01*
X0198141Y0153300D01*
X0198139Y0153440D01*
X0118032Y0150770D02*
X0118032Y0092770D01*
X0118030Y0092694D01*
X0118024Y0092618D01*
X0118015Y0092543D01*
X0118001Y0092468D01*
X0117984Y0092394D01*
X0117963Y0092321D01*
X0117939Y0092249D01*
X0117910Y0092178D01*
X0117879Y0092109D01*
X0117844Y0092042D01*
X0117805Y0091977D01*
X0117763Y0091913D01*
X0117718Y0091852D01*
X0117670Y0091793D01*
X0117619Y0091737D01*
X0117565Y0091683D01*
X0117509Y0091632D01*
X0117450Y0091584D01*
X0117389Y0091539D01*
X0117325Y0091497D01*
X0117260Y0091458D01*
X0117193Y0091423D01*
X0117124Y0091392D01*
X0117053Y0091363D01*
X0116981Y0091339D01*
X0116908Y0091318D01*
X0116834Y0091301D01*
X0116759Y0091287D01*
X0116684Y0091278D01*
X0116608Y0091272D01*
X0116532Y0091270D01*
X0090132Y0091270D01*
X0090056Y0091272D01*
X0089980Y0091278D01*
X0089905Y0091287D01*
X0089830Y0091301D01*
X0089756Y0091318D01*
X0089683Y0091339D01*
X0089611Y0091363D01*
X0089540Y0091392D01*
X0089471Y0091423D01*
X0089404Y0091458D01*
X0089339Y0091497D01*
X0089275Y0091539D01*
X0089214Y0091584D01*
X0089155Y0091632D01*
X0089099Y0091683D01*
X0089045Y0091737D01*
X0088994Y0091793D01*
X0088946Y0091852D01*
X0088901Y0091913D01*
X0088859Y0091977D01*
X0088820Y0092042D01*
X0088785Y0092109D01*
X0088754Y0092178D01*
X0088725Y0092249D01*
X0088701Y0092321D01*
X0088680Y0092394D01*
X0088663Y0092468D01*
X0088649Y0092543D01*
X0088640Y0092618D01*
X0088634Y0092694D01*
X0088632Y0092770D01*
X0088632Y0150770D01*
X0088634Y0150846D01*
X0088640Y0150922D01*
X0088649Y0150997D01*
X0088663Y0151072D01*
X0088680Y0151146D01*
X0088701Y0151219D01*
X0088725Y0151291D01*
X0088754Y0151362D01*
X0088785Y0151431D01*
X0088820Y0151498D01*
X0088859Y0151563D01*
X0088901Y0151627D01*
X0088946Y0151688D01*
X0088994Y0151747D01*
X0089045Y0151803D01*
X0089099Y0151857D01*
X0089155Y0151908D01*
X0089214Y0151956D01*
X0089275Y0152001D01*
X0089339Y0152043D01*
X0089404Y0152082D01*
X0089471Y0152117D01*
X0089540Y0152148D01*
X0089611Y0152177D01*
X0089683Y0152201D01*
X0089756Y0152222D01*
X0089830Y0152239D01*
X0089905Y0152253D01*
X0089980Y0152262D01*
X0090056Y0152268D01*
X0090132Y0152270D01*
X0098332Y0152270D01*
X0108332Y0152270D01*
X0116532Y0152270D01*
X0116608Y0152268D01*
X0116684Y0152262D01*
X0116759Y0152253D01*
X0116834Y0152239D01*
X0116908Y0152222D01*
X0116981Y0152201D01*
X0117053Y0152177D01*
X0117124Y0152148D01*
X0117193Y0152117D01*
X0117260Y0152082D01*
X0117325Y0152043D01*
X0117389Y0152001D01*
X0117450Y0151956D01*
X0117509Y0151908D01*
X0117565Y0151857D01*
X0117619Y0151803D01*
X0117670Y0151747D01*
X0117718Y0151688D01*
X0117763Y0151627D01*
X0117805Y0151563D01*
X0117844Y0151498D01*
X0117879Y0151431D01*
X0117910Y0151362D01*
X0117939Y0151291D01*
X0117963Y0151219D01*
X0117984Y0151146D01*
X0118001Y0151072D01*
X0118015Y0150997D01*
X0118024Y0150922D01*
X0118030Y0150846D01*
X0118032Y0150770D01*
X0108332Y0152270D02*
X0108330Y0152130D01*
X0108324Y0151990D01*
X0108314Y0151850D01*
X0108301Y0151710D01*
X0108283Y0151571D01*
X0108261Y0151432D01*
X0108236Y0151295D01*
X0108207Y0151157D01*
X0108174Y0151021D01*
X0108137Y0150886D01*
X0108096Y0150752D01*
X0108051Y0150619D01*
X0108003Y0150487D01*
X0107951Y0150357D01*
X0107896Y0150228D01*
X0107837Y0150101D01*
X0107774Y0149975D01*
X0107708Y0149851D01*
X0107639Y0149730D01*
X0107566Y0149610D01*
X0107489Y0149492D01*
X0107410Y0149377D01*
X0107327Y0149263D01*
X0107241Y0149153D01*
X0107152Y0149044D01*
X0107060Y0148938D01*
X0106965Y0148835D01*
X0106868Y0148734D01*
X0106767Y0148637D01*
X0106664Y0148542D01*
X0106558Y0148450D01*
X0106449Y0148361D01*
X0106339Y0148275D01*
X0106225Y0148192D01*
X0106110Y0148113D01*
X0105992Y0148036D01*
X0105872Y0147963D01*
X0105751Y0147894D01*
X0105627Y0147828D01*
X0105501Y0147765D01*
X0105374Y0147706D01*
X0105245Y0147651D01*
X0105115Y0147599D01*
X0104983Y0147551D01*
X0104850Y0147506D01*
X0104716Y0147465D01*
X0104581Y0147428D01*
X0104445Y0147395D01*
X0104307Y0147366D01*
X0104170Y0147341D01*
X0104031Y0147319D01*
X0103892Y0147301D01*
X0103752Y0147288D01*
X0103612Y0147278D01*
X0103472Y0147272D01*
X0103332Y0147270D01*
X0103192Y0147272D01*
X0103052Y0147278D01*
X0102912Y0147288D01*
X0102772Y0147301D01*
X0102633Y0147319D01*
X0102494Y0147341D01*
X0102357Y0147366D01*
X0102219Y0147395D01*
X0102083Y0147428D01*
X0101948Y0147465D01*
X0101814Y0147506D01*
X0101681Y0147551D01*
X0101549Y0147599D01*
X0101419Y0147651D01*
X0101290Y0147706D01*
X0101163Y0147765D01*
X0101037Y0147828D01*
X0100913Y0147894D01*
X0100792Y0147963D01*
X0100672Y0148036D01*
X0100554Y0148113D01*
X0100439Y0148192D01*
X0100325Y0148275D01*
X0100215Y0148361D01*
X0100106Y0148450D01*
X0100000Y0148542D01*
X0099897Y0148637D01*
X0099796Y0148734D01*
X0099699Y0148835D01*
X0099604Y0148938D01*
X0099512Y0149044D01*
X0099423Y0149153D01*
X0099337Y0149263D01*
X0099254Y0149377D01*
X0099175Y0149492D01*
X0099098Y0149610D01*
X0099025Y0149730D01*
X0098956Y0149851D01*
X0098890Y0149975D01*
X0098827Y0150101D01*
X0098768Y0150228D01*
X0098713Y0150357D01*
X0098661Y0150487D01*
X0098613Y0150619D01*
X0098568Y0150752D01*
X0098527Y0150886D01*
X0098490Y0151021D01*
X0098457Y0151157D01*
X0098428Y0151295D01*
X0098403Y0151432D01*
X0098381Y0151571D01*
X0098363Y0151710D01*
X0098350Y0151850D01*
X0098340Y0151990D01*
X0098334Y0152130D01*
X0098332Y0152270D01*
D19*
X0090032Y0152270D02*
X0090032Y0091270D01*
X0189839Y0092440D02*
X0189839Y0153440D01*
D20*
X0188189Y0150440D03*
X0188189Y0145440D03*
X0188189Y0140440D03*
X0188189Y0135440D03*
X0188189Y0130440D03*
X0188189Y0125440D03*
X0188189Y0120440D03*
X0188189Y0115440D03*
X0188189Y0110440D03*
X0188189Y0105440D03*
X0188189Y0100440D03*
X0188189Y0095440D03*
X0218089Y0095440D03*
X0218089Y0100440D03*
X0218089Y0105440D03*
X0218089Y0110440D03*
X0218089Y0115440D03*
X0218089Y0120440D03*
X0218089Y0125440D03*
X0218089Y0130440D03*
X0218089Y0135440D03*
X0218089Y0140440D03*
X0218089Y0145440D03*
X0218089Y0150440D03*
X0118282Y0149270D03*
X0118282Y0144270D03*
X0118282Y0139270D03*
X0118282Y0134270D03*
X0118282Y0129270D03*
X0118282Y0124270D03*
X0118282Y0119270D03*
X0118282Y0114270D03*
X0118282Y0109270D03*
X0118282Y0104270D03*
X0118282Y0099270D03*
X0118282Y0094270D03*
X0088382Y0094270D03*
X0088382Y0099270D03*
X0088382Y0104270D03*
X0088382Y0109270D03*
X0088382Y0114270D03*
X0088382Y0119270D03*
X0088382Y0124270D03*
X0088382Y0129270D03*
X0088382Y0134270D03*
X0088382Y0139270D03*
X0088382Y0144270D03*
X0088382Y0149270D03*
M02*
