G75*
%MOIN*%
%OFA0B0*%
%FSLAX25Y25*%
%IPPOS*%
%LPD*%
%AMOC8*
5,1,8,0,0,1.08239X$1,22.5*
%
%ADD10C,0.00800*%
D10*
X0012155Y0035332D02*
X0012155Y0035619D01*
X0012155Y0035332D02*
X0021997Y0035332D01*
X0023060Y0036419D01*
X0023285Y0048431D02*
X0023285Y0048718D01*
X0012155Y0048718D01*
X0012155Y0048537D01*
X0062155Y0048718D02*
X0062155Y0048537D01*
X0062155Y0048718D02*
X0073285Y0048718D01*
X0073285Y0048431D01*
X0073060Y0036419D02*
X0071997Y0035332D01*
X0062155Y0035332D01*
X0062155Y0035619D01*
X0112155Y0035332D02*
X0112155Y0035619D01*
X0112155Y0035332D02*
X0121997Y0035332D01*
X0123060Y0036419D01*
X0123285Y0048431D02*
X0123285Y0048718D01*
X0112155Y0048718D01*
X0112155Y0048537D01*
X0164655Y0048718D02*
X0164655Y0048537D01*
X0164655Y0048718D02*
X0175785Y0048718D01*
X0175785Y0048431D01*
X0175560Y0036419D02*
X0174497Y0035332D01*
X0164655Y0035332D01*
X0164655Y0035619D01*
X0217155Y0035332D02*
X0217155Y0035619D01*
X0217155Y0035332D02*
X0226997Y0035332D01*
X0228060Y0036419D01*
X0228285Y0048431D02*
X0228285Y0048718D01*
X0217155Y0048718D01*
X0217155Y0048537D01*
X0269655Y0048718D02*
X0269655Y0048537D01*
X0269655Y0048718D02*
X0280785Y0048718D01*
X0280785Y0048431D01*
X0280560Y0036419D02*
X0279497Y0035332D01*
X0269655Y0035332D01*
X0269655Y0035619D01*
X0322155Y0035332D02*
X0322155Y0035619D01*
X0322155Y0035332D02*
X0331997Y0035332D01*
X0333060Y0036419D01*
X0333285Y0048431D02*
X0333285Y0048718D01*
X0322155Y0048718D01*
X0322155Y0048537D01*
X0372155Y0048718D02*
X0372155Y0048537D01*
X0372155Y0048718D02*
X0383285Y0048718D01*
X0383285Y0048431D01*
X0383060Y0036419D02*
X0381997Y0035332D01*
X0372155Y0035332D01*
X0372155Y0035619D01*
X0372049Y0070332D02*
X0383178Y0070332D01*
X0383178Y0070513D01*
X0372049Y0070619D02*
X0372049Y0070332D01*
X0372273Y0082631D02*
X0373336Y0083718D01*
X0383178Y0083718D01*
X0383178Y0083431D01*
X0333178Y0083718D02*
X0333178Y0083431D01*
X0333178Y0083718D02*
X0323336Y0083718D01*
X0322273Y0082631D01*
X0322049Y0070619D02*
X0322049Y0070332D01*
X0333178Y0070332D01*
X0333178Y0070513D01*
X0280678Y0070332D02*
X0280678Y0070513D01*
X0280678Y0070332D02*
X0269549Y0070332D01*
X0269549Y0070619D01*
X0269773Y0082631D02*
X0270836Y0083718D01*
X0280678Y0083718D01*
X0280678Y0083431D01*
X0228178Y0083718D02*
X0228178Y0083431D01*
X0228178Y0083718D02*
X0218336Y0083718D01*
X0217273Y0082631D01*
X0217049Y0070619D02*
X0217049Y0070332D01*
X0228178Y0070332D01*
X0228178Y0070513D01*
X0175678Y0070332D02*
X0175678Y0070513D01*
X0175678Y0070332D02*
X0164549Y0070332D01*
X0164549Y0070619D01*
X0164773Y0082631D02*
X0165836Y0083718D01*
X0175678Y0083718D01*
X0175678Y0083431D01*
X0123178Y0083718D02*
X0123178Y0083431D01*
X0123178Y0083718D02*
X0113336Y0083718D01*
X0112273Y0082631D01*
X0112049Y0070619D02*
X0112049Y0070332D01*
X0123178Y0070332D01*
X0123178Y0070513D01*
X0073178Y0070332D02*
X0073178Y0070513D01*
X0073178Y0070332D02*
X0062049Y0070332D01*
X0062049Y0070619D01*
X0062273Y0082631D02*
X0063336Y0083718D01*
X0073178Y0083718D01*
X0073178Y0083431D01*
X0023178Y0083718D02*
X0023178Y0083431D01*
X0023178Y0083718D02*
X0013336Y0083718D01*
X0012273Y0082631D01*
X0012049Y0070619D02*
X0012049Y0070332D01*
X0023178Y0070332D01*
X0023178Y0070513D01*
M02*
