  0
SECTION
  2
HEADER
  9
$ACADVER
  1
AC1009
  9
$INSBASE
 10
0.0
 20
0.0
 30
0.0
  9
$EXTMIN
 10
0.0
 20
0.0
 30
0.0
  9
$EXTMAX
 10
0.0
 20
0.0
 30
0.0
  0
ENDSEC
  0
SECTION
  2
TABLES
  0
TABLE
  2
VPORT
 70
0
  0
ENDTAB
  0
TABLE
  2
LTYPE
 70
1
  0
LTYPE
  2
CONTINUOUS
 70
0
  3
Solid line
 72
65
 73
0
 40
0.0
  0
ENDTAB
  0
TABLE
  2
LAYER
 70
1
  0
LAYER
  2
0
 70
64
 62
7
  6
continuous
  0
ENDTAB
  0
TABLE
  2
STYLE
 70
1
  0
STYLE
  2
STANDARD
 70
0
 40
0
 41
1.0
 50
0.0
 71
0
 42
1
 3
ARIAL.TTF
 4

  0
ENDTAB
  0
TABLE
  2
VIEW
 70
0
  0
ENDTAB
  0
ENDSEC
  0
SECTION
  2
BLOCKS
  0
BLOCK
  8
0
  2
SKETCH002
 70
0
 10
0.0
 20
0.0
 30
0.0
  3
SKETCH002
  0
POLYLINE
  8
0
 62
7
 70
1
 66
1
 10
0.0
 20
0.0
 30
0.0
  0
VERTEX
  8
0
 10
-106.737907
 20
150.709556062
 30
0.0
  0
VERTEX
  8
0
 10
-106.737907
 20
115.209556062
 30
0.0
  0
VERTEX
  8
0
 10
-90.237907
 20
115.209556062
 30
0.0
  0
VERTEX
  8
0
 10
-90.237907
 20
112.109556062
 30
0.0
  0
VERTEX
  8
0
 10
-79.237907
 20
112.109556062
 30
0.0
  0
VERTEX
  8
0
 10
-79.237907
 20
115.209556062
 30
0.0
  0
VERTEX
  8
0
 10
-62.737907
 20
115.209556062
 30
0.0
  0
VERTEX
  8
0
 10
-62.737907
 20
150.709556062
 30
0.0
  0
VERTEX
  8
0
 10
-79.237907
 20
150.709556062
 30
0.0
  0
VERTEX
  8
0
 10
-79.237907
 20
153.809556062
 30
0.0
  0
VERTEX
  8
0
 10
-90.237907
 20
153.809556062
 30
0.0
  0
VERTEX
  8
0
 10
-90.237907
 20
150.709556062
 30
0.0
  0
SEQEND
  8
0
  0
POLYLINE
  8
0
 62
7
 70
1
 66
1
 10
0.0
 20
0.0
 30
0.0
  0
VERTEX
  8
0
 10
-84.737907
 20
137.309556062
 30
0.0
  0
VERTEX
  8
0
 10
-74.737907
 20
137.309556062
 30
0.0
  0
VERTEX
  8
0
 10
-74.737907
 20
127.309556062
 30
0.0
  0
VERTEX
  8
0
 10
-84.737907
 20
127.309556062
 30
0.0
  0
SEQEND
  8
0
  0
POLYLINE
  8
0
 62
7
 70
1
 66
1
 10
0.0
 20
0.0
 30
0.0
  0
VERTEX
  8
0
 10
-101.237907
 20
127.309556062
 30
0.0
  0
VERTEX
  8
0
 10
-90.237907
 20
127.309556062
 30
0.0
  0
VERTEX
  8
0
 10
-90.237907
 20
124.209556062
 30
0.0
  0
VERTEX
  8
0
 10
-101.237907
 20
124.209556062
 30
0.0
  0
SEQEND
  8
0
  0
POLYLINE
  8
0
 62
7
 70
1
 66
1
 10
0.0
 20
0.0
 30
0.0
  0
VERTEX
  8
0
 10
-101.737907
 20
146.309556062
 30
0.0
  0
VERTEX
  8
0
 10
-86.737907
 20
146.309556062
 30
0.0
  0
VERTEX
  8
0
 10
-86.737907
 20
129.309556062
 30
0.0
  0
VERTEX
  8
0
 10
-101.737907
 20
129.309556062
 30
0.0
  0
SEQEND
  8
0
  0
ENDBLK
  0
BLOCK
  8
0
  2
SKETCH
 70
0
 10
0.0
 20
0.0
 30
0.0
  3
SKETCH
  0
POLYLINE
  8
0
 62
7
 70
1
 66
1
 10
0.0
 20
0.0
 30
0.0
  0
VERTEX
  8
0
 10
-151.401434
 20
26.0357546279
 30
0.0
  0
VERTEX
  8
0
 10
-151.401434
 20
15.0357546279
 30
0.0
  0
VERTEX
  8
0
 10
-148.301434
 20
15.0357546279
 30
0.0
  0
VERTEX
  8
0
 10
-148.301434
 20
9.53575462787
 30
0.0
  0
VERTEX
  8
0
 10
-18.301434
 20
9.53575462787
 30
0.0
  0
VERTEX
  8
0
 10
-18.301434
 20
37.0357546279
 30
0.0
  0
VERTEX
  8
0
 10
-15.201434
 20
37.0357546279
 30
0.0
  0
VERTEX
  8
0
 10
-15.201434
 20
48.0357546279
 30
0.0
  0
VERTEX
  8
0
 10
-18.301434
 20
48.0357546279
 30
0.0
  0
VERTEX
  8
0
 10
-18.301434
 20
53.5357546279
 30
0.0
  0
VERTEX
  8
0
 10
-148.301434
 20
53.5357546279
 30
0.0
  0
VERTEX
  8
0
 10
-148.301434
 20
26.0357546279
 30
0.0
  0
SEQEND
  8
0
  0
POLYLINE
  8
0
 62
7
 70
1
 66
1
 10
0.0
 20
0.0
 30
0.0
  0
VERTEX
  8
0
 10
-145.301434
 20
43.5357546279
 30
0.0
  0
VERTEX
  8
0
 10
-139.301434
 20
43.5357546279
 30
0.0
  0
VERTEX
  8
0
 10
-139.301434
 20
38.5357546279
 30
0.0
  0
VERTEX
  8
0
 10
-145.301434
 20
38.5357546279
 30
0.0
  0
SEQEND
  8
0
  0
POLYLINE
  8
0
 62
7
 70
1
 66
1
 10
0.0
 20
0.0
 30
0.0
  0
VERTEX
  8
0
 10
-145.301434
 20
35.5357546279
 30
0.0
  0
VERTEX
  8
0
 10
-139.301434
 20
35.5357546279
 30
0.0
  0
VERTEX
  8
0
 10
-139.301434
 20
30.5357546279
 30
0.0
  0
VERTEX
  8
0
 10
-145.301434
 20
30.5357546279
 30
0.0
  0
SEQEND
  8
0
  0
POLYLINE
  8
0
 62
7
 70
1
 66
1
 10
0.0
 20
0.0
 30
0.0
  0
VERTEX
  8
0
 10
-132.301434
 20
43.5357546279
 30
0.0
  0
VERTEX
  8
0
 10
-126.301434
 20
43.5357546279
 30
0.0
  0
VERTEX
  8
0
 10
-126.301434
 20
38.5357546279
 30
0.0
  0
VERTEX
  8
0
 10
-132.301434
 20
38.5357546279
 30
0.0
  0
SEQEND
  8
0
  0
POLYLINE
  8
0
 62
7
 70
1
 66
1
 10
0.0
 20
0.0
 30
0.0
  0
VERTEX
  8
0
 10
-132.301434
 20
35.5357546279
 30
0.0
  0
VERTEX
  8
0
 10
-126.301434
 20
35.5357546279
 30
0.0
  0
VERTEX
  8
0
 10
-126.301434
 20
30.5357546279
 30
0.0
  0
VERTEX
  8
0
 10
-132.301434
 20
30.5357546279
 30
0.0
  0
SEQEND
  8
0
  0
POLYLINE
  8
0
 62
7
 70
1
 66
1
 10
0.0
 20
0.0
 30
0.0
  0
VERTEX
  8
0
 10
-119.301434
 20
43.5357546279
 30
0.0
  0
VERTEX
  8
0
 10
-113.301434
 20
43.5357546279
 30
0.0
  0
VERTEX
  8
0
 10
-113.301434
 20
38.5357546279
 30
0.0
  0
VERTEX
  8
0
 10
-119.301434
 20
38.5357546279
 30
0.0
  0
SEQEND
  8
0
  0
POLYLINE
  8
0
 62
7
 70
1
 66
1
 10
0.0
 20
0.0
 30
0.0
  0
VERTEX
  8
0
 10
-119.301434
 20
35.5357546279
 30
0.0
  0
VERTEX
  8
0
 10
-113.301434
 20
35.5357546279
 30
0.0
  0
VERTEX
  8
0
 10
-113.301434
 20
30.5357546279
 30
0.0
  0
VERTEX
  8
0
 10
-119.301434
 20
30.5357546279
 30
0.0
  0
SEQEND
  8
0
  0
POLYLINE
  8
0
 62
7
 70
1
 66
1
 10
0.0
 20
0.0
 30
0.0
  0
VERTEX
  8
0
 10
-106.301434
 20
43.5357546279
 30
0.0
  0
VERTEX
  8
0
 10
-100.301434
 20
43.5357546279
 30
0.0
  0
VERTEX
  8
0
 10
-100.301434
 20
38.5357546279
 30
0.0
  0
VERTEX
  8
0
 10
-106.301434
 20
38.5357546279
 30
0.0
  0
SEQEND
  8
0
  0
POLYLINE
  8
0
 62
7
 70
1
 66
1
 10
0.0
 20
0.0
 30
0.0
  0
VERTEX
  8
0
 10
-106.301434
 20
35.5357546279
 30
0.0
  0
VERTEX
  8
0
 10
-100.301434
 20
35.5357546279
 30
0.0
  0
VERTEX
  8
0
 10
-100.301434
 20
30.5357546279
 30
0.0
  0
VERTEX
  8
0
 10
-106.301434
 20
30.5357546279
 30
0.0
  0
SEQEND
  8
0
  0
POLYLINE
  8
0
 62
7
 70
1
 66
1
 10
0.0
 20
0.0
 30
0.0
  0
VERTEX
  8
0
 10
-93.301434
 20
43.5357546279
 30
0.0
  0
VERTEX
  8
0
 10
-87.301434
 20
43.5357546279
 30
0.0
  0
VERTEX
  8
0
 10
-87.301434
 20
38.5357546279
 30
0.0
  0
VERTEX
  8
0
 10
-93.301434
 20
38.5357546279
 30
0.0
  0
SEQEND
  8
0
  0
POLYLINE
  8
0
 62
7
 70
1
 66
1
 10
0.0
 20
0.0
 30
0.0
  0
VERTEX
  8
0
 10
-93.301434
 20
35.5357546279
 30
0.0
  0
VERTEX
  8
0
 10
-87.301434
 20
35.5357546279
 30
0.0
  0
VERTEX
  8
0
 10
-87.301434
 20
30.5357546279
 30
0.0
  0
VERTEX
  8
0
 10
-93.301434
 20
30.5357546279
 30
0.0
  0
SEQEND
  8
0
  0
POLYLINE
  8
0
 62
7
 70
1
 66
1
 10
0.0
 20
0.0
 30
0.0
  0
VERTEX
  8
0
 10
-80.301434
 20
43.5357546279
 30
0.0
  0
VERTEX
  8
0
 10
-74.301434
 20
43.5357546279
 30
0.0
  0
VERTEX
  8
0
 10
-74.301434
 20
38.5357546279
 30
0.0
  0
VERTEX
  8
0
 10
-80.301434
 20
38.5357546279
 30
0.0
  0
SEQEND
  8
0
  0
POLYLINE
  8
0
 62
7
 70
1
 66
1
 10
0.0
 20
0.0
 30
0.0
  0
VERTEX
  8
0
 10
-80.301434
 20
35.5357546279
 30
0.0
  0
VERTEX
  8
0
 10
-74.301434
 20
35.5357546279
 30
0.0
  0
VERTEX
  8
0
 10
-74.301434
 20
30.5357546279
 30
0.0
  0
VERTEX
  8
0
 10
-80.301434
 20
30.5357546279
 30
0.0
  0
SEQEND
  8
0
  0
POLYLINE
  8
0
 62
7
 70
1
 66
1
 10
0.0
 20
0.0
 30
0.0
  0
VERTEX
  8
0
 10
-67.301434
 20
43.5357546279
 30
0.0
  0
VERTEX
  8
0
 10
-61.301434
 20
43.5357546279
 30
0.0
  0
VERTEX
  8
0
 10
-61.301434
 20
38.5357546279
 30
0.0
  0
VERTEX
  8
0
 10
-67.301434
 20
38.5357546279
 30
0.0
  0
SEQEND
  8
0
  0
POLYLINE
  8
0
 62
7
 70
1
 66
1
 10
0.0
 20
0.0
 30
0.0
  0
VERTEX
  8
0
 10
-67.301434
 20
35.5357546279
 30
0.0
  0
VERTEX
  8
0
 10
-61.301434
 20
35.5357546279
 30
0.0
  0
VERTEX
  8
0
 10
-61.301434
 20
30.5357546279
 30
0.0
  0
VERTEX
  8
0
 10
-67.301434
 20
30.5357546279
 30
0.0
  0
SEQEND
  8
0
  0
POLYLINE
  8
0
 62
7
 70
1
 66
1
 10
0.0
 20
0.0
 30
0.0
  0
VERTEX
  8
0
 10
-54.301434
 20
43.5357546279
 30
0.0
  0
VERTEX
  8
0
 10
-48.301434
 20
43.5357546279
 30
0.0
  0
VERTEX
  8
0
 10
-48.301434
 20
38.5357546279
 30
0.0
  0
VERTEX
  8
0
 10
-54.301434
 20
38.5357546279
 30
0.0
  0
SEQEND
  8
0
  0
POLYLINE
  8
0
 62
7
 70
1
 66
1
 10
0.0
 20
0.0
 30
0.0
  0
VERTEX
  8
0
 10
-54.301434
 20
35.5357546279
 30
0.0
  0
VERTEX
  8
0
 10
-48.301434
 20
35.5357546279
 30
0.0
  0
VERTEX
  8
0
 10
-48.301434
 20
30.5357546279
 30
0.0
  0
VERTEX
  8
0
 10
-54.301434
 20
30.5357546279
 30
0.0
  0
SEQEND
  8
0
  0
POLYLINE
  8
0
 62
7
 70
1
 66
1
 10
0.0
 20
0.0
 30
0.0
  0
VERTEX
  8
0
 10
-26.301434
 20
45.5357546279
 30
0.0
  0
VERTEX
  8
0
 10
-24.301434
 20
45.5357546279
 30
0.0
  0
VERTEX
  8
0
 10
-24.301434
 20
28.5357546279
 30
0.0
  0
VERTEX
  8
0
 10
-26.301434
 20
28.5357546279
 30
0.0
  0
SEQEND
  8
0
  0
ENDBLK
  0
BLOCK
  8
0
  2
SKETCH007
 70
0
 10
0.0
 20
0.0
 30
0.0
  3
SKETCH007
  0
POLYLINE
  8
0
 62
7
 70
1
 66
1
 10
0.0
 20
0.0
 30
0.0
  0
VERTEX
  8
0
 10
-154.584211408
 20
150.522334433
 30
0.0
  0
VERTEX
  8
0
 10
-154.584211408
 20
115.022334433
 30
0.0
  0
VERTEX
  8
0
 10
-138.084211408
 20
115.022334433
 30
0.0
  0
VERTEX
  8
0
 10
-138.084211408
 20
111.922334433
 30
0.0
  0
VERTEX
  8
0
 10
-127.084211408
 20
111.922334433
 30
0.0
  0
VERTEX
  8
0
 10
-127.084211408
 20
115.022334433
 30
0.0
  0
VERTEX
  8
0
 10
-110.584211408
 20
115.022334433
 30
0.0
  0
VERTEX
  8
0
 10
-110.584211408
 20
150.522334433
 30
0.0
  0
VERTEX
  8
0
 10
-127.084211408
 20
150.522334433
 30
0.0
  0
VERTEX
  8
0
 10
-127.084211408
 20
153.622334433
 30
0.0
  0
VERTEX
  8
0
 10
-138.084211408
 20
153.622334433
 30
0.0
  0
VERTEX
  8
0
 10
-138.084211408
 20
150.522334433
 30
0.0
  0
SEQEND
  8
0
  0
POLYLINE
  8
0
 62
7
 70
1
 66
1
 10
0.0
 20
0.0
 30
0.0
  0
VERTEX
  8
0
 10
-127.084211408
 20
127.122334433
 30
0.0
  0
VERTEX
  8
0
 10
-116.084211408
 20
127.122334433
 30
0.0
  0
VERTEX
  8
0
 10
-116.084211408
 20
124.022334433
 30
0.0
  0
VERTEX
  8
0
 10
-127.084211408
 20
124.022334433
 30
0.0
  0
SEQEND
  8
0
  0
ENDBLK
  0
BLOCK
  8
0
  2
SKETCH010
 70
0
 10
0.0
 20
0.0
 30
0.0
  3
SKETCH010
  0
POLYLINE
  8
0
 62
7
 70
1
 66
1
 10
0.0
 20
0.0
 30
0.0
  0
VERTEX
  8
0
 10
-14.600077
 20
-11.897138
 30
0.0
  0
VERTEX
  8
0
 10
-17.700077
 20
-11.897138
 30
0.0
  0
VERTEX
  8
0
 10
-17.700077
 20
-22.897138
 30
0.0
  0
VERTEX
  8
0
 10
-14.600077
 20
-22.897138
 30
0.0
  0
VERTEX
  8
0
 10
-14.600077
 20
-39.397138
 30
0.0
  0
VERTEX
  8
0
 10
-150.800077
 20
-39.397138
 30
0.0
  0
VERTEX
  8
0
 10
-150.800077
 20
-22.897138
 30
0.0
  0
VERTEX
  8
0
 10
-147.700077
 20
-22.897138
 30
0.0
  0
VERTEX
  8
0
 10
-147.700077
 20
-11.897138
 30
0.0
  0
VERTEX
  8
0
 10
-150.800077
 20
-11.897138
 30
0.0
  0
VERTEX
  8
0
 10
-150.800077
 20
4.602862
 30
0.0
  0
VERTEX
  8
0
 10
-14.600077
 20
4.602862
 30
0.0
  0
SEQEND
  8
0
  0
POLYLINE
  8
0
 62
7
 70
1
 66
1
 10
0.0
 20
0.0
 30
0.0
  0
VERTEX
  8
0
 10
-136.700077
 20
-11.897138
 30
0.0
  0
VERTEX
  8
0
 10
-133.600077
 20
-11.897138
 30
0.0
  0
VERTEX
  8
0
 10
-133.600077
 20
-22.897138
 30
0.0
  0
VERTEX
  8
0
 10
-136.700077
 20
-22.897138
 30
0.0
  0
SEQEND
  8
0
  0
POLYLINE
  8
0
 62
7
 70
1
 66
1
 10
0.0
 20
0.0
 30
0.0
  0
VERTEX
  8
0
 10
-123.700077
 20
-11.897138
 30
0.0
  0
VERTEX
  8
0
 10
-120.600077
 20
-11.897138
 30
0.0
  0
VERTEX
  8
0
 10
-120.600077
 20
-22.897138
 30
0.0
  0
VERTEX
  8
0
 10
-123.700077
 20
-22.897138
 30
0.0
  0
SEQEND
  8
0
  0
POLYLINE
  8
0
 62
7
 70
1
 66
1
 10
0.0
 20
0.0
 30
0.0
  0
VERTEX
  8
0
 10
-110.700077
 20
-11.897138
 30
0.0
  0
VERTEX
  8
0
 10
-107.603807
 20
-11.897138
 30
0.0
  0
VERTEX
  8
0
 10
-107.603807
 20
-22.897138
 30
0.0
  0
VERTEX
  8
0
 10
-110.700077
 20
-22.897138
 30
0.0
  0
SEQEND
  8
0
  0
POLYLINE
  8
0
 62
7
 70
1
 66
1
 10
0.0
 20
0.0
 30
0.0
  0
VERTEX
  8
0
 10
-84.703807
 20
-11.897138
 30
0.0
  0
VERTEX
  8
0
 10
-81.603807
 20
-11.897138
 30
0.0
  0
VERTEX
  8
0
 10
-81.603807
 20
-22.897138
 30
0.0
  0
VERTEX
  8
0
 10
-84.703807
 20
-22.897138
 30
0.0
  0
SEQEND
  8
0
  0
POLYLINE
  8
0
 62
7
 70
1
 66
1
 10
0.0
 20
0.0
 30
0.0
  0
VERTEX
  8
0
 10
-97.703807
 20
-11.897138
 30
0.0
  0
VERTEX
  8
0
 10
-94.603807
 20
-11.897138
 30
0.0
  0
VERTEX
  8
0
 10
-94.603807
 20
-22.897138
 30
0.0
  0
VERTEX
  8
0
 10
-97.703807
 20
-22.897138
 30
0.0
  0
SEQEND
  8
0
  0
POLYLINE
  8
0
 62
7
 70
1
 66
1
 10
0.0
 20
0.0
 30
0.0
  0
VERTEX
  8
0
 10
-71.703807
 20
-11.897138
 30
0.0
  0
VERTEX
  8
0
 10
-68.603807
 20
-11.897138
 30
0.0
  0
VERTEX
  8
0
 10
-68.603807
 20
-22.897138
 30
0.0
  0
VERTEX
  8
0
 10
-71.703807
 20
-22.897138
 30
0.0
  0
SEQEND
  8
0
  0
POLYLINE
  8
0
 62
7
 70
1
 66
1
 10
0.0
 20
0.0
 30
0.0
  0
VERTEX
  8
0
 10
-58.703807
 20
-11.897138
 30
0.0
  0
VERTEX
  8
0
 10
-55.603807
 20
-11.897138
 30
0.0
  0
VERTEX
  8
0
 10
-55.603807
 20
-22.897138
 30
0.0
  0
VERTEX
  8
0
 10
-58.703807
 20
-22.897138
 30
0.0
  0
SEQEND
  8
0
  0
POLYLINE
  8
0
 62
7
 70
1
 66
1
 10
0.0
 20
0.0
 30
0.0
  0
VERTEX
  8
0
 10
-45.703807
 20
-11.897138
 30
0.0
  0
VERTEX
  8
0
 10
-42.603807
 20
-11.897138
 30
0.0
  0
VERTEX
  8
0
 10
-42.603807
 20
-22.897138
 30
0.0
  0
VERTEX
  8
0
 10
-45.703807
 20
-22.897138
 30
0.0
  0
SEQEND
  8
0
  0
ENDBLK
  0
ENDSEC
  0
SECTION
  2
ENTITIES
  0
INSERT
  2
SKETCH002
  8
0
 62
7
 10
0.0
 20
0.0
 30
0.0
  0
INSERT
  2
SKETCH
  8
0
 62
7
 10
0.0
 20
0.0
 30
0.0
  0
INSERT
  2
SKETCH007
  8
0
 62
7
 10
0.0
 20
0.0
 30
0.0
  0
POLYLINE
  8
0
 62
7
 70
1
 66
1
 10
0.0
 20
0.0
 30
0.0
  0
VERTEX
  8
0
 10
-188.784115818
 20
154.563319657
 30
0.0
  0
VERTEX
  8
0
 10
-160.284115818
 20
154.563319657
 30
0.0
  0
VERTEX
  8
0
 10
-160.284115818
 20
90.3633196569
 30
0.0
  0
VERTEX
  8
0
 10
-157.184115818
 20
90.3633196569
 30
0.0
  0
VERTEX
  8
0
 10
-157.184115818
 20
79.3633196569
 30
0.0
  0
VERTEX
  8
0
 10
-160.284115818
 20
79.3633196569
 30
0.0
  0
VERTEX
  8
0
 10
-160.284115818
 20
18.3633196569
 30
0.0
  0
VERTEX
  8
0
 10
-195.784115818
 20
18.3633196569
 30
0.0
  0
VERTEX
  8
0
 10
-195.784115818
 20
49.3633196569
 30
0.0
  0
VERTEX
  8
0
 10
-188.784115818
 20
49.3633196569
 30
0.0
  0
SEQEND
  8
0
  0
POLYLINE
  8
0
 62
7
 70
1
 66
1
 10
0.0
 20
0.0
 30
0.0
  0
VERTEX
  8
0
 10
-201.920520641
 20
-48.1844544745
 30
0.0
  0
VERTEX
  8
0
 10
-201.920520641
 20
-41.1844544745
 30
0.0
  0
VERTEX
  8
0
 10
-185.420520641
 20
-41.1844544745
 30
0.0
  0
VERTEX
  8
0
 10
-185.420520641
 20
-38.0844544745
 30
0.0
  0
VERTEX
  8
0
 10
-174.420520641
 20
-38.0844544745
 30
0.0
  0
VERTEX
  8
0
 10
-174.420520641
 20
-41.1844544745
 30
0.0
  0
VERTEX
  8
0
 10
-157.920520641
 20
-41.1844544745
 30
0.0
  0
VERTEX
  8
0
 10
-157.920520641
 20
-48.1844544745
 30
0.0
  0
SEQEND
  8
0
  0
POLYLINE
  8
0
 62
7
 70
1
 66
1
 10
0.0
 20
0.0
 30
0.0
  0
VERTEX
  8
0
 10
-202.038022641
 20
-63.7920704745
 30
0.0
  0
VERTEX
  8
0
 10
-202.038022641
 20
-56.7920704745
 30
0.0
  0
VERTEX
  8
0
 10
-185.538022641
 20
-56.7920704745
 30
0.0
  0
VERTEX
  8
0
 10
-185.538022641
 20
-53.6920704745
 30
0.0
  0
VERTEX
  8
0
 10
-174.538022641
 20
-53.6920704745
 30
0.0
  0
VERTEX
  8
0
 10
-174.538022641
 20
-56.7920704745
 30
0.0
  0
VERTEX
  8
0
 10
-158.038022641
 20
-56.7920704745
 30
0.0
  0
VERTEX
  8
0
 10
-158.038022641
 20
-63.7920704745
 30
0.0
  0
SEQEND
  8
0
  0
POLYLINE
  8
0
 62
7
 70
1
 66
1
 10
0.0
 20
0.0
 30
0.0
  0
VERTEX
  8
0
 10
-89.7267705132
 20
103.968923758
 30
0.0
  0
VERTEX
  8
0
 10
-78.7267705132
 20
103.968923758
 30
0.0
  0
VERTEX
  8
0
 10
-78.7267705132
 20
107.068923758
 30
0.0
  0
VERTEX
  8
0
 10
-17.1267705132
 20
107.068923758
 30
0.0
  0
VERTEX
  8
0
 10
-17.1267705132
 20
87.4689237581
 30
0.0
  0
VERTEX
  8
0
 10
-20.2267705132
 20
87.4689237581
 30
0.0
  0
VERTEX
  8
0
 10
-20.2267705132
 20
76.4689237581
 30
0.0
  0
VERTEX
  8
0
 10
-17.1267705132
 20
76.4689237581
 30
0.0
  0
VERTEX
  8
0
 10
-17.1267705132
 20
56.8689237581
 30
0.0
  0
VERTEX
  8
0
 10
-78.7267705132
 20
56.8689237581
 30
0.0
  0
VERTEX
  8
0
 10
-78.7267705132
 20
59.9689237581
 30
0.0
  0
VERTEX
  8
0
 10
-89.7267705132
 20
59.9689237581
 30
0.0
  0
VERTEX
  8
0
 10
-89.7267705132
 20
56.8689237581
 30
0.0
  0
VERTEX
  8
0
 10
-153.326770513
 20
56.8689237581
 30
0.0
  0
VERTEX
  8
0
 10
-153.326770513
 20
76.4689237581
 30
0.0
  0
VERTEX
  8
0
 10
-150.226770513
 20
76.4689237581
 30
0.0
  0
VERTEX
  8
0
 10
-150.226770513
 20
87.4689237581
 30
0.0
  0
VERTEX
  8
0
 10
-153.326770513
 20
87.4689237581
 30
0.0
  0
VERTEX
  8
0
 10
-153.326770513
 20
107.068923758
 30
0.0
  0
VERTEX
  8
0
 10
-89.7267705132
 20
107.068923758
 30
0.0
  0
SEQEND
  8
0
  0
INSERT
  2
SKETCH010
  8
0
 62
7
 10
0.0
 20
0.0
 30
0.0
  0
POLYLINE
  8
0
 62
7
 70
1
 66
1
 10
0.0
 20
0.0
 30
0.0
  0
VERTEX
  8
0
 10
-150.147286901
 20
-44.2511869843
 30
0.0
  0
VERTEX
  8
0
 10
-150.147286901
 20
-72.7511869843
 30
0.0
  0
VERTEX
  8
0
 10
-44.9472869012
 20
-72.7511869843
 30
0.0
  0
VERTEX
  8
0
 10
-44.9472869012
 20
-79.7511869843
 30
0.0
  0
VERTEX
  8
0
 10
-13.9472869012
 20
-79.7511869843
 30
0.0
  0
VERTEX
  8
0
 10
-13.9472869012
 20
-44.2511869843
 30
0.0
  0
VERTEX
  8
0
 10
-74.9472869012
 20
-44.2511869843
 30
0.0
  0
VERTEX
  8
0
 10
-74.9472869012
 20
-41.1511869843
 30
0.0
  0
VERTEX
  8
0
 10
-85.9472869012
 20
-41.1511869843
 30
0.0
  0
VERTEX
  8
0
 10
-85.9472869012
 20
-44.2511869843
 30
0.0
  0
SEQEND
  8
0
  0
POLYLINE
  8
0
 62
7
 70
1
 66
1
 10
0.0
 20
0.0
 30
0.0
  0
VERTEX
  8
0
 10
-200.392400641
 20
-32.0281372101
 30
0.0
  0
VERTEX
  8
0
 10
-200.392400641
 20
-25.0281372101
 30
0.0
  0
VERTEX
  8
0
 10
-183.892400641
 20
-25.0281372101
 30
0.0
  0
VERTEX
  8
0
 10
-183.892400641
 20
-21.9281372101
 30
0.0
  0
VERTEX
  8
0
 10
-172.892400641
 20
-21.9281372101
 30
0.0
  0
VERTEX
  8
0
 10
-172.892400641
 20
-25.0281372101
 30
0.0
  0
VERTEX
  8
0
 10
-156.392400641
 20
-25.0281372101
 30
0.0
  0
VERTEX
  8
0
 10
-156.392400641
 20
-32.0281372101
 30
0.0
  0
SEQEND
  8
0
  0
POLYLINE
  8
0
 62
7
 70
1
 66
1
 10
0.0
 20
0.0
 30
0.0
  0
VERTEX
  8
0
 10
-58.6711596406
 20
127.329909557
 30
0.0
  0
VERTEX
  8
0
 10
-58.6711596406
 20
134.329909557
 30
0.0
  0
VERTEX
  8
0
 10
-42.1711596406
 20
134.329909557
 30
0.0
  0
VERTEX
  8
0
 10
-42.1711596406
 20
137.429909557
 30
0.0
  0
VERTEX
  8
0
 10
-31.1711596406
 20
137.429909557
 30
0.0
  0
VERTEX
  8
0
 10
-31.1711596406
 20
134.329909557
 30
0.0
  0
VERTEX
  8
0
 10
-14.6711596406
 20
134.329909557
 30
0.0
  0
VERTEX
  8
0
 10
-14.6711596406
 20
127.329909557
 30
0.0
  0
SEQEND
  8
0
  0
POLYLINE
  8
0
 62
7
 70
1
 66
1
 10
0.0
 20
0.0
 30
0.0
  0
VERTEX
  8
0
 10
-58.5254196406
 20
142.373299526
 30
0.0
  0
VERTEX
  8
0
 10
-58.5254196406
 20
149.373299526
 30
0.0
  0
VERTEX
  8
0
 10
-42.0254196406
 20
149.373299526
 30
0.0
  0
VERTEX
  8
0
 10
-42.0254196406
 20
152.473299526
 30
0.0
  0
VERTEX
  8
0
 10
-31.0254196406
 20
152.473299526
 30
0.0
  0
VERTEX
  8
0
 10
-31.0254196406
 20
149.373299526
 30
0.0
  0
VERTEX
  8
0
 10
-14.5254196406
 20
149.373299526
 30
0.0
  0
VERTEX
  8
0
 10
-14.5254196406
 20
142.373299526
 30
0.0
  0
SEQEND
  8
0
  0
POLYLINE
  8
0
 62
7
 70
1
 66
1
 10
0.0
 20
0.0
 30
0.0
  0
VERTEX
  8
0
 10
-199.668988641
 20
0.950443525541
 30
0.0
  0
VERTEX
  8
0
 10
-199.668988641
 20
7.95044352554
 30
0.0
  0
VERTEX
  8
0
 10
-183.168988641
 20
7.95044352554
 30
0.0
  0
VERTEX
  8
0
 10
-183.168988641
 20
11.0504435255
 30
0.0
  0
VERTEX
  8
0
 10
-172.168988641
 20
11.0504435255
 30
0.0
  0
VERTEX
  8
0
 10
-172.168988641
 20
7.95044352554
 30
0.0
  0
VERTEX
  8
0
 10
-155.668988641
 20
7.95044352554
 30
0.0
  0
VERTEX
  8
0
 10
-155.668988641
 20
0.950443525541
 30
0.0
  0
SEQEND
  8
0
  0
POLYLINE
  8
0
 62
7
 70
1
 66
1
 10
0.0
 20
0.0
 30
0.0
  0
VERTEX
  8
0
 10
-58.3329846406
 20
114.109860526
 30
0.0
  0
VERTEX
  8
0
 10
-58.3329846406
 20
121.109860526
 30
0.0
  0
VERTEX
  8
0
 10
-41.8329846406
 20
121.109860526
 30
0.0
  0
VERTEX
  8
0
 10
-41.8329846406
 20
124.209860526
 30
0.0
  0
VERTEX
  8
0
 10
-30.8329846406
 20
124.209860526
 30
0.0
  0
VERTEX
  8
0
 10
-30.8329846406
 20
121.109860526
 30
0.0
  0
VERTEX
  8
0
 10
-14.3329846406
 20
121.109860526
 30
0.0
  0
VERTEX
  8
0
 10
-14.3329846406
 20
114.109860526
 30
0.0
  0
SEQEND
  8
0
  0
POLYLINE
  8
0
 62
7
 70
1
 66
1
 10
0.0
 20
0.0
 30
0.0
  0
VERTEX
  8
0
 10
-200.629788641
 20
-15.5250864432
 30
0.0
  0
VERTEX
  8
0
 10
-200.629788641
 20
-8.52508644323
 30
0.0
  0
VERTEX
  8
0
 10
-184.129788641
 20
-8.52508644323
 30
0.0
  0
VERTEX
  8
0
 10
-184.129788641
 20
-5.42508644323
 30
0.0
  0
VERTEX
  8
0
 10
-173.129788641
 20
-5.42508644323
 30
0.0
  0
VERTEX
  8
0
 10
-173.129788641
 20
-8.52508644323
 30
0.0
  0
VERTEX
  8
0
 10
-156.629788641
 20
-8.52508644323
 30
0.0
  0
VERTEX
  8
0
 10
-156.629788641
 20
-15.5250864432
 30
0.0
  0
SEQEND
  8
0
  0
ENDSEC
  0
EOF
