<?xml version="1.0" encoding="UTF-8" standalone="no"?>
<!-- Created with FreeCAD (http://www.freecadweb.org) -->
<svg xmlns="http://www.w3.org/2000/svg"
     xmlns:xlink="http://www.w3.org/1999/xlink" xmlns:ev="http://www.w3.org/2001/xml-events"
     version="1.1" baseProfile="full"
     width="277" height="190">
<g>
</g>
<path
   d="M 10,10 L 267,10 L 267,180 L 10,180 L 10,10 z "
   style="fill:#ffffff;fill-opacity:1;fill-rule:evenodd;stroke:none;stroke-width:1px;stroke-linecap:butt;stroke-linejoin:miter;stroke-opacity:1" />
<g>
<line x1="183.483" y1="93.6796" x2="141.258" y2="93.6796" stroke="#ffffff" stroke-width="1px" />
<line x1="183.483" y1="89.0612" x2="183.483" y2="93.6796" stroke="#ffffff" stroke-width="1px" />
<line x1="165.999" y1="89.0612" x2="183.483" y2="89.0612" stroke="#ffffff" stroke-width="1px" />
<line x1="165.999" y1="87.0159" x2="165.999" y2="89.0612" stroke="#ffffff" stroke-width="1px" />
<line x1="158.741" y1="87.0159" x2="165.999" y2="87.0159" stroke="#ffffff" stroke-width="1px" />
<line x1="158.741" y1="89.0612" x2="158.741" y2="87.0159" stroke="#ffffff" stroke-width="1px" />
<line x1="141.258" y1="89.0612" x2="158.741" y2="89.0612" stroke="#ffffff" stroke-width="1px" />
<line x1="141.258" y1="93.6796" x2="141.258" y2="89.0612" stroke="#ffffff" stroke-width="1px" />
<line x1="187.348" y1="58.52" x2="191.967" y2="58.52" stroke="#ffffff" stroke-width="1px" />
<line x1="187.348" y1="76.0039" x2="187.348" y2="58.52" stroke="#ffffff" stroke-width="1px" />
<line x1="185.303" y1="76.0039" x2="187.348" y2="76.0039" stroke="#ffffff" stroke-width="1px" />
<line x1="185.303" y1="83.2614" x2="185.303" y2="76.0039" stroke="#ffffff" stroke-width="1px" />
<line x1="187.348" y1="83.2614" x2="185.303" y2="83.2614" stroke="#ffffff" stroke-width="1px" />
<line x1="187.348" y1="100.745" x2="187.348" y2="83.2614" stroke="#ffffff" stroke-width="1px" />
<line x1="191.967" y1="100.745" x2="187.348" y2="100.745" stroke="#ffffff" stroke-width="1px" />
<line x1="191.967" y1="58.52" x2="191.967" y2="100.745" stroke="#ffffff" stroke-width="1px" />
<line x1="171.047" y1="102.874" x2="175.665" y2="102.874" stroke="#ffffff" stroke-width="1px" />
<line x1="171.047" y1="120.358" x2="171.047" y2="102.874" stroke="#ffffff" stroke-width="1px" />
<line x1="169.002" y1="120.358" x2="171.047" y2="120.358" stroke="#ffffff" stroke-width="1px" />
<line x1="169.002" y1="127.615" x2="169.002" y2="120.358" stroke="#ffffff" stroke-width="1px" />
<line x1="171.047" y1="127.615" x2="169.002" y2="127.615" stroke="#ffffff" stroke-width="1px" />
<line x1="171.047" y1="145.099" x2="171.047" y2="127.615" stroke="#ffffff" stroke-width="1px" />
<line x1="175.665" y1="145.099" x2="171.047" y2="145.099" stroke="#ffffff" stroke-width="1px" />
<line x1="175.665" y1="102.874" x2="175.665" y2="145.099" stroke="#ffffff" stroke-width="1px" />
<line x1="179.391" y1="103.234" x2="184.009" y2="103.234" stroke="#ffffff" stroke-width="1px" />
<line x1="179.391" y1="120.718" x2="179.391" y2="103.234" stroke="#ffffff" stroke-width="1px" />
<line x1="177.345" y1="120.718" x2="179.391" y2="120.718" stroke="#ffffff" stroke-width="1px" />
<line x1="177.345" y1="127.975" x2="177.345" y2="120.718" stroke="#ffffff" stroke-width="1px" />
<line x1="179.391" y1="127.975" x2="177.345" y2="127.975" stroke="#ffffff" stroke-width="1px" />
<line x1="179.391" y1="145.459" x2="179.391" y2="127.975" stroke="#ffffff" stroke-width="1px" />
<line x1="184.009" y1="145.459" x2="179.391" y2="145.459" stroke="#ffffff" stroke-width="1px" />
<line x1="184.009" y1="103.234" x2="184.009" y2="145.459" stroke="#ffffff" stroke-width="1px" />
<line x1="187.348" y1="102.855" x2="191.967" y2="102.855" stroke="#ffffff" stroke-width="1px" />
<line x1="187.348" y1="120.339" x2="187.348" y2="102.855" stroke="#ffffff" stroke-width="1px" />
<line x1="185.303" y1="120.339" x2="187.348" y2="120.339" stroke="#ffffff" stroke-width="1px" />
<line x1="185.303" y1="127.597" x2="185.303" y2="120.339" stroke="#ffffff" stroke-width="1px" />
<line x1="187.348" y1="127.597" x2="185.303" y2="127.597" stroke="#ffffff" stroke-width="1px" />
<line x1="187.348" y1="145.08" x2="187.348" y2="127.597" stroke="#ffffff" stroke-width="1px" />
<line x1="191.967" y1="145.08" x2="187.348" y2="145.08" stroke="#ffffff" stroke-width="1px" />
<line x1="191.967" y1="102.855" x2="191.967" y2="145.08" stroke="#ffffff" stroke-width="1px" />
<line x1="187.348" y1="147.38" x2="191.967" y2="147.38" stroke="#ffffff" stroke-width="1px" />
<line x1="187.348" y1="164.864" x2="187.348" y2="147.38" stroke="#ffffff" stroke-width="1px" />
<line x1="185.303" y1="164.864" x2="187.348" y2="164.864" stroke="#ffffff" stroke-width="1px" />
<line x1="185.303" y1="172.121" x2="185.303" y2="164.864" stroke="#ffffff" stroke-width="1px" />
<line x1="187.348" y1="172.121" x2="185.303" y2="172.121" stroke="#ffffff" stroke-width="1px" />
<line x1="187.348" y1="189.605" x2="187.348" y2="172.121" stroke="#ffffff" stroke-width="1px" />
<line x1="191.967" y1="189.605" x2="187.348" y2="189.605" stroke="#ffffff" stroke-width="1px" />
<line x1="191.967" y1="147.38" x2="191.967" y2="189.605" stroke="#ffffff" stroke-width="1px" />
<line x1="179.77" y1="147.38" x2="184.388" y2="147.38" stroke="#ffffff" stroke-width="1px" />
<line x1="179.77" y1="164.864" x2="179.77" y2="147.38" stroke="#ffffff" stroke-width="1px" />
<line x1="177.724" y1="164.864" x2="179.77" y2="164.864" stroke="#ffffff" stroke-width="1px" />
<line x1="177.724" y1="172.121" x2="177.724" y2="164.864" stroke="#ffffff" stroke-width="1px" />
<line x1="179.77" y1="172.121" x2="177.724" y2="172.121" stroke="#ffffff" stroke-width="1px" />
<line x1="179.77" y1="189.605" x2="179.77" y2="172.121" stroke="#ffffff" stroke-width="1px" />
<line x1="184.388" y1="189.605" x2="179.77" y2="189.605" stroke="#ffffff" stroke-width="1px" />
<line x1="184.388" y1="147.38" x2="184.388" y2="189.605" stroke="#ffffff" stroke-width="1px" />
<line x1="172.181" y1="147.787" x2="176.8" y2="147.787" stroke="#ffffff" stroke-width="1px" />
<line x1="172.181" y1="165.271" x2="172.181" y2="147.787" stroke="#ffffff" stroke-width="1px" />
<line x1="170.136" y1="165.271" x2="172.181" y2="165.271" stroke="#ffffff" stroke-width="1px" />
<line x1="170.136" y1="172.528" x2="170.136" y2="165.271" stroke="#ffffff" stroke-width="1px" />
<line x1="172.181" y1="172.528" x2="170.136" y2="172.528" stroke="#ffffff" stroke-width="1px" />
<line x1="172.181" y1="190.012" x2="172.181" y2="172.528" stroke="#ffffff" stroke-width="1px" />
<line x1="176.8" y1="190.012" x2="172.181" y2="190.012" stroke="#ffffff" stroke-width="1px" />
<line x1="176.8" y1="147.787" x2="176.8" y2="190.012" stroke="#ffffff" stroke-width="1px" />
<line x1="130.855" y1="63.1208" x2="130.855" y2="65.7599" stroke="#ffffff" stroke-width="1px" />
<line x1="130.855" y1="65.7599" x2="127.688" y2="65.7599" stroke="#ffffff" stroke-width="1px" />
<line x1="127.688" y1="65.7599" x2="127.688" y2="71.6978" stroke="#ffffff" stroke-width="1px" />
<line x1="127.688" y1="71.6978" x2="130.855" y2="71.6978" stroke="#ffffff" stroke-width="1px" />
<line x1="130.855" y1="71.6978" x2="130.855" y2="74.3369" stroke="#ffffff" stroke-width="1px" />
<line x1="132.834" y1="74.3369" x2="130.855" y2="74.3369" stroke="#ffffff" stroke-width="1px" />
<line x1="132.834" y1="63.1208" x2="132.834" y2="74.3369" stroke="#ffffff" stroke-width="1px" />
<line x1="130.855" y1="63.1208" x2="132.834" y2="63.1208" stroke="#ffffff" stroke-width="1px" />
<line x1="113.701" y1="73.0174" x2="113.701" y2="69.7185" stroke="#ffffff" stroke-width="1px" />
<line x1="117.66" y1="73.0174" x2="113.701" y2="73.0174" stroke="#ffffff" stroke-width="1px" />
<line x1="117.66" y1="69.7185" x2="117.66" y2="73.0174" stroke="#ffffff" stroke-width="1px" />
<line x1="113.701" y1="69.7185" x2="117.66" y2="69.7185" stroke="#ffffff" stroke-width="1px" />
<line x1="113.701" y1="67.7392" x2="113.701" y2="64.4404" stroke="#ffffff" stroke-width="1px" />
<line x1="117.66" y1="67.7392" x2="113.701" y2="67.7392" stroke="#ffffff" stroke-width="1px" />
<line x1="117.66" y1="64.4404" x2="117.66" y2="67.7392" stroke="#ffffff" stroke-width="1px" />
<line x1="113.701" y1="64.4404" x2="117.66" y2="64.4404" stroke="#ffffff" stroke-width="1px" />
<line x1="105.124" y1="73.0174" x2="105.124" y2="69.7185" stroke="#ffffff" stroke-width="1px" />
<line x1="109.083" y1="73.0174" x2="105.124" y2="73.0174" stroke="#ffffff" stroke-width="1px" />
<line x1="109.083" y1="69.7185" x2="109.083" y2="73.0174" stroke="#ffffff" stroke-width="1px" />
<line x1="105.124" y1="69.7185" x2="109.083" y2="69.7185" stroke="#ffffff" stroke-width="1px" />
<line x1="105.124" y1="67.7392" x2="105.124" y2="64.4404" stroke="#ffffff" stroke-width="1px" />
<line x1="109.083" y1="67.7392" x2="105.124" y2="67.7392" stroke="#ffffff" stroke-width="1px" />
<line x1="109.083" y1="64.4404" x2="109.083" y2="67.7392" stroke="#ffffff" stroke-width="1px" />
<line x1="105.124" y1="64.4404" x2="109.083" y2="64.4404" stroke="#ffffff" stroke-width="1px" />
<line x1="95.8875" y1="73.0174" x2="95.8875" y2="69.7185" stroke="#ffffff" stroke-width="1px" />
<line x1="99.8461" y1="73.0174" x2="95.8875" y2="73.0174" stroke="#ffffff" stroke-width="1px" />
<line x1="99.8461" y1="69.7185" x2="99.8461" y2="73.0174" stroke="#ffffff" stroke-width="1px" />
<line x1="95.8875" y1="69.7185" x2="99.8461" y2="69.7185" stroke="#ffffff" stroke-width="1px" />
<line x1="95.8875" y1="67.7392" x2="95.8875" y2="64.4404" stroke="#ffffff" stroke-width="1px" />
<line x1="99.8461" y1="67.7392" x2="95.8875" y2="67.7392" stroke="#ffffff" stroke-width="1px" />
<line x1="99.8461" y1="64.4404" x2="99.8461" y2="67.7392" stroke="#ffffff" stroke-width="1px" />
<line x1="95.8875" y1="64.4404" x2="99.8461" y2="64.4404" stroke="#ffffff" stroke-width="1px" />
<line x1="87.3106" y1="73.0174" x2="87.3106" y2="69.7185" stroke="#ffffff" stroke-width="1px" />
<line x1="91.2692" y1="73.0174" x2="87.3106" y2="73.0174" stroke="#ffffff" stroke-width="1px" />
<line x1="91.2692" y1="69.7185" x2="91.2692" y2="73.0174" stroke="#ffffff" stroke-width="1px" />
<line x1="87.3106" y1="69.7185" x2="91.2692" y2="69.7185" stroke="#ffffff" stroke-width="1px" />
<line x1="87.3106" y1="67.7392" x2="87.3106" y2="64.4404" stroke="#ffffff" stroke-width="1px" />
<line x1="91.2692" y1="67.7392" x2="87.3106" y2="67.7392" stroke="#ffffff" stroke-width="1px" />
<line x1="91.2692" y1="64.4404" x2="91.2692" y2="67.7392" stroke="#ffffff" stroke-width="1px" />
<line x1="87.3106" y1="64.4404" x2="91.2692" y2="64.4404" stroke="#ffffff" stroke-width="1px" />
<line x1="78.7336" y1="73.0174" x2="78.7336" y2="69.7185" stroke="#ffffff" stroke-width="1px" />
<line x1="82.6922" y1="73.0174" x2="78.7336" y2="73.0174" stroke="#ffffff" stroke-width="1px" />
<line x1="82.6922" y1="69.7185" x2="82.6922" y2="73.0174" stroke="#ffffff" stroke-width="1px" />
<line x1="78.7336" y1="69.7185" x2="82.6922" y2="69.7185" stroke="#ffffff" stroke-width="1px" />
<line x1="78.7336" y1="67.7392" x2="78.7336" y2="64.4404" stroke="#ffffff" stroke-width="1px" />
<line x1="82.6922" y1="67.7392" x2="78.7336" y2="67.7392" stroke="#ffffff" stroke-width="1px" />
<line x1="82.6922" y1="64.4404" x2="82.6922" y2="67.7392" stroke="#ffffff" stroke-width="1px" />
<line x1="78.7336" y1="64.4404" x2="82.6922" y2="64.4404" stroke="#ffffff" stroke-width="1px" />
<line x1="70.1566" y1="73.0174" x2="70.1566" y2="69.7185" stroke="#ffffff" stroke-width="1px" />
<line x1="74.1152" y1="73.0174" x2="70.1566" y2="73.0174" stroke="#ffffff" stroke-width="1px" />
<line x1="74.1152" y1="69.7185" x2="74.1152" y2="73.0174" stroke="#ffffff" stroke-width="1px" />
<line x1="70.1566" y1="69.7185" x2="74.1152" y2="69.7185" stroke="#ffffff" stroke-width="1px" />
<line x1="70.1566" y1="67.7392" x2="70.1566" y2="64.4404" stroke="#ffffff" stroke-width="1px" />
<line x1="74.1152" y1="67.7392" x2="70.1566" y2="67.7392" stroke="#ffffff" stroke-width="1px" />
<line x1="74.1152" y1="64.4404" x2="74.1152" y2="67.7392" stroke="#ffffff" stroke-width="1px" />
<line x1="70.1566" y1="64.4404" x2="74.1152" y2="64.4404" stroke="#ffffff" stroke-width="1px" />
<line x1="61.5796" y1="73.0174" x2="61.5796" y2="69.7185" stroke="#ffffff" stroke-width="1px" />
<line x1="65.5382" y1="73.0174" x2="61.5796" y2="73.0174" stroke="#ffffff" stroke-width="1px" />
<line x1="65.5382" y1="69.7185" x2="65.5382" y2="73.0174" stroke="#ffffff" stroke-width="1px" />
<line x1="61.5796" y1="69.7185" x2="65.5382" y2="69.7185" stroke="#ffffff" stroke-width="1px" />
<line x1="61.5796" y1="67.7392" x2="61.5796" y2="64.4404" stroke="#ffffff" stroke-width="1px" />
<line x1="65.5382" y1="67.7392" x2="61.5796" y2="67.7392" stroke="#ffffff" stroke-width="1px" />
<line x1="65.5382" y1="64.4404" x2="65.5382" y2="67.7392" stroke="#ffffff" stroke-width="1px" />
<line x1="61.5796" y1="64.4404" x2="65.5382" y2="64.4404" stroke="#ffffff" stroke-width="1px" />
<line x1="53.0027" y1="73.0174" x2="53.0027" y2="69.7185" stroke="#ffffff" stroke-width="1px" />
<line x1="56.9613" y1="73.0174" x2="53.0027" y2="73.0174" stroke="#ffffff" stroke-width="1px" />
<line x1="56.9613" y1="69.7185" x2="56.9613" y2="73.0174" stroke="#ffffff" stroke-width="1px" />
<line x1="53.0027" y1="69.7185" x2="56.9613" y2="69.7185" stroke="#ffffff" stroke-width="1px" />
<line x1="53.0027" y1="67.7392" x2="53.0027" y2="64.4404" stroke="#ffffff" stroke-width="1px" />
<line x1="56.9613" y1="67.7392" x2="53.0027" y2="67.7392" stroke="#ffffff" stroke-width="1px" />
<line x1="56.9613" y1="64.4404" x2="56.9613" y2="67.7392" stroke="#ffffff" stroke-width="1px" />
<line x1="53.0027" y1="64.4404" x2="56.9613" y2="64.4404" stroke="#ffffff" stroke-width="1px" />
<line x1="47.7245" y1="75.9863" x2="45.6793" y2="75.9863" stroke="#ffffff" stroke-width="1px" />
<line x1="45.6793" y1="75.9863" x2="45.6793" y2="83.2438" stroke="#ffffff" stroke-width="1px" />
<line x1="45.6793" y1="83.2438" x2="47.7245" y2="83.2438" stroke="#ffffff" stroke-width="1px" />
<line x1="47.7245" y1="83.2438" x2="47.7245" y2="93.4702" stroke="#ffffff" stroke-width="1px" />
<line x1="47.7245" y1="93.4702" x2="136.793" y2="93.4702" stroke="#ffffff" stroke-width="1px" />
<line x1="136.793" y1="68.7289" x2="136.793" y2="93.4702" stroke="#ffffff" stroke-width="1px" />
<line x1="138.838" y1="68.7289" x2="136.793" y2="68.7289" stroke="#ffffff" stroke-width="1px" />
<line x1="138.838" y1="61.4714" x2="138.838" y2="68.7289" stroke="#ffffff" stroke-width="1px" />
<line x1="136.793" y1="61.4714" x2="138.838" y2="61.4714" stroke="#ffffff" stroke-width="1px" />
<line x1="136.793" y1="51.245" x2="136.793" y2="61.4714" stroke="#ffffff" stroke-width="1px" />
<line x1="47.7245" y1="51.245" x2="136.793" y2="51.245" stroke="#ffffff" stroke-width="1px" />
<line x1="47.7245" y1="51.245" x2="47.7245" y2="75.9863" stroke="#ffffff" stroke-width="1px" />
<line x1="143.096" y1="95.3624" x2="143.096" y2="100.641" stroke="#ffffff" stroke-width="1px" />
<line x1="143.096" y1="100.641" x2="147.714" y2="100.641" stroke="#ffffff" stroke-width="1px" />
<line x1="147.714" y1="100.641" x2="147.714" y2="168.069" stroke="#ffffff" stroke-width="1px" />
<line x1="143.096" y1="168.069" x2="147.714" y2="168.069" stroke="#ffffff" stroke-width="1px" />
<line x1="143.096" y1="188.522" x2="143.096" y2="168.069" stroke="#ffffff" stroke-width="1px" />
<line x1="167.177" y1="188.522" x2="143.096" y2="188.522" stroke="#ffffff" stroke-width="1px" />
<line x1="167.177" y1="146.956" x2="167.177" y2="188.522" stroke="#ffffff" stroke-width="1px" />
<line x1="169.222" y1="146.956" x2="167.177" y2="146.956" stroke="#ffffff" stroke-width="1px" />
<line x1="169.222" y1="139.699" x2="169.222" y2="146.956" stroke="#ffffff" stroke-width="1px" />
<line x1="167.177" y1="139.699" x2="169.222" y2="139.699" stroke="#ffffff" stroke-width="1px" />
<line x1="167.177" y1="95.3624" x2="167.177" y2="139.699" stroke="#ffffff" stroke-width="1px" />
<line x1="143.096" y1="95.3624" x2="167.177" y2="95.3624" stroke="#ffffff" stroke-width="1px" />
<line x1="183.672" y1="85.5325" x2="141.447" y2="85.5325" stroke="#ffffff" stroke-width="1px" />
<line x1="183.672" y1="80.9141" x2="183.672" y2="85.5325" stroke="#ffffff" stroke-width="1px" />
<line x1="166.188" y1="80.9141" x2="183.672" y2="80.9141" stroke="#ffffff" stroke-width="1px" />
<line x1="166.188" y1="78.8689" x2="166.188" y2="80.9141" stroke="#ffffff" stroke-width="1px" />
<line x1="158.931" y1="78.8689" x2="166.188" y2="78.8689" stroke="#ffffff" stroke-width="1px" />
<line x1="158.931" y1="80.9141" x2="158.931" y2="78.8689" stroke="#ffffff" stroke-width="1px" />
<line x1="141.447" y1="80.9141" x2="158.931" y2="80.9141" stroke="#ffffff" stroke-width="1px" />
<line x1="141.447" y1="85.5325" x2="141.447" y2="80.9141" stroke="#ffffff" stroke-width="1px" />
<line x1="46.8978" y1="24.7216" x2="91.2341" y2="24.7216" stroke="#ffffff" stroke-width="1px" />
<line x1="91.2341" y1="24.7216" x2="91.2341" y2="22.6763" stroke="#ffffff" stroke-width="1px" />
<line x1="91.2341" y1="22.6763" x2="98.4916" y2="22.6763" stroke="#ffffff" stroke-width="1px" />
<line x1="98.4916" y1="22.6763" x2="98.4916" y2="24.7216" stroke="#ffffff" stroke-width="1px" />
<line x1="98.4916" y1="24.7216" x2="140.057" y2="24.7216" stroke="#ffffff" stroke-width="1px" />
<line x1="140.057" y1="24.7216" x2="140.057" y2="48.8032" stroke="#ffffff" stroke-width="1px" />
<line x1="119.604" y1="48.8032" x2="140.057" y2="48.8032" stroke="#ffffff" stroke-width="1px" />
<line x1="119.604" y1="44.1848" x2="119.604" y2="48.8032" stroke="#ffffff" stroke-width="1px" />
<line x1="52.1759" y1="44.1848" x2="119.604" y2="44.1848" stroke="#ffffff" stroke-width="1px" />
<line x1="52.1759" y1="48.8032" x2="52.1759" y2="44.1848" stroke="#ffffff" stroke-width="1px" />
<line x1="46.8978" y1="48.8032" x2="52.1759" y2="48.8032" stroke="#ffffff" stroke-width="1px" />
<line x1="46.8978" y1="24.7216" x2="46.8978" y2="48.8032" stroke="#ffffff" stroke-width="1px" />
<line x1="50.3196" y1="120.671" x2="50.3196" y2="113.413" stroke="#ffffff" stroke-width="1px" />
<line x1="52.3649" y1="120.671" x2="50.3196" y2="120.671" stroke="#ffffff" stroke-width="1px" />
<line x1="52.3649" y1="113.413" x2="52.3649" y2="120.671" stroke="#ffffff" stroke-width="1px" />
<line x1="50.3196" y1="113.413" x2="52.3649" y2="113.413" stroke="#ffffff" stroke-width="1px" />
<line x1="118.935" y1="120.671" x2="118.935" y2="113.413" stroke="#ffffff" stroke-width="1px" />
<line x1="120.981" y1="120.671" x2="118.935" y2="120.671" stroke="#ffffff" stroke-width="1px" />
<line x1="120.981" y1="113.413" x2="120.981" y2="120.671" stroke="#ffffff" stroke-width="1px" />
<line x1="118.935" y1="113.413" x2="120.981" y2="113.413" stroke="#ffffff" stroke-width="1px" />
<line x1="110.358" y1="120.671" x2="110.358" y2="113.413" stroke="#ffffff" stroke-width="1px" />
<line x1="112.404" y1="120.671" x2="110.358" y2="120.671" stroke="#ffffff" stroke-width="1px" />
<line x1="112.404" y1="113.413" x2="112.404" y2="120.671" stroke="#ffffff" stroke-width="1px" />
<line x1="110.358" y1="113.413" x2="112.404" y2="113.413" stroke="#ffffff" stroke-width="1px" />
<line x1="101.781" y1="120.671" x2="101.781" y2="113.413" stroke="#ffffff" stroke-width="1px" />
<line x1="103.827" y1="120.671" x2="101.781" y2="120.671" stroke="#ffffff" stroke-width="1px" />
<line x1="103.827" y1="113.413" x2="103.827" y2="120.671" stroke="#ffffff" stroke-width="1px" />
<line x1="101.781" y1="113.413" x2="103.827" y2="113.413" stroke="#ffffff" stroke-width="1px" />
<line x1="84.6275" y1="120.671" x2="84.6275" y2="113.413" stroke="#ffffff" stroke-width="1px" />
<line x1="86.6728" y1="120.671" x2="84.6275" y2="120.671" stroke="#ffffff" stroke-width="1px" />
<line x1="86.6728" y1="113.413" x2="86.6728" y2="120.671" stroke="#ffffff" stroke-width="1px" />
<line x1="84.6275" y1="113.413" x2="86.6728" y2="113.413" stroke="#ffffff" stroke-width="1px" />
<line x1="93.2045" y1="120.671" x2="93.2045" y2="113.413" stroke="#ffffff" stroke-width="1px" />
<line x1="95.2497" y1="120.671" x2="93.2045" y2="120.671" stroke="#ffffff" stroke-width="1px" />
<line x1="95.2497" y1="113.413" x2="95.2497" y2="120.671" stroke="#ffffff" stroke-width="1px" />
<line x1="93.2045" y1="113.413" x2="95.2497" y2="113.413" stroke="#ffffff" stroke-width="1px" />
<line x1="76.0505" y1="120.671" x2="76.0505" y2="113.413" stroke="#ffffff" stroke-width="1px" />
<line x1="78.0958" y1="120.671" x2="76.0505" y2="120.671" stroke="#ffffff" stroke-width="1px" />
<line x1="78.0958" y1="113.413" x2="78.0958" y2="120.671" stroke="#ffffff" stroke-width="1px" />
<line x1="76.0505" y1="113.413" x2="78.0958" y2="113.413" stroke="#ffffff" stroke-width="1px" />
<line x1="67.4736" y1="120.671" x2="67.4736" y2="113.413" stroke="#ffffff" stroke-width="1px" />
<line x1="69.5188" y1="120.671" x2="67.4736" y2="120.671" stroke="#ffffff" stroke-width="1px" />
<line x1="69.5188" y1="113.413" x2="69.5188" y2="120.671" stroke="#ffffff" stroke-width="1px" />
<line x1="67.4736" y1="113.413" x2="69.5188" y2="113.413" stroke="#ffffff" stroke-width="1px" />
<line x1="58.8966" y1="120.671" x2="58.8966" y2="113.413" stroke="#ffffff" stroke-width="1px" />
<line x1="60.9419" y1="120.671" x2="58.8966" y2="120.671" stroke="#ffffff" stroke-width="1px" />
<line x1="60.9419" y1="113.413" x2="60.9419" y2="120.671" stroke="#ffffff" stroke-width="1px" />
<line x1="58.8966" y1="113.413" x2="60.9419" y2="113.413" stroke="#ffffff" stroke-width="1px" />
<line x1="139.454" y1="95.9294" x2="139.454" y2="113.413" stroke="#ffffff" stroke-width="1px" />
<line x1="139.454" y1="113.413" x2="137.409" y2="113.413" stroke="#ffffff" stroke-width="1px" />
<line x1="137.409" y1="113.413" x2="137.409" y2="120.671" stroke="#ffffff" stroke-width="1px" />
<line x1="137.409" y1="120.671" x2="139.454" y2="120.671" stroke="#ffffff" stroke-width="1px" />
<line x1="139.454" y1="120.671" x2="139.454" y2="138.155" stroke="#ffffff" stroke-width="1px" />
<line x1="46.295" y1="138.155" x2="139.454" y2="138.155" stroke="#ffffff" stroke-width="1px" />
<line x1="46.295" y1="120.671" x2="46.295" y2="138.155" stroke="#ffffff" stroke-width="1px" />
<line x1="48.3403" y1="120.671" x2="46.295" y2="120.671" stroke="#ffffff" stroke-width="1px" />
<line x1="48.3403" y1="113.413" x2="48.3403" y2="120.671" stroke="#ffffff" stroke-width="1px" />
<line x1="46.295" y1="113.413" x2="48.3403" y2="113.413" stroke="#ffffff" stroke-width="1px" />
<line x1="46.295" y1="95.9294" x2="46.295" y2="113.413" stroke="#ffffff" stroke-width="1px" />
<line x1="46.295" y1="95.9294" x2="139.454" y2="95.9294" stroke="#ffffff" stroke-width="1px" />
<line x1="91.2831" y1="141.03" x2="91.2831" y2="143.075" stroke="#ffffff" stroke-width="1px" />
<line x1="91.2831" y1="143.075" x2="98.5406" y2="143.075" stroke="#ffffff" stroke-width="1px" />
<line x1="98.5406" y1="143.075" x2="98.5406" y2="141.03" stroke="#ffffff" stroke-width="1px" />
<line x1="98.5406" y1="141.03" x2="140.172" y2="141.03" stroke="#ffffff" stroke-width="1px" />
<line x1="140.172" y1="141.03" x2="140.172" y2="160.559" stroke="#ffffff" stroke-width="1px" />
<line x1="140.172" y1="160.559" x2="138.127" y2="160.559" stroke="#ffffff" stroke-width="1px" />
<line x1="138.127" y1="160.559" x2="138.127" y2="167.816" stroke="#ffffff" stroke-width="1px" />
<line x1="138.127" y1="167.816" x2="140.172" y2="167.816" stroke="#ffffff" stroke-width="1px" />
<line x1="140.172" y1="167.816" x2="140.172" y2="187.346" stroke="#ffffff" stroke-width="1px" />
<line x1="98.5406" y1="187.346" x2="140.172" y2="187.346" stroke="#ffffff" stroke-width="1px" />
<line x1="98.5406" y1="185.3" x2="98.5406" y2="187.346" stroke="#ffffff" stroke-width="1px" />
<line x1="91.2831" y1="185.3" x2="98.5406" y2="185.3" stroke="#ffffff" stroke-width="1px" />
<line x1="91.2831" y1="187.346" x2="91.2831" y2="185.3" stroke="#ffffff" stroke-width="1px" />
<line x1="47.0128" y1="187.346" x2="91.2831" y2="187.346" stroke="#ffffff" stroke-width="1px" />
<line x1="47.0128" y1="174.414" x2="47.0128" y2="187.346" stroke="#ffffff" stroke-width="1px" />
<line x1="49.058" y1="174.414" x2="47.0128" y2="174.414" stroke="#ffffff" stroke-width="1px" />
<line x1="49.058" y1="167.157" x2="49.058" y2="174.414" stroke="#ffffff" stroke-width="1px" />
<line x1="47.0128" y1="167.157" x2="49.058" y2="167.157" stroke="#ffffff" stroke-width="1px" />
<line x1="47.0128" y1="141.03" x2="47.0128" y2="167.157" stroke="#ffffff" stroke-width="1px" />
<line x1="47.0128" y1="141.03" x2="91.2831" y2="141.03" stroke="#ffffff" stroke-width="1px" />
<line x1="166.448" y1="70.6514" x2="166.448" y2="68.6062" stroke="#ffffff" stroke-width="1px" />
<line x1="173.705" y1="70.6514" x2="166.448" y2="70.6514" stroke="#ffffff" stroke-width="1px" />
<line x1="173.705" y1="68.6062" x2="173.705" y2="70.6514" stroke="#ffffff" stroke-width="1px" />
<line x1="166.448" y1="68.6062" x2="173.705" y2="68.6062" stroke="#ffffff" stroke-width="1px" />
<line x1="141.707" y1="53.1676" x2="159.191" y2="53.1676" stroke="#ffffff" stroke-width="1px" />
<line x1="159.191" y1="53.1676" x2="159.191" y2="51.1223" stroke="#ffffff" stroke-width="1px" />
<line x1="159.191" y1="51.1223" x2="166.448" y2="51.1223" stroke="#ffffff" stroke-width="1px" />
<line x1="166.448" y1="51.1223" x2="166.448" y2="53.1676" stroke="#ffffff" stroke-width="1px" />
<line x1="166.448" y1="53.1676" x2="183.932" y2="53.1676" stroke="#ffffff" stroke-width="1px" />
<line x1="183.932" y1="53.1676" x2="183.932" y2="75.2698" stroke="#ffffff" stroke-width="1px" />
<line x1="166.448" y1="75.2698" x2="183.932" y2="75.2698" stroke="#ffffff" stroke-width="1px" />
<line x1="166.448" y1="77.3151" x2="166.448" y2="75.2698" stroke="#ffffff" stroke-width="1px" />
<line x1="159.191" y1="77.3151" x2="166.448" y2="77.3151" stroke="#ffffff" stroke-width="1px" />
<line x1="159.191" y1="75.2698" x2="159.191" y2="77.3151" stroke="#ffffff" stroke-width="1px" />
<line x1="141.707" y1="75.2698" x2="159.191" y2="75.2698" stroke="#ffffff" stroke-width="1px" />
<line x1="141.707" y1="53.1676" x2="141.707" y2="75.2698" stroke="#ffffff" stroke-width="1px" />
<line x1="155.858" y1="39.3692" x2="155.858" y2="28.1532" stroke="#ffffff" stroke-width="1px" />
<line x1="165.754" y1="39.3692" x2="155.858" y2="39.3692" stroke="#ffffff" stroke-width="1px" />
<line x1="165.754" y1="28.1532" x2="165.754" y2="39.3692" stroke="#ffffff" stroke-width="1px" />
<line x1="155.858" y1="28.1532" x2="165.754" y2="28.1532" stroke="#ffffff" stroke-width="1px" />
<line x1="152.889" y1="42.7341" x2="152.889" y2="40.6888" stroke="#ffffff" stroke-width="1px" />
<line x1="160.146" y1="42.7341" x2="152.889" y2="42.7341" stroke="#ffffff" stroke-width="1px" />
<line x1="160.146" y1="40.6888" x2="160.146" y2="42.7341" stroke="#ffffff" stroke-width="1px" />
<line x1="152.889" y1="40.6888" x2="160.146" y2="40.6888" stroke="#ffffff" stroke-width="1px" />
<line x1="167.074" y1="40.6888" x2="167.074" y2="34.0911" stroke="#ffffff" stroke-width="1px" />
<line x1="173.671" y1="40.6888" x2="167.074" y2="40.6888" stroke="#ffffff" stroke-width="1px" />
<line x1="173.671" y1="34.0911" x2="173.671" y2="40.6888" stroke="#ffffff" stroke-width="1px" />
<line x1="167.074" y1="34.0911" x2="173.671" y2="34.0911" stroke="#ffffff" stroke-width="1px" />
<line x1="142.662" y1="25.2502" x2="160.146" y2="25.2502" stroke="#ffffff" stroke-width="1px" />
<line x1="160.146" y1="25.2502" x2="160.146" y2="23.2049" stroke="#ffffff" stroke-width="1px" />
<line x1="160.146" y1="23.2049" x2="167.404" y2="23.2049" stroke="#ffffff" stroke-width="1px" />
<line x1="167.404" y1="23.2049" x2="167.404" y2="25.2502" stroke="#ffffff" stroke-width="1px" />
<line x1="167.404" y1="25.2502" x2="184.887" y2="25.2502" stroke="#ffffff" stroke-width="1px" />
<line x1="184.887" y1="25.2502" x2="184.887" y2="47.3525" stroke="#ffffff" stroke-width="1px" />
<line x1="167.404" y1="47.3525" x2="184.887" y2="47.3525" stroke="#ffffff" stroke-width="1px" />
<line x1="167.404" y1="49.3977" x2="167.404" y2="47.3525" stroke="#ffffff" stroke-width="1px" />
<line x1="160.146" y1="49.3977" x2="167.404" y2="49.3977" stroke="#ffffff" stroke-width="1px" />
<line x1="160.146" y1="47.3525" x2="160.146" y2="49.3977" stroke="#ffffff" stroke-width="1px" />
<line x1="142.662" y1="47.3525" x2="160.146" y2="47.3525" stroke="#ffffff" stroke-width="1px" />
<line x1="142.662" y1="25.2502" x2="142.662" y2="47.3525" stroke="#ffffff" stroke-width="1px" />
</g>
</svg>