<?xml version="1.0"?>
<!DOCTYPE svg PUBLIC "-//W3C//DTD SVG 1.1//EN" "http://www.w3.org/Graphics/SVG/1.1/DTD/svg11.dtd">
<svg width="192.869371506mm" height="234.557200986mm" viewBox="0 0 192.869371506 234.557200986" xmlns="http://www.w3.org/2000/svg" version="1.1">
<g id="Sketch" transform="translate(202.870967,157.225276) scale(1,-1)">
<path id="Sketch_w0000"  d="M -156.65508011 28.1204509247 L -156.65508011 17.1204509247 L -153.55508011 17.1204509247 L -153.55508011 11.6204509247 L -18.5550801103 11.6204509247 L -18.5550801103 39.1204509247 L -15.4550801103 39.1204509247 L -15.4550801103 50.1204509247 L -18.5550801103 50.1204509247 L -18.5550801103 55.6204509247 L -153.55508011 55.6204509247 L -153.55508011 28.1204509247 L -156.65508011 28.1204509247 " stroke="#000000" stroke-width="0.35 px" style="stroke-width:0.35;stroke-miterlimit:4;stroke-dasharray:none;fill:none;fill-rule: evenodd "/>
<path id="Sketch_w0001"  d="M -145.55508011 45.6204509247 L -139.55508011 45.6204509247 L -139.55508011 40.6204509247 L -145.55508011 40.6204509247 L -145.55508011 45.6204509247 " stroke="#000000" stroke-width="0.35 px" style="stroke-width:0.35;stroke-miterlimit:4;stroke-dasharray:none;fill:none;fill-rule: evenodd "/>
<path id="Sketch_w0002"  d="M -145.55508011 37.6204509247 L -139.55508011 37.6204509247 L -139.55508011 32.6204509247 L -145.55508011 32.6204509247 L -145.55508011 37.6204509247 " stroke="#000000" stroke-width="0.35 px" style="stroke-width:0.35;stroke-miterlimit:4;stroke-dasharray:none;fill:none;fill-rule: evenodd "/>
<path id="Sketch_w0003"  d="M -132.55508011 45.6204509247 L -126.55508011 45.6204509247 L -126.55508011 40.6204509247 L -132.55508011 40.6204509247 L -132.55508011 45.6204509247 " stroke="#000000" stroke-width="0.35 px" style="stroke-width:0.35;stroke-miterlimit:4;stroke-dasharray:none;fill:none;fill-rule: evenodd "/>
<path id="Sketch_w0004"  d="M -132.55508011 37.6204509247 L -126.55508011 37.6204509247 L -126.55508011 32.6204509247 L -132.55508011 32.6204509247 L -132.55508011 37.6204509247 " stroke="#000000" stroke-width="0.35 px" style="stroke-width:0.35;stroke-miterlimit:4;stroke-dasharray:none;fill:none;fill-rule: evenodd "/>
<path id="Sketch_w0005"  d="M -119.55508011 45.6204509247 L -113.55508011 45.6204509247 L -113.55508011 40.6204509247 L -119.55508011 40.6204509247 L -119.55508011 45.6204509247 " stroke="#000000" stroke-width="0.35 px" style="stroke-width:0.35;stroke-miterlimit:4;stroke-dasharray:none;fill:none;fill-rule: evenodd "/>
<path id="Sketch_w0006"  d="M -119.55508011 37.6204509247 L -113.55508011 37.6204509247 L -113.55508011 32.6204509247 L -119.55508011 32.6204509247 L -119.55508011 37.6204509247 " stroke="#000000" stroke-width="0.35 px" style="stroke-width:0.35;stroke-miterlimit:4;stroke-dasharray:none;fill:none;fill-rule: evenodd "/>
<path id="Sketch_w0007"  d="M -106.55508011 45.6204509247 L -100.55508011 45.6204509247 L -100.55508011 40.6204509247 L -106.55508011 40.6204509247 L -106.55508011 45.6204509247 " stroke="#000000" stroke-width="0.35 px" style="stroke-width:0.35;stroke-miterlimit:4;stroke-dasharray:none;fill:none;fill-rule: evenodd "/>
<path id="Sketch_w0008"  d="M -106.55508011 37.6204509247 L -100.55508011 37.6204509247 L -100.55508011 32.6204509247 L -106.55508011 32.6204509247 L -106.55508011 37.6204509247 " stroke="#000000" stroke-width="0.35 px" style="stroke-width:0.35;stroke-miterlimit:4;stroke-dasharray:none;fill:none;fill-rule: evenodd "/>
<path id="Sketch_w0009"  d="M -93.5550801103 45.6204509247 L -87.5550801103 45.6204509247 L -87.5550801103 40.6204509247 L -93.5550801103 40.6204509247 L -93.5550801103 45.6204509247 " stroke="#000000" stroke-width="0.35 px" style="stroke-width:0.35;stroke-miterlimit:4;stroke-dasharray:none;fill:none;fill-rule: evenodd "/>
<path id="Sketch_w0010"  d="M -93.5550801103 37.6204509247 L -87.5550801103 37.6204509247 L -87.5550801103 32.6204509247 L -93.5550801103 32.6204509247 L -93.5550801103 37.6204509247 " stroke="#000000" stroke-width="0.35 px" style="stroke-width:0.35;stroke-miterlimit:4;stroke-dasharray:none;fill:none;fill-rule: evenodd "/>
<path id="Sketch_w0011"  d="M -80.5550801103 45.6204509247 L -74.5550801103 45.6204509247 L -74.5550801103 40.6204509247 L -80.5550801103 40.6204509247 L -80.5550801103 45.6204509247 " stroke="#000000" stroke-width="0.35 px" style="stroke-width:0.35;stroke-miterlimit:4;stroke-dasharray:none;fill:none;fill-rule: evenodd "/>
<path id="Sketch_w0012"  d="M -80.5550801103 37.6204509247 L -74.5550801103 37.6204509247 L -74.5550801103 32.6204509247 L -80.5550801103 32.6204509247 L -80.5550801103 37.6204509247 " stroke="#000000" stroke-width="0.35 px" style="stroke-width:0.35;stroke-miterlimit:4;stroke-dasharray:none;fill:none;fill-rule: evenodd "/>
<path id="Sketch_w0013"  d="M -66.5550801103 45.6204509247 L -60.5550801103 45.6204509247 L -60.5550801103 40.6204509247 L -66.5550801103 40.6204509247 L -66.5550801103 45.6204509247 " stroke="#000000" stroke-width="0.35 px" style="stroke-width:0.35;stroke-miterlimit:4;stroke-dasharray:none;fill:none;fill-rule: evenodd "/>
<path id="Sketch_w0014"  d="M -66.5550801103 37.6204509247 L -60.5550801103 37.6204509247 L -60.5550801103 32.6204509247 L -66.5550801103 32.6204509247 L -66.5550801103 37.6204509247 " stroke="#000000" stroke-width="0.35 px" style="stroke-width:0.35;stroke-miterlimit:4;stroke-dasharray:none;fill:none;fill-rule: evenodd "/>
<path id="Sketch_w0015"  d="M -53.5550801103 45.6204509247 L -47.5550801103 45.6204509247 L -47.5550801103 40.6204509247 L -53.5550801103 40.6204509247 L -53.5550801103 45.6204509247 " stroke="#000000" stroke-width="0.35 px" style="stroke-width:0.35;stroke-miterlimit:4;stroke-dasharray:none;fill:none;fill-rule: evenodd "/>
<path id="Sketch_w0016"  d="M -53.5550801103 37.6204509247 L -47.5550801103 37.6204509247 L -47.5550801103 32.6204509247 L -53.5550801103 32.6204509247 L -53.5550801103 37.6204509247 " stroke="#000000" stroke-width="0.35 px" style="stroke-width:0.35;stroke-miterlimit:4;stroke-dasharray:none;fill:none;fill-rule: evenodd "/>
<path id="Sketch_w0017"  d="M -27.5550801103 47.6204509247 L -24.5550801103 47.6204509247 L -24.5550801103 30.6204509247 L -27.5550801103 30.6204509247 L -27.5550801103 47.6204509247 " stroke="#000000" stroke-width="0.35 px" style="stroke-width:0.35;stroke-miterlimit:4;stroke-dasharray:none;fill:none;fill-rule: evenodd "/>
<path id="Sketch_w0018"  d="M -34.5550801103 43.6204509247 L -28.5550801103 43.6204509247 L -28.5550801103 34.6204509247 L -34.5550801103 34.6204509247 L -34.5550801103 43.6204509247 " stroke="#000000" stroke-width="0.35 px" style="stroke-width:0.35;stroke-miterlimit:4;stroke-dasharray:none;fill:none;fill-rule: evenodd "/>
<title>PCB_floor</title>
</g>
<g id="Sketch007" transform="translate(202.870967,157.225276) scale(1,-1)">
<path id="Sketch007_w0000"  d="M -154.584211408 149.841398757 L -154.584211408 116.341398757 L -138.084211408 116.341398757 L -138.084211408 113.241398757 L -127.084211408 113.241398757 L -127.084211408 116.341398757 L -110.584211408 116.341398757 L -110.584211408 149.841398757 L -127.084211408 149.841398757 L -127.084211408 152.941398757 L -138.084211408 152.941398757 L -138.084211408 149.841398757 L -154.584211408 149.841398757 " stroke="#000000" stroke-width="0.35 px" style="stroke-width:0.35;stroke-miterlimit:4;stroke-dasharray:none;fill:none;fill-rule: evenodd "/>
<path id="Sketch007_w0001"  d="M -127.084211408 126.441398757 L -116.084211408 126.441398757 L -116.084211408 123.341398757 L -127.084211408 123.341398757 L -127.084211408 126.441398757 " stroke="#000000" stroke-width="0.35 px" style="stroke-width:0.35;stroke-miterlimit:4;stroke-dasharray:none;fill:none;fill-rule: evenodd "/>
<title>side_wall_R</title>
</g>
<g id="Sketch002" transform="translate(202.870967,157.225276) scale(1,-1)">
<path id="Sketch002_w0000"  d="M -108.08323578 149.922828062 L -108.08323578 116.422828062 L -91.5832357799 116.422828062 L -91.5832357799 113.322828062 L -80.5832357799 113.322828062 L -80.5832357799 116.422828062 L -64.0832357799 116.422828062 L -64.0832357799 149.922828062 L -80.5832357799 149.922828062 L -80.5832357799 153.022828062 L -91.5832357799 153.022828062 L -91.5832357799 149.922828062 L -108.08323578 149.922828062 " stroke="#000000" stroke-width="0.35 px" style="stroke-width:0.35;stroke-miterlimit:4;stroke-dasharray:none;fill:none;fill-rule: evenodd "/>
<path id="Sketch002_w0001"  d="M -81.0832357799 136.522828062 L -71.0832357799 136.522828062 L -71.0832357799 126.522828062 L -81.0832357799 126.522828062 L -81.0832357799 136.522828062 " stroke="#000000" stroke-width="0.35 px" style="stroke-width:0.35;stroke-miterlimit:4;stroke-dasharray:none;fill:none;fill-rule: evenodd "/>
<path id="Sketch002_w0002"  d="M -102.58323578 126.522828062 L -91.5832357799 126.522828062 L -91.5832357799 123.422828062 L -102.58323578 123.422828062 L -102.58323578 126.522828062 " stroke="#000000" stroke-width="0.35 px" style="stroke-width:0.35;stroke-miterlimit:4;stroke-dasharray:none;fill:none;fill-rule: evenodd "/>
<path id="Sketch002_w0003"  d="M -98.0832357799 145.522828062 L -83.0832357799 145.522828062 L -83.0832357799 128.522828062 L -98.0832357799 128.522828062 L -98.0832357799 145.522828062 " stroke="#000000" stroke-width="0.35 px" style="stroke-width:0.35;stroke-miterlimit:4;stroke-dasharray:none;fill:none;fill-rule: evenodd "/>
<title>side_wall_L</title>
</g>
<g id="Sketch010" transform="translate(202.870967,157.225276) scale(1,-1)">
<path id="Sketch010_w0000"  d="M -12.115992 -8.34901 L -15.215992 -8.34901 L -15.215992 -19.34901 L -12.115992 -19.34901 L -12.115992 -35.84901 L -153.315992 -35.84901 L -153.315992 -19.34901 L -150.215992 -19.34901 L -150.215992 -8.34901 L -153.315992 -8.34901 L -153.315992 8.15099 L -12.115992 8.15099 L -12.115992 -8.34901 " stroke="#000000" stroke-width="0.35 px" style="stroke-width:0.35;stroke-miterlimit:4;stroke-dasharray:none;fill:none;fill-rule: evenodd "/>
<path id="Sketch010_w0001"  d="M -134.215992 -8.34901 L -131.115992 -8.34901 L -131.115992 -19.34901 L -134.215992 -19.34901 L -134.215992 -8.34901 " stroke="#000000" stroke-width="0.35 px" style="stroke-width:0.35;stroke-miterlimit:4;stroke-dasharray:none;fill:none;fill-rule: evenodd "/>
<path id="Sketch010_w0002"  d="M -121.215992 -8.34901 L -118.115992 -8.34901 L -118.115992 -19.34901 L -121.215992 -19.34901 L -121.215992 -8.34901 " stroke="#000000" stroke-width="0.35 px" style="stroke-width:0.35;stroke-miterlimit:4;stroke-dasharray:none;fill:none;fill-rule: evenodd "/>
<path id="Sketch010_w0003"  d="M -108.215992 -8.34901 L -105.115992 -8.34901 L -105.115992 -19.34901 L -108.215992 -19.34901 L -108.215992 -8.34901 " stroke="#000000" stroke-width="0.35 px" style="stroke-width:0.35;stroke-miterlimit:4;stroke-dasharray:none;fill:none;fill-rule: evenodd "/>
<path id="Sketch010_w0004"  d="M -82.215992 -8.34901 L -79.115992 -8.34901 L -79.115992 -19.34901 L -82.215992 -19.34901 L -82.215992 -8.34901 " stroke="#000000" stroke-width="0.35 px" style="stroke-width:0.35;stroke-miterlimit:4;stroke-dasharray:none;fill:none;fill-rule: evenodd "/>
<path id="Sketch010_w0005"  d="M -95.215992 -8.34901 L -92.115992 -8.34901 L -92.115992 -19.34901 L -95.215992 -19.34901 L -95.215992 -8.34901 " stroke="#000000" stroke-width="0.35 px" style="stroke-width:0.35;stroke-miterlimit:4;stroke-dasharray:none;fill:none;fill-rule: evenodd "/>
<path id="Sketch010_w0006"  d="M -69.215992 -8.34901 L -66.115992 -8.34901 L -66.115992 -19.34901 L -69.215992 -19.34901 L -69.215992 -8.34901 " stroke="#000000" stroke-width="0.35 px" style="stroke-width:0.35;stroke-miterlimit:4;stroke-dasharray:none;fill:none;fill-rule: evenodd "/>
<path id="Sketch010_w0007"  d="M -56.215992 -8.34901 L -53.115992 -8.34901 L -53.115992 -19.34901 L -56.215992 -19.34901 L -56.215992 -8.34901 " stroke="#000000" stroke-width="0.35 px" style="stroke-width:0.35;stroke-miterlimit:4;stroke-dasharray:none;fill:none;fill-rule: evenodd "/>
<path id="Sketch010_w0008"  d="M -43.215992 -8.34901 L -40.115992 -8.34901 L -40.115992 -19.34901 L -43.215992 -19.34901 L -43.215992 -8.34901 " stroke="#000000" stroke-width="0.35 px" style="stroke-width:0.35;stroke-miterlimit:4;stroke-dasharray:none;fill:none;fill-rule: evenodd "/>
<path id="Sketch010_w0009"  d="M -147.215992 -8.34901 L -144.115992 -8.34901 L -144.115992 -19.34901 L -147.215992 -19.34901 L -147.215992 -8.34901 " stroke="#000000" stroke-width="0.35 px" style="stroke-width:0.35;stroke-miterlimit:4;stroke-dasharray:none;fill:none;fill-rule: evenodd "/>
<title>main_floor</title>
</g>
<g id="Sketch011" transform="translate(202.870967,157.225276) scale(1,-1)">
<path id="Sketch011_w0000"  d="M -153.092471517 -41.9410486035 L -153.092471517 -75.4410486035 L -143.092471517 -75.4410486035 L -143.092471517 -68.4410486035 L -42.8924715172 -68.4410486035 L -42.8924715172 -75.4410486035 L -11.8924715172 -75.4410486035 L -11.8924715172 -41.9410486035 L -76.9924715172 -41.9410486035 L -76.9924715172 -38.8410486035 L -87.9924715172 -38.8410486035 L -87.9924715172 -41.9410486035 L -153.092471517 -41.9410486035 " stroke="#000000" stroke-width="0.35 px" style="stroke-width:0.35;stroke-miterlimit:4;stroke-dasharray:none;fill:none;fill-rule: evenodd "/>
<title>rear_wall</title>
</g>
<g id="Sketch009" transform="translate(202.870967,157.225276) scale(1,-1)">
<path id="Sketch009_w0000"  d="M -87.1801052709 105.376955758 L -76.1801052709 105.376955758 L -76.1801052709 108.476955758 L -13.0801052709 108.476955758 L -13.0801052709 88.8769557581 L -16.1801052709 88.8769557581 L -16.1801052709 77.8769557581 L -13.0801052709 77.8769557581 L -13.0801052709 58.2769557581 L -76.1801052709 58.2769557581 L -76.1801052709 61.3769557581 L -87.1801052709 61.3769557581 L -87.1801052709 58.2769557581 L -154.280105271 58.2769557581 L -154.280105271 77.8769557581 L -151.180105271 77.8769557581 L -151.180105271 88.8769557581 L -154.280105271 88.8769557581 L -154.280105271 108.476955758 L -87.1801052709 108.476955758 L -87.1801052709 105.376955758 " stroke="#000000" stroke-width="0.35 px" style="stroke-width:0.35;stroke-miterlimit:4;stroke-dasharray:none;fill:none;fill-rule: evenodd "/>
<title>ceiling</title>
</g>
<g id="Sketch026" transform="translate(202.870967,157.225276) scale(1,-1)">
<path id="Sketch026_w0000"  d="M -58.3329846406 114.109860526 L -58.3329846406 121.109860526 L -41.8329846406 121.109860526 L -41.8329846406 124.209860526 L -30.8329846406 124.209860526 L -30.8329846406 121.109860526 L -14.3329846406 121.109860526 L -14.3329846406 114.109860526 L -58.3329846406 114.109860526 " stroke="#000000" stroke-width="0.35 px" style="stroke-width:0.35;stroke-miterlimit:4;stroke-dasharray:none;fill:none;fill-rule: evenodd "/>
<title>gate_wall_006</title>
</g>
<g id="Sketch021" transform="translate(202.870967,157.225276) scale(1,-1)">
<path id="Sketch021_w0000"  d="M -193.663013023 155.3344 L -160.163013023 155.3344 L -160.163013023 90.1344 L -157.063013023 90.1344 L -157.063013023 79.1344 L -160.163013023 79.1344 L -160.163013023 14.1344 L -193.663013023 14.1344 L -193.663013023 45.1344 L -186.663013023 45.1344 L -186.663013023 145.3344 L -193.663013023 145.3344 L -193.663013023 155.3344 " stroke="#000000" stroke-width="0.35 px" style="stroke-width:0.35;stroke-miterlimit:4;stroke-dasharray:none;fill:none;fill-rule: evenodd "/>
<title>front_wall</title>
</g>
<g id="Sketch022" transform="translate(202.870967,157.225276) scale(1,-1)">
<path id="Sketch022_w0000"  d="M -200.627332641 -56.0333084745 L -200.627332641 -49.0333084745 L -184.127332641 -49.0333084745 L -184.127332641 -45.9333084745 L -173.127332641 -45.9333084745 L -173.127332641 -49.0333084745 L -156.627332641 -49.0333084745 L -156.627332641 -56.0333084745 L -200.627332641 -56.0333084745 " stroke="#000000" stroke-width="0.35 px" style="stroke-width:0.35;stroke-miterlimit:4;stroke-dasharray:none;fill:none;fill-rule: evenodd "/>
<title>gate_wall_002</title>
</g>
<g id="Sketch023" transform="translate(202.870967,157.225276) scale(1,-1)">
<path id="Sketch023_w0000"  d="M -58.6711596406 127.329909557 L -58.6711596406 134.329909557 L -42.1711596406 134.329909557 L -42.1711596406 137.429909557 L -31.1711596406 137.429909557 L -31.1711596406 134.329909557 L -14.6711596406 134.329909557 L -14.6711596406 127.329909557 L -58.6711596406 127.329909557 " stroke="#000000" stroke-width="0.35 px" style="stroke-width:0.35;stroke-miterlimit:4;stroke-dasharray:none;fill:none;fill-rule: evenodd "/>
<title>gate_wall_003</title>
</g>
<g id="Sketch024" transform="translate(202.870967,157.225276) scale(1,-1)">
<path id="Sketch024_w0000"  d="M -200.980090641 -41.1310304745 L -200.980090641 -34.1310304745 L -184.480090641 -34.1310304745 L -184.480090641 -31.0310304745 L -173.480090641 -31.0310304745 L -173.480090641 -34.1310304745 L -156.980090641 -34.1310304745 L -156.980090641 -41.1310304745 L -200.980090641 -41.1310304745 " stroke="#000000" stroke-width="0.35 px" style="stroke-width:0.35;stroke-miterlimit:4;stroke-dasharray:none;fill:none;fill-rule: evenodd "/>
<title>gate_wall_004</title>
</g>
<g id="Sketch013" transform="translate(202.870967,157.225276) scale(1,-1)">
<path id="Sketch013_w0000"  d="M -200.392400641 -26.3854042101 L -200.392400641 -19.3854042101 L -183.892400641 -19.3854042101 L -183.892400641 -16.2854042101 L -172.892400641 -16.2854042101 L -172.892400641 -19.3854042101 L -156.392400641 -19.3854042101 L -156.392400641 -26.3854042101 L -200.392400641 -26.3854042101 " stroke="#000000" stroke-width="0.35 px" style="stroke-width:0.35;stroke-miterlimit:4;stroke-dasharray:none;fill:none;fill-rule: evenodd "/>
<title>gate_wall_001</title>
</g>
<g id="Sketch025" transform="translate(202.870967,157.225276) scale(1,-1)">
<path id="Sketch025_w0000"  d="M -199.924450641 -12.9388324432 L -199.924450641 -5.93883244323 L -183.424450641 -5.93883244323 L -183.424450641 -2.83883244323 L -172.424450641 -2.83883244323 L -172.424450641 -5.93883244323 L -155.924450641 -5.93883244323 L -155.924450641 -12.9388324432 L -199.924450641 -12.9388324432 " stroke="#000000" stroke-width="0.35 px" style="stroke-width:0.35;stroke-miterlimit:4;stroke-dasharray:none;fill:none;fill-rule: evenodd "/>
<title>gate_wall_005</title>
</g>
<g id="Sketch029" transform="translate(202.870967,157.225276) scale(1,-1)">
<path id="Sketch029_w0000"  d="M -200.543683641 -73.1017014745 L -200.543683641 -66.1017014745 L -184.043683641 -66.1017014745 L -184.043683641 -63.0017014745 L -173.043683641 -63.0017014745 L -173.043683641 -66.1017014745 L -156.543683641 -66.1017014745 L -156.543683641 -73.1017014745 L -200.543683641 -73.1017014745 " stroke="#000000" stroke-width="0.35 px" style="stroke-width:0.35;stroke-miterlimit:4;stroke-dasharray:none;fill:none;fill-rule: evenodd "/>
<title>gate_wall_009</title>
</g>
<g id="Sketch027" transform="translate(202.870967,157.225276) scale(1,-1)">
<path id="Sketch027_w0000"  d="M -58.5254196406 142.373299526 L -58.5254196406 149.373299526 L -42.0254196406 149.373299526 L -42.0254196406 152.473299526 L -31.0254196406 152.473299526 L -31.0254196406 149.373299526 L -14.5254196406 149.373299526 L -14.5254196406 142.373299526 L -58.5254196406 142.373299526 " stroke="#000000" stroke-width="0.35 px" style="stroke-width:0.35;stroke-miterlimit:4;stroke-dasharray:none;fill:none;fill-rule: evenodd "/>
<title>gate_wall_007</title>
</g>
<g id="Sketch028" transform="translate(202.870967,157.225276) scale(1,-1)">
<path id="Sketch028_w0000"  d="M -199.888272641 0.454219525541 L -199.888272641 7.45421952554 L -183.388272641 7.45421952554 L -183.388272641 10.5542195255 L -172.388272641 10.5542195255 L -172.388272641 7.45421952554 L -155.888272641 7.45421952554 L -155.888272641 0.454219525541 L -199.888272641 0.454219525541 " stroke="#000000" stroke-width="0.35 px" style="stroke-width:0.35;stroke-miterlimit:4;stroke-dasharray:none;fill:none;fill-rule: evenodd "/>
<title>gate_wall_008</title>
</g>
</svg>