<?xml version="1.0"?>
<!DOCTYPE svg PUBLIC "-//W3C//DTD SVG 1.1//EN" "http://www.w3.org/Graphics/SVG/1.1/DTD/svg11.dtd">
<svg width="227.681874893mm" height="257.845739109mm" viewBox="0 0 227.681874893 257.845739109" xmlns="http://www.w3.org/2000/svg" version="1.1">
<g id="Sketch007" transform="translate(0.371909,251.779625) scale(1,-1)">
<path id="Sketch007_w0000"  d="M 147.642092451 204.509687757 L 147.642092451 171.009687757 L 174.142092451 171.009687757 L 174.142092451 167.909687757 L 185.142092451 167.909687757 L 185.142092451 171.009687757 L 211.642092451 171.009687757 L 211.642092451 204.509687757 L 185.142092451 204.509687757 L 185.142092451 207.609687757 L 174.142092451 207.609687757 L 174.142092451 204.509687757 L 147.642092451 204.509687757 " stroke="#000000" stroke-width="0.35 px" style="stroke-width:0.35;stroke-miterlimit:4;stroke-dasharray:none;fill:none;fill-rule: evenodd "/>
<path id="Sketch007_w0001"  d="M 185.142092451 181.109687757 L 196.142092451 181.109687757 L 196.142092451 178.009687757 L 185.142092451 178.009687757 L 185.142092451 181.109687757 " stroke="#000000" stroke-width="0.35 px" style="stroke-width:0.35;stroke-miterlimit:4;stroke-dasharray:none;fill:none;fill-rule: evenodd "/>
<title>side_wall_R</title>
</g>
<g id="Sketch021" transform="translate(0.371909,251.779625) scale(1,-1)">
<path id="Sketch021_w0000"  d="M 158.416994744 129.366061441 L 158.416994744 27.1660614412 L 151.416994744 27.1660614412 L 151.416994744 -3.83393855885 L 184.916994744 -3.83393855885 L 184.916994744 20.1660614412 L 188.016994744 20.1660614412 L 188.016994744 31.1660614412 L 184.916994744 31.1660614412 L 184.916994744 61.2660614412 L 188.016994744 61.2660614412 L 188.016994744 72.2660614412 L 184.916994744 72.2660614412 L 184.916994744 102.366061441 L 188.016994744 102.366061441 L 188.016994744 113.366061441 L 184.916994744 113.366061441 L 184.916994744 137.366061441 L 151.416994744 137.366061441 L 151.416994744 129.366061441 L 158.416994744 129.366061441 " stroke="#000000" stroke-width="0.35 px" style="stroke-width:0.35;stroke-miterlimit:4;stroke-dasharray:none;fill:none;fill-rule: evenodd "/>
<title>front_wall</title>
</g>
<g id="Sketch" transform="translate(0.371909,251.779625) scale(1,-1)">
<path id="Sketch_w0000"  d="M 3.1724359279 165.634800048 L 3.1724359279 154.634800048 L 6.2724359279 154.634800048 L 6.2724359279 139.134800048 L 141.272435928 139.134800048 L 141.272435928 176.634800048 L 144.372435928 176.634800048 L 144.372435928 187.634800048 L 141.272435928 187.634800048 L 141.272435928 203.134800048 L 6.2724359279 203.134800048 L 6.2724359279 165.634800048 L 3.1724359279 165.634800048 " stroke="#000000" stroke-width="0.35 px" style="stroke-width:0.35;stroke-miterlimit:4;stroke-dasharray:none;fill:none;fill-rule: evenodd "/>
<path id="Sketch_w0001"  d="M 14.2724359279 183.134800048 L 20.2724359279 183.134800048 L 20.2724359279 178.134800048 L 14.2724359279 178.134800048 L 14.2724359279 183.134800048 " stroke="#000000" stroke-width="0.35 px" style="stroke-width:0.35;stroke-miterlimit:4;stroke-dasharray:none;fill:none;fill-rule: evenodd "/>
<path id="Sketch_w0002"  d="M 14.2724359279 175.134800048 L 20.2724359279 175.134800048 L 20.2724359279 170.134800048 L 14.2724359279 170.134800048 L 14.2724359279 175.134800048 " stroke="#000000" stroke-width="0.35 px" style="stroke-width:0.35;stroke-miterlimit:4;stroke-dasharray:none;fill:none;fill-rule: evenodd "/>
<path id="Sketch_w0003"  d="M 27.2724359279 183.134800048 L 33.2724359279 183.134800048 L 33.2724359279 178.134800048 L 27.2724359279 178.134800048 L 27.2724359279 183.134800048 " stroke="#000000" stroke-width="0.35 px" style="stroke-width:0.35;stroke-miterlimit:4;stroke-dasharray:none;fill:none;fill-rule: evenodd "/>
<path id="Sketch_w0004"  d="M 27.2724359279 175.134800048 L 33.2724359279 175.134800048 L 33.2724359279 170.134800048 L 27.2724359279 170.134800048 L 27.2724359279 175.134800048 " stroke="#000000" stroke-width="0.35 px" style="stroke-width:0.35;stroke-miterlimit:4;stroke-dasharray:none;fill:none;fill-rule: evenodd "/>
<path id="Sketch_w0005"  d="M 40.2724359279 183.134800048 L 46.2724359279 183.134800048 L 46.2724359279 178.134800048 L 40.2724359279 178.134800048 L 40.2724359279 183.134800048 " stroke="#000000" stroke-width="0.35 px" style="stroke-width:0.35;stroke-miterlimit:4;stroke-dasharray:none;fill:none;fill-rule: evenodd "/>
<path id="Sketch_w0006"  d="M 40.2724359279 175.134800048 L 46.2724359279 175.134800048 L 46.2724359279 170.134800048 L 40.2724359279 170.134800048 L 40.2724359279 175.134800048 " stroke="#000000" stroke-width="0.35 px" style="stroke-width:0.35;stroke-miterlimit:4;stroke-dasharray:none;fill:none;fill-rule: evenodd "/>
<path id="Sketch_w0007"  d="M 53.2724359279 183.134800048 L 59.2724359279 183.134800048 L 59.2724359279 178.134800048 L 53.2724359279 178.134800048 L 53.2724359279 183.134800048 " stroke="#000000" stroke-width="0.35 px" style="stroke-width:0.35;stroke-miterlimit:4;stroke-dasharray:none;fill:none;fill-rule: evenodd "/>
<path id="Sketch_w0008"  d="M 53.2724359279 175.134800048 L 59.2724359279 175.134800048 L 59.2724359279 170.134800048 L 53.2724359279 170.134800048 L 53.2724359279 175.134800048 " stroke="#000000" stroke-width="0.35 px" style="stroke-width:0.35;stroke-miterlimit:4;stroke-dasharray:none;fill:none;fill-rule: evenodd "/>
<path id="Sketch_w0009"  d="M 66.2724359279 183.134800048 L 72.2724359279 183.134800048 L 72.2724359279 178.134800048 L 66.2724359279 178.134800048 L 66.2724359279 183.134800048 " stroke="#000000" stroke-width="0.35 px" style="stroke-width:0.35;stroke-miterlimit:4;stroke-dasharray:none;fill:none;fill-rule: evenodd "/>
<path id="Sketch_w0010"  d="M 66.2724359279 175.134800048 L 72.2724359279 175.134800048 L 72.2724359279 170.134800048 L 66.2724359279 170.134800048 L 66.2724359279 175.134800048 " stroke="#000000" stroke-width="0.35 px" style="stroke-width:0.35;stroke-miterlimit:4;stroke-dasharray:none;fill:none;fill-rule: evenodd "/>
<path id="Sketch_w0011"  d="M 79.2724359279 183.134800048 L 85.2724359279 183.134800048 L 85.2724359279 178.134800048 L 79.2724359279 178.134800048 L 79.2724359279 183.134800048 " stroke="#000000" stroke-width="0.35 px" style="stroke-width:0.35;stroke-miterlimit:4;stroke-dasharray:none;fill:none;fill-rule: evenodd "/>
<path id="Sketch_w0012"  d="M 79.2724359279 175.134800048 L 85.2724359279 175.134800048 L 85.2724359279 170.134800048 L 79.2724359279 170.134800048 L 79.2724359279 175.134800048 " stroke="#000000" stroke-width="0.35 px" style="stroke-width:0.35;stroke-miterlimit:4;stroke-dasharray:none;fill:none;fill-rule: evenodd "/>
<path id="Sketch_w0013"  d="M 93.2724359279 183.134800048 L 99.2724359279 183.134800048 L 99.2724359279 178.134800048 L 93.2724359279 178.134800048 L 93.2724359279 183.134800048 " stroke="#000000" stroke-width="0.35 px" style="stroke-width:0.35;stroke-miterlimit:4;stroke-dasharray:none;fill:none;fill-rule: evenodd "/>
<path id="Sketch_w0014"  d="M 93.2724359279 175.134800048 L 99.2724359279 175.134800048 L 99.2724359279 170.134800048 L 93.2724359279 170.134800048 L 93.2724359279 175.134800048 " stroke="#000000" stroke-width="0.35 px" style="stroke-width:0.35;stroke-miterlimit:4;stroke-dasharray:none;fill:none;fill-rule: evenodd "/>
<path id="Sketch_w0015"  d="M 106.272435928 183.134800048 L 112.272435928 183.134800048 L 112.272435928 178.134800048 L 106.272435928 178.134800048 L 106.272435928 183.134800048 " stroke="#000000" stroke-width="0.35 px" style="stroke-width:0.35;stroke-miterlimit:4;stroke-dasharray:none;fill:none;fill-rule: evenodd "/>
<path id="Sketch_w0016"  d="M 106.272435928 175.134800048 L 112.272435928 175.134800048 L 112.272435928 170.134800048 L 106.272435928 170.134800048 L 106.272435928 175.134800048 " stroke="#000000" stroke-width="0.35 px" style="stroke-width:0.35;stroke-miterlimit:4;stroke-dasharray:none;fill:none;fill-rule: evenodd "/>
<path id="Sketch_w0017"  d="M 132.272435928 185.134800048 L 135.272435928 185.134800048 L 135.272435928 168.134800048 L 132.272435928 168.134800048 L 132.272435928 172.134800048 L 127.472435928 172.134800048 L 127.472435928 181.134800048 L 132.272435928 181.134800048 L 132.272435928 185.134800048 " stroke="#000000" stroke-width="0.35 px" style="stroke-width:0.35;stroke-miterlimit:4;stroke-dasharray:none;fill:none;fill-rule: evenodd "/>
<title>PCB_floor</title>
</g>
<g id="Sketch010" transform="translate(0.371909,251.779625) scale(1,-1)">
<path id="Sketch010_w0000"  d="M 146.383708 108.907462486 L 143.283708 108.907462486 L 143.283708 97.9074624855 L 146.383708 97.9074624855 L 146.383708 71.4074624855 L 5.183708 71.4074624855 L 5.183708 97.9074624855 L 8.283708 97.9074624855 L 8.283708 108.907462486 L 5.183708 108.907462486 L 5.183708 135.407462486 L 146.383708 135.407462486 L 146.383708 108.907462486 " stroke="#000000" stroke-width="0.35 px" style="stroke-width:0.35;stroke-miterlimit:4;stroke-dasharray:none;fill:none;fill-rule: evenodd "/>
<path id="Sketch010_w0001"  d="M 24.283708 108.907462486 L 27.383708 108.907462486 L 27.383708 97.9074624855 L 24.283708 97.9074624855 L 24.283708 108.907462486 " stroke="#000000" stroke-width="0.35 px" style="stroke-width:0.35;stroke-miterlimit:4;stroke-dasharray:none;fill:none;fill-rule: evenodd "/>
<path id="Sketch010_w0002"  d="M 37.283708 108.907462486 L 40.383708 108.907462486 L 40.383708 97.9074624855 L 37.283708 97.9074624855 L 37.283708 108.907462486 " stroke="#000000" stroke-width="0.35 px" style="stroke-width:0.35;stroke-miterlimit:4;stroke-dasharray:none;fill:none;fill-rule: evenodd "/>
<path id="Sketch010_w0003"  d="M 50.283708 108.907462486 L 53.383708 108.907462486 L 53.383708 97.9074624855 L 50.283708 97.9074624855 L 50.283708 108.907462486 " stroke="#000000" stroke-width="0.35 px" style="stroke-width:0.35;stroke-miterlimit:4;stroke-dasharray:none;fill:none;fill-rule: evenodd "/>
<path id="Sketch010_w0004"  d="M 76.283708 108.907462486 L 79.383708 108.907462486 L 79.383708 97.9074624855 L 76.283708 97.9074624855 L 76.283708 108.907462486 " stroke="#000000" stroke-width="0.35 px" style="stroke-width:0.35;stroke-miterlimit:4;stroke-dasharray:none;fill:none;fill-rule: evenodd "/>
<path id="Sketch010_w0005"  d="M 63.283708 108.907462486 L 66.383708 108.907462486 L 66.383708 97.9074624855 L 63.283708 97.9074624855 L 63.283708 108.907462486 " stroke="#000000" stroke-width="0.35 px" style="stroke-width:0.35;stroke-miterlimit:4;stroke-dasharray:none;fill:none;fill-rule: evenodd "/>
<path id="Sketch010_w0006"  d="M 89.283708 108.907462486 L 92.383708 108.907462486 L 92.383708 97.9074624855 L 89.283708 97.9074624855 L 89.283708 108.907462486 " stroke="#000000" stroke-width="0.35 px" style="stroke-width:0.35;stroke-miterlimit:4;stroke-dasharray:none;fill:none;fill-rule: evenodd "/>
<path id="Sketch010_w0007"  d="M 102.283708 108.907462486 L 105.383708 108.907462486 L 105.383708 97.9074624855 L 102.283708 97.9074624855 L 102.283708 108.907462486 " stroke="#000000" stroke-width="0.35 px" style="stroke-width:0.35;stroke-miterlimit:4;stroke-dasharray:none;fill:none;fill-rule: evenodd "/>
<path id="Sketch010_w0008"  d="M 115.283708 108.907462486 L 118.383708 108.907462486 L 118.383708 97.9074624855 L 115.283708 97.9074624855 L 115.283708 108.907462486 " stroke="#000000" stroke-width="0.35 px" style="stroke-width:0.35;stroke-miterlimit:4;stroke-dasharray:none;fill:none;fill-rule: evenodd "/>
<path id="Sketch010_w0009"  d="M 11.283708 108.907462486 L 14.383708 108.907462486 L 14.383708 97.9074624855 L 11.283708 97.9074624855 L 11.283708 108.907462486 " stroke="#000000" stroke-width="0.35 px" style="stroke-width:0.35;stroke-miterlimit:4;stroke-dasharray:none;fill:none;fill-rule: evenodd "/>
<title>main_floor</title>
</g>
<g id="Sketch002" transform="translate(0.371909,251.779625) scale(1,-1)">
<path id="Sketch002_w0000"  d="M 146.735011651 246.447450062 L 146.735011651 212.947450062 L 173.235011651 212.947450062 L 173.235011651 209.847450062 L 184.235011651 209.847450062 L 184.235011651 212.947450062 L 210.735011651 212.947450062 L 210.735011651 246.447450062 L 184.235011651 246.447450062 L 184.235011651 249.547450062 L 173.235011651 249.547450062 L 173.235011651 246.447450062 L 146.735011651 246.447450062 " stroke="#000000" stroke-width="0.35 px" style="stroke-width:0.35;stroke-miterlimit:4;stroke-dasharray:none;fill:none;fill-rule: evenodd "/>
<path id="Sketch002_w0001"  d="M 183.735011651 233.047450062 L 193.735011651 233.047450062 L 193.735011651 223.047450062 L 183.735011651 223.047450062 L 183.735011651 233.047450062 " stroke="#000000" stroke-width="0.35 px" style="stroke-width:0.35;stroke-miterlimit:4;stroke-dasharray:none;fill:none;fill-rule: evenodd "/>
<path id="Sketch002_w0002"  d="M 162.235011651 223.047450062 L 173.235011651 223.047450062 L 173.235011651 219.947450062 L 162.235011651 219.947450062 L 162.235011651 223.047450062 " stroke="#000000" stroke-width="0.35 px" style="stroke-width:0.35;stroke-miterlimit:4;stroke-dasharray:none;fill:none;fill-rule: evenodd "/>
<path id="Sketch002_w0003"  d="M 166.735011651 242.047450062 L 181.735011651 242.047450062 L 181.735011651 225.047450062 L 166.735011651 225.047450062 L 166.735011651 242.047450062 " stroke="#000000" stroke-width="0.35 px" style="stroke-width:0.35;stroke-miterlimit:4;stroke-dasharray:none;fill:none;fill-rule: evenodd "/>
<title>side_wall_L</title>
</g>
<g id="Sketch009" transform="translate(0.371909,251.779625) scale(1,-1)">
<path id="Sketch009_w0000"  d="M 29.0721970855 64.0 L 40.0721970855 64.0 L 40.0721970855 67.1 L 70.1721970855 67.1 L 70.1721970855 64.0 L 81.1721970855 64.0 L 81.1721970855 67.1 L 111.272197086 67.1 L 111.272197086 64.0 L 122.272197086 64.0 L 122.272197086 67.1 L 146.272197086 67.1 L 146.272197086 37.5 L 143.172197086 37.5 L 143.172197086 26.5 L 146.272197086 26.5 L 146.272197086 -3.1 L 122.272197086 -3.1 L 122.272197086 0.0 L 111.272197086 0.0 L 111.272197086 -3.1 L 81.1721970855 -3.1 L 81.1721970855 2.16471754465e-16 L 70.1721970855 2.16471754465e-16 L 70.1721970855 -3.1 L 40.0721970855 -3.1 L 40.0721970855 0.0 L 29.0721970855 0.0 L 29.0721970855 -3.1 L 5.07219708552 -3.1 L 5.07219708552 26.5 L 8.17219708552 26.5 L 8.17219708552 37.5 L 5.07219708552 37.5 L 5.07219708552 67.1 L 29.0721970855 67.1 L 29.0721970855 64.0 " stroke="#000000" stroke-width="0.35 px" style="stroke-width:0.35;stroke-miterlimit:4;stroke-dasharray:none;fill:none;fill-rule: evenodd "/>
<title>ceiling</title>
</g>
<g id="Sketch011" transform="translate(0.371909,251.779625) scale(1,-1)">
<path id="Sketch011_w0000"  d="M 1.86026576014 242.12908 L 1.86026576014 208.62908 L 9.86026576014 208.62908 L 9.86026576014 215.62908 L 112.06026576 215.62908 L 112.06026576 208.62908 L 143.06026576 208.62908 L 143.06026576 242.12908 L 119.06026576 242.12908 L 119.06026576 245.22908 L 108.06026576 245.22908 L 108.06026576 242.12908 L 77.9602657601 242.12908 L 77.9602657601 245.22908 L 66.9602657601 245.22908 L 66.9602657601 242.12908 L 36.8602657601 242.12908 L 36.8602657601 245.22908 L 25.8602657601 245.22908 L 25.8602657601 242.12908 L 1.86026576014 242.12908 " stroke="#000000" stroke-width="0.35 px" style="stroke-width:0.35;stroke-miterlimit:4;stroke-dasharray:none;fill:none;fill-rule: evenodd "/>
<title>rear_wall</title>
</g>
<g id="Sketch013" transform="translate(0.371909,251.779625) scale(1,-1)">
<path id="Sketch013_w0000"  d="M 148.10611611 154.02371079 L 148.10611611 161.02371079 L 174.60611611 161.02371079 L 174.60611611 164.12371079 L 185.60611611 164.12371079 L 185.60611611 161.02371079 L 212.10611611 161.02371079 L 212.10611611 154.02371079 L 148.10611611 154.02371079 " stroke="#000000" stroke-width="0.35 px" style="stroke-width:0.35;stroke-miterlimit:4;stroke-dasharray:none;fill:none;fill-rule: evenodd "/>
<title>gate_wall_001</title>
</g>
<g id="Sketch036" transform="translate(0.371909,251.779625) scale(1,-1)">
<path id="Sketch036_w0000"  d="M 213.016603165 131.701889268 L 213.016603165 67.7018892683 L 206.016603165 67.7018892683 L 206.016603165 94.2018892683 L 202.916603165 94.2018892683 L 202.916603165 105.201889268 L 206.016603165 105.201889268 L 206.016603165 131.701889268 L 213.016603165 131.701889268 " stroke="#000000" stroke-width="0.35 px" style="stroke-width:0.35;stroke-miterlimit:4;stroke-dasharray:none;fill:none;fill-rule: evenodd "/>
<title>gate_wall_016</title>
</g>
<g id="Sketch032" transform="translate(0.371909,251.779625) scale(1,-1)">
<path id="Sketch032_w0000"  d="M 202.089540165 64.1738682683 L 202.089540165 0.173868268348 L 195.089540165 0.173868268348 L 195.089540165 26.6738682683 L 191.989540165 26.6738682683 L 191.989540165 37.6738682683 L 195.089540165 37.6738682683 L 195.089540165 64.1738682683 L 202.089540165 64.1738682683 " stroke="#000000" stroke-width="0.35 px" style="stroke-width:0.35;stroke-miterlimit:4;stroke-dasharray:none;fill:none;fill-rule: evenodd "/>
<title>gate_wall_012</title>
</g>
<g id="Sketch039" transform="translate(0.371909,251.779625) scale(1,-1)">
<path id="Sketch039_w0000"  d="M 147.81893011 140.80322079 L 147.81893011 147.80322079 L 174.31893011 147.80322079 L 174.31893011 150.90322079 L 185.31893011 150.90322079 L 185.31893011 147.80322079 L 211.81893011 147.80322079 L 211.81893011 140.80322079 L 147.81893011 140.80322079 " stroke="#000000" stroke-width="0.35 px" style="stroke-width:0.35;stroke-miterlimit:4;stroke-dasharray:none;fill:none;fill-rule: evenodd "/>
<title>gate_wall_019</title>
</g>
<g id="Sketch033" transform="translate(0.371909,251.779625) scale(1,-1)">
<path id="Sketch033_w0000"  d="M 213.590943165 64.7910792683 L 213.590943165 0.791079268348 L 206.590943165 0.791079268348 L 206.590943165 27.2910792683 L 203.490943165 27.2910792683 L 203.490943165 38.2910792683 L 206.590943165 38.2910792683 L 206.590943165 64.7910792683 L 213.590943165 64.7910792683 " stroke="#000000" stroke-width="0.35 px" style="stroke-width:0.35;stroke-miterlimit:4;stroke-dasharray:none;fill:none;fill-rule: evenodd "/>
<title>gate_wall_013</title>
</g>
<g id="Sketch034" transform="translate(0.371909,251.779625) scale(1,-1)">
<path id="Sketch034_w0000"  d="M 225.077790165 64.7910962683 L 225.077790165 0.791096268348 L 218.077790165 0.791096268348 L 218.077790165 27.2910962683 L 214.977790165 27.2910962683 L 214.977790165 38.2910962683 L 218.077790165 38.2910962683 L 218.077790165 64.7910962683 L 225.077790165 64.7910962683 " stroke="#000000" stroke-width="0.35 px" style="stroke-width:0.35;stroke-miterlimit:4;stroke-dasharray:none;fill:none;fill-rule: evenodd "/>
<title>gate_wall_014</title>
</g>
<g id="Sketch035" transform="translate(0.371909,251.779625) scale(1,-1)">
<path id="Sketch035_w0000"  d="M 225.077790165 132.276230268 L 225.077790165 68.2762302683 L 218.077790165 68.2762302683 L 218.077790165 94.7762302683 L 214.977790165 94.7762302683 L 214.977790165 105.776230268 L 218.077790165 105.776230268 L 218.077790165 132.276230268 L 225.077790165 132.276230268 " stroke="#000000" stroke-width="0.35 px" style="stroke-width:0.35;stroke-miterlimit:4;stroke-dasharray:none;fill:none;fill-rule: evenodd "/>
<title>gate_wall_015</title>
</g>
<g id="Sketch038" transform="translate(0.371909,251.779625) scale(1,-1)">
<path id="Sketch038_w0000"  d="M 225.077790165 199.474205268 L 225.077790165 135.474205268 L 218.077790165 135.474205268 L 218.077790165 161.974205268 L 214.977790165 161.974205268 L 214.977790165 172.974205268 L 218.077790165 172.974205268 L 218.077790165 199.474205268 L 225.077790165 199.474205268 " stroke="#000000" stroke-width="0.35 px" style="stroke-width:0.35;stroke-miterlimit:4;stroke-dasharray:none;fill:none;fill-rule: evenodd "/>
<title>gate_wall_018</title>
</g>
<g id="Sketch037" transform="translate(0.371909,251.779625) scale(1,-1)">
<path id="Sketch037_w0000"  d="M 200.370500165 132.248208268 L 200.370500165 68.2482082683 L 193.370500165 68.2482082683 L 193.370500165 94.7482082683 L 190.270500165 94.7482082683 L 190.270500165 105.748208268 L 193.370500165 105.748208268 L 193.370500165 132.248208268 L 200.370500165 132.248208268 " stroke="#000000" stroke-width="0.35 px" style="stroke-width:0.35;stroke-miterlimit:4;stroke-dasharray:none;fill:none;fill-rule: evenodd "/>
<title>gate_wall_017</title>
</g>
</svg>