G75*
%MOIN*%
%OFA0B0*%
%FSLAX25Y25*%
%IPPOS*%
%LPD*%
%AMOC8*
5,1,8,0,0,1.08239X$1,22.5*
%
%ADD10R,0.05512X0.04724*%
%ADD11R,0.09843X0.07874*%
%ADD12R,0.12992X0.07874*%
%ADD13R,0.12205X0.01969*%
%ADD14R,0.05118X0.06299*%
%ADD15R,0.05906X0.05118*%
%ADD16R,0.05118X0.05906*%
%ADD17R,0.01969X0.05906*%
%ADD18R,0.05906X0.01969*%
%ADD19R,0.11811X0.09843*%
%ADD20R,0.04724X0.04724*%
%ADD21R,0.08800X0.04800*%
%ADD22R,0.08661X0.14173*%
%ADD23R,0.08000X0.02600*%
%ADD24R,0.06299X0.05118*%
D10*
X0410408Y0088792D03*
X0422647Y0089032D03*
X0434651Y0088875D03*
X0434651Y0100686D03*
X0422647Y0100843D03*
X0410408Y0100603D03*
D11*
X0490856Y0103994D03*
X0490856Y0139033D03*
D12*
X0467627Y0139033D03*
X0467627Y0103994D03*
D13*
X0467234Y0115214D03*
X0467234Y0118364D03*
X0467234Y0121513D03*
X0467234Y0124663D03*
X0467234Y0127812D03*
D14*
X0451407Y0125025D03*
X0443927Y0125025D03*
X0443871Y0116529D03*
X0451352Y0116529D03*
X0375865Y0090939D03*
X0368384Y0090939D03*
X0260973Y0147923D03*
X0253492Y0147923D03*
D15*
X0351521Y0122755D03*
X0351521Y0115275D03*
X0267118Y0100315D03*
X0267118Y0092834D03*
X0449332Y0090928D03*
X0449332Y0098408D03*
D16*
X0424351Y0075674D03*
X0416870Y0075674D03*
X0381407Y0064525D03*
X0373927Y0064525D03*
X0373927Y0054525D03*
X0381407Y0054525D03*
X0331407Y0054525D03*
X0323927Y0054525D03*
X0323927Y0064525D03*
X0331407Y0064525D03*
X0278907Y0064525D03*
X0271427Y0064525D03*
X0271427Y0054525D03*
X0278907Y0054525D03*
X0226407Y0054525D03*
X0218927Y0054525D03*
X0218927Y0064525D03*
X0226407Y0064525D03*
X0173907Y0064525D03*
X0166427Y0064525D03*
X0166427Y0054525D03*
X0173907Y0054525D03*
X0121407Y0054525D03*
X0113927Y0054525D03*
X0113927Y0064525D03*
X0121407Y0064525D03*
X0071407Y0064525D03*
X0063927Y0064525D03*
X0063927Y0054525D03*
X0071407Y0054525D03*
X0021407Y0054525D03*
X0013927Y0054525D03*
X0013927Y0064525D03*
X0021407Y0064525D03*
X0252411Y0112054D03*
X0259891Y0112054D03*
X0260913Y0139413D03*
X0253433Y0139413D03*
X0322712Y0149017D03*
X0330192Y0149017D03*
X0379346Y0148792D03*
X0386826Y0148792D03*
X0368764Y0124758D03*
X0361283Y0124758D03*
X0361234Y0114008D03*
X0368714Y0114008D03*
X0416326Y0035032D03*
X0423806Y0035032D03*
D17*
X0308350Y0098886D03*
X0305200Y0098886D03*
X0302051Y0098886D03*
X0298901Y0098886D03*
X0295751Y0098886D03*
X0292602Y0098886D03*
X0289452Y0098886D03*
X0286303Y0098886D03*
X0283153Y0098886D03*
X0280003Y0098886D03*
X0276854Y0098886D03*
X0276854Y0144555D03*
X0280003Y0144555D03*
X0283153Y0144555D03*
X0286303Y0144555D03*
X0289452Y0144555D03*
X0292602Y0144555D03*
X0295751Y0144555D03*
X0298901Y0144555D03*
X0302051Y0144555D03*
X0305200Y0144555D03*
X0308350Y0144555D03*
D18*
X0315436Y0137468D03*
X0315436Y0134319D03*
X0315436Y0131169D03*
X0315436Y0128020D03*
X0315436Y0124870D03*
X0315436Y0121720D03*
X0315436Y0118571D03*
X0315436Y0115421D03*
X0315436Y0112272D03*
X0315436Y0109122D03*
X0315436Y0105972D03*
X0269767Y0105972D03*
X0269767Y0109122D03*
X0269767Y0112272D03*
X0269767Y0115421D03*
X0269767Y0118571D03*
X0269767Y0121720D03*
X0269767Y0124870D03*
X0269767Y0128020D03*
X0269767Y0131169D03*
X0269767Y0134319D03*
X0269767Y0137468D03*
D19*
X0339094Y0129445D03*
X0339094Y0108854D03*
D20*
X0340047Y0149012D03*
X0348314Y0149012D03*
X0362620Y0148862D03*
X0370888Y0148862D03*
D21*
X0412632Y0064801D03*
X0412632Y0055701D03*
X0412632Y0046601D03*
D22*
X0437032Y0055701D03*
D23*
X0222939Y0095440D03*
X0222939Y0100440D03*
X0222939Y0105440D03*
X0222939Y0110440D03*
X0222939Y0115440D03*
X0222939Y0120440D03*
X0222939Y0125440D03*
X0222939Y0130440D03*
X0222939Y0135440D03*
X0222939Y0140440D03*
X0222939Y0145440D03*
X0222939Y0150440D03*
X0183339Y0150440D03*
X0183339Y0145440D03*
X0183339Y0140440D03*
X0183339Y0135440D03*
X0183339Y0130440D03*
X0183339Y0125440D03*
X0183339Y0120440D03*
X0183339Y0115440D03*
X0183339Y0110440D03*
X0183339Y0105440D03*
X0183339Y0100440D03*
X0183339Y0095440D03*
X0123132Y0094270D03*
X0123132Y0099270D03*
X0123132Y0104270D03*
X0123132Y0109270D03*
X0123132Y0114270D03*
X0123132Y0119270D03*
X0123132Y0124270D03*
X0123132Y0129270D03*
X0123132Y0134270D03*
X0123132Y0139270D03*
X0123132Y0144270D03*
X0123132Y0149270D03*
X0083532Y0149270D03*
X0083532Y0144270D03*
X0083532Y0139270D03*
X0083532Y0134270D03*
X0083532Y0129270D03*
X0083532Y0124270D03*
X0083532Y0119270D03*
X0083532Y0114270D03*
X0083532Y0109270D03*
X0083532Y0104270D03*
X0083532Y0099270D03*
X0083532Y0094270D03*
D24*
X0012667Y0038285D03*
X0022667Y0038285D03*
X0022667Y0045765D03*
X0012667Y0045765D03*
X0062667Y0045765D03*
X0072667Y0045765D03*
X0072667Y0038285D03*
X0062667Y0038285D03*
X0112667Y0038285D03*
X0122667Y0038285D03*
X0122667Y0045765D03*
X0112667Y0045765D03*
X0165167Y0045765D03*
X0175167Y0045765D03*
X0175167Y0038285D03*
X0165167Y0038285D03*
X0217667Y0038285D03*
X0227667Y0038285D03*
X0227667Y0045765D03*
X0217667Y0045765D03*
X0270167Y0045765D03*
X0280167Y0045765D03*
X0280167Y0038285D03*
X0270167Y0038285D03*
X0322667Y0038285D03*
X0332667Y0038285D03*
X0332667Y0045765D03*
X0322667Y0045765D03*
X0372667Y0045765D03*
X0382667Y0045765D03*
X0382667Y0038285D03*
X0372667Y0038285D03*
X0372667Y0073285D03*
X0382667Y0073285D03*
X0382667Y0080765D03*
X0372667Y0080765D03*
X0332667Y0080765D03*
X0322667Y0080765D03*
X0322667Y0073285D03*
X0332667Y0073285D03*
X0280167Y0073285D03*
X0270167Y0073285D03*
X0270167Y0080765D03*
X0280167Y0080765D03*
X0227667Y0080765D03*
X0217667Y0080765D03*
X0217667Y0073285D03*
X0227667Y0073285D03*
X0175167Y0073285D03*
X0165167Y0073285D03*
X0165167Y0080765D03*
X0175167Y0080765D03*
X0122667Y0080765D03*
X0112667Y0080765D03*
X0112667Y0073285D03*
X0122667Y0073285D03*
X0072667Y0073285D03*
X0062667Y0073285D03*
X0062667Y0080765D03*
X0072667Y0080765D03*
X0022667Y0080765D03*
X0012667Y0080765D03*
X0012667Y0073285D03*
X0022667Y0073285D03*
M02*
