  0
SECTION
  2
HEADER
  9
$ACADVER
  1
AC1009
  9
$INSBASE
 10
0.0
 20
0.0
 30
0.0
  9
$EXTMIN
 10
0.0
 20
0.0
 30
0.0
  9
$EXTMAX
 10
0.0
 20
0.0
 30
0.0
  0
ENDSEC
  0
SECTION
  2
TABLES
  0
TABLE
  2
VPORT
 70
0
  0
ENDTAB
  0
TABLE
  2
LTYPE
 70
1
  0
LTYPE
  2
CONTINUOUS
 70
0
  3
Solid line
 72
65
 73
0
 40
0.0
  0
ENDTAB
  0
TABLE
  2
LAYER
 70
1
  0
LAYER
  2
0
 70
64
 62
7
  6
continuous
  0
ENDTAB
  0
TABLE
  2
STYLE
 70
1
  0
STYLE
  2
STANDARD
 70
0
 40
0
 41
1.0
 50
0.0
 71
0
 42
1
 3
ARIAL.TTF
 4

  0
ENDTAB
  0
TABLE
  2
VIEW
 70
0
  0
ENDTAB
  0
ENDSEC
  0
SECTION
  2
BLOCKS
  0
BLOCK
  8
0
  2
SKETCH002
 70
0
 10
0.0
 20
0.0
 30
0.0
  3
SKETCH002
  0
POLYLINE
  8
0
 62
7
 70
1
 66
1
 10
0.0
 20
0.0
 30
0.0
  0
VERTEX
  8
0
 10
-154.492819566
 20
-72.7746720494
 30
0.0
  0
VERTEX
  8
0
 10
-154.492819566
 20
-95.7746720494
 30
0.0
  0
VERTEX
  8
0
 10
-137.992819566
 20
-95.7746720494
 30
0.0
  0
VERTEX
  8
0
 10
-137.992819566
 20
-99.7746720494
 30
0.0
  0
VERTEX
  8
0
 10
-126.992819566
 20
-99.7746720494
 30
0.0
  0
VERTEX
  8
0
 10
-126.992819566
 20
-95.7746720494
 30
0.0
  0
VERTEX
  8
0
 10
-110.492819566
 20
-95.7746720494
 30
0.0
  0
VERTEX
  8
0
 10
-110.492819566
 20
-72.7746720494
 30
0.0
  0
VERTEX
  8
0
 10
-126.992819566
 20
-72.7746720494
 30
0.0
  0
VERTEX
  8
0
 10
-126.992819566
 20
-68.7746720494
 30
0.0
  0
VERTEX
  8
0
 10
-137.992819566
 20
-68.7746720494
 30
0.0
  0
VERTEX
  8
0
 10
-137.992819566
 20
-72.7746720494
 30
0.0
  0
SEQEND
  8
0
  0
POLYLINE
  8
0
 62
7
 70
1
 66
1
 10
0.0
 20
0.0
 30
0.0
  0
VERTEX
  8
0
 10
-127.492819566
 20
-75.7746720494
 30
0.0
  0
VERTEX
  8
0
 10
-117.492819566
 20
-75.7746720494
 30
0.0
  0
VERTEX
  8
0
 10
-117.492819566
 20
-82.7746720494
 30
0.0
  0
VERTEX
  8
0
 10
-127.492819566
 20
-82.7746720494
 30
0.0
  0
SEQEND
  8
0
  0
POLYLINE
  8
0
 62
7
 70
1
 66
1
 10
0.0
 20
0.0
 30
0.0
  0
VERTEX
  8
0
 10
-143.492819566
 20
-82.7746720494
 30
0.0
  0
VERTEX
  8
0
 10
-132.492819566
 20
-82.7746720494
 30
0.0
  0
VERTEX
  8
0
 10
-132.492819566
 20
-86.7746720494
 30
0.0
  0
VERTEX
  8
0
 10
-143.492819566
 20
-86.7746720494
 30
0.0
  0
SEQEND
  8
0
  0
ENDBLK
  0
BLOCK
  8
0
  2
SKETCH007
 70
0
 10
0.0
 20
0.0
 30
0.0
  3
SKETCH007
  0
POLYLINE
  8
0
 62
7
 70
1
 66
1
 10
0.0
 20
0.0
 30
0.0
  0
VERTEX
  8
0
 10
-151.548745386
 20
139.05044028
 30
0.0
  0
VERTEX
  8
0
 10
-151.548745386
 20
116.05044028
 30
0.0
  0
VERTEX
  8
0
 10
-135.048745386
 20
116.05044028
 30
0.0
  0
VERTEX
  8
0
 10
-135.048745386
 20
112.05044028
 30
0.0
  0
VERTEX
  8
0
 10
-124.048745386
 20
112.05044028
 30
0.0
  0
VERTEX
  8
0
 10
-124.048745386
 20
116.05044028
 30
0.0
  0
VERTEX
  8
0
 10
-107.548745386
 20
116.05044028
 30
0.0
  0
VERTEX
  8
0
 10
-107.548745386
 20
139.05044028
 30
0.0
  0
VERTEX
  8
0
 10
-124.048745386
 20
139.05044028
 30
0.0
  0
VERTEX
  8
0
 10
-124.048745386
 20
143.05044028
 30
0.0
  0
VERTEX
  8
0
 10
-135.048745386
 20
143.05044028
 30
0.0
  0
VERTEX
  8
0
 10
-135.048745386
 20
139.05044028
 30
0.0
  0
SEQEND
  8
0
  0
POLYLINE
  8
0
 62
7
 70
1
 66
1
 10
0.0
 20
0.0
 30
0.0
  0
VERTEX
  8
0
 10
-129.548745386
 20
129.05044028
 30
0.0
  0
VERTEX
  8
0
 10
-118.548745386
 20
129.05044028
 30
0.0
  0
VERTEX
  8
0
 10
-118.548745386
 20
125.05044028
 30
0.0
  0
VERTEX
  8
0
 10
-129.548745386
 20
125.05044028
 30
0.0
  0
SEQEND
  8
0
  0
ENDBLK
  0
BLOCK
  8
0
  2
SKETCH
 70
0
 10
0.0
 20
0.0
 30
0.0
  3
SKETCH
  0
POLYLINE
  8
0
 62
7
 70
1
 66
1
 10
0.0
 20
0.0
 30
0.0
  0
VERTEX
  8
0
 10
-153.319713006
 20
36.9841648732
 30
0.0
  0
VERTEX
  8
0
 10
-153.319713006
 20
25.9841648732
 30
0.0
  0
VERTEX
  8
0
 10
-149.319713006
 20
25.9841648732
 30
0.0
  0
VERTEX
  8
0
 10
-149.319713006
 20
14.9841648732
 30
0.0
  0
VERTEX
  8
0
 10
-20.3197130056
 20
14.9841648732
 30
0.0
  0
VERTEX
  8
0
 10
-20.3197130056
 20
36.9841648732
 30
0.0
  0
VERTEX
  8
0
 10
-16.3197130056
 20
36.9841648732
 30
0.0
  0
VERTEX
  8
0
 10
-16.3197130056
 20
47.9841648732
 30
0.0
  0
VERTEX
  8
0
 10
-20.3197130056
 20
47.9841648732
 30
0.0
  0
VERTEX
  8
0
 10
-20.3197130056
 20
58.9841648732
 30
0.0
  0
VERTEX
  8
0
 10
-149.319713006
 20
58.9841648732
 30
0.0
  0
VERTEX
  8
0
 10
-149.319713006
 20
36.9841648732
 30
0.0
  0
SEQEND
  8
0
  0
POLYLINE
  8
0
 62
7
 70
1
 66
1
 10
0.0
 20
0.0
 30
0.0
  0
VERTEX
  8
0
 10
-144.319713006
 20
53.9841648732
 30
0.0
  0
VERTEX
  8
0
 10
-138.319713006
 20
53.9841648732
 30
0.0
  0
VERTEX
  8
0
 10
-138.319713006
 20
48.9841648732
 30
0.0
  0
VERTEX
  8
0
 10
-144.319713006
 20
48.9841648732
 30
0.0
  0
SEQEND
  8
0
  0
POLYLINE
  8
0
 62
7
 70
1
 66
1
 10
0.0
 20
0.0
 30
0.0
  0
VERTEX
  8
0
 10
-144.319713006
 20
45.9841648732
 30
0.0
  0
VERTEX
  8
0
 10
-138.319713006
 20
45.9841648732
 30
0.0
  0
VERTEX
  8
0
 10
-138.319713006
 20
40.9841648732
 30
0.0
  0
VERTEX
  8
0
 10
-144.319713006
 20
40.9841648732
 30
0.0
  0
SEQEND
  8
0
  0
POLYLINE
  8
0
 62
7
 70
1
 66
1
 10
0.0
 20
0.0
 30
0.0
  0
VERTEX
  8
0
 10
-131.319713006
 20
53.9841648732
 30
0.0
  0
VERTEX
  8
0
 10
-125.319713006
 20
53.9841648732
 30
0.0
  0
VERTEX
  8
0
 10
-125.319713006
 20
48.9841648732
 30
0.0
  0
VERTEX
  8
0
 10
-131.319713006
 20
48.9841648732
 30
0.0
  0
SEQEND
  8
0
  0
POLYLINE
  8
0
 62
7
 70
1
 66
1
 10
0.0
 20
0.0
 30
0.0
  0
VERTEX
  8
0
 10
-131.319713006
 20
45.9841648732
 30
0.0
  0
VERTEX
  8
0
 10
-125.319713006
 20
45.9841648732
 30
0.0
  0
VERTEX
  8
0
 10
-125.319713006
 20
40.9841648732
 30
0.0
  0
VERTEX
  8
0
 10
-131.319713006
 20
40.9841648732
 30
0.0
  0
SEQEND
  8
0
  0
POLYLINE
  8
0
 62
7
 70
1
 66
1
 10
0.0
 20
0.0
 30
0.0
  0
VERTEX
  8
0
 10
-118.319713006
 20
53.9841648732
 30
0.0
  0
VERTEX
  8
0
 10
-112.319713006
 20
53.9841648732
 30
0.0
  0
VERTEX
  8
0
 10
-112.319713006
 20
48.9841648732
 30
0.0
  0
VERTEX
  8
0
 10
-118.319713006
 20
48.9841648732
 30
0.0
  0
SEQEND
  8
0
  0
POLYLINE
  8
0
 62
7
 70
1
 66
1
 10
0.0
 20
0.0
 30
0.0
  0
VERTEX
  8
0
 10
-118.319713006
 20
45.9841648732
 30
0.0
  0
VERTEX
  8
0
 10
-112.319713006
 20
45.9841648732
 30
0.0
  0
VERTEX
  8
0
 10
-112.319713006
 20
40.9841648732
 30
0.0
  0
VERTEX
  8
0
 10
-118.319713006
 20
40.9841648732
 30
0.0
  0
SEQEND
  8
0
  0
POLYLINE
  8
0
 62
7
 70
1
 66
1
 10
0.0
 20
0.0
 30
0.0
  0
VERTEX
  8
0
 10
-105.319713006
 20
53.9841648732
 30
0.0
  0
VERTEX
  8
0
 10
-99.3197130056
 20
53.9841648732
 30
0.0
  0
VERTEX
  8
0
 10
-99.3197130056
 20
48.9841648732
 30
0.0
  0
VERTEX
  8
0
 10
-105.319713006
 20
48.9841648732
 30
0.0
  0
SEQEND
  8
0
  0
POLYLINE
  8
0
 62
7
 70
1
 66
1
 10
0.0
 20
0.0
 30
0.0
  0
VERTEX
  8
0
 10
-105.319713006
 20
45.9841648732
 30
0.0
  0
VERTEX
  8
0
 10
-99.3197130056
 20
45.9841648732
 30
0.0
  0
VERTEX
  8
0
 10
-99.3197130056
 20
40.9841648732
 30
0.0
  0
VERTEX
  8
0
 10
-105.319713006
 20
40.9841648732
 30
0.0
  0
SEQEND
  8
0
  0
POLYLINE
  8
0
 62
7
 70
1
 66
1
 10
0.0
 20
0.0
 30
0.0
  0
VERTEX
  8
0
 10
-92.3197130056
 20
53.9841648732
 30
0.0
  0
VERTEX
  8
0
 10
-86.3197130056
 20
53.9841648732
 30
0.0
  0
VERTEX
  8
0
 10
-86.3197130056
 20
48.9841648732
 30
0.0
  0
VERTEX
  8
0
 10
-92.3197130056
 20
48.9841648732
 30
0.0
  0
SEQEND
  8
0
  0
POLYLINE
  8
0
 62
7
 70
1
 66
1
 10
0.0
 20
0.0
 30
0.0
  0
VERTEX
  8
0
 10
-92.3197130056
 20
45.9841648732
 30
0.0
  0
VERTEX
  8
0
 10
-86.3197130056
 20
45.9841648732
 30
0.0
  0
VERTEX
  8
0
 10
-86.3197130056
 20
40.9841648732
 30
0.0
  0
VERTEX
  8
0
 10
-92.3197130056
 20
40.9841648732
 30
0.0
  0
SEQEND
  8
0
  0
POLYLINE
  8
0
 62
7
 70
1
 66
1
 10
0.0
 20
0.0
 30
0.0
  0
VERTEX
  8
0
 10
-79.3197130056
 20
53.9841648732
 30
0.0
  0
VERTEX
  8
0
 10
-73.3197130056
 20
53.9841648732
 30
0.0
  0
VERTEX
  8
0
 10
-73.3197130056
 20
48.9841648732
 30
0.0
  0
VERTEX
  8
0
 10
-79.3197130056
 20
48.9841648732
 30
0.0
  0
SEQEND
  8
0
  0
POLYLINE
  8
0
 62
7
 70
1
 66
1
 10
0.0
 20
0.0
 30
0.0
  0
VERTEX
  8
0
 10
-79.3197130056
 20
45.9841648732
 30
0.0
  0
VERTEX
  8
0
 10
-73.3197130056
 20
45.9841648732
 30
0.0
  0
VERTEX
  8
0
 10
-73.3197130056
 20
40.9841648732
 30
0.0
  0
VERTEX
  8
0
 10
-79.3197130056
 20
40.9841648732
 30
0.0
  0
SEQEND
  8
0
  0
POLYLINE
  8
0
 62
7
 70
1
 66
1
 10
0.0
 20
0.0
 30
0.0
  0
VERTEX
  8
0
 10
-66.3197130056
 20
53.9841648732
 30
0.0
  0
VERTEX
  8
0
 10
-60.3197130056
 20
53.9841648732
 30
0.0
  0
VERTEX
  8
0
 10
-60.3197130056
 20
48.9841648732
 30
0.0
  0
VERTEX
  8
0
 10
-66.3197130056
 20
48.9841648732
 30
0.0
  0
SEQEND
  8
0
  0
POLYLINE
  8
0
 62
7
 70
1
 66
1
 10
0.0
 20
0.0
 30
0.0
  0
VERTEX
  8
0
 10
-66.3197130056
 20
45.9841648732
 30
0.0
  0
VERTEX
  8
0
 10
-60.3197130056
 20
45.9841648732
 30
0.0
  0
VERTEX
  8
0
 10
-60.3197130056
 20
40.9841648732
 30
0.0
  0
VERTEX
  8
0
 10
-66.3197130056
 20
40.9841648732
 30
0.0
  0
SEQEND
  8
0
  0
POLYLINE
  8
0
 62
7
 70
1
 66
1
 10
0.0
 20
0.0
 30
0.0
  0
VERTEX
  8
0
 10
-53.3197130056
 20
53.9841648732
 30
0.0
  0
VERTEX
  8
0
 10
-47.3197130056
 20
53.9841648732
 30
0.0
  0
VERTEX
  8
0
 10
-47.3197130056
 20
48.9841648732
 30
0.0
  0
VERTEX
  8
0
 10
-53.3197130056
 20
48.9841648732
 30
0.0
  0
SEQEND
  8
0
  0
POLYLINE
  8
0
 62
7
 70
1
 66
1
 10
0.0
 20
0.0
 30
0.0
  0
VERTEX
  8
0
 10
-53.3197130056
 20
45.9841648732
 30
0.0
  0
VERTEX
  8
0
 10
-47.3197130056
 20
45.9841648732
 30
0.0
  0
VERTEX
  8
0
 10
-47.3197130056
 20
40.9841648732
 30
0.0
  0
VERTEX
  8
0
 10
-53.3197130056
 20
40.9841648732
 30
0.0
  0
SEQEND
  8
0
  0
ENDBLK
  0
ENDSEC
  0
SECTION
  2
ENTITIES
  0
POLYLINE
  8
0
 62
7
 70
1
 66
1
 10
0.0
 20
0.0
 30
0.0
  0
VERTEX
  8
0
 10
-151.496502587
 20
159.126774343
 30
0.0
  0
VERTEX
  8
0
 10
-151.496502587
 20
145.126774343
 30
0.0
  0
VERTEX
  8
0
 10
-37.4965025874
 20
145.126774343
 30
0.0
  0
VERTEX
  8
0
 10
-37.4965025874
 20
136.126774343
 30
0.0
  0
VERTEX
  8
0
 10
-14.4965025874
 20
136.126774343
 30
0.0
  0
VERTEX
  8
0
 10
-14.4965025874
 20
159.126774343
 30
0.0
  0
VERTEX
  8
0
 10
-75.4965025874
 20
159.126774343
 30
0.0
  0
VERTEX
  8
0
 10
-75.4965025874
 20
163.126774343
 30
0.0
  0
VERTEX
  8
0
 10
-86.4965025874
 20
163.126774343
 30
0.0
  0
VERTEX
  8
0
 10
-86.4965025874
 20
159.126774343
 30
0.0
  0
SEQEND
  8
0
  0
INSERT
  2
SKETCH002
  8
0
 62
7
 10
0.0
 20
0.0
 30
0.0
  0
INSERT
  2
SKETCH007
  8
0
 62
7
 10
0.0
 20
0.0
 30
0.0
  0
POLYLINE
  8
0
 62
7
 70
1
 66
1
 10
0.0
 20
0.0
 30
0.0
  0
VERTEX
  8
0
 10
-90.4122057762
 20
106.273067781
 30
0.0
  0
VERTEX
  8
0
 10
-79.4122057762
 20
106.273067781
 30
0.0
  0
VERTEX
  8
0
 10
-79.4122057762
 20
110.273067781
 30
0.0
  0
VERTEX
  8
0
 10
-16.4122057762
 20
110.273067781
 30
0.0
  0
VERTEX
  8
0
 10
-16.4122057762
 20
93.7730677812
 30
0.0
  0
VERTEX
  8
0
 10
-20.4122057762
 20
93.7730677812
 30
0.0
  0
VERTEX
  8
0
 10
-20.4122057762
 20
82.7730677812
 30
0.0
  0
VERTEX
  8
0
 10
-16.4122057762
 20
82.7730677812
 30
0.0
  0
VERTEX
  8
0
 10
-16.4122057762
 20
66.2730677812
 30
0.0
  0
VERTEX
  8
0
 10
-79.4122057762
 20
66.2730677812
 30
0.0
  0
VERTEX
  8
0
 10
-79.4122057762
 20
70.2730677812
 30
0.0
  0
VERTEX
  8
0
 10
-90.4122057762
 20
70.2730677812
 30
0.0
  0
VERTEX
  8
0
 10
-90.4122057762
 20
66.2730677812
 30
0.0
  0
VERTEX
  8
0
 10
-153.412205776
 20
66.2730677812
 30
0.0
  0
VERTEX
  8
0
 10
-153.412205776
 20
82.7730677812
 30
0.0
  0
VERTEX
  8
0
 10
-149.412205776
 20
82.7730677812
 30
0.0
  0
VERTEX
  8
0
 10
-149.412205776
 20
93.7730677812
 30
0.0
  0
VERTEX
  8
0
 10
-153.412205776
 20
93.7730677812
 30
0.0
  0
VERTEX
  8
0
 10
-153.412205776
 20
110.273067781
 30
0.0
  0
VERTEX
  8
0
 10
-90.4122057762
 20
110.273067781
 30
0.0
  0
SEQEND
  8
0
  0
POLYLINE
  8
0
 62
7
 70
1
 66
1
 10
0.0
 20
0.0
 30
0.0
  0
VERTEX
  8
0
 10
-20.6343697077
 20
-19.0528538919
 30
0.0
  0
VERTEX
  8
0
 10
-24.6343697077
 20
-19.0528538919
 30
0.0
  0
VERTEX
  8
0
 10
-24.6343697077
 20
-30.0528538919
 30
0.0
  0
VERTEX
  8
0
 10
-20.6343697077
 20
-30.0528538919
 30
0.0
  0
VERTEX
  8
0
 10
-20.6343697077
 20
-46.5528538919
 30
0.0
  0
VERTEX
  8
0
 10
-157.634369708
 20
-46.5528538919
 30
0.0
  0
VERTEX
  8
0
 10
-157.634369708
 20
-30.0528538919
 30
0.0
  0
VERTEX
  8
0
 10
-153.634369708
 20
-30.0528538919
 30
0.0
  0
VERTEX
  8
0
 10
-153.634369708
 20
-19.0528538919
 30
0.0
  0
VERTEX
  8
0
 10
-157.634369708
 20
-19.0528538919
 30
0.0
  0
VERTEX
  8
0
 10
-157.634369708
 20
-2.55285389193
 30
0.0
  0
VERTEX
  8
0
 10
-20.6343697077
 20
-2.55285389193
 30
0.0
  0
SEQEND
  8
0
  0
POLYLINE
  8
0
 62
7
 70
1
 66
1
 10
0.0
 20
0.0
 30
0.0
  0
VERTEX
  8
0
 10
-158.186080428
 20
-52.8047696566
 30
0.0
  0
VERTEX
  8
0
 10
-158.186080428
 20
-66.8047696566
 30
0.0
  0
VERTEX
  8
0
 10
-44.1860804277
 20
-66.8047696566
 30
0.0
  0
VERTEX
  8
0
 10
-44.1860804277
 20
-75.8047696566
 30
0.0
  0
VERTEX
  8
0
 10
-21.1860804277
 20
-75.8047696566
 30
0.0
  0
VERTEX
  8
0
 10
-21.1860804277
 20
-52.8047696566
 30
0.0
  0
VERTEX
  8
0
 10
-82.1860804277
 20
-52.8047696566
 30
0.0
  0
VERTEX
  8
0
 10
-82.1860804277
 20
-48.8047696566
 30
0.0
  0
VERTEX
  8
0
 10
-93.1860804277
 20
-48.8047696566
 30
0.0
  0
VERTEX
  8
0
 10
-93.1860804277
 20
-52.8047696566
 30
0.0
  0
SEQEND
  8
0
  0
POLYLINE
  8
0
 62
7
 70
1
 66
1
 10
0.0
 20
0.0
 30
0.0
  0
VERTEX
  8
0
 10
-60.3328740524
 20
11.0802515674
 30
0.0
  0
VERTEX
  8
0
 10
-16.3328740524
 20
11.0802515674
 30
0.0
  0
VERTEX
  8
0
 10
-16.3328740524
 20
2.08025156744
 30
0.0
  0
VERTEX
  8
0
 10
-60.3328740524
 20
2.08025156744
 30
0.0
  0
SEQEND
  8
0
  0
POLYLINE
  8
0
 62
7
 70
1
 66
1
 10
0.0
 20
0.0
 30
0.0
  0
VERTEX
  8
0
 10
-155.095748052
 20
11.6918295674
 30
0.0
  0
VERTEX
  8
0
 10
-111.095748052
 20
11.6918295674
 30
0.0
  0
VERTEX
  8
0
 10
-111.095748052
 20
2.69182956744
 30
0.0
  0
VERTEX
  8
0
 10
-155.095748052
 20
2.69182956744
 30
0.0
  0
SEQEND
  8
0
  0
POLYLINE
  8
0
 62
7
 70
1
 66
1
 10
0.0
 20
0.0
 30
0.0
  0
VERTEX
  8
0
 10
-107.727397052
 20
11.2752775674
 30
0.0
  0
VERTEX
  8
0
 10
-63.7273970524
 20
11.2752775674
 30
0.0
  0
VERTEX
  8
0
 10
-63.7273970524
 20
2.27527756744
 30
0.0
  0
VERTEX
  8
0
 10
-107.727397052
 20
2.27527756744
 30
0.0
  0
SEQEND
  8
0
  0
INSERT
  2
SKETCH
  8
0
 62
7
 10
0.0
 20
0.0
 30
0.0
  0
POLYLINE
  8
0
 62
7
 70
1
 66
1
 10
0.0
 20
0.0
 30
0.0
  0
VERTEX
  8
0
 10
-100.217552052
 20
-80.8472424326
 30
0.0
  0
VERTEX
  8
0
 10
-56.2175520524
 20
-80.8472424326
 30
0.0
  0
VERTEX
  8
0
 10
-56.2175520524
 20
-89.8472424326
 30
0.0
  0
VERTEX
  8
0
 10
-100.217552052
 20
-89.8472424326
 30
0.0
  0
SEQEND
  8
0
  0
POLYLINE
  8
0
 62
7
 70
1
 66
1
 10
0.0
 20
0.0
 30
0.0
  0
VERTEX
  8
0
 10
-100.309064052
 20
-69.0595524326
 30
0.0
  0
VERTEX
  8
0
 10
-56.3090640524
 20
-69.0595524326
 30
0.0
  0
VERTEX
  8
0
 10
-56.3090640524
 20
-78.0595524326
 30
0.0
  0
VERTEX
  8
0
 10
-100.309064052
 20
-78.0595524326
 30
0.0
  0
SEQEND
  8
0
  0
POLYLINE
  8
0
 62
7
 70
1
 66
1
 10
0.0
 20
0.0
 30
0.0
  0
VERTEX
  8
0
 10
-58.6338690524
 20
125.944302567
 30
0.0
  0
VERTEX
  8
0
 10
-14.6338690524
 20
125.944302567
 30
0.0
  0
VERTEX
  8
0
 10
-14.6338690524
 20
116.944302567
 30
0.0
  0
VERTEX
  8
0
 10
-58.6338690524
 20
116.944302567
 30
0.0
  0
SEQEND
  8
0
  0
POLYLINE
  8
0
 62
7
 70
1
 66
1
 10
0.0
 20
0.0
 30
0.0
  0
VERTEX
  8
0
 10
-105.350780052
 20
125.868798567
 30
0.0
  0
VERTEX
  8
0
 10
-61.3507800524
 20
125.868798567
 30
0.0
  0
VERTEX
  8
0
 10
-61.3507800524
 20
116.868798567
 30
0.0
  0
VERTEX
  8
0
 10
-105.350780052
 20
116.868798567
 30
0.0
  0
SEQEND
  8
0
  0
POLYLINE
  8
0
 62
7
 70
1
 66
1
 10
0.0
 20
0.0
 30
0.0
  0
VERTEX
  8
0
 10
-105.029945052
 20
137.946362567
 30
0.0
  0
VERTEX
  8
0
 10
-61.0299450524
 20
137.946362567
 30
0.0
  0
VERTEX
  8
0
 10
-61.0299450524
 20
128.946362567
 30
0.0
  0
VERTEX
  8
0
 10
-105.029945052
 20
128.946362567
 30
0.0
  0
SEQEND
  8
0
  0
ENDSEC
  0
EOF
